<svg id="Layer_1" data-name="Layer 1" xmlns="http://www.w3.org/2000/svg" viewBox="0 0 32 32"><title>BusinessUnit_large</title><path d="M28,16H19V1a1,1,0,0,0-1-1H4A1,1,0,0,0,3,1V31a1,1,0,0,0,1,1H9V28h2v4H28a1,1,0,0,0,1-1V17A1,1,0,0,0,28,16Z" fill="#407fb9"/><rect x="6" y="4" width="2" height="2" fill="#fff"/><rect x="10" y="4" width="2" height="2" fill="#fff"/><rect x="14" y="4" width="2" height="2" fill="#fff"/><rect x="6" y="8" width="2" height="2" fill="#fff"/><rect x="10" y="8" width="2" height="2" fill="#fff"/><rect x="14" y="8" width="2" height="2" fill="#fff"/><rect x="6" y="12" width="2" height="2" fill="#fff"/><rect x="10" y="12" width="2" height="2" fill="#fff"/><rect x="14" y="12" width="2" height="2" fill="#fff"/><rect x="6" y="16" width="2" height="2" fill="#fff"/><rect x="10" y="16" width="2" height="2" fill="#fff"/><rect x="14" y="16" width="2" height="2" fill="#fff"/><rect x="6" y="20" width="2" height="2" fill="#fff"/><rect x="10" y="20" width="2" height="2" fill="#fff"/><rect x="14" y="20" width="2" height="2" fill="#fff"/><rect x="14" y="24" width="2" height="2" fill="#fff"/><rect x="20" y="20" width="2" height="2" fill="#fff"/><rect x="24" y="20" width="2" height="2" fill="#fff"/><rect x="24" y="24" width="2" height="2" fill="#fff"/><rect x="20" y="24" width="2" height="2" fill="#fff"/></svg>