<svg id="Layer_1" data-name="Layer 1" xmlns="http://www.w3.org/2000/svg" viewBox="0 0 16 16"><title>Action_ChartAddReviewStage_small_3143035106d04138a00a4794d9c93020</title><polygon points="13 15 3 15 3 1 11.5 1 13 2.5 13 15" fill="#fff"/><path d="M11,1l2,2H11V1M10,0V3a1,1,0,0,0,1,1h3V2.6L11.4,0H10Z" fill="#798288"/><polygon points="12 11 6 11 6 14 12 14 12 16 16 12.5 12 9 12 11" fill="#407fb9"/><polygon points="14 8.92 14 3 13 3 13 8.04 14 8.92" fill="#798288"/><path d="M11,15H3V1h7.94V0H3A1,1,0,0,0,2,1V15a1,1,0,0,0,1,1h8V15Z" fill="#798288"/><rect x="4" y="6" width="8" height="1" fill="#adb1b2"/><rect x="4" y="8" width="7" height="1" fill="#adb1b2"/></svg>