<svg id="Layer_1" data-name="Layer 1" xmlns="http://www.w3.org/2000/svg" viewBox="0 0 32 32"><title>Action_ChartAddReviewStage_large_3143035106d04138a00a4794d9c93020</title><polygon points="23 29 5 29 5 2 21 2 25 6 25 21 23 29" fill="#fff"/><path d="M25,6H21V2M19,0V7a1,1,0,0,0,1,1h7Z" fill="#9da2a5"/><rect x="7" y="23" width="6" height="2" fill="#adb1b2"/><rect x="7" y="19" width="15" height="2" fill="#adb1b2"/><rect x="14" y="22" width="13" height="6" fill="#407fb9"/><polygon points="32 25 23 31 23 19 32 25" fill="#407fb9"/><path d="M5,2H20l5,5V18l2,1.33V6.5L20.5,0H4A1,1,0,0,0,3,1V30a1,1,0,0,0,1,1H22V29H5V2Z" fill="#9da2a5"/><rect x="7" y="15" width="15" height="2" fill="#adb1b2"/><rect x="7" y="11" width="15" height="2" fill="#adb1b2"/></svg>