<svg id="Layer_1" data-name="Layer 1" xmlns="http://www.w3.org/2000/svg" viewBox="0 0 16 16"><title>resolution_print_small</title><polygon points="13 15 3 15 3 1 11.5 1 13 2.5 13 15" fill="#fff"/><path d="M7,15H3V1h7V3a1,1,0,0,0,1,1h2V6h1V2.6L11.4,0H3A1,1,0,0,0,2,1V15a1,1,0,0,0,1,1H7ZM11,1l2,2H11Z" fill="#798288"/><rect x="8" y="7" width="6" height="5" fill="#fff"/><path d="M13,8v3H9V8h4m1-1H8v5h6V7Z" fill="#798288"/><path d="M6.5,9h9a.5.5,0,0,1,.5.5V14a0,0,0,0,1,0,0H6a0,0,0,0,1,0,0V9.5A.5.5,0,0,1,6.5,9Z" fill="#fff"/><path d="M15,10v3H7V10h8m.5-1h-9a.5.5,0,0,0-.5.5V14H16V9.5a.5.5,0,0,0-.5-.5Z" fill="#576672"/><rect x="8" y="11" width="6" height="5" fill="#fff"/><path d="M13,12v3H9V12h4m1-1H8v5h6V11Z" fill="#798288"/><rect x="10" y="13" width="2" height="1" fill="#adb1b2"/><polygon points="14 10 8 10 7 10 7 11 7 13 8 13 8 12 14 12 14 13 15 13 15 11 15 10 14 10" fill="#fff"/><rect x="8" y="11" width="6" height="1" fill="#6fa6d4"/></svg>