<svg id="Layer_1" data-name="Layer 1" xmlns="http://www.w3.org/2000/svg" viewBox="0 0 32 32"><title>documentkind_32</title><polygon points="26 29 6 29 6 2 22 2 26 6 26 29" fill="#fff"/><path d="M26,6H22V2M20,0V7a1,1,0,0,0,1,1h7Z" fill="#9da2a5"/><rect x="8" y="15" width="16" height="2" fill="#adb1b2"/><rect x="8" y="11" width="16" height="2" fill="#adb1b2"/><rect x="8" y="19" width="16" height="2" fill="#adb1b2"/><rect x="8" y="23" width="16" height="2" fill="#adb1b2"/><path d="M2,7H6A0,0,0,0,1,6,7v5a0,0,0,0,1,0,0H2a1,1,0,0,1-1-1V8A1,1,0,0,1,2,7Z" fill="#d7853c"/><path d="M2,13H6a0,0,0,0,1,0,0v5a0,0,0,0,1,0,0H2a1,1,0,0,1-1-1V14A1,1,0,0,1,2,13Z" fill="#75ad15"/><path d="M2,19H6a0,0,0,0,1,0,0v5a0,0,0,0,1,0,0H2a1,1,0,0,1-1-1V20A1,1,0,0,1,2,19Z" fill="#407fb9"/><path d="M21.5,0H5A1,1,0,0,0,4,1V6H6V2H21l5,5V29H6V25H4v5a1,1,0,0,0,1,1H27a1,1,0,0,0,1-1V6.5Z" fill="#9da2a5"/></svg>