<svg id="Layer_1" data-name="Layer 1" xmlns="http://www.w3.org/2000/svg" viewBox="0 0 32 32"><title>Control_large</title><path d="M15.74,30c-0.44,0-.88,0-1.31-0.08a1,1,0,0,0-.12-0.24,17,17,0,0,1-1.94-3.41,3.27,3.27,0,0,1-.18-0.42c-0.29-.68-0.56-1.4-0.82-2.18l0.95-.23a3.53,3.53,0,0,1,3.17-2.08,3.29,3.29,0,0,1,2.44,1.11l0.71,0.74a16.76,16.76,0,0,1,2,.38c-0.14.44-.29,0.85-0.44,1.26l0.5,0.52,2.47-3.28A31.62,31.62,0,0,0,24,17h3l0.72-1A3.36,3.36,0,0,1,29,15H24a22.87,22.87,0,0,0-.65-5.19,29,29,0,0,0,4-1.94,13.87,13.87,0,0,1,2.59,6.88,3.33,3.33,0,0,1,.47-0.05h0a3.34,3.34,0,0,1,1.56.4A16,16,0,1,0,16,32c0.54,0,1.08,0,1.6-.08Zm5.47-8.39A22.8,22.8,0,0,0,16,21H15.8a19.25,19.25,0,0,0-5,.69A27.48,27.48,0,0,1,10.06,17H21.94A27.71,27.71,0,0,1,21.21,21.6ZM10,15a19.77,19.77,0,0,1,.63-4.63,20.31,20.31,0,0,0,5.15.63H16a24.21,24.21,0,0,0,5.39-.6A19.88,19.88,0,0,1,22,15H10ZM25.93,6.21a26.85,26.85,0,0,1-3.16,1.6,28.06,28.06,0,0,0-2.31-5A14.17,14.17,0,0,1,25.93,6.21ZM14.43,2.1a12.7,12.7,0,0,1,3.17,0,1,1,0,0,0,.07.16A28.94,28.94,0,0,1,20.8,8.45,20.75,20.75,0,0,1,16,9a17.74,17.74,0,0,1-4.74-.62,29.38,29.38,0,0,1,3.12-6.11A1,1,0,0,0,14.43,2.1Zm-2.87.65a28.37,28.37,0,0,0-2.31,5,22.55,22.55,0,0,1-3.2-1.52A14.17,14.17,0,0,1,11.57,2.75ZM4.67,7.87a24.34,24.34,0,0,0,4,1.89A22.59,22.59,0,0,0,8,15H2.05A13.87,13.87,0,0,1,4.67,7.87ZM2.05,17h6a31.32,31.32,0,0,0,.83,5.29,28.79,28.79,0,0,0-4.15,1.92A13.87,13.87,0,0,1,2.05,17Zm4.09,8.88a26.5,26.5,0,0,1,3.29-1.58,26.44,26.44,0,0,0,2.06,4.93A14.17,14.17,0,0,1,6.14,25.88Z" fill="#6fa6d4"/><path d="M21.26,32a1.35,1.35,0,0,1-1-.42l-5.66-5.89a1.29,1.29,0,0,1,0-1.88,1.34,1.34,0,0,1,2,0l4.43,4.61,8.41-11.17A1.35,1.35,0,0,1,31.47,17a1.47,1.47,0,0,1,.23,2L22.34,31.45a1.36,1.36,0,0,1-1,.55H21.26Z" fill="#d65633"/></svg>