<svg id="Layer_1" data-name="Layer 1" xmlns="http://www.w3.org/2000/svg" viewBox="0 0 16 16"><title>Control_small</title><path d="M4.68,13.35a6.48,6.48,0,0,1-1.75-1.24A10.56,10.56,0,0,1,4,11.64a2.32,2.32,0,0,1,.66-1.52,2.47,2.47,0,0,1,.57-0.43A16.8,16.8,0,0,1,5,8h5a16.14,16.14,0,0,1-.29,2.2A12.56,12.56,0,0,0,7.92,10l0.13,0.12,0.93,1,0.51,0.07c0,0.12-.07.23-0.11,0.35l0.05,0.05,1.38-1.83C10.91,9.17,11,8.59,11,8h1.11l0.75-1H11.05a12,12,0,0,0-.23-2.43,10,10,0,0,0,1.95-.86,6.46,6.46,0,0,1,1,2.22,2.26,2.26,0,0,1,.93-0.43,7.5,7.5,0,1,0-8.58,9.36ZM5,7a11.3,11.3,0,0,1,.2-2.24A10.69,10.69,0,0,0,7.4,5H7.51a13.76,13.76,0,0,0,2.35-.21A11,11,0,0,1,10.05,7H5Zm7.12-4.07a8.58,8.58,0,0,1-1.53.67,11.42,11.42,0,0,0-1-2.23A6.51,6.51,0,0,1,12.11,2.93ZM6.73,1.06h0a6,6,0,0,1,1.54,0h0A11,11,0,0,1,9.61,3.82,12.88,12.88,0,0,1,7.49,4a9.73,9.73,0,0,1-2.06-.21A10.68,10.68,0,0,1,6.73,1.06ZM5.4,1.36a11.16,11.16,0,0,0-.94,2.19,10.36,10.36,0,0,1-1.57-.62A6.51,6.51,0,0,1,5.4,1.36ZM2.23,3.71a11.06,11.06,0,0,0,2,.8A12.23,12.23,0,0,0,4,7H1A6.45,6.45,0,0,1,2.23,3.71ZM1,8H4a18,18,0,0,0,.32,2.48,11.79,11.79,0,0,0-2.09.86A6.45,6.45,0,0,1,1,8Z" fill="#6fa6d4"/><path d="M9.65,16a0.8,0.8,0,0,1-.58-0.25L5.73,12.27a0.76,0.76,0,0,1,0-1.11,0.79,0.79,0,0,1,1.21,0l2.62,2.73,5-6.6a0.8,0.8,0,0,1,1.14-.14,0.87,0.87,0,0,1,.14,1.19l-5.54,7.35A0.8,0.8,0,0,1,9.7,16h0Z" fill="#d65633"/></svg>