<svg id="Layer_1" data-name="Layer 1" xmlns="http://www.w3.org/2000/svg" viewBox="0 0 32 32"><title>fill</title><rect x="2" y="5" width="28" height="21" fill="#fff"/><path d="M31,3H1A1,1,0,0,0,0,4V27a1,1,0,0,0,1,1H12l2-2H2V5H30V26H27l-2,2h6a1,1,0,0,0,1-1V4A1,1,0,0,0,31,3Z" fill="#9da2a5"/><rect x="4" y="8" width="24" height="4" fill="#7da7b5"/><rect x="4" y="14" width="7" height="2" fill="#667f94"/><rect x="12" y="14" width="16" height="2" fill="#667f94"/><rect x="4" y="17" width="7" height="2" fill="#667f94"/><path d="M14.8,27.53L14,31l3.31-1L27.8,19.52a0.91,0.91,0,0,0,0-1.29c-1.91-1.91-1.12-1-1.22-1.15a0.89,0.89,0,0,0-1.29,0Z" fill="#576672"/><path d="M23.88,24.5a0.5,0.5,0,0,1-.35-0.15l-3-3a0.5,0.5,0,0,1,.71-0.71l3,3A0.5,0.5,0,0,1,23.88,24.5Z" fill="#fff"/><path d="M23.49,27a0.35,0.35,0,0,1-.25-0.6l3.95-3.95c0.05-.06.35-0.48-0.26-1.12a7.56,7.56,0,0,1-.72-0.69,0.35,0.35,0,0,1,.51-0.48,7.64,7.64,0,0,0,.66.64,1.5,1.5,0,0,1,.31,2.13l-4,4A0.35,0.35,0,0,1,23.49,27Z" fill="#576672"/><polygon points="21 19 12 19 12 17 23 17 21 19" fill="#667f94"/></svg>