<svg id="Layer_1" data-name="Layer 1" xmlns="http://www.w3.org/2000/svg" viewBox="0 0 16 16"><title>Fill_small</title><rect x="1" y="2" width="14" height="11" fill="#fff"/><rect x="2" y="4" width="12" height="2" fill="#7da7b5"/><polygon points="8 8 2 8 2 7 9 7 8 8" fill="#667f94"/><path d="M5.45,13.1L5,15l1.88-.52,6-5.94a0.51,0.51,0,0,0,0-.73c-1.08-1.08-.64-0.59-0.69-0.65a0.51,0.51,0,0,0-.73,0Z" fill="#576672"/><path d="M11.12,10.36L9.75,9c-0.13-.13-0.3-0.26-0.17-0.39s0.22-.07.36,0.07L11.31,10l0,0Z" fill="#fff"/><path d="M10.35,13a0.35,0.35,0,0,1-.25-0.6l2.15-2.15a0.45,0.45,0,0,0,0-.61,3.93,3.93,0,0,1-.41-0.39,0.35,0.35,0,0,1,.51-0.48,4.26,4.26,0,0,0,.35.34,1.16,1.16,0,0,1,.07,1.61L10.6,12.91A0.35,0.35,0,0,1,10.35,13Z" fill="#576672"/><path d="M15,1H1A1,1,0,0,0,0,2V13a1,1,0,0,0,1,1H4V13H1V2H15V13H12l-1,1h4a1,1,0,0,0,1-1V2A1,1,0,0,0,15,1Z" fill="#798288"/></svg>