<svg id="Layer_1" data-name="Layer 1" xmlns="http://www.w3.org/2000/svg" viewBox="0 0 32 32"><title>ActionItems_b85ffba96c17491988944f625be25812</title><rect x="10" y="2" width="17" height="20" fill="#fff"/><rect x="24" width="1" height="3" rx="0.5" ry="0.5" fill="#9da2a5"/><rect x="12" width="1" height="3" rx="0.5" ry="0.5" fill="#9da2a5"/><rect x="2" y="9" width="17" height="20" fill="#fff"/><rect x="16" y="7" width="1" height="3" rx="0.5" ry="0.5" fill="#9da2a5"/><circle cx="23.5" cy="23.5" r="8" fill="#fff"/><path d="M23.5,16.2a7.3,7.3,0,1,1-7.3,7.3,7.31,7.31,0,0,1,7.3-7.3m0-1.2A8.5,8.5,0,1,0,32,23.5,8.5,8.5,0,0,0,23.5,15h0Z" fill="#956939"/><path d="M27.5,23H24V18.5a0.5,0.5,0,0,0-1,0V24h4.5A0.5,0.5,0,0,0,27.5,23Z" fill="#9da2a5"/><path d="M20,8H18V9.5a1.5,1.5,0,0,1-3,0V8H6V9.5a1.5,1.5,0,0,1-3,0V8H1A1,1,0,0,0,0,9V30a1,1,0,0,0,1,1H16.59A10.53,10.53,0,0,1,15,29H2V13H19v1h2V9A1,1,0,0,0,20,8Z" fill="#9da2a5"/><rect x="4" y="7" width="1" height="3" rx="0.5" ry="0.5" fill="#9da2a5"/><path d="M27,14a10.44,10.44,0,0,1,2,1V2a1,1,0,0,0-1-1H26V2.5a1.5,1.5,0,0,1-3,0V1H14V2.5a1.5,1.5,0,0,1-3,0V1H9A1,1,0,0,0,8,2V7h2V6H27v8Z" fill="#9da2a5"/></svg>