<svg id="Layer_1" data-name="Layer 1" xmlns="http://www.w3.org/2000/svg" viewBox="0 0 32 32"><title>action_showreports_0278f4751c9c49088ef74bd8d4b88c9f_32</title><rect x="2" y="5" width="27" height="21" fill="#fff"/><path d="M29,5V26H2V5H30m0-2H1A1,1,0,0,0,0,4V27a1,1,0,0,0,1,1H30a1,1,0,0,0,1-1V4a1,1,0,0,0-1-1h0Z" fill="#9da2a5"/><rect x="6" y="14" width="4" height="10" fill="#6fa6d4"/><rect x="11" y="8" width="4" height="16" fill="#f39500"/><rect x="16" y="11" width="4" height="13" fill="#6fb205"/><rect x="21" y="16" width="4" height="8" fill="#6fa6d4"/></svg>