<svg width="32" height="32" viewBox="0 0 32 32" fill="none" xmlns="http://www.w3.org/2000/svg">
<path d="M26 29H6V2H22L26 6V29Z" fill="white"/>
<path d="M26 6H22V2L26 6ZM20 0V7C20 7.26522 20.1054 7.51957 20.2929 7.70711C20.4804 7.89464 20.7348 8 21 8H28L20 0Z" fill="#9DA2A5"/>
<path d="M24 11H8V13H24V11Z" fill="#ADB1B2"/>
<path d="M21 15H8V17H21V15Z" fill="#ADB1B2"/>
<path d="M21 19H8V21H21V19Z" fill="#ADB1B2"/>
<path d="M21 23H8V25H21V23Z" fill="#ADB1B2"/>
<path d="M17 29H6V2H21L26 7V14H28V6.5L21.5 0H5C4.73478 0 4.48043 0.105357 4.29289 0.292893C4.10536 0.48043 4 0.734784 4 1V30C4 30.2652 4.10536 30.5196 4.29289 30.7071C4.48043 30.8946 4.73478 31 5 31H17V29Z" fill="#9DA2A5"/>
<path d="M31 29H18V31H31V29Z" fill="#798288"/>
<path d="M25.83 21.81C25.83 21.81 28.9 15.52 25.21 15H23.73C20 15.52 23.11 21.81 23.11 21.81C23.11 21.81 23.52 27 19 27C18.7395 27.0144 18.4934 27.1243 18.3089 27.3089C18.1243 27.4934 18.0144 27.7395 18 28H31C30.9756 27.743 30.8624 27.5026 30.6799 27.3201C30.4974 27.1376 30.257 27.0244 30 27C25.5 27 25.83 21.81 25.83 21.81Z" fill="#956939"/>
</svg>
