<svg width="16" height="16" viewBox="0 0 16 16" fill="none" xmlns="http://www.w3.org/2000/svg">
<g clip-path="url(#clip0_19177_13834)">
<path d="M13 15H3V1H11.5L13 2.5V15Z" fill="white"/>
<path d="M11.4 0H3C2.73478 0 2.48043 0.105357 2.29289 0.292893C2.10536 0.48043 2 0.734784 2 1V15C2 15.2652 2.10536 15.5196 2.29289 15.7071C2.48043 15.8946 2.73478 16 3 16H8V15H3V1H10V3C10 3.26522 10.1054 3.51957 10.2929 3.70711C10.4804 3.89464 10.7348 4 11 4H13V6H14V2.6L11.4 0ZM11 3V1L13 3H11Z" fill="#798288"/>
<path d="M16 15H9V16H16V15Z" fill="#798288"/>
<path d="M13.5 10.6669C13.5 10.6669 13.9723 9.51561 14 8.5C14.0198 7.77367 13.8285 7.11675 13 7H12C11.2027 7.19934 11.0016 7.82256 11 8.5C10.9976 9.52179 11.5 10.6669 11.5 10.6669C11.5 10.6669 12 13 10 13C9 13 9 13.5 9 14H16C16 13 15.5 13 15 13C13 13 13.5 10.6669 13.5 10.6669Z" fill="#956939"/>
</g>
<defs>
<clipPath id="clip0_19177_13834">
<rect width="16" height="16" fill="white"/>
</clipPath>
</defs>
</svg>
