<svg id="Layer_1" data-name="Layer 1" xmlns="http://www.w3.org/2000/svg" viewBox="0 0 16 16"><title>multipleRecipients_16</title><rect x="5" y="1" width="10" height="8" fill="#fff"/><path d="M15.55,1.09a30.29,30.29,0,0,1-3.68,3.19A3.71,3.71,0,0,1,10,5a4.05,4.05,0,0,1-2-.73A29.23,29.23,0,0,1,4.51,1.14L4,2A28.08,28.08,0,0,0,7.52,5.15,4.93,4.93,0,0,0,10,6a4.63,4.63,0,0,0,2.39-.85A30.07,30.07,0,0,0,16,2Z" fill="#cc9823"/><path d="M15,0H5A1,1,0,0,0,4,1V5H5V1H15V9H14v1h1a1,1,0,0,0,1-1V1A1,1,0,0,0,15,0Z" fill="#cc9823"/><rect x="5" y="5" width="9" height="4" fill="#fff"/><path d="M12,7v8H1V7H12m0-1H1A1,1,0,0,0,0,7v8a1,1,0,0,0,1,1H12a1,1,0,0,0,1-1V7a1,1,0,0,0-1-1Z" fill="#cc9823"/><rect x="1" y="7" width="11" height="8" fill="#fff"/><path d="M1.5,15a.47.47,0,0,1-.35-.15.48.48,0,0,1,0-.7l3.26-3.27a.5.5,0,1,1,.71.71L1.85,14.85A.47.47,0,0,1,1.5,15Z" fill="#cc9823"/><path d="M11.5,15a.47.47,0,0,1-.35-.15L7.93,11.59a.5.5,0,0,1,0-.71.51.51,0,0,1,.71,0l3.21,3.27a.48.48,0,0,1,0,.7A.47.47,0,0,1,11.5,15Z" fill="#cc9823"/><path d="M12.43,7.09a31.66,31.66,0,0,1-3.88,3.19,4.07,4.07,0,0,1-2,.72,4.46,4.46,0,0,1-2.1-.73,27,27,0,0,1-3.66-3l-.54.86a26,26,0,0,0,3.72,3A5.41,5.41,0,0,0,6.53,12a5,5,0,0,0,2.52-.85A31.12,31.12,0,0,0,12.91,8Z" fill="#cc9823"/></svg>