<svg width="32" height="32" viewBox="0 0 32 32" fill="none" xmlns="http://www.w3.org/2000/svg">
<g clip-path="url(#clip0_19188_13790)">
<path fill-rule="evenodd" clip-rule="evenodd" d="M11.7035 29.33C12.0226 29.4621 12.3646 29.5301 12.7101 29.53H12.8701C13.241 29.5077 13.603 29.4071 13.9322 29.2347C14.2615 29.0623 14.5504 28.8222 14.7801 28.53L17 25.6944V20C17 18.3431 18.3431 17 20 17H23.8068L31.4401 7.25C31.871 6.701 32.0663 6.00328 31.9828 5.31034C31.8994 4.61739 31.5441 3.98598 30.9951 3.555C30.4461 3.12402 29.7483 2.92879 29.0554 3.01224C28.3624 3.09569 27.731 3.451 27.3001 4L12.4901 23L4.49005 15C3.98779 14.5756 3.34476 14.3547 2.68772 14.381C2.03068 14.4072 1.4073 14.6786 0.940453 15.1417C0.473608 15.6047 0.197169 16.2259 0.165627 16.8827C0.134086 17.5395 0.349729 18.1843 0.770052 18.69L10.8501 28.76C11.0943 29.0042 11.3843 29.1979 11.7035 29.33Z" fill="#6FB205"/>
<mask id="path-2-outside-1_19188_13790" maskUnits="userSpaceOnUse" x="18" y="18" width="14" height="14" fill="black">
<rect fill="white" x="18" y="18" width="14" height="14"/>
<path fill-rule="evenodd" clip-rule="evenodd" d="M20 19C19.4477 19 19 19.4477 19 20V27C19 27.5523 19.4477 28 20 28H22V30L25 28H30C30.5523 28 31 27.5523 31 27V20C31 19.4477 30.5523 19 30 19H20Z"/>
</mask>
<path fill-rule="evenodd" clip-rule="evenodd" d="M20 19C19.4477 19 19 19.4477 19 20V27C19 27.5523 19.4477 28 20 28H22V30L25 28H30C30.5523 28 31 27.5523 31 27V20C31 19.4477 30.5523 19 30 19H20Z" fill="white"/>
<path d="M22 28H23V27H22V28ZM22 30H21V31.8685L22.5547 30.8321L22 30ZM25 28V27H24.6972L24.4453 27.1679L25 28ZM20 20V20V18C18.8954 18 18 18.8954 18 20H20ZM20 27V20H18V27H20ZM20 27H20H18C18 28.1046 18.8954 29 20 29V27ZM22 27H20V29H22V27ZM23 30V28H21V30H23ZM24.4453 27.1679L21.4453 29.1679L22.5547 30.8321L25.5547 28.8321L24.4453 27.1679ZM30 27H25V29H30V27ZM30 27V29C31.1046 29 32 28.1046 32 27H30ZM30 20V27H32V20H30ZM30 20H32C32 18.8954 31.1046 18 30 18V20ZM20 20H30V18H20V20Z" fill="#798288" mask="url(#path-2-outside-1_19188_13790)"/>
<rect x="20" y="21" width="10" height="1" fill="#798288"/>
<rect x="20" y="23" width="10" height="1" fill="#798288"/>
<rect x="20" y="25" width="6" height="1" fill="#798288"/>
</g>
<defs>
<clipPath id="clip0_19188_13790">
<rect width="32" height="32" fill="white"/>
</clipPath>
</defs>
</svg>
