<svg width="16" height="16" viewBox="0 0 16 16" fill="none" xmlns="http://www.w3.org/2000/svg">
<path fill-rule="evenodd" clip-rule="evenodd" d="M5.84595 14.8981C6.00558 14.965 6.17689 14.9997 6.34998 15V14.98H6.38998C6.58323 14.9756 6.77311 14.9285 6.946 14.842C7.11889 14.7556 7.27051 14.632 7.38998 14.48L7.65325 14.1448C7.28318 13.7309 7 13.1602 7 12.521L7.00003 10.7427L6.24998 11.7L2.24998 7.69999C1.9967 7.45732 1.65739 7.3252 1.3067 7.3327C0.956005 7.3402 0.622656 7.48671 0.379983 7.73999C0.13731 7.99327 0.00519153 8.33258 0.012693 8.68328C0.0201944 9.03397 0.166701 9.36732 0.419983 9.60999L5.41998 14.61C5.54155 14.7332 5.68632 14.8311 5.84595 14.8981ZM9.93254 7.00001L13.2656 7L15.74 3.84999C15.9177 3.57331 15.9857 3.24026 15.9307 2.91606C15.8758 2.59186 15.7018 2.29984 15.4428 2.09718C15.1839 1.89452 14.8586 1.79581 14.5307 1.82037C14.2028 1.84494 13.8959 1.99101 13.67 2.22999L9.93254 7.00001Z" fill="#6FB205"/>
<path d="M13.5315 13.5158L13.4003 13.5158L13.286 13.5803L10.5114 15.1442V14.0158V13.5158L10.0114 13.5158L9.46291 13.5158H9.4629C9.26219 13.5158 9.01791 13.4089 8.81309 13.2013C8.6087 12.9941 8.50001 12.7434 8.5 12.533C8.5 12.533 8.5 12.5329 8.5 12.5329L8.50009 9.47251V9.47241C8.50006 9.26268 8.60807 9.01527 8.81146 8.81103C9.01519 8.60645 9.25987 8.50003 9.46292 8.50004H9.46294L14.5371 8.50001C14.7402 8.50001 14.9848 8.60642 15.1886 8.81101C15.392 9.01524 15.5 9.26268 15.5 9.47246L15.5 12.5287C15.4958 12.7441 15.3841 12.9962 15.1819 13.2022C14.9782 13.4097 14.7369 13.5158 14.5371 13.5158H14.5371L13.5315 13.5158Z" fill="white" stroke="#798288"/>
</svg>
