<svg id="Layer_1" data-name="Layer 1" xmlns="http://www.w3.org/2000/svg" viewBox="0 0 32 32"><title>Action_OpenLogonUrl_large_644aae0e310841dd9b6998081e4a45b7</title><path d="M19.48,24a28.09,28.09,0,0,1-.92,7.1,22.43,22.43,0,0,0,7.75,0A36.93,36.93,0,0,1,25.42,24c0.09-1.39.09-3.23-3.17-3.24C19.31,20.78,19.48,24,19.48,24Z" fill="#fff"/><path d="M22.47,21.78a2.76,2.76,0,0,1,2.06.63A2.06,2.06,0,0,1,25,24a26.82,26.82,0,0,0,.81,6.2,35.11,35.11,0,0,1-3.57.19,25.47,25.47,0,0,1-3-.16A26.3,26.3,0,0,0,20,23.95a1,1,0,0,0,0-.11,2,2,0,0,1,.35-1.36,2.51,2.51,0,0,1,1.94-.7h0.19m0-1H22.25C18.48,20.88,19,23,19,23a30.94,30.94,0,0,1-1,8,24.36,24.36,0,0,0,4.2.33A34.55,34.55,0,0,0,27,31s-1.4-4.95-1-8c0.09-1.36-.41-2.22-3.49-2.22h0Z" fill="#8d9599"/><path d="M18.44,17.06c0.08,2.71.07,5.22,1.57,7.35a3.41,3.41,0,0,0,4.57.22s1.88-.83,2-7.58c0-1.39-1-3.76-4.25-3.67A3.79,3.79,0,0,0,18.44,17.06Z" fill="#fff"/><path d="M22.66,14.1a3.31,3.31,0,0,1,2.45.94A3,3,0,0,1,26,17c-0.07,5.5-1.39,7-1.57,7.19a0.32,0.32,0,0,0-.07.06,3.36,3.36,0,0,1-1.93.69,2.74,2.74,0,0,1-1.74-.65c-1.49-1.7-1.62-5-1.69-7.18a3.79,3.79,0,0,1,3.52-3h0.14m0-1H22.5c-3.78.1-4.38,2.39-4.43,3.88-0.09,2.7.18,6.1,1.93,8a3.76,3.76,0,0,0,2.43.93A4.37,4.37,0,0,0,25,25s1.92-1.25,2-8a4.12,4.12,0,0,0-4.34-3.9h0Z" fill="#8d9599"/><path d="M18.07,17a13.81,13.81,0,0,0,.12,3.08c0.58-1.94,1.45-3,2.92-3,1.25-.07,4.2.61,5.71-1.06a4.23,4.23,0,0,0-4.32-3A4.29,4.29,0,0,0,18.07,17Z" fill="#8d9599"/><path d="M32,32H13V29.5A1.77,1.77,0,0,1,14,28l4.93-2.07S20,29,22.5,29,26,26,26,26l5,2a2.15,2.15,0,0,1,1,1.5V32Z" fill="#407fb9"/><path d="M12,29.5a2.63,2.63,0,0,1,1-2,25.78,25.78,0,0,1-1.61-3.87A16.65,16.65,0,0,1,16,23l1,0V21l-1,0H15.8a19.25,19.25,0,0,0-5,.69A27.48,27.48,0,0,1,10.06,17H17V15H10a19.77,19.77,0,0,1,.63-4.63,20.31,20.31,0,0,0,5.15.63H16a24.21,24.21,0,0,0,5.39-.6c0.14,0.54.24,1.07,0.33,1.6h2c-0.1-.71-0.23-1.43-0.41-2.19a29,29,0,0,0,4-1.94A13.87,13.87,0,0,1,29.95,15H28v2h1.95A13.8,13.8,0,0,1,28,23.1v2.62l0.51,0.2A16,16,0,1,0,12,31.47v-2ZM25.93,6.21a26.85,26.85,0,0,1-3.16,1.6,28.06,28.06,0,0,0-2.31-5A14.17,14.17,0,0,1,25.93,6.21ZM14.43,2.1a12.7,12.7,0,0,1,3.17,0,1,1,0,0,0,.07.16A28.94,28.94,0,0,1,20.8,8.45,20.75,20.75,0,0,1,16,9a17.74,17.74,0,0,1-4.74-.62,29.38,29.38,0,0,1,3.12-6.11A1,1,0,0,0,14.43,2.1Zm-2.87.65a28.37,28.37,0,0,0-2.31,5,22.55,22.55,0,0,1-3.2-1.52A14.17,14.17,0,0,1,11.57,2.75ZM4.67,7.87a24.34,24.34,0,0,0,4,1.89A22.59,22.59,0,0,0,8,15H2.05A13.87,13.87,0,0,1,4.67,7.87ZM2.05,17h6a31.32,31.32,0,0,0,.83,5.29,28.79,28.79,0,0,0-4.15,1.92A13.87,13.87,0,0,1,2.05,17Zm7.38,7.29a26.44,26.44,0,0,0,2.06,4.93,14.17,14.17,0,0,1-5.36-3.35A26.5,26.5,0,0,1,9.44,24.29Z" fill="#6fa6d4"/></svg>