<svg width="16" height="16" viewBox="0 0 16 16" fill="none" xmlns="http://www.w3.org/2000/svg">
<g clip-path="url(#clip0_19145_13785)">
<path d="M13 15H3V1H11.5L13 2.5V15Z" fill="white"/>
<path d="M11 15H3V1H10V3C10 3.26522 10.1054 3.51957 10.2929 3.70711C10.4804 3.89464 10.7348 4 11 4H13V8.08L14 9V2.6L11.4 0H3C2.73478 0 2.48043 0.105357 2.29289 0.292893C2.10536 0.48043 2 0.734784 2 1V15C2 15.2652 2.10536 15.5196 2.29289 15.7071C2.48043 15.8946 2.73478 16 3 16H12L11 15ZM11 1L13 3H11V1Z" fill="#798288"/>
<path d="M14.5 16C14.3681 15.9981 14.2423 15.9442 14.15 15.85L11.65 13.35C11.5558 13.2559 11.5029 13.1282 11.5029 12.995C11.5029 12.8619 11.5558 12.7342 11.65 12.64C11.7441 12.5459 11.8718 12.493 12.005 12.493C12.1381 12.493 12.2658 12.5459 12.36 12.64L14.86 15.14C14.9326 15.21 14.9824 15.3002 15.0028 15.3989C15.0232 15.4977 15.0133 15.6003 14.9744 15.6933C14.9355 15.7863 14.8693 15.8653 14.7847 15.9201C14.7 15.9748 14.6008 16.0027 14.5 16Z" fill="#407FB9"/>
<path d="M9.5 8C9.99445 8 10.4778 8.14662 10.8889 8.42133C11.3 8.69603 11.6205 9.08648 11.8097 9.54329C11.9989 10.0001 12.0484 10.5028 11.952 10.9877C11.8555 11.4727 11.6174 11.9181 11.2678 12.2678C10.9181 12.6174 10.4727 12.8555 9.98773 12.952C9.50277 13.0484 9.00011 12.9989 8.54329 12.8097C8.08648 12.6205 7.69603 12.3 7.42133 11.8889C7.14662 11.4778 7 10.9945 7 10.5C7 9.83696 7.26339 9.20107 7.73223 8.73223C8.20107 8.26339 8.83696 8 9.5 8V8ZM9.5 7C8.57174 7 7.6815 7.36875 7.02513 8.02513C6.36875 8.6815 6 9.57174 6 10.5C6 11.4283 6.36875 12.3185 7.02513 12.9749C7.6815 13.6313 8.57174 14 9.5 14C10.425 13.9896 11.3092 13.6175 11.9634 12.9634C12.6175 12.3092 12.9896 11.425 13 10.5C13 9.57174 12.6313 8.6815 11.9749 8.02513C11.3185 7.36875 10.4283 7 9.5 7V7Z" fill="#407FB9"/>
</g>
<defs>
<clipPath id="clip0_19145_13785">
<rect width="16" height="16" fill="white"/>
</clipPath>
</defs>
</svg>
