<svg width="32" height="32" viewBox="0 0 32 32" fill="none" xmlns="http://www.w3.org/2000/svg">
<path d="M26 29H6V2H22L26 6V29Z" fill="white"/>
<path d="M26 6H22V2L26 6ZM20 0V7C20 7.26522 20.1054 7.51957 20.2929 7.70711C20.4804 7.89464 20.7348 8 21 8H28L20 0Z" fill="#9DA2A5"/>
<path d="M24 11H8V13H24V11Z" fill="#ADB1B2"/>
<path d="M19 15H8V17H19V15Z" fill="#ADB1B2"/>
<path d="M16 19H8V21H16V19Z" fill="#ADB1B2"/>
<path d="M16 23H8V25H16V23Z" fill="#ADB1B2"/>
<path d="M19 29H6V2H21L26 7V16H28V6.5L21.5 0H5C4.73478 0 4.48043 0.105357 4.29289 0.292893C4.10536 0.48043 4 0.734784 4 1V30C4 30.2652 4.10536 30.5196 4.29289 30.7071C4.48043 30.8946 4.73478 31 5 31H19V29Z" fill="#9DA2A5"/>
<circle cx="23" cy="23" r="5" fill="white"/>
<path fill-rule="evenodd" clip-rule="evenodd" d="M25.5001 19.2584C24.76 18.7639 23.89 18.5 23 18.5C21.8073 18.5026 20.6643 18.9776 19.8209 19.8209C18.9776 20.6643 18.5026 21.8073 18.5 23C18.5 23.89 18.7639 24.76 19.2584 25.5001C19.7529 26.2401 20.4557 26.8169 21.2779 27.1575C22.1002 27.4981 23.005 27.5872 23.8779 27.4135C24.7508 27.2399 25.5526 26.8113 26.182 26.182C26.8113 25.5526 27.2399 24.7508 27.4135 23.8779C27.5872 23.005 27.4981 22.1002 27.1575 21.2779C26.8169 20.4557 26.2401 19.7529 25.5001 19.2584ZM19.6666 18.0112C20.6533 17.3519 21.8133 17 23 17C24.5913 17 26.1174 17.6321 27.2426 18.7574C28.3679 19.8826 29 21.4087 29 23C29 24.1867 28.6481 25.3467 27.9888 26.3334C27.9499 26.3916 27.9101 26.449 27.8693 26.5057L31.75 30.55C31.8685 30.6689 31.9491 30.8201 31.9818 30.9847C32.0144 31.1494 31.9975 31.3199 31.9334 31.475C31.8692 31.6301 31.7606 31.7627 31.6212 31.8561C31.4818 31.9495 31.3179 31.9996 31.1501 32C30.9248 31.9994 30.709 31.9095 30.5501 31.75L26.6921 27.7295C26.2679 28.0607 25.7987 28.3351 25.2961 28.5433C24.1997 28.9974 22.9933 29.1162 21.8295 28.8847C20.6656 28.6532 19.5965 28.0818 18.7574 27.2426C17.9182 26.4035 17.3468 25.3344 17.1153 24.1705C16.8838 23.0067 17.0026 21.8003 17.4567 20.7039C17.9109 19.6075 18.6799 18.6705 19.6666 18.0112Z" fill="#407FB9"/>
</svg>
