<svg id="Layer_1" data-name="Layer 1" xmlns="http://www.w3.org/2000/svg" viewBox="0 0 16 16"><title>Action_OpenLogonUrl_small_644aae0e310841dd9b6998081e4a45b7</title><path d="M9.84,11.74a12.8,12.8,0,0,1-.47,3.32,15,15,0,0,0,4.26,0,15.22,15.22,0,0,1-.5-3.31c0-.66-0.21-1.58-1.75-1.53A1.34,1.34,0,0,0,9.84,11.74Z" fill="#fff"/><path d="M11.48,10.68c0.46,0,.61.87,0.6,1.09a16.07,16.07,0,0,0,.42,2.93c-0.4,0-.33.79-1,0.79-0.5,0-.66-0.79-1.09-0.84a12.7,12.7,0,0,0,.39-3c0.2,0,.16-1,0.6-1h0.09m0-.47h-0.1c-1.79,0-1.44.6-1.44,0.6a14.65,14.65,0,0,1-.49,3.79,13,13,0,0,0,1.91.61,15.17,15.17,0,0,0,2.21-.16,12.8,12.8,0,0,1-.5-3.79c0-.64-0.14-1.06-1.59-1.06h0Z" fill="#8d9599"/><path d="M9.58,8.45a5.15,5.15,0,0,0,.73,3.31,1.61,1.61,0,0,0,2.14.13s0.83-.5,1-3.45a1.76,1.76,0,0,0-2-1.74A1.79,1.79,0,0,0,9.58,8.45Z" fill="#fff"/><path d="M11.59,6H11.5C9.66,6.11,9.06,7.19,9,7.93,9,8,9,8.06,9,8.12,9,10.45,9.41,13,11.5,13S14,10.6,14,7.94C14,7.13,13.34,6,11.59,6Zm0,6c-0.34,0-1.65.12-1.58-3.4A1.2,1.2,0,0,1,11,8a7.34,7.34,0,0,0,2,0C13.08,9.34,13.12,12.14,11.57,12Z" fill="#8d9599"/><path d="M16,16H7V14.5a0.84,0.84,0,0,1,.47-0.71L9.8,13s0.51,2,1.7,2,1.62-2.09,1.62-2.09l2.41,0.88a1,1,0,0,1,.47.71V16Z" fill="#407fb9"/><path d="M7.5,0A7.5,7.5,0,0,0,6,14.85V12.56a11.66,11.66,0,0,1-.46-1.36A9.24,9.24,0,0,1,7.49,11H8V10L7.51,10H7.41a10.07,10.07,0,0,0-2.09.23A16.69,16.69,0,0,1,5,8H8V7H5a11.3,11.3,0,0,1,.2-2.24A10.69,10.69,0,0,0,7.4,5H7.51a13.76,13.76,0,0,0,2.35-.21c0,0.07,0,.14,0,0.21h1c0-.15,0-0.28-0.06-0.43a10,10,0,0,0,1.95-.86A6.49,6.49,0,0,1,13.48,5h1.08A7.5,7.5,0,0,0,7.5,0ZM2.23,3.71a11.06,11.06,0,0,0,2,.8A12.23,12.23,0,0,0,4,7H1A6.45,6.45,0,0,1,2.23,3.71ZM1,8H4a18,18,0,0,0,.32,2.48,11.79,11.79,0,0,0-2.09.86A6.45,6.45,0,0,1,1,8Zm4.36,5.64a6.51,6.51,0,0,1-2.46-1.53,10.77,10.77,0,0,1,1.65-.66A11.25,11.25,0,0,0,5.39,13.64ZM4.46,3.54a10.36,10.36,0,0,1-1.57-.62A6.51,6.51,0,0,1,5.4,1.36,11.16,11.16,0,0,0,4.46,3.54ZM7.49,4a9.73,9.73,0,0,1-2.06-.21,10.68,10.68,0,0,1,1.3-2.73h0a6,6,0,0,1,1.54,0h0A11,11,0,0,1,9.61,3.82,12.88,12.88,0,0,1,7.49,4Zm3.09-.41a11.42,11.42,0,0,0-1-2.23,6.51,6.51,0,0,1,2.49,1.56A8.58,8.58,0,0,1,10.58,3.59Z" fill="#6fa6d4"/></svg>