<svg id="Layer_1" data-name="Layer 1" xmlns="http://www.w3.org/2000/svg" viewBox="0 0 16 16"><title>Action_GoToWebsite_small_28def8ceb3034c9d9d1e0c249d29cbf5</title><path d="M7.5,1A6.5,6.5,0,1,1,1,7.5,6.51,6.51,0,0,1,7.5,1m0-1A7.5,7.5,0,1,0,15,7.5,7.5,7.5,0,0,0,7.5,0h0Z" fill="#6fa6d4"/><path d="M14.21,8H0.79a0.5,0.5,0,0,1,0-1H14.21A0.5,0.5,0,1,1,14.21,8Z" fill="#6fa6d4"/><path d="M6.32,14.71a0.5,0.5,0,0,1-.39-0.19c-1-1.34-1.84-4.22-1.92-7a11.15,11.15,0,0,1,1.9-7,0.5,0.5,0,0,1,.84.55A10.23,10.23,0,0,0,5,7.48,12.51,12.51,0,0,0,6.71,13.9,0.5,0.5,0,0,1,6.32,14.71Z" fill="#6fa6d4"/><path d="M8.7,14.71a0.5,0.5,0,0,1-.39-0.81A12.66,12.66,0,0,0,10,7.48,10.21,10.21,0,0,0,8.28,1.06,0.5,0.5,0,0,1,9.12.52a11.27,11.27,0,0,1,1.93,7c-0.08,2.76-.89,5.64-2,7A0.5,0.5,0,0,1,8.7,14.71Z" fill="#6fa6d4"/><path d="M12.63,12.34a0.51,0.51,0,0,1-.24-0.06l-0.12-.07A8.54,8.54,0,0,0,7.49,11a10.21,10.21,0,0,0-4.88,1.28,0.5,0.5,0,0,1-.49-0.87A11.33,11.33,0,0,1,7.41,10h0.1a9.57,9.57,0,0,1,5.24,1.34l0.12,0.07A0.5,0.5,0,0,1,12.63,12.34Z" fill="#6fa6d4"/><path d="M7.4,5A11.33,11.33,0,0,1,2.13,3.66a0.5,0.5,0,1,1,.49-0.87A10.32,10.32,0,0,0,7.49,4a8.73,8.73,0,0,0,4.9-1.22,0.5,0.5,0,0,1,.48.88A9.69,9.69,0,0,1,7.51,5H7.4Z" fill="#6fa6d4"/></svg>