<svg id="Layer_1" data-name="Layer 1" xmlns="http://www.w3.org/2000/svg" viewBox="0 0 32 32"><title>mark3_32</title><polygon points="26 29 6 29 6 2 22 2 26 6 26 29" fill="#fff"/><path d="M26,6H22V2M20,0V7a1,1,0,0,0,1,1h7Z" fill="#9da2a5"/><rect y="7" width="17" height="11" fill="#c93b2f"/><path d="M21.5,0H5A1,1,0,0,0,4,1V6H6V2H21l5,5V29H6V19H4V30a1,1,0,0,0,1,1H27a1,1,0,0,0,1-1V6.5Z" fill="#9da2a5"/><path d="M10,11v3H8.5a.5.5,0,0,1-.5-.5v-2a.5.5,0,0,1,.5-.5H10m1-1H8.5A1.5,1.5,0,0,0,7,11.5v2A1.5,1.5,0,0,0,8.5,15H11V10Z" fill="#fff"/><rect x="10" y="8" width="1" height="7" fill="#fff"/><path d="M4.5,11a.5.5,0,0,1,.5.5v2a.5.5,0,0,1-.5.5H3V11H4.5m0-1H2v5H4.5A1.5,1.5,0,0,0,6,13.5v-2A1.5,1.5,0,0,0,4.5,10Z" fill="#fff"/><rect x="2" y="10" width="1" height="7" transform="translate(5 27) rotate(-180)" fill="#fff"/><path d="M14,9h1V8H14a1,1,0,0,0-1,1v6h1Z" fill="#fff"/><rect x="12" y="11" width="3" height="1" fill="#fff"/><rect x="10" y="22.04" width="12" height="1" transform="translate(-7.8 8.48) rotate(-24.05)" fill="#407fb9"/><path d="M7.68,23.52l2,4.57,14.61-6.52-2-4.57ZM23,21.06,10.22,26.77,9,24l12.78-5.71Z" fill="#407fb9"/></svg>