<svg id="Layer_1" data-name="Layer 1" xmlns="http://www.w3.org/2000/svg" viewBox="0 0 16 16"><title>actionitemexecutiontask</title><rect x="2" y="4" width="11" height="11" fill="#fff"/><path d="M7,15H2V4H13V6h1V1a1,1,0,0,0-1-1H12V1H11V0H4V1H3V0H2A1,1,0,0,0,1,1V15a1,1,0,0,0,1,1H7V15Z" fill="#798288"/><circle cx="11.5" cy="11.5" r="4" fill="#fff"/><path d="M11.5,8A3.5,3.5,0,1,1,8,11.5,3.5,3.5,0,0,1,11.5,8m0-1A4.5,4.5,0,1,0,16,11.5,4.5,4.5,0,0,0,11.5,7h0Z" fill="#956939"/><path d="M13,12H11.5a0.5,0.5,0,0,1-.5-0.5v-2a0.5,0.5,0,0,1,1,0V11h1A0.5,0.5,0,0,1,13,12Z" fill="#adb1b2"/></svg>