<svg id="Layer_1" data-name="Layer 1" xmlns="http://www.w3.org/2000/svg" viewBox="0 0 32 32"><title>Action_GoToWebsite_large_ab7ae51d205b43ba89612d2ec069651f</title><path d="M16,2A14.11,14.11,0,0,1,30,16,14.11,14.11,0,0,1,16,30,14.11,14.11,0,0,1,2,16,14.11,14.11,0,0,1,16,2m0-2A16,16,0,1,0,32,16,16,16,0,0,0,16,0h0Z" fill="#6fa6d4"/><path d="M30.32,17H1.68a1,1,0,1,1,0-2H30.32A1,1,0,1,1,30.32,17Z" fill="#6fa6d4"/><path d="M13.48,31.38A1.07,1.07,0,0,1,12.63,31C10.4,28.11,8.18,22,8,16c-0.13-4.34.8-9.16,4.58-14.93a1.07,1.07,0,0,1,1.79,1.17C10.91,7.55,9.88,12,10,16c0.19,6.16,2.64,11.55,4.31,13.69A1.07,1.07,0,0,1,13.48,31.38Z" fill="#6fa6d4"/><path d="M18.56,31.38a1.07,1.07,0,0,1-.84-1.72C19.38,27.53,21.81,22,22,16c0.12-3.94-.82-8.33-4.33-13.7A1.07,1.07,0,0,1,19.45,1.1C23.3,7,24.13,11.95,24,16c-0.18,5.89-2.33,12-4.6,14.94A1.07,1.07,0,0,1,18.56,31.38Z" fill="#6fa6d4"/><path d="M26.95,26.33a1.08,1.08,0,0,1-.51-0.13l-0.26-.14C23.67,24.7,21.5,23.06,16,23c-5,0-8.91,2.36-10.42,3.2a1.07,1.07,0,0,1-1-1.87A23.48,23.48,0,0,1,15.8,21H16a20,20,0,0,1,11.18,3.18l0.26,0.14A1.07,1.07,0,0,1,26.95,26.33Z" fill="#6fa6d4"/><path d="M15.78,11A21.58,21.58,0,0,1,4.53,7.8a1.07,1.07,0,1,1,1-1.86A20.42,20.42,0,0,0,16,9c5.74-.06,7.92-1.71,10.45-3.07a1.07,1.07,0,0,1,1,1.88A20.25,20.25,0,0,1,16,11H15.78Z" fill="#6fa6d4"/></svg>