<svg id="Layer_1" data-name="Layer 1" xmlns="http://www.w3.org/2000/svg" viewBox="0 0 32 32"><title>Action_AssignNumber_large_2c489394bdf94ff2b85ef16b836e9cc9</title><rect x="21" y="17" width="9" height="2" fill="#407fb9"/><path d="M18,4H17a1,1,0,0,0-1,1V21.92L5,4H3A1,1,0,0,0,2,5V27a1,1,0,0,0,1,1H4a1,1,0,0,0,1-1V9.93L16,28h2a1,1,0,0,0,1-1V5A1,1,0,0,0,18,4Z" fill="#407fb9"/><path d="M26,6a2,2,0,0,1,2,2v3a2,2,0,0,1-2,2H25a2,2,0,0,1-2-2V8a2,2,0,0,1,2-2h1m0-2H25a4,4,0,0,0-4,4v3a4,4,0,0,0,4,4h1a4,4,0,0,0,4-4V8a4,4,0,0,0-4-4h0Z" fill="#407fb9"/></svg>