<svg width="32" height="32" viewBox="0 0 32 32" fill="none" xmlns="http://www.w3.org/2000/svg">
<g clip-path="url(#clip0)">
<path d="M29 22H23V26H17V30H2V10H8V6H14V2H25L29 6V22Z" fill="white"/>
<path d="M27.0013 12C25.9404 12 24.923 12.4214 24.1728 13.1716C23.4227 13.9217 23.0013 14.9391 23.0013 16V25.35C22.9828 25.99 23.2012 26.6143 23.6145 27.1033C24.0279 27.5923 24.6071 27.9116 25.2413 28C25.5907 28.0365 25.944 27.999 26.278 27.8899C26.612 27.7807 26.9192 27.6023 27.1796 27.3664C27.4401 27.1306 27.6478 26.8424 27.7894 26.5208C27.931 26.1992 28.0032 25.8514 28.0013 25.5V18.5C28.0013 18.3674 27.9486 18.2402 27.8548 18.1464C27.761 18.0527 27.6339 18 27.5013 18H26.5013C26.3687 18 26.2415 18.0527 26.1477 18.1464C26.0539 18.2402 26.0013 18.3674 26.0013 18.5V25.5C26.0013 25.6326 25.9486 25.7598 25.8548 25.8536C25.761 25.9473 25.6339 26 25.5013 26C25.3687 26 25.2415 25.9473 25.1477 25.8536C25.0539 25.7598 25.0013 25.6326 25.0013 25.5V16C25.0013 15.4696 25.212 14.9609 25.587 14.5858C25.9621 14.2107 26.4708 14 27.0013 14C27.5317 14 28.0404 14.2107 28.4155 14.5858C28.7905 14.9609 29.0013 15.4696 29.0013 16V26.4C29.0152 27.2155 28.7487 28.0111 28.2463 28.6537C27.7439 29.2963 27.0361 29.7468 26.2413 29.93C25.7301 30.0387 25.201 30.0319 24.6928 29.91C24.1846 29.7881 23.71 29.5543 23.3037 29.2256C22.8974 28.8969 22.5696 28.4817 22.3443 28.0101C22.1189 27.5385 22.0017 27.0226 22.0013 26.5V19.5C22.0013 19.3674 21.9486 19.2402 21.8548 19.1464C21.761 19.0527 21.6339 19 21.5013 19H20.5013C20.3687 19 20.2415 19.0527 20.1477 19.1464C20.0539 19.2402 20.0013 19.3674 20.0013 19.5V26.25C19.9716 27.6583 20.4671 29.0272 21.3914 30.0901C22.3157 31.153 23.6025 31.8339 25.0013 32C25.7616 32.0679 26.5278 31.977 27.2511 31.7332C27.9745 31.4894 28.6393 31.098 29.2035 30.5837C29.7676 30.0694 30.2187 29.4435 30.5282 28.7457C30.8376 28.0479 30.9987 27.2934 31.0013 26.53V16C31.0013 14.9391 30.5798 13.9217 29.8297 13.1716C29.0795 12.4214 28.0621 12 27.0013 12V12Z" fill="#576672"/>
<path fill-rule="evenodd" clip-rule="evenodd" d="M13 0H24.5L31 6.5V12H29V8H24C23.7348 8 23.4804 7.89464 23.2929 7.70711C23.1054 7.51957 23 7.26522 23 7V2H14V3H12V1C12 0.734784 12.1054 0.48043 12.2929 0.292893C12.4804 0.105357 12.7348 0 13 0ZM25 12V10.5L18.5 4H7C6.73478 4 6.48043 4.10536 6.29289 4.29289C6.10536 4.48043 6 4.73478 6 5V7H8V6H17V11C17 11.2652 17.1054 11.5196 17.2929 11.7071C17.4804 11.8946 17.7348 12 18 12H19H23H25ZM19 28V16V14.5L12.5 8H11H1C0.734784 8 0.48043 8.10536 0.292893 8.29289C0.105357 8.48043 0 8.73478 0 9V31C0 31.2652 0.105357 31.5196 0.292893 31.7071C0.48043 31.8946 0.734784 32 1 32H18C18.2652 32 18.5196 31.8946 18.7071 31.7071C18.8946 31.5196 19 31.2652 19 31V28ZM25 3V6H28L25 3ZM17 30V16H12C11.7348 16 11.4804 15.8946 11.2929 15.7071C11.1054 15.5196 11 15.2652 11 15V10H2V30H17ZM13 14V11L16 14H13ZM19 10V7L22 10H19Z" fill="#9DA2A5"/>
</g>
<defs>
<clipPath id="clip0">
<rect width="32" height="32" fill="white"/>
</clipPath>
</defs>
</svg>
