<svg id="Layer_1" data-name="Layer 1" xmlns="http://www.w3.org/2000/svg" viewBox="0 0 16 16"><title>pdf_small</title><polygon points="13 15 3 15 3 1 11.5 1 13 2.5 13 15" fill="#fff"/><rect y="5" width="12" height="8" fill="#c93b2f"/><path d="M3,8v2H2V8H3M3,7H1v4H3a1,1,0,0,0,1-1V8A1,1,0,0,0,3,7H3Z" fill="#f4f4f4"/><rect x="1" y="7" width="1" height="5" fill="#f4f4f4"/><path d="M7,8v2H6V8H7M8,7H6A1,1,0,0,0,5,8v2a1,1,0,0,0,1,1H8V7H8Z" fill="#f4f4f4"/><rect x="7" y="6" width="1" height="5" transform="translate(15 17) rotate(-180)" fill="#f4f4f4"/><rect x="8.5" y="8" width="2" height="1" transform="translate(19 17) rotate(-180)" fill="#f4f4f4"/><path d="M10,11V7h1V6H10A1,1,0,0,0,9,7v4h1Z" fill="#f4f4f4"/><path d="M11.4,0H3A1,1,0,0,0,2,1V4H3V1h7V3a1,1,0,0,0,1,1h2V15H3V14H2v1a1,1,0,0,0,1,1H13a1,1,0,0,0,1-1V2.6ZM11,3V1l2,2H11Z" fill="#798288"/></svg>