<svg id="Layer_1" data-name="Layer 1" xmlns="http://www.w3.org/2000/svg" viewBox="0 0 16 16"><title>OnDocumentProcessing_small_1ead1abe1b7e48339e01ee7f8404537a</title><polygon points="14 2.5 12.5 1 7 1 7 3 4 3 4 5 1 5 1 15 8 15 8 13 11 13 11 11 14 11 14 2.5" fill="#fff"/><path d="M12,1l2,2H12V1M11,0V3a1,1,0,0,0,1,1h3V2.6L12.4,0H11Z" fill="#798288"/><path d="M9,3l2,2H9V3M8,2V5A1,1,0,0,0,9,6h3V4.6L9.4,2H8Z" fill="#798288"/><rect x="2" y="9" width="5" height="1" fill="#adb1b2"/><rect x="2" y="11" width="5" height="1" fill="#adb1b2"/><rect x="2" y="13" width="5" height="1" fill="#adb1b2"/><path d="M6,5L8,7H6V5M5,4V7A1,1,0,0,0,6,8H9V6.6L6.4,4H5Z" fill="#798288"/><path d="M8,7v8H1V5H5.94V4H1A1,1,0,0,0,0,5V15a1,1,0,0,0,1,1H8a1,1,0,0,0,1-1V7H8Z" fill="#798288"/><path d="M8.94,3V2H4A1,1,0,0,0,3,3H8.94Z" fill="#798288"/><path d="M11,5v8H10v1h1a1,1,0,0,0,1-1V5H11Z" fill="#798288"/><path d="M11.94,1V0H7A1,1,0,0,0,6,1h5.94Z" fill="#798288"/><path d="M14,3v8H13v1h1a1,1,0,0,0,1-1V3H14Z" fill="#798288"/></svg>