<svg width="16" height="16" viewBox="0 0 16 16" fill="none" xmlns="http://www.w3.org/2000/svg">
<g clip-path="url(#clip0)">
<path d="M12 14H9H3V1H10L12 3V14Z" fill="white"/>
<path d="M10 1.3L11.7 3H10V1.2V1.3ZM9 0V3C9 3.26522 9.10536 3.51957 9.29289 3.70711C9.48043 3.89464 9.73478 4 10 4H13V3L10 0H9Z" fill="#798288"/>
<path d="M9 15H1V3H7L9 5V15Z" fill="white"/>
<path d="M7 3.3L8.7 5H7V3.2V3.3ZM6 2V5C6 5.26522 6.10536 5.51957 6.29289 5.70711C6.48043 5.89464 6.73478 6 7 6H10V5L7 2H6Z" fill="#798288"/>
<path d="M12 4H13V3L12.5 2.5H11.5L12 3V4Z" fill="#798288"/>
<path d="M1.00004 2.99998H7.00004L7.50004 3.49998V2.49998L7.00004 1.99998H1.00004C0.865645 1.98768 0.730188 2.00511 0.603277 2.05101C0.476365 2.09692 0.361108 2.17019 0.265678 2.26562C0.170247 2.36105 0.0969813 2.4763 0.0510748 2.60322C0.00516841 2.73013 -0.0122541 2.86558 4.28974e-05 2.99998V15C-0.0122541 15.1344 0.00516841 15.2698 0.0510748 15.3967C0.0969813 15.5237 0.170247 15.6389 0.265678 15.7343C0.361108 15.8298 0.476365 15.903 0.603277 15.9489C0.730188 15.9949 0.865645 16.0123 1.00004 16H9V15H1.00004V2.99998Z" fill="#798288"/>
<path d="M10 0H3C2.73478 0 2.48043 0.105357 2.29289 0.292893C2.10536 0.48043 2 0.734784 2 1H10L10.5 1.5V0.5L10 0Z" fill="#798288"/>
<path d="M14 5H13C12.4696 5 11.9609 5.21071 11.5858 5.58579C11.2107 5.96086 11 6.46957 11 7V11.5C11 11.8978 11.158 12.2794 11.4393 12.5607C11.7206 12.842 12.1022 13 12.5 13C12.8978 13 13.2794 12.842 13.5607 12.5607C13.842 12.2794 14 11.8978 14 11.5V8H13V11.5C13 11.6326 12.9473 11.7598 12.8536 11.8536C12.7598 11.9473 12.6326 12 12.5 12C12.3674 12 12.2402 11.9473 12.1464 11.8536C12.0527 11.7598 12 11.6326 12 11.5V7C12 6.73478 12.1054 6.48043 12.2929 6.29289C12.4804 6.10536 12.7348 6 13 6H14C14.2652 6 14.5196 6.10536 14.7071 6.29289C14.8946 6.48043 15 6.73478 15 7V13C15 13.5304 14.7893 14.0391 14.4142 14.4142C14.0391 14.7893 13.5304 15 13 15H12C11.4696 15 10.9609 14.7893 10.5858 14.4142C10.2107 14.0391 10 13.5304 10 13V8H9L9 13C9 13.7956 9.31607 14.5587 9.87868 15.1213C10.4413 15.6839 11.2044 16 12 16H13C13.7956 16 14.5587 15.6839 15.1213 15.1213C15.6839 14.5587 16 13.7956 16 13V7C16 6.46957 15.7893 5.96086 15.4142 5.58579C15.0391 5.21071 14.5304 5 14 5Z" fill="#576672"/>
</g>
<defs>
<clipPath id="clip0">
<rect width="16" height="16" fill="white"/>
</clipPath>
</defs>
</svg>
