<svg id="Layer_1" data-name="Layer 1" xmlns="http://www.w3.org/2000/svg" viewBox="0 0 16 16"><title>acquaintance6_small</title><polygon points="13 15 3 15 3 1 11.5 1 13 2.5 13 15" fill="#fff"/><rect x="4" y="6" width="8" height="1" fill="#adb1b2"/><rect x="4" y="8" width="4" height="1" fill="#adb1b2"/><rect x="4" y="10" width="4" height="1" fill="#adb1b2"/><rect x="4" y="12" width="4" height="1" fill="#adb1b2"/><path d="M11,1l2,2H11V1M10,0V3a1.0029,1.0029,0,0,0,1,1h3V2.6L11.4,0Z" fill="#798288"/><path d="M15.5625,8.5a5.8412,5.8412,0,0,0-3.0731.9543A5.79,5.79,0,0,0,9.4375,8.5v6.125a6.247,6.247,0,0,1,2.734.745.5072.5072,0,0,0,.6782,0,6.1878,6.1878,0,0,1,2.7128-.745Z" fill="#fff"/><path d="M15,9.1156v4.9816a7.6668,7.6668,0,0,0-2.4879.8238A7.6966,7.6966,0,0,0,10,14.0956V9.1186a4.7484,4.7484,0,0,1,1.89.7737,1,1,0,0,0,1.1954,0A4.7626,4.7626,0,0,1,15,9.1156M16,8a6.6755,6.6755,0,0,0-3.5121,1.0906A6.6167,6.6167,0,0,0,9,8v7a7.1387,7.1387,0,0,1,3.1246.8515A.6462.6462,0,0,0,12.5092,16a.67.67,0,0,0,.39-.1485A7.07,7.07,0,0,1,16,15V8Z" fill="#576672"/><polygon points="13 9.521 12 9.521 12 15 13 15 13 9.521 13 9.521" fill="#576672"/><rect x="13" y="3" width="1" height="4" fill="#798288"/><path d="M8,15H3V1h7.9375V0H3A1,1,0,0,0,2,1V15a1,1,0,0,0,1,1H8Z" fill="#798288"/></svg>