<svg id="Layer_1" data-name="Layer 1" xmlns="http://www.w3.org/2000/svg" viewBox="0 0 16 16"><title>Action_ReturnFromCounterparty_small_3297f503975d4961b8478eee4a26d590</title><polygon points="13 15 3 15 3 1 11.5 1 13 2.5 13 15" fill="#fff"/><path d="M11,1l2,2H11V1M10,0V3a1,1,0,0,0,1,1h3V2.6L11.4,0H10Z" fill="#798288"/><path d="M13,13.5H7A1.52,1.52,0,0,1,5.49,12h0a1.68,1.68,0,0,1-1-2.5A1.76,1.76,0,0,1,4,8,1.08,1.08,0,0,1,5,7H8.55a1.31,1.31,0,0,1,.72-1.5c2.19-.5,6.39,2,6.39,2L15.52,12A2.35,2.35,0,0,1,13,13.5Z" fill="#fff"/><path d="M10,6c1.5,0,3.66,1,5,1.63V12a2.69,2.69,0,0,1-2,1H7a1,1,0,0,1-1-1V11.26L5.29,11c-0.49-.25-0.16-1.23.4-1.5C5.13,9.38,4.63,8.17,5.49,8H9S8.68,6.08,10,6M9.65,5A1.84,1.84,0,0,0,8,7H5A1.14,1.14,0,0,0,4,8.31a1.25,1.25,0,0,0,.5,1.2c-0.3.08-1.13,2,.5,2.5a2,2,0,0,0,2,2h6c1.11,0,3-.9,3-2V7S12,5,9.65,5h0Z" fill="#dfaa1a"/><path d="M8.49,10H5a0.5,0.5,0,0,1-.5-0.5h0A0.5,0.5,0,0,1,5,9h3.5A0.5,0.5,0,1,1,8.49,10Z" fill="#dfaa1a"/><path d="M10.56,8H8.44A0.44,0.44,0,0,1,8,7.56V7.45A0.45,0.45,0,0,1,8.44,7h2.12a0.45,0.45,0,0,1,.44.45V7.56A0.44,0.44,0,0,1,10.56,8Z" fill="#dfaa1a"/><rect x="4.99" y="11" width="4.01" height="1" rx="0.44" ry="0.44" fill="#dfaa1a"/><path d="M3,15V1h7.94V0H3A1,1,0,0,0,2,1V15a1,1,0,0,0,1,1H13a1,1,0,0,0,1-1H3Z" fill="#798288"/></svg>