<svg id="Layer_1" data-name="Layer 1" xmlns="http://www.w3.org/2000/svg" viewBox="0 0 16 16"><title>action_sendresultreportonapproval_small_e437699bbd44481ab28f15e5ee1d7281</title><circle cx="7.5" cy="13.5" r="1.5" fill="#798288"/><circle cx="1.5" cy="4.5" r="1.5" fill="#798288"/><polygon points="10 3 13 3 13 0 10 3" fill="#75ad15"/><polygon points="4 9 2 7 0 9 4 9" fill="#d7853c"/><path d="M5,11.95A5.82,5.82,0,0,1,2.56,9H1.29A7,7,0,0,0,5,13.31V11.95Z" fill="#d7853c"/><path d="M8,0A7,7,0,0,0,3.05,2.05L3.91,2.91a5.76,5.76,0,0,1,7-.91h2A7,7,0,0,0,8,0Z" fill="#75ad15"/><polygon points="15 14 13 12 11 14 11 9 15 9 15 14" fill="#407fb9"/><circle cx="13" cy="8" r="3" fill="#d65633"/></svg>