<svg width="16" height="16" viewBox="0 0 16 16" fill="none" xmlns="http://www.w3.org/2000/svg">
<path d="M15 2V4H1V2H15ZM15.5 1H0.5C0.367392 1 0.240215 1.05268 0.146447 1.14645C0.0526784 1.24021 0 1.36739 0 1.5L0 4.5C0 4.63261 0.0526784 4.75979 0.146447 4.85355C0.240215 4.94732 0.367392 5 0.5 5H15.5C15.6326 5 15.7598 4.94732 15.8536 4.85355C15.9473 4.75979 16 4.63261 16 4.5V1.5C16 1.36739 15.9473 1.24021 15.8536 1.14645C15.7598 1.05268 15.6326 1 15.5 1V1Z" fill="#798288"/>
<path d="M15 2H1V4H15V2Z" fill="white"/>
<mask id="path-3-inside-1_20049_14035" fill="white">
<rect y="6" width="16" height="4" rx="0.5"/>
</mask>
<rect y="6" width="16" height="4" rx="0.5" fill="white" stroke="#798288" stroke-width="2" mask="url(#path-3-inside-1_20049_14035)"/>
<path d="M0 11.5C0 11.2239 0.223858 11 0.5 11H15.5C15.7761 11 16 11.2239 16 11.5V14.5C16 14.7761 15.7761 15 15.5 15H0.5C0.223858 15 0 14.7761 0 14.5V11.5Z" fill="#B5DDF5"/>
<path fill-rule="evenodd" clip-rule="evenodd" d="M1 12V14H15V12H1ZM0.5 11C0.223858 11 0 11.2239 0 11.5V14.5C0 14.7761 0.223858 15 0.5 15H15.5C15.7761 15 16 14.7761 16 14.5V11.5C16 11.2239 15.7761 11 15.5 11H0.5Z" fill="#407FB9"/>
</svg>
