<svg id="Layer_1" data-name="Layer 1" xmlns="http://www.w3.org/2000/svg" viewBox="0 0 16 16"><title>IssuanceJournal_small_37d0e5465b384b60b6805ab862dcea47</title><polygon points="13 15 3 15 3 1 11.5 1 13 2.5 13 15" fill="#fff"/><path d="M3,12.5H9A1.52,1.52,0,0,0,10.51,11h0a1.68,1.68,0,0,0,1-2.5A1.76,1.76,0,0,0,12,7a1.08,1.08,0,0,0-1-1H7.45a1.31,1.31,0,0,0-.72-1.5C4.54,4,.34,6.5.34,6.5L0.48,11A2.35,2.35,0,0,0,3,12.5Z" fill="#fff"/><path d="M6,5C7.32,5.08,7,7,7,7h3.51c0.86,0.17.36,1.38-.2,1.5,0.56,0.27.89,1.25,0.4,1.5L10,10.26V11a1,1,0,0,1-1,1H3a2.69,2.69,0,0,1-2-1V6.63C2.34,6,4.49,5,6,5M6.35,4C4,4,0,6,0,6v5c0,1.1,1.91,2,3,2H9a2,2,0,0,0,2-2c1.63-.49.8-2.41,0.5-2.5a1.25,1.25,0,0,0,.5-1.2A1.14,1.14,0,0,0,11,6H8A1.84,1.84,0,0,0,6.35,4h0Z" fill="#dfaa1a"/><path d="M7.51,9H11a0.5,0.5,0,0,0,.5-0.5h0A0.5,0.5,0,0,0,11,8H7.51A0.5,0.5,0,1,0,7.51,9Z" fill="#dfaa1a"/><path d="M5.44,7H7.56A0.44,0.44,0,0,0,8,6.56V6.45A0.45,0.45,0,0,0,7.56,6H5.44A0.45,0.45,0,0,0,5,6.45V6.56A0.44,0.44,0,0,0,5.44,7Z" fill="#dfaa1a"/><path d="M7.44,10h3.12a0.44,0.44,0,0,1,.44.44v0.11a0.45,0.45,0,0,1-.45.45H7.44A0.44,0.44,0,0,1,7,10.56V10.44A0.44,0.44,0,0,1,7.44,10Z" fill="#dfaa1a"/><path d="M11.4,0H3A1,1,0,0,0,2,1V3.3L3,3V1h7V3a1,1,0,0,0,1,1h2V15H3V14H2v1a1,1,0,0,0,1,1H13a1,1,0,0,0,1-1V2.6ZM11,3V1l2,2H11Z" fill="#798288"/></svg>