<svg id="Layer_1" data-name="Layer 1" xmlns="http://www.w3.org/2000/svg" viewBox="0 0 32 32"><title>RelatedDocument_large</title><polygon points="26 26 8 26 8 2 22 2 26 6 26 26" fill="#fff"/><path d="M26,6H22V2M20,0V7a1,1,0,0,0,1,1h7Z" fill="#9da2a5"/><polygon points="20 30 2 30 2 6 16 6 20 10 20 30" fill="#fff"/><path d="M20,10H16V6M14,4v7a1,1,0,0,0,1,1h7Z" fill="#9da2a5"/><rect x="4" y="16" width="14" height="2" fill="#adb1b2"/><rect x="4" y="20" width="14" height="2" fill="#adb1b2"/><path d="M21,2l5,5v8.41A3.81,3.81,0,0,1,27.7,15l.3,0V6.5L21.5,0H7A1,1,0,0,0,6,1V3H8V2H21Z" fill="#9da2a5"/><path d="M24.05,27.14l-1.58,2.74a1.42,1.42,0,0,1-1.23.7,1.34,1.34,0,0,1-.7-.19l-1.47-.84a1.42,1.42,0,0,1-.66-.86,1.41,1.41,0,0,1,.14-1.08l2.83-4.9A1.41,1.41,0,0,1,22.61,22a1.44,1.44,0,0,1,.7.19l1.47.85a1.42,1.42,0,0,1,.54,1.9l1.22.7a2.81,2.81,0,0,0-1.05-3.82L24,21a2.79,2.79,0,0,0-1.41-.38A2.86,2.86,0,0,0,20.15,22l-2.83,4.91a2.83,2.83,0,0,0,1,3.86l1.47.85a2.79,2.79,0,0,0,1.41.38,2.84,2.84,0,0,0,2.46-1.42l1.57-2.73Z" fill="#506672"/><path d="M30.58,17.23l-1.47-.85A2.77,2.77,0,0,0,27.7,16a2.82,2.82,0,0,0-2.45,1.42l-1.56,2.69,1.23.71,1.55-2.7a1.45,1.45,0,0,1,1.23-.7,1.38,1.38,0,0,1,.71.19l1.47.84a1.41,1.41,0,0,1,.51,1.94l-2.83,4.9a1.41,1.41,0,0,1-1.22.71,1.48,1.48,0,0,1-.71-.19L24.16,25A1.43,1.43,0,0,1,23.64,23h0l-1.22-.71h0a2.83,2.83,0,0,0,1,3.86l1.47.85a2.84,2.84,0,0,0,3.87-1l2.83-4.91A2.82,2.82,0,0,0,30.58,17.23Z" fill="#506672"/><path d="M17.86,31.64A3.89,3.89,0,0,1,16.33,30H2V6H15l5,5v9.62a3.86,3.86,0,0,1,2-1V10.5L15.5,4H1A1,1,0,0,0,0,5V31a1,1,0,0,0,1,1H18.49Z" fill="#9da2a5"/><polygon points="17.85 24 4 24 4 26 16.69 26 17.85 24" fill="#adb1b2"/></svg>