<svg id="Layer_1" data-name="Layer 1" xmlns="http://www.w3.org/2000/svg" viewBox="0 0 32 32"><title>Action_ReturnDocument_large_9a56e7b4445e47ef884a5658a01839e8</title><polygon points="26 29 6 29 6 2 22 2 26 6 26 29" fill="#fff"/><path d="M26,6H22V2M20,0V7a1,1,0,0,0,1,1h7Z" fill="#9da2a5"/><path d="M25.49,27.19h-11c-2,0-3.66-2.1-3.66-4.12h0c-1.09-.09-1.6-1.89-0.92-2.75-1.34-.54-1.06-2.6,0-2.75C9.47,17.38,9,17.06,9,15.29a2,2,0,0,1,1.83-1.83h7.33c-1-.79-1.54-3.25,0-3.66,4-.92,12.82,4.58,12.82,4.58v9.16C31,25.55,27.52,27.19,25.49,27.19Z" fill="#fff"/><path d="M19.1,11h0c3,0,8.22,2.58,10.9,4.13V24c-0.09.65-2.36,2-4,2H14c-1,0-2-1.79-2-3-1.4,0-1.27-1.71-1-2a1.43,1.43,0,0,0,0-1,1,1,0,1,1,0-2,8.72,8.72,0,0,0,0-1,0.89,0.89,0,0,1-1-1,1,1,0,0,1,1-1h7.05a2,2,0,0,0,2-2c-1.62,0-1.82-.61-1.77-1.24A0.94,0.94,0,0,1,19.1,11m-9,4h0m0.56,6.59h0M19.1,9c-2,.09-2.91,1.25-3,2a1.85,1.85,0,0,0,1,2H10a2.14,2.14,0,0,0-2,2c0,1.58.5,2.28,1,2.5-1.16.16-1.47,2.41,0,3-0.75.94-.19,2.91,1,3,0,2.21,1.79,4.5,4,4.5H26c2.21,0,6-1.79,6-4V14S23.8,9,19.1,9h0Z" fill="#e0ad5c"/><rect x="10" y="17" width="9" height="1" fill="#e0ad5c"/><path d="M16,13h5a1,1,0,0,1,1,1v0a1,1,0,0,1-1,1H16a0,0,0,0,1,0,0V13a0,0,0,0,1,0,0Z" fill="#e0ad5c"/><rect x="10" y="20" width="9" height="1" fill="#e0ad5c"/><rect x="11" y="23" width="8" height="1" fill="#e0ad5c"/><path d="M26,29H6V2H21l5,5V9l2,1V6.5L21.5,0H5A1,1,0,0,0,4,1V30a1,1,0,0,0,1,1H27a1,1,0,0,0,1-1V29H26Z" fill="#9da2a5"/></svg>