<svg id="Layer_1" data-name="Layer 1" xmlns="http://www.w3.org/2000/svg" viewBox="0 0 16 16"><title>barcode_small</title><rect x="1" y="2" width="14" height="11" fill="#fff"/><path d="M15,2V13H1V2H15m0-1H1A1,1,0,0,0,0,2V13a1,1,0,0,0,1,1H15a1,1,0,0,0,1-1V2a1,1,0,0,0-1-1Z" fill="#798288"/><rect x="7" y="4" width="1" height="7" fill="#576672"/><rect x="9" y="4" width="2" height="7" fill="#576672"/><rect x="3" y="4" width="1" height="7" fill="#576672"/><rect x="12" y="4" width="1" height="7" fill="#576672"/><rect x="3" y="4" width="10" height="7" fill="#576672" opacity="0.4"/><rect x="5" y="4" width="1" height="7" fill="#576672"/></svg>