<svg id="Layer_1" data-name="Layer 1" xmlns="http://www.w3.org/2000/svg" viewBox="0 0 32 32"><title>action_sendactualizationtask_7e7e72437b224a22baaee66f0b489e53_32</title><circle cx="29.5" cy="9.5" r="2.5" fill="#9da2a5"/><circle cx="18.5" cy="29.5" r="2.5" fill="#9da2a5"/><circle cx="4.5" cy="11.5" r="2.5" fill="#9da2a5"/><path d="M28,28H24.84a14.38,14.38,0,0,0,6.93-15L29.91,14A12.36,12.36,0,0,1,24,26.15V24a1,1,0,0,0-2,0v5a1,1,0,0,0,1,1h5A1,1,0,0,0,28,28Z" fill="#75ad15"/><path d="M26,0a1,1,0,0,0-1,1V3.1A14.32,14.32,0,0,0,17.5,1a14.48,14.48,0,0,0-12,6.32l1.75,1A12.44,12.44,0,0,1,24.25,5H21a1,1,0,0,0,0,2h5a1,1,0,0,0,1-1V1A1,1,0,0,0,26,0Z" fill="#407fb9"/><path d="M5.31,18.19l2.06,2.06a1,1,0,1,0,1.41-1.41L5.24,15.3a1,1,0,0,0-1.41,0L0.29,18.83a1,1,0,1,0,1.41,1.41L3.35,18.6A14.5,14.5,0,0,0,15,29.77v-2A12.53,12.53,0,0,1,5.31,18.19Z" fill="#d7853c"/></svg>