<svg id="Layer_1" data-name="Layer 1" xmlns="http://www.w3.org/2000/svg" viewBox="0 0 32 32"><title>Action_RepeatRegister_large_8ba4ac81d44042ce89fed76f8e122563</title><path d="M16,16a1,1,0,0,0-1,1v3H12a1,1,0,0,0,0,2h5V17A1,1,0,0,0,16,16Z" fill="#407fb9"/><path d="M1,31a1,1,0,0,0,1-1V27H5a1,1,0,0,0,0-2H0v5A1,1,0,0,0,1,31Z" fill="#407fb9"/><path d="M2.48,23a6.59,6.59,0,0,1,12.8-1h1.45A8,8,0,0,0,1.07,23H2.48Z" fill="#407fb9"/><path d="M15.6,24A6.6,6.6,0,0,1,2.48,25H1.07A8,8,0,0,0,17,24H15.6Z" fill="#407fb9"/><path d="M15.83,15H17a1,1,0,0,1,1,1v6h9.13C21.44,18.88,22,12,22,12S27,1.83,21,1c-3.46,0-.35,0-4,0-6,.83-1,11-1,11A10.94,10.94,0,0,1,15.83,15Z" fill="#956939"/><path d="M31,23H17.94A9.08,9.08,0,0,1,18,24a9,9,0,0,1-.95,4H32V24A1,1,0,0,0,31,23Z" fill="#956939"/><path d="M16.48,29a9,9,0,0,1-1.83,2H30V29H16.48Z" fill="#798288"/></svg>