<svg id="Layer_1" data-name="Layer 1" xmlns="http://www.w3.org/2000/svg" viewBox="0 0 32 32"><title>Action_CreateAnnex_large_723cfd108ed74a2d881bd498f3471eb6</title><polygon points="26 29 7 29 7 4 22 4 26 8 26 29" fill="#fff"/><path d="M26,8H22V4M20,2V9a1,1,0,0,0,1,1h7Z" fill="#9da2a5"/><path d="M6,12a1.1,1.1,0,0,1-1-1V1A1.1,1.1,0,0,1,6,0,1.1,1.1,0,0,1,7,1V11A1.1,1.1,0,0,1,6,12Z" fill="#e0ad5c"/><path d="M11,7H1A1.1,1.1,0,0,1,0,6,1.1,1.1,0,0,1,1,5H11a1.1,1.1,0,0,1,1,1A1.1,1.1,0,0,1,11,7Z" fill="#e0ad5c"/><path d="M10.24,10.24a1.1,1.1,0,0,1-1.41,0L1.76,3.17a1.1,1.1,0,0,1,0-1.41,1.1,1.1,0,0,1,1.41,0l7.07,7.07A1.1,1.1,0,0,1,10.24,10.24Z" fill="#e0ad5c"/><path d="M10.24,3.17L3.17,10.24a1.1,1.1,0,0,1-1.41,0,1.1,1.1,0,0,1,0-1.41L8.83,1.76a1.1,1.1,0,0,1,1.41,0A1.1,1.1,0,0,1,10.24,3.17Z" fill="#e0ad5c"/><circle cx="6" cy="6" r="1.5" fill="#fff"/><path d="M26,12a4,4,0,0,0-4,4v9.35A2.6,2.6,0,0,0,24.24,28,2.5,2.5,0,0,0,27,25.5v-7a0.5,0.5,0,0,0-.5-0.5h-1a0.5,0.5,0,0,0-.5.5v7a0.5,0.5,0,0,1-1,0V16a2,2,0,0,1,4,0V26.4a3.56,3.56,0,0,1-2.76,3.53A3.51,3.51,0,0,1,21,26.5v-7a0.5,0.5,0,0,0-.5-0.5h-1a0.5,0.5,0,0,0-.5.5v6.75A5.67,5.67,0,0,0,24,32a5.51,5.51,0,0,0,6-5.47V16A4,4,0,0,0,26,12Z" fill="#576672"/><polygon points="26 9 26 11 28 11 28 8.5 21.5 2 12 2 12 4 21 4 26 9" fill="#9da2a5"/><path d="M18,29H7V13H5V30a1,1,0,0,0,1,1H19.76A5.69,5.69,0,0,1,18,29Z" fill="#9da2a5"/></svg>