<svg id="Layer_1" data-name="Layer 1" xmlns="http://www.w3.org/2000/svg" viewBox="0 0 16 16"><title>Action_CreateAnnex_small_723cfd108ed74a2d881bd498f3471eb6</title><polygon points="13 15 3 15 3 1 11.5 1 13 2.5 13 15" fill="#fff"/><path d="M3.5,7A0.47,0.47,0,0,1,3,6.56V0.44A0.47,0.47,0,0,1,3.5,0,0.47,0.47,0,0,1,4,.44V6.56A0.47,0.47,0,0,1,3.5,7Z" fill="#d59633"/><path d="M6.56,4H0.44A0.47,0.47,0,0,1,0,3.48,0.47,0.47,0,0,1,.44,3H6.56a0.47,0.47,0,0,1,.44.5A0.47,0.47,0,0,1,6.56,4Z" fill="#d59633"/><path d="M1.5,6a0.5,0.5,0,0,1-.35-0.85l4-4a0.5,0.5,0,0,1,.71.71l-4,4A0.5,0.5,0,0,1,1.5,6Z" fill="#d59633"/><path d="M5.49,6a0.51,0.51,0,0,0,.36-0.15,0.5,0.5,0,0,0,0-.71l-4-4a0.5,0.5,0,0,0-.71.71l4,4A0.49,0.49,0,0,0,5.49,6Z" fill="#d59633"/><circle cx="3.5" cy="3.5" r="0.5" fill="#fff"/><path d="M14,5H13a2,2,0,0,0-2,2v4.5a1.5,1.5,0,0,0,3,0V8H13v3.5a0.5,0.5,0,0,1-1,0V7a1,1,0,0,1,1-1h1a1,1,0,0,1,1,1v6a2,2,0,0,1-2,2H12a2,2,0,0,1-2-2V7H9v6a3,3,0,0,0,3,3h1a3,3,0,0,0,3-3V7A2,2,0,0,0,14,5Z" fill="#576672"/><path d="M10,3a1,1,0,0,0,1,1h3V2.6L11.4,0H7V1h3V3Zm1-2,2,2H11V1Z" fill="#798288"/><path d="M8,15H3V8H2v7a1,1,0,0,0,1,1H8V15Z" fill="#798288"/></svg>