<svg id="Layer_1" data-name="Layer 1" xmlns="http://www.w3.org/2000/svg" viewBox="0 0 16 16"><title>Action_RepeatRegister_small_8ba4ac81d44042ce89fed76f8e122563</title><path d="M7.5,11h-2a0.5,0.5,0,0,1,0-1H7V8.5a0.5,0.5,0,0,1,1,0v2A0.5,0.5,0,0,1,7.5,11Z" fill="#407fb9"/><path d="M0.5,13h2a0.5,0.5,0,0,1,0,1H1v1.5a0.5,0.5,0,0,1-1,0v-2A0.5,0.5,0,0,1,.5,13Z" fill="#407fb9"/><path d="M4,15a3,3,0,0,1-2.22-1H0.55A4,4,0,0,0,8,12H7A3,3,0,0,1,4,15Z" fill="#407fb9"/><path d="M4,9a3,3,0,0,1,2.22,1H7.45A4,4,0,0,0,0,12H1A3,3,0,0,1,4,9Z" fill="#407fb9"/><path d="M8.12,7A1,1,0,0,1,9,8v5h7a1.11,1.11,0,0,0-1-1c-4.5,0-4.17-5.19-4.17-5.19S13.9,0.52,10.21,0H8.73C5,0.52,8.11,6.81,8.11,6.81S8.12,6.89,8.12,7Z" fill="#956939"/><path d="M8.58,14A5,5,0,0,1,7,16h9V14H8.58Z" fill="#798288"/></svg>