<svg id="Layer_1" data-name="Layer 1" xmlns="http://www.w3.org/2000/svg" viewBox="0 0 16 16"><title>Action_AssignNumber_small_2c489394bdf94ff2b85ef16b836e9cc9</title><path d="M13.5,2A1.5,1.5,0,0,1,15,3.5v2a1.5,1.5,0,0,1-3,0v-2A1.5,1.5,0,0,1,13.5,2m0-1A2.51,2.51,0,0,0,11,3.5v2a2.5,2.5,0,0,0,5,0v-2A2.51,2.51,0,0,0,13.5,1h0Z" fill="#407fb9"/><rect x="11" y="9" width="5" height="1" fill="#407fb9"/><path d="M9.5,1h-1a0.5,0.5,0,0,0-.5.5v9.59L2,1H0.5a0.5,0.5,0,0,0-.5.5v13a0.5,0.5,0,0,0,.5.5h1A0.5,0.5,0,0,0,2,14.5V4.93L8,15H9.5a0.5,0.5,0,0,0,.5-0.5V1.5A0.5,0.5,0,0,0,9.5,1Z" fill="#407fb9"/></svg>