<svg id="Layer_1" data-name="Layer 1" xmlns="http://www.w3.org/2000/svg" viewBox="0 0 32 32"><title>acquaintance_large</title><polygon points="26 29 6 29 6 2 22 2 26 6 26 29" fill="#fff"/><rect x="8" y="19" width="9" height="2" fill="#adb1b2"/><rect x="8" y="23" width="9" height="2" fill="#adb1b2"/><rect x="8" y="15" width="9" height="2" fill="#adb1b2"/><rect x="8" y="11" width="16" height="2" fill="#adb1b2"/><path d="M26,6H22V2M20,0V7a1.0029,1.0029,0,0,0,1,1h7Z" fill="#9da2a5"/><path d="M17,29H6V2H21l5,5v8a12.4373,12.4373,0,0,1,2-.7482V6.5L21.5,0H5A1.0029,1.0029,0,0,0,4,1V30a1.0029,1.0029,0,0,0,1,1H17Z" fill="#9da2a5"/><path d="M31.0743,16.5126A12.3591,12.3591,0,0,0,25,18.5285a12.3591,12.3591,0,0,0-6.0743-2.0159.4675.4675,0,0,0-.4976.4686v12.21a.4413.4413,0,0,0,.427.4422,13.8507,13.8507,0,0,1,5.2061,1.4987c.9351.5072.9425.5035,1.8776,0a13.8507,13.8507,0,0,1,5.2061-1.4987.4413.4413,0,0,0,.427-.4422v-12.21A.4675.4675,0,0,0,31.0743,16.5126Z" fill="#fff"/><path d="M30,18.2364v9.9444a16.0514,16.0514,0,0,0-4.948,1.6545L25,29.8634l-.0421-.0228A16.0876,16.0876,0,0,0,20,28.1809V18.2365a9.8827,9.8827,0,0,1,3.828,1.5554L25,20.64l1.172-.8476A9.8852,9.8852,0,0,1,30,18.2364m1.5052-2.2136-.0352.0012A13.1653,13.1653,0,0,0,25,18.1713a13.1656,13.1656,0,0,0-6.47-2.1473l-.0352-.0012a.4984.4984,0,0,0-.4948.5V29.5289A.47.47,0,0,0,18.4548,30,14.7519,14.7519,0,0,1,24,31.5964,2.3593,2.3593,0,0,0,24.9986,32,2.3834,2.3834,0,0,0,26,31.5964,14.7519,14.7519,0,0,1,31.5452,30,.47.47,0,0,0,32,29.5289V16.5232a.4984.4984,0,0,0-.4948-.5Z" fill="#576672"/><polygon points="26 19 24 19 24 30 26 30 26 19 26 19" fill="#576672"/></svg>