<svg id="Layer_1" data-name="Layer 1" xmlns="http://www.w3.org/2000/svg" viewBox="0 0 16 16"><title>RelatedDocument_small</title><polygon points="12 9 9 14 3 14 3 1 10 1 12 3 12 9" fill="#fff"/><path d="M10,1.3,11.7,3H10V1.2M9,0V3a1,1,0,0,0,1,1h3V3L10,0Z" fill="#798288"/><polygon points="9 15 1 15 1 3 7 3 9 5 9 15" fill="#fff"/><path d="M7,3.3,8.7,5H7V3.2M6,2V5A1,1,0,0,0,7,6h3V5L7,2Z" fill="#798288"/><polygon points="12 4 13 4 13 3 12.5 2.5 11.5 2.5 12 3 12 4" fill="#798288"/><path d="M1,3H7l.5.5v-1L7,2H1A.92.92,0,0,0,0,3V15a.92.92,0,0,0,1,1H5V15H1S1,3,1,3Z" fill="#798288"/><path d="M10,0H3A1,1,0,0,0,2,1h8l.5.5V.5Z" fill="#798288"/><path d="M10.53,12.66,9.45,14.54A1,1,0,0,1,8.6,15a1,1,0,0,1-.48-.13l-1-.59a.92.92,0,0,1-.45-.59A1,1,0,0,1,6.75,13L8.7,9.61a1,1,0,0,1,.84-.48,1,1,0,0,1,.49.13l1,.58a1,1,0,0,1,.37,1.3l.84.49A1.93,1.93,0,0,0,11.52,9l-1-.58a1.9,1.9,0,0,0-1-.27,1.93,1.93,0,0,0-1.68,1L5.91,12.5a2,2,0,0,0,.71,2.66l1,.58a1.91,1.91,0,0,0,1,.26,2,2,0,0,0,1.69-1l1.09-1.88Z" fill="#506672"/><path d="M15,5.84l-1-.58A2,2,0,0,0,11.36,6L10.29,7.82l.84.49L12.2,6.46A1,1,0,0,1,13,6a1,1,0,0,1,.49.13l1,.59a.92.92,0,0,1,.45.59A1,1,0,0,1,14.9,8l-2,3.37a1,1,0,0,1-.84.48,1,1,0,0,1-.49-.13l-1-.58a1,1,0,0,1-.36-1.33h0l-.85-.49h0A2,2,0,0,0,10.12,12l1,.58a1.9,1.9,0,0,0,1,.27,1.93,1.93,0,0,0,1.68-1l2-3.37A2,2,0,0,0,15,5.84Z" fill="#506672"/></svg>