<svg id="Layer_1" data-name="Layer 1" xmlns="http://www.w3.org/2000/svg" viewBox="0 0 16 16"><title>Ribbon_RelatedDocumentCommands_small_05d63e9c36c044c3a7fdb1a360e13fc0-01</title><path d="M7.18,11.14L5.6,13.88a1.42,1.42,0,0,1-1.23.71,1.39,1.39,0,0,1-.7-0.19L2.2,13.55a1.42,1.42,0,0,1-.52-1.93l2.83-4.9A1.42,1.42,0,0,1,5.74,6a1.39,1.39,0,0,1,.7.19L7.91,7a1.41,1.41,0,0,1,.54,1.89L9.67,9.64A2.83,2.83,0,0,0,8.62,5.82L7.15,5A2.83,2.83,0,0,0,3.28,6l-2.83,4.9a2.83,2.83,0,0,0,1,3.87L3,15.62a2.83,2.83,0,0,0,3.87-1L8.4,11.85Z" fill="#9da2a5"/><path d="M13.71,1.23l-1.47-.85a2.83,2.83,0,0,0-3.87,1L6.82,4.11,8,4.82,9.6,2.12a1.42,1.42,0,0,1,1.23-.71,1.39,1.39,0,0,1,.7.19L13,2.45a1.42,1.42,0,0,1,.52,1.93l-2.83,4.9A1.42,1.42,0,0,1,9.46,10a1.39,1.39,0,0,1-.7-0.19L7.29,9A1.42,1.42,0,0,1,6.77,7h0L5.55,6.31h0a2.83,2.83,0,0,0,1,3.87L8.05,11a2.83,2.83,0,0,0,3.87-1l2.83-4.9A2.83,2.83,0,0,0,13.71,1.23Z" fill="#9da2a5"/></svg>