<svg id="Layer_1" data-name="Layer 1" xmlns="http://www.w3.org/2000/svg" viewBox="0 0 32 32"><title>barcode_large</title><rect x="2" y="5" width="27" height="21" fill="#fff"/><path d="M29,5V26H2V5H29m1-2H1A1.0029,1.0029,0,0,0,0,4V27a1.0029,1.0029,0,0,0,1,1H30a1.0029,1.0029,0,0,0,1-1V4a1.0029,1.0029,0,0,0-1-1Z" fill="#9da2a5"/><rect x="10" y="9" width="2" height="13" fill="#576672"/><rect x="8" y="9" width="1" height="13" fill="#576672"/><rect x="5" y="9" width="2" height="13" fill="#576672"/><rect x="13" y="9" width="1" height="13" fill="#576672"/><rect x="15" y="9" width="3" height="13" fill="#576672"/><rect x="19" y="9" width="2" height="13" fill="#576672"/><rect x="24" y="9" width="2" height="13" fill="#576672"/><rect x="22" y="9" width="1" height="13" fill="#576672"/></svg>