<svg id="Layer_1" data-name="Layer 1" xmlns="http://www.w3.org/2000/svg" viewBox="0 0 32 32"><title>Action_ChangeDocumentType_large_d8e9e6e070b245aa8f6e98649a13c87a</title><rect x="19" y="19" width="12" height="12" rx="1" ry="1" fill="#fff"/><path d="M30,20V30H20V20H30m1-2H19a1,1,0,0,0-1,1V31a1,1,0,0,0,1,1H31a1,1,0,0,0,1-1V19a1,1,0,0,0-1-1h0Z" fill="#9da2a5"/><path d="M14.91,16H2.09a0.85,0.85,0,0,1-.85-0.85L8.07,2.33a0.45,0.45,0,0,1,.85,0l6.83,12.81A0.85,0.85,0,0,1,14.91,16Z" fill="#fff"/><path d="M9.75,2h0M8.5,4.31L14.2,15H2.8L8.5,4.31m0-3.7A0.72,0.72,0,0,0,8,1L0,16a1,1,0,0,0,1,1H16a1,1,0,0,0,1-1L9,1A0.64,0.64,0,0,0,8.5.61h0Z" fill="#9da2a5"/><polygon points="21 12 16 8.5 21 5 21 12" fill="#75ad15"/><path d="M24,7H19v3h4v6h3V9A2,2,0,0,0,24,7Z" fill="#75ad15"/><polygon points="11 23 16 26.5 11 30 11 23" fill="#407fb9"/><path d="M8,28h5V25H9V19H6v7A2,2,0,0,0,8,28Z" fill="#407fb9"/></svg>