<svg id="Layer_1" data-name="Layer 1" xmlns="http://www.w3.org/2000/svg" viewBox="0 0 16 16"><title>delete_document_small2</title><polygon points="13 15 3 15 3 1 11.5 1 13 2.5 13 15" fill="#fff"/><rect x="4" y="6" width="8" height="1" fill="#adb1b2"/><rect x="4" y="8" width="3" height="1" fill="#adb1b2"/><polygon points="8 11 4 11 4 10 7 10 8 11" fill="#adb1b2"/><polygon points="8 13 4 13 4 12 9 12 8 13" fill="#adb1b2"/><path d="M11,1l2,2H11V1M10,0V3a1,1,0,0,0,1,1h3V2.6L11.4,0Z" fill="#798288"/><path d="M7,15H3V1h7.94V0H3A1,1,0,0,0,2,1V15a1,1,0,0,0,1,1H7Z" fill="#798288"/><rect x="13" y="3" width="1" height="4" fill="#798288"/><path d="M15.15,16a.82.82,0,0,1-.6-.25l-6.3-6.3a.85.85,0,0,1,1.2-1.2l6.3,6.3a.85.85,0,0,1,0,1.2A.83.83,0,0,1,15.15,16Z" fill="#d65633"/><path d="M8.85,16a.83.83,0,0,1-.6-.25.85.85,0,0,1,0-1.2l6.3-6.3a.85.85,0,0,1,1.2,1.2l-6.3,6.3A.82.82,0,0,1,8.85,16Z" fill="#d65633"/></svg>