<svg id="Layer_1" data-name="Layer 1" xmlns="http://www.w3.org/2000/svg" viewBox="0 0 32 32"><title>delete_document_large2</title><polygon points="26 26 23 29 6 29 6 2 22 2 26 6 26 26" fill="#fff"/><path d="M26,6H22V2M20,0V7a1,1,0,0,0,1,1h7Z" fill="#9da2a5"/><rect x="8" y="11" width="16" height="2" fill="#adb1b2"/><rect x="8" y="15" width="16" height="2" fill="#adb1b2"/><rect x="8" y="19" width="11" height="2" fill="#adb1b2"/><path d="M19,29H6V2H21l5,5V21l2-2V6.5L21.5,0H5A1,1,0,0,0,4,1V30a1,1,0,0,0,1,1H17Z" fill="#9da2a5"/><path d="M31,32a1,1,0,0,1-.71-.29l-10-10a1,1,0,0,1,1.42-1.42l10,10a1,1,0,0,1,0,1.42A1,1,0,0,1,31,32Z" fill="#d65633"/><path d="M21,32a1,1,0,0,1-.71-.29,1,1,0,0,1,0-1.42l10-10a1,1,0,0,1,1.42,1.42l-10,10A1,1,0,0,1,21,32Z" fill="#d65633"/></svg>