<svg id="Layer_1" data-name="Layer 1" xmlns="http://www.w3.org/2000/svg" viewBox="0 0 16 16"><title>Action_CreateCoverLetter_small_fbd8dcdc155f4509b0d00623119ff53e</title><rect x="1" y="3" width="14" height="10" fill="#fff"/><path d="M3.5,7A0.47,0.47,0,0,1,3,6.56V0.44A0.47,0.47,0,0,1,3.5,0,0.47,0.47,0,0,1,4,.44V6.56A0.47,0.47,0,0,1,3.5,7Z" fill="#d59633"/><path d="M6.56,4H0.44A0.47,0.47,0,0,1,0,3.48,0.47,0.47,0,0,1,.44,3H6.56a0.47,0.47,0,0,1,.44.5A0.47,0.47,0,0,1,6.56,4Z" fill="#d59633"/><path d="M1.5,6a0.5,0.5,0,0,1-.35-0.85l4-4a0.5,0.5,0,0,1,.71.71l-4,4A0.5,0.5,0,0,1,1.5,6Z" fill="#d59633"/><path d="M5.49,6a0.51,0.51,0,0,0,.36-0.15,0.5,0.5,0,0,0,0-.71l-4-4a0.5,0.5,0,0,0-.71.71l4,4A0.49,0.49,0,0,0,5.49,6Z" fill="#d59633"/><circle cx="3.5" cy="3.5" r="0.5" fill="#fff"/><path d="M15,2H8V3h7V3.36C13.57,4.7,11,8,8,8H8A5.63,5.63,0,0,1,5.08,7h0L4.3,7.77a8.36,8.36,0,0,0,.75.45L1.18,12.1a0.5,0.5,0,1,0,.71.71L6.06,8.65A5.88,5.88,0,0,0,8,9H8a5.81,5.81,0,0,0,1.91-.35l4.17,4.15a0.5,0.5,0,0,0,.71-0.71L10.92,8.22A15.2,15.2,0,0,0,15,4.87V13H1V7H0v6a1,1,0,0,0,1,1H15a1,1,0,0,0,1-1V3A1,1,0,0,0,15,2Z" fill="#cc9823"/></svg>