<svg id="Layer_1" data-name="Layer 1" xmlns="http://www.w3.org/2000/svg" viewBox="0 0 32 32"><title>task_large</title><rect x="5" y="2" width="22" height="27" fill="#fff"/><rect x="23" width="2" height="4" rx="1" ry="1" fill="#9da2a5"/><rect x="7" width="2" height="4" rx="1" ry="1" fill="#9da2a5"/><path d="M5,29V7H27v8a16.0866,16.0866,0,0,1,2-.5558V2a1.0029,1.0029,0,0,0-1-1H26V3a2,2,0,0,1-4,0V1H10V3A2,2,0,0,1,6,3V1H4A1.0029,1.0029,0,0,0,3,2V30a1.0029,1.0029,0,0,0,1,1H17V29Z" fill="#9da2a5"/><path d="M31.0743,16.5126A12.3591,12.3591,0,0,0,25,18.5285a12.3591,12.3591,0,0,0-6.0743-2.0159.4675.4675,0,0,0-.4976.4686v12.21a.4413.4413,0,0,0,.427.4423,13.8507,13.8507,0,0,1,5.2061,1.4987c.9351.5072.9425.5035,1.8776,0a13.8507,13.8507,0,0,1,5.2061-1.4987.4413.4413,0,0,0,.427-.4423v-12.21A.4675.4675,0,0,0,31.0743,16.5126Z" fill="#fff"/><path d="M30,18.2364v9.9444a16.0514,16.0514,0,0,0-4.948,1.6545L25,29.8634l-.0421-.0228A16.0876,16.0876,0,0,0,20,28.1809V18.2365a9.8827,9.8827,0,0,1,3.828,1.5554L25,20.64l1.172-.8476A9.8852,9.8852,0,0,1,30,18.2364m1.5052-2.2136-.0352.0012A13.1653,13.1653,0,0,0,25,18.1713a13.1656,13.1656,0,0,0-6.47-2.1473l-.0352-.0012a.4984.4984,0,0,0-.4948.5V29.5289A.47.47,0,0,0,18.4548,30,14.7519,14.7519,0,0,1,24,31.5964,2.3593,2.3593,0,0,0,24.9986,32,2.3834,2.3834,0,0,0,26,31.5964,14.7519,14.7519,0,0,1,31.5452,30,.47.47,0,0,0,32,29.5289V16.5232a.4984.4984,0,0,0-.4948-.5Z" fill="#576672"/><polygon points="26 19 24 19 24 30 26 30 26 19 26 19" fill="#576672"/></svg>