<svg id="Layer_1" data-name="Layer 1" xmlns="http://www.w3.org/2000/svg" viewBox="0 0 16 16"><title>Action_SendToCounterparty_small_9beb6e28a3434cc5bbeee4dfa985c137</title><path d="M15,2V14H1V2H15m0-1H1A1,1,0,0,0,0,2V14a1,1,0,0,0,1,1H15a1,1,0,0,0,1-1V2a1,1,0,0,0-1-1h0Z" fill="#798288"/><rect x="1" y="2" width="14" height="12" fill="#fff"/><path d="M8,3a5,5,0,1,0,5,5A5,5,0,0,0,8,3ZM8,9.77A1.77,1.77,0,1,1,9.77,8,1.77,1.77,0,0,1,8,9.77H8Z" fill="#0088cf"/><path d="M5.64,3.59a5,5,0,0,0-.56.34,4.11,4.11,0,1,1,0,8.13,5,5,0,0,0,.56.34,4.31,4.31,0,0,0,4.58-4,4.47,4.47,0,0,0-3.5-4.81A3.16,3.16,0,0,0,5.64,3.59Z" fill="#fff"/></svg>