<svg id="Layer_1" data-name="Layer 1" xmlns="http://www.w3.org/2000/svg" viewBox="0 0 16 16"><title>Action_ExtendDeadline_small_75b4cc12e37b4bc38a8effde97f46ff0</title><path d="M12,15.5H3A0.49,0.49,0,0,1,2.5,15V13.5c0.06-1.6,4.19-3.81,4-5.5s-3.79-3.6-4-5.5V1A0.49,0.49,0,0,1,3,.5h9a0.49,0.49,0,0,1,.48.5s0,1.12,0,1.5C12,4.58,8.5,6.37,8.5,8s3.85,3.92,4,5.5V15A0.49,0.49,0,0,1,12,15.5Z" fill="#fff"/><path d="M12,1c0,0.38,0,.88,0,1.16,0,1-1,1.9-2,2.78S8,6.78,8,8s1,2.09,2,3,2,1.79,2,2.85V15H3V13.85c0-1,1-1.83,2-2.68s2.2-1.93,2-3.29C6.87,6.78,6,6,5,5.07S3,3.21,3,2.13V1h9m0.49-1h-10A0.53,0.53,0,0,0,2,.53v1.6C2,4.8,5.8,6.3,6,8s-4,3.22-4,5.87v1.6a0.53,0.53,0,0,0,.52.53h10A0.53,0.53,0,0,0,13,15.47v-1.6C13,11.17,9,9.74,9,8s3.91-3.16,4-5.87c0-.4,0-1.6,0-1.6A0.53,0.53,0,0,0,12.48,0h0Z" fill="#798288"/><path d="M6,4A18.13,18.13,0,0,0,7.51,6,18.34,18.34,0,0,0,9,4H6Z" fill="#dfaa1a"/><path d="M10.5,14a13.56,13.56,0,0,0-3-3.5s-2.34,1.71-3,3.5h6Z" fill="#dfaa1a"/></svg>