<svg id="Layer_1" data-name="Layer 1" xmlns="http://www.w3.org/2000/svg" viewBox="0 0 16 16"><title>reports2_small</title><rect x="1" y="2" width="14" height="11" fill="#fff"/><rect x="4" y="6" width="2" height="5" fill="#6fa6d4"/><polygon points="8 7 8 11 7 11 7 4 9 4 9 7 8 7" fill="#f39500"/><path d="M15.5625,8.5a5.8412,5.8412,0,0,0-3.0731.9543A5.79,5.79,0,0,0,9.4375,8.5v6.125a6.247,6.247,0,0,1,2.734.745.5072.5072,0,0,0,.6782,0,6.1878,6.1878,0,0,1,2.7128-.745Z" fill="#fff"/><path d="M15,9.1156v4.9816a7.6668,7.6668,0,0,0-2.4879.8238A7.6966,7.6966,0,0,0,10,14.0956V9.1186a4.7484,4.7484,0,0,1,1.89.7737,1,1,0,0,0,1.1954,0A4.7626,4.7626,0,0,1,15,9.1156M16,8a6.6755,6.6755,0,0,0-3.5121,1.0906A6.6167,6.6167,0,0,0,9,8v7a7.1387,7.1387,0,0,1,3.1246.8515A.6462.6462,0,0,0,12.5092,16a.67.67,0,0,0,.39-.1485A7.07,7.07,0,0,1,16,15V8Z" fill="#576672"/><polygon points="13 9.521 12 9.521 12 15 13 15 13 9.521 13 9.521" fill="#576672"/><path d="M12,7.5742V5H10V7A7.8556,7.8556,0,0,1,12,7.5742Z" fill="#75ad15"/><path d="M8,13H1V2H15V7h1V2a1,1,0,0,0-1-1H1A1,1,0,0,0,0,2V13a1,1,0,0,0,1,1H8Z" fill="#798288"/></svg>