<svg width="16" height="16" viewBox="0 0 16 16" fill="none" xmlns="http://www.w3.org/2000/svg">
<g clip-path="url(#clip0_19569_13899)">
<path fill-rule="evenodd" clip-rule="evenodd" d="M3.30355 3.6225C3.30004 3.49888 3.29651 3.3747 3.29272 3.25C3.30956 2.4568 3.63846 1.70222 4.20808 1.14996C4.77769 0.597696 5.54208 0.292292 6.33542 0.299999C6.75349 0.245054 7.17847 0.279804 7.58206 0.401937C7.98564 0.52407 8.35858 0.730783 8.67604 1.00831C8.99349 1.28584 9.24818 1.62781 9.42314 2.01147C9.5981 2.39512 9.68932 2.81164 9.69072 3.2333C9.65677 6.00724 9.24971 7.53215 8.86184 8.35929C8.8619 8.51744 8.85385 8.67406 8.84375 8.825C8.87908 9.82611 8.96926 10.8238 9.11366 11.8138C9.17813 12.2557 9.25339 12.213 9.33941 12.1641C9.42692 12.1145 9.52555 12.0585 9.63525 12.5C9.16431 12.5697 8.69152 13.0749 8.21782 13.5811C7.70443 14.1297 7.18998 14.6794 6.67565 14.6771C5.58057 14.6722 4.48609 14.5756 3.40375 14.3875C3.88032 12.5633 4.12075 10.6854 4.11915 8.8C4.11915 8.8 4.11062 8.65819 4.12672 8.44109C3.39941 6.99732 3.35304 5.36495 3.30355 3.6225Z" fill="white"/>
<path d="M15.86 15.15L13.21 12.44L15.85 9.86002C15.9454 9.76719 16.0001 9.64024 16.002 9.50709C16.0039 9.37394 15.9528 9.2455 15.86 9.15002C15.7671 9.05454 15.6402 8.99985 15.507 8.99797C15.3739 8.9961 15.2454 9.04719 15.15 9.14002L12.5 11.73L9.84997 9.14002C9.80269 9.09406 9.74682 9.05786 9.68556 9.03348C9.62429 9.00911 9.55882 8.99705 9.49289 8.99797C9.42696 8.9989 9.36186 9.01281 9.30131 9.0389C9.24075 9.06498 9.18593 9.10274 9.13997 9.15002C9.094 9.1973 9.0578 9.25316 9.03343 9.31443C9.00906 9.37569 8.99699 9.44116 8.99792 9.50709C8.99885 9.57302 9.01275 9.63812 9.03884 9.69868C9.06493 9.75923 9.10269 9.81406 9.14996 9.86002L11.79 12.44L9.13997 15.15C9.0931 15.1965 9.0559 15.2518 9.03052 15.3127C9.00514 15.3737 8.99207 15.439 8.99207 15.505C8.99207 15.571 9.00514 15.6364 9.03052 15.6973C9.0559 15.7582 9.0931 15.8135 9.13997 15.86C9.23754 15.9512 9.36644 16.0013 9.49996 16C9.6351 15.9997 9.76458 15.9457 9.85996 15.85L12.5 13.14L15.14 15.85C15.2354 15.9457 15.3648 15.9997 15.5 16C15.63 15.9988 15.7549 15.9488 15.85 15.86C15.8975 15.8142 15.9355 15.7594 15.9617 15.6989C15.988 15.6383 16.002 15.5731 16.0029 15.5071C16.0038 15.4411 15.9917 15.3756 15.9671 15.3143C15.9426 15.253 15.9062 15.1972 15.86 15.15Z" fill="#FF4646"/>
<path fill-rule="evenodd" clip-rule="evenodd" d="M3.7635 7.54608C3.93584 8.09075 4.17814 8.61314 4.52209 9.10963C4.49634 10.6714 4.29893 12.226 3.93319 13.7453C4.70763 13.8339 5.48661 13.8768 6.26609 13.8737C6.89769 13.8737 7.48249 13.8479 7.99999 13.8137V14.6152C7.47949 14.6486 6.89609 14.6737 6.26609 14.6737C5.15418 14.6822 4.04367 14.593 2.94739 14.407C3.4949 12.3166 3.76975 10.1641 3.76509 8.00313C3.76509 8.00313 3.71398 7.80756 3.7635 7.54608Z" fill="#8D9599"/>
<path fill-rule="evenodd" clip-rule="evenodd" d="M4.23123 0.690023C4.88747 0.20869 5.68813 -0.0346816 6.50123 2.34363e-05C9.90123 2.34363e-05 10.0012 2.36002 10.0012 3.20002C9.97156 5.48889 9.81073 7.05912 9.43423 8.10869C9.1436 8.15013 8.86347 8.28263 8.63991 8.50619L8.50619 8.63991C8.21014 8.93596 8.07378 9.33123 8.0971 9.71868C7.65863 9.91844 7.12854 10 6.49123 10C2.98456 10 2.99371 6.32816 3.00063 3.54908C3.00093 3.42756 3.00123 3.30775 3.00123 3.19002C3.0008 2.70689 3.11151 2.23014 3.32479 1.79664C3.53808 1.36314 3.84822 0.984502 4.23123 0.690023ZM6.4915 9.00001C3.89427 8.99252 3.95414 5.983 3.9928 4.03958C3.99715 3.82098 4.00123 3.61586 4.00123 3.43002C4.4114 3.14372 4.90106 2.99332 5.40123 3.00002C5.60059 3.00002 5.85693 3.02013 6.14838 3.043C6.98261 3.10845 8.10451 3.19646 9.00123 2.90002V3.19002C9.21122 6.91988 8.81126 8.87987 6.4915 9.00001Z" fill="#8D9599"/>
<path d="M8 12.2438C7.58056 12.5991 7.04971 12.796 6.5 12.8C4.5263 12.8 3.6777 10.3447 3.6777 10.3447L0.789 11.8C0.553643 11.9517 0.358796 12.1585 0.221319 12.4024C0.083843 12.6463 0.00787874 12.9201 0 13.2L0 16H8V15L10.5 12.5L9 11C9 11 8.41944 11.8885 8 12.2438Z" fill="#407FB9"/>
</g>
<defs>
<clipPath id="clip0_19569_13899">
<rect width="16" height="16" fill="white"/>
</clipPath>
</defs>
</svg>
