<svg width="32" height="32" viewBox="0 0 32 32" fill="none" xmlns="http://www.w3.org/2000/svg">
<g clip-path="url(#clip0_19575_13868)">
<path fill-rule="evenodd" clip-rule="evenodd" d="M8.61043 7.22032C8.60374 6.98324 8.59702 6.74515 8.58984 6.50612C8.58984 6.50612 8.70984 0.77612 14.6798 0.60612C19.8298 0.47612 21.3898 4.24612 21.3898 6.47612C21.3432 12.0772 20.5138 15.1312 19.7261 16.7735C19.725 17.0765 19.7094 17.3764 19.6899 17.6661C19.4399 21.3061 20.4999 26 20.4999 26C18.8568 26.2427 17.324 26.8456 15.815 27.4391C13.5262 28.3394 11.2919 29.2181 8.80994 28.7861C9.76327 25.136 10.2439 21.3786 10.2399 17.6061C10.2399 17.6061 10.2224 17.3169 10.2557 16.8755C8.80132 13.984 8.70892 10.7101 8.61043 7.22032Z" fill="white"/>
<path d="M30.0058 32.0058C29.8742 32.0066 29.7437 31.9813 29.6219 31.9316C29.5 31.8818 29.3892 31.8085 29.2958 31.7158L19.2958 21.7158C19.202 21.6229 19.1277 21.5122 19.0769 21.3904C19.0261 21.2685 19 21.1378 19 21.0058C19 20.8738 19.0261 20.7431 19.0769 20.6212C19.1277 20.4994 19.202 20.3887 19.2958 20.2958C19.3887 20.202 19.4994 20.1277 19.6212 20.0769C19.7431 20.0261 19.8738 20 20.0058 20C20.1378 20 20.2685 20.0261 20.3904 20.0769C20.5122 20.1277 20.6229 20.202 20.7158 20.2958L30.7158 30.2958C30.8095 30.3887 30.8839 30.4994 30.9347 30.6212C30.9855 30.7431 31.0116 30.8738 31.0116 31.0058C31.0116 31.1378 30.9855 31.2685 30.9347 31.3904C30.8839 31.5122 30.8095 31.6229 30.7158 31.7158C30.6224 31.8085 30.5115 31.8818 30.3897 31.9316C30.2679 31.9813 30.1374 32.0066 30.0058 32.0058Z" fill="#FF4646"/>
<path d="M20.0058 32.0058C19.8742 32.0066 19.7437 31.9813 19.6219 31.9316C19.5 31.8818 19.3892 31.8085 19.2958 31.7158C19.202 31.6229 19.1277 31.5122 19.0769 31.3904C19.0261 31.2685 19 31.1378 19 31.0058C19 30.8738 19.0261 30.7431 19.0769 30.6212C19.1277 30.4994 19.202 30.3887 19.2958 30.2958L29.2958 20.2958C29.3887 20.202 29.4994 20.1277 29.6212 20.0769C29.7431 20.0261 29.8738 20 30.0058 20C30.1378 20 30.2685 20.0261 30.3904 20.0769C30.5122 20.1277 30.6229 20.202 30.7158 20.2958C30.8095 20.3887 30.8839 20.4994 30.9347 20.6212C30.9855 20.7431 31.0116 20.8738 31.0116 21.0058C31.0116 21.1378 30.9855 21.2685 30.9347 21.3904C30.8839 21.5122 30.8095 21.6229 30.7158 21.7158L20.7158 31.7158C20.6224 31.8085 20.5115 31.8818 20.3897 31.9316C20.2679 31.9813 20.1374 32.0066 20.0058 32.0058Z" fill="#FF4646"/>
<path fill-rule="evenodd" clip-rule="evenodd" d="M15.0002 0.00611897C13.3774 -0.0609973 11.7799 0.425632 10.4702 1.38612C9.70288 1.97457 9.0811 2.73149 8.65282 3.59844C8.22455 4.46538 8.00126 5.41916 8.00018 6.38612C8.00018 6.615 7.99963 6.84782 7.99907 7.0839C7.99108 10.4852 7.9815 14.5603 9.5845 17.2124C9.57847 20.8707 8.45838 26.9548 7.89014 28.7661C10.0837 29.1368 12.3056 29.3142 14.5301 29.2961C15.1408 29.2965 15.7512 29.2865 16.3612 29.2661L16.6979 27.6499C15.9792 27.6795 15.2597 27.6949 14.5401 27.6961C12.9797 27.7013 11.4203 27.6145 9.87014 27.4361C10.548 24.616 10.9359 21.7351 11.0284 18.8386C12.005 19.5734 13.2954 20.0061 15.0002 20.0061C16.5 20 19.1024 19.2045 20.5 17C21.366 15.634 22 12.5 22.0002 6.41612L21.9952 6.32075C21.9035 4.56437 21.6658 0.00611897 15.0002 0.00611897ZM15.0002 18.0061C9.92178 18.0061 9.96923 12.2473 10.0013 8.35319C10.0057 7.81521 10.0099 7.31281 10.0002 6.86612C10.8202 6.29289 11.7997 5.99203 12.8002 6.00612C13.2773 5.98133 13.9175 6.02949 14.646 6.08428C16.269 6.20636 18.3299 6.36138 20.0002 5.81612V6.39612C20.4202 13.8361 19.6302 17.7761 15.0002 18.0061Z" fill="#8D9599"/>
<path fill-rule="evenodd" clip-rule="evenodd" d="M19.3106 23.3106C18.4248 24.6417 17.0234 26.0061 15 26.0061C11.05 26.0061 9.36 20.6961 9.36 20.6961L1.58 24.0061C1.12637 24.2287 0.740591 24.5686 0.462746 24.9907C0.184902 25.4127 0.0251209 25.9015 0 26.4061V32.0061H30V32H18V31.2426C18 30.447 18.3161 29.6839 18.8787 29.1213L22 26L19.3106 23.3106Z" fill="#407FB9"/>
</g>
<defs>
<clipPath id="clip0_19575_13868">
<rect width="32" height="32" fill="white"/>
</clipPath>
</defs>
</svg>
