<svg id="Layer_1" data-name="Layer 1" xmlns="http://www.w3.org/2000/svg" viewBox="0 0 32 32"><title>actionitemexecutiontask_32</title><rect x="5" y="2" width="22" height="27" fill="#fff"/><rect x="23" width="2" height="4" rx="1" ry="1" fill="#9da2a5"/><rect x="7" width="2" height="4" rx="1" ry="1" fill="#9da2a5"/><circle cx="23.5" cy="23.5" r="8" fill="#fff"/><path d="M23.5,16.2a7.3,7.3,0,1,1-7.3,7.3,7.31,7.31,0,0,1,7.3-7.3m0-1.2A8.5,8.5,0,1,0,32,23.5,8.5,8.5,0,0,0,23.5,15h0Z" fill="#956939"/><path d="M27.5,23H24V18.5a0.5,0.5,0,0,0-1,0V24h4.5A0.5,0.5,0,0,0,27.5,23Z" fill="#9da2a5"/><path d="M14.57,29H5V7H27v6.61a10.44,10.44,0,0,1,2,1V2a1,1,0,0,0-1-1H26V3a2,2,0,0,1-4,0V1H10V3A2,2,0,0,1,6,3V1H4A1,1,0,0,0,3,2V30a1,1,0,0,0,1,1H16.16A10.53,10.53,0,0,1,14.57,29Z" fill="#9da2a5"/></svg>