<svg id="Layer_1" data-name="Layer 1" xmlns="http://www.w3.org/2000/svg" viewBox="0 0 32 32"><title>Action_Explored_large_4ce7178655eb4140b0b5ec5e075f2da9</title><path d="M28,29H2V10s8.38-9.19,13-9c6.82,0.28,13,9,13,9V29Z" fill="#fff"/><path d="M15.55,21c-2.09,0-3.05-.48-5.12-1.62C7.1,17.56.51,11.32,0.21,11a0.8,0.8,0,0,1,0-1.13,1.82,1.82,0,0,1,1.79,0C2.12,10,8.3,15.69,11.29,17.58c3.21,2,5.46,1.93,8.42,0s8.31-7.39,8.38-7.47a1.59,1.59,0,0,1,1.66.08,0.8,0.8,0,0,1,0,1.13c-0.3.32-6.09,6.14-9.36,8C18.45,20.47,17.56,21,15.55,21Z" fill="#9da2a5"/><path d="M11.08,18.67a0.87,0.87,0,0,1-.07-0.1L2.29,27.29a1,1,0,1,0,1.41,1.41l9-9A5.15,5.15,0,0,1,11.08,18.67Z" fill="#9da2a5"/><path d="M15.55,0c-2.09,0-3.05.48-5.12,1.62C7.1,3.43.51,9.68,0.21,10a0.8,0.8,0,0,0,0,1.13,1.82,1.82,0,0,0,1.79,0C2.12,11,8.3,5.31,11.29,3.42c3.21-2,5.46-1.93,8.42,0s8.31,7.39,8.38,7.47a1.59,1.59,0,0,0,1.66-.08,0.8,0.8,0,0,0,0-1.13c-0.3-.32-6.09-6.14-9.36-8C18.45,0.53,17.56,0,15.55,0Z" fill="#9da2a5"/><polygon points="30 14.09 30 10.3 28 11.44 28 16.74 30 14.09" fill="#9da2a5"/><path d="M28,26.66V29H26.24l-1.51,2H29a1,1,0,0,0,1-1V24Z" fill="#9da2a5"/><path d="M15.06,29H2V11l-2-.5V30a1,1,0,0,0,1,1H17Z" fill="#9da2a5"/><path d="M21.26,32a1.35,1.35,0,0,1-1-.42l-5.66-5.89a1.29,1.29,0,0,1,0-1.88,1.34,1.34,0,0,1,2,0l4.43,4.61,8.41-11.17A1.35,1.35,0,0,1,31.47,17a1.47,1.47,0,0,1,.23,2L22.34,31.45a1.36,1.36,0,0,1-1,.55H21.26Z" fill="#75ad15"/><path d="M23.15,22.73L19,18.57a0.87,0.87,0,0,1-.07.1,5.15,5.15,0,0,1-1.65,1l4.66,4.66Z" fill="#9da2a5"/></svg>