<svg id="Layer_1" data-name="Layer 1" xmlns="http://www.w3.org/2000/svg" viewBox="0 0 16 16"><title>task_small</title><rect x="2" y="4" width="11" height="11" fill="#fff"/><path d="M15.5625,8.5a5.8412,5.8412,0,0,0-3.0731.9543A5.79,5.79,0,0,0,9.4375,8.5v6.125a6.247,6.247,0,0,1,2.734.745.5072.5072,0,0,0,.6782,0,6.1878,6.1878,0,0,1,2.7128-.745Z" fill="#fff"/><path d="M15,9.1156v4.9816a7.6668,7.6668,0,0,0-2.4879.8238A7.6966,7.6966,0,0,0,10,14.0956V9.1186a4.7484,4.7484,0,0,1,1.89.7737,1,1,0,0,0,1.1954,0A4.7626,4.7626,0,0,1,15,9.1156M16,8a6.6755,6.6755,0,0,0-3.5121,1.0906A6.6167,6.6167,0,0,0,9,8v7a7.1387,7.1387,0,0,1,3.1246.8515A.6462.6462,0,0,0,12.5092,16a.67.67,0,0,0,.39-.1485A7.07,7.07,0,0,1,16,15V8Z" fill="#576672"/><polygon points="13 9.521 12 9.521 12 15 13 15 13 9.521 13 9.521" fill="#576672"/><path d="M8,15H2V4H13V7h1V1a1.0029,1.0029,0,0,0-1-1H12V1H11V0H4V1H3V0H2A1.0029,1.0029,0,0,0,1,1V15a1,1,0,0,0,1,1H8Z" fill="#798288"/></svg>