<svg id="Layer_1" data-name="Layer 1" xmlns="http://www.w3.org/2000/svg" viewBox="0 0 32 32"><title>agreementlist_large</title><rect x="2" y="5" width="27" height="21" fill="#fff"/><rect x="6" y="14" width="4" height="10" fill="#c1c5c6"/><path d="M17.2323,20.4273a6.9911,6.9911,0,0,1,12.4225-.2339l1.3-.7508a8.4943,8.4943,0,0,0-15.0263.2323Z" fill="#407fb9"/><path d="M23,30.5a6.9637,6.9637,0,0,1-6.2908-8.6425l-1.348-.7784A8.4855,8.4855,0,0,0,23,32Z" fill="#d7853c"/><path d="M31.5558,20.828l-1.3321.7691A6.9752,6.9752,0,0,1,24,30.5V32a8.4773,8.4773,0,0,0,7.5558-11.172Z" fill="#75ad15"/><path d="M13.8278,26H2V5H29V15.1525a10.0426,10.0426,0,0,1,2,1.7483V4a1.0029,1.0029,0,0,0-1-1H1A1.0029,1.0029,0,0,0,0,4V27a1.0029,1.0029,0,0,0,1,1H14.5786A9.9227,9.9227,0,0,1,13.8278,26Z" fill="#9da2a5"/><path d="M14,23.5a9.444,9.444,0,0,1,1-4.2239V8H11V24h3.0253C14.0166,23.8334,14,23.6688,14,23.5Z" fill="#c1c5c6"/><path d="M20,14.6742V11H16v6.6835A9.5122,9.5122,0,0,1,20,14.6742Z" fill="#c1c5c6"/></svg>