<svg id="Layer_1" data-name="Layer 1" xmlns="http://www.w3.org/2000/svg" viewBox="0 0 16 16"><title>ContractsHistory_small_c09c7eeb59574631be80a589b8cfbec5</title><polygon points="13 15 3 15 3 1 11.5 1 13 2.5 13 15" fill="#fff"/><path d="M6,15H3V1h7V3a1,1,0,0,0,1,1h2V5.58A6.45,6.45,0,0,1,14,6V2.6L11.4,0H3A1,1,0,0,0,2,1V15a1,1,0,0,0,1,1H7ZM11,1l2,2H11V1Z" fill="#798288"/><circle cx="11.5" cy="11.5" r="4" fill="#fff"/><path d="M11.5,8A3.5,3.5,0,1,1,8,11.5,3.5,3.5,0,0,1,11.5,8m0-1A4.5,4.5,0,1,0,16,11.5,4.5,4.5,0,0,0,11.5,7h0Z" fill="#576672"/><path d="M13,12H11.5a0.5,0.5,0,0,1-.5-0.5v-2a0.5,0.5,0,0,1,1,0V11h1A0.5,0.5,0,0,1,13,12Z" fill="#adb1b2"/></svg>