<svg id="Layer_1" data-name="Layer 1" xmlns="http://www.w3.org/2000/svg" viewBox="0 0 32 32"><title>ContractsHistory_large_c09c7eeb59574631be80a589b8cfbec5</title><polygon points="26 29 6 29 6 2 22 2 26 6 26 29" fill="#fff"/><rect x="8" y="15" width="16" height="2" fill="#adb1b2"/><rect x="8" y="11" width="16" height="2" fill="#adb1b2"/><rect x="8" y="19" width="16" height="2" fill="#adb1b2"/><rect x="8" y="23" width="16" height="2" fill="#adb1b2"/><path d="M14.57,29H6V2H21l5,5v6.31A10.41,10.41,0,0,1,28,14V6.5L21.5,0H5A1,1,0,0,0,4,1V30a1,1,0,0,0,1,1H16.16A10.53,10.53,0,0,1,14.57,29Z" fill="#9da2a5"/><path d="M26,29V13.31A10.48,10.48,0,0,0,14.57,29H26Z" fill="#fff"/><path d="M26,6H22V2M20,0V7a1,1,0,0,0,1,1h7Z" fill="#9da2a5"/><circle cx="23.5" cy="23.5" r="8" fill="#fff"/><path d="M23.5,16.2a7.3,7.3,0,1,1-7.3,7.3,7.31,7.31,0,0,1,7.3-7.3m0-1.2A8.5,8.5,0,1,0,32,23.5,8.5,8.5,0,0,0,23.5,15h0Z" fill="#576672"/><path d="M27.5,23H24V18.5a0.5,0.5,0,0,0-1,0V24h4.5A0.5,0.5,0,0,0,27.5,23Z" fill="#9da2a5"/></svg>