<svg id="Layer_1" data-name="Layer 1" xmlns="http://www.w3.org/2000/svg" viewBox="0 0 16 16"><title>CompletedContracts_small_f7a4bbcf69d849c5a86e274fa1b1ce5f</title><polygon points="13 15 3 15 3 1 11.5 1 13 2.5 13 15" fill="#fff"/><path d="M6,15H3V1h7V3a1,1,0,0,0,1,1h3V2.6L11.4,0H3A1,1,0,0,0,2,1V15a1,1,0,0,0,1,1H6V15ZM11,1l2,2H11V1Z" fill="#798288"/><path d="M7.56,15.5h7.88a6.41,6.41,0,0,0,0-1.67c-0.35-1-2.94-3.33-2.94-3.33s2.59-2.35,2.94-3.33a6.41,6.41,0,0,0,0-1.67H7.56a6.41,6.41,0,0,0,0,1.67c0.35,1,2.94,3.33,2.94,3.33s-2.59,2.35-2.94,3.33A6.41,6.41,0,0,0,7.56,15.5Z" fill="#fff"/><path d="M15,6a3,3,0,0,1,0,.49,17.31,17.31,0,0,1-2.7,3.31,1.15,1.15,0,0,0-.29.7,1.19,1.19,0,0,0,.29.7A17.84,17.84,0,0,1,15,14.47,2.82,2.82,0,0,1,15,15H8a3,3,0,0,1,0-.49,17.31,17.31,0,0,1,2.7-3.31A1,1,0,0,0,11,10.5a1.28,1.28,0,0,0-.29-0.7A17.84,17.84,0,0,1,8,6.53,2.83,2.83,0,0,1,8,6h7m0.93-1H7.07a6.89,6.89,0,0,0,0,1.83C7.47,7.92,10,10.5,10,10.5s-2.53,2.58-2.93,3.67a6.89,6.89,0,0,0,0,1.83h8.86a6.89,6.89,0,0,0,0-1.83C15.53,13.08,13,10.5,13,10.5s2.53-2.58,2.93-3.67a6.9,6.9,0,0,0,0-1.83h0Z" fill="#adb1b2"/><path d="M10,7a18.13,18.13,0,0,0,1.51,2A18.34,18.34,0,0,0,13,7H10Z" fill="#dfaa1a"/><path d="M13,14a17.11,17.11,0,0,0-1.52-2A18.1,18.1,0,0,0,10,14h3Z" fill="#dfaa1a"/></svg>