<svg id="Layer_1" data-name="Layer 1" xmlns="http://www.w3.org/2000/svg" viewBox="0 0 32 32"><title>CompletedContracts_large_f7a4bbcf69d849c5a86e274fa1b1ce5f</title><polygon points="26 29 6 29 6 2 22 2 26 6 26 29" fill="#fff"/><path d="M26,6H22V2M20,0V7a1,1,0,0,0,1,1h7Z" fill="#9da2a5"/><rect x="8" y="11" width="16" height="2" fill="#adb1b2"/><rect x="8" y="15" width="11" height="2" fill="#adb1b2"/><rect x="8" y="19" width="11" height="2" fill="#adb1b2"/><path d="M20.52,31.5h11A14.51,14.51,0,0,0,31.3,29c-0.49-1.48-3.8-5-3.8-5s3.31-3.52,3.8-5a14.51,14.51,0,0,0,.24-2.5h-11A13.19,13.19,0,0,0,20.7,19c0.49,1.48,3.8,5,3.8,5s-3.31,3.52-3.8,5A13.19,13.19,0,0,0,20.52,31.5Z" fill="#fff"/><path d="M31,17a6.38,6.38,0,0,1,0,1.35c-0.34,1-2.45,3.59-3.7,5A1.17,1.17,0,0,0,27,24a1.06,1.06,0,0,0,.26.67c1.25,1.39,3.36,4,3.7,5A6.35,6.35,0,0,1,31,31h-9.9a6.37,6.37,0,0,1,0-1.35c0.34-1,2.42-3.59,3.65-5A1.08,1.08,0,0,0,25,24a1.36,1.36,0,0,0-.25-0.66c-1.23-1.39-3.31-4-3.65-5a6.35,6.35,0,0,1,0-1.36H31m0.93-1H20.15a10.93,10.93,0,0,0,0,2.67C20.68,20.25,24,24,24,24s-3.32,3.75-3.85,5.33a10.93,10.93,0,0,0,0,2.67H31.91a10.93,10.93,0,0,0,0-2.67C31.38,27.75,28,24,28,24s3.38-3.75,3.91-5.33a10.93,10.93,0,0,0,0-2.67h0Z" fill="#adb1b2"/><rect x="8" y="23" width="11" height="2" fill="#adb1b2"/><path d="M19,29H6V2H21l5,5v8h2V6.5L21.5,0H5A1,1,0,0,0,4,1V30a1,1,0,0,0,1,1H19V29Z" fill="#9da2a5"/><path d="M24.5,20A18.13,18.13,0,0,0,26,22a18.34,18.34,0,0,0,1.49-2h-3Z" fill="#dfaa1a"/><path d="M23.5,30C23.66,28.91,26,26.67,26,26.67A10.7,10.7,0,0,1,28.5,30h-5Z" fill="#dfaa1a"/></svg>