<svg id="Layer_1" data-name="Layer 1" xmlns="http://www.w3.org/2000/svg" viewBox="0 0 32 32"><title>IncomingInvoice_large</title><polygon points="26 29 6 29 6 2 22 2 26 6 26 29" fill="#fff"/><path d="M26,6H22V2M20,0V7a1,1,0,0,0,1,1h7Z" fill="#9da2a5"/><rect x="8" y="13" width="16" height="2" fill="#bfc2c4"/><rect x="8" y="5" width="8" height="2" fill="#7da7b5"/><rect x="8" y="17" width="14" height="2" fill="#bfc2c4"/><rect x="8" y="21" width="14" height="2" fill="#bfc2c4"/><rect x="21" y="20" width="10" height="6" transform="translate(49 -3) rotate(90)" fill="#75ad15"/><polygon points="26 32 32 25 20 25 26 32" fill="#75ad15"/><rect x="8" y="9" width="8" height="2" fill="#667f94"/><rect x="8" y="13" width="2" height="14" fill="#bfc2c4"/><rect x="12" y="13" width="2" height="14" fill="#bfc2c4"/><polygon points="20 23 19 23 19 25 18 25 18 24 18 13 20 13 20 23" fill="#bfc2c4"/><rect x="22" y="13" width="2" height="4" fill="#bfc2c4"/><rect x="8" y="25" width="11" height="2" fill="#bfc2c4"/><path d="M21,29H6V2H21l5,5V17h2V6.5L21.5,0H5A1,1,0,0,0,4,1V30a1,1,0,0,0,1,1H23Z" fill="#9da2a5"/></svg>