<svg id="Layer_1" data-name="Layer 1" xmlns="http://www.w3.org/2000/svg" viewBox="0 0 32 32"><title>IssuanceJournal_large_37d0e5465b384b60b6805ab862dcea47-01</title><polygon points="26 29 6 29 6 2 22 2 26 6 26 29" fill="#fff"/><path d="M26,6H22V2M20,0V7a1,1,0,0,0,1,1h7Z" fill="#9da2a5"/><path d="M6.51,27.19h11c2,0,3.66-2.1,3.66-4.12h0c1.09-.09,1.6-1.89.92-2.75,1.34-.54,1.06-2.6,0-2.75,0.46-.2.92-0.52,0.92-2.29a2,2,0,0,0-1.83-1.83H13.83c1-.79,1.54-3.25,0-3.66C9.83,8.88,1,14.37,1,14.37v9.16C1,25.55,4.48,27.19,6.51,27.19Z" fill="#fff"/><path d="M12.9,11a0.94,0.94,0,0,1,.81.76c0,0.63-.16,1.24-1.77,1.24a2,2,0,0,0,2,2H21a1,1,0,0,1,1,1,0.89,0.89,0,0,1-1,1,8.72,8.72,0,0,0,0,1,1,1,0,1,1,0,2,1.43,1.43,0,0,0,0,1c0.27,0.29.4,2-1,2,0,1.21-1,3-2,3H6c-1.64,0-3.91-1.36-4-2V15.13C4.68,13.58,9.93,11,12.9,11h0m9,4h0m-0.56,6.59h0M12.9,9C8.2,9,0,14,0,14V24c0,2.21,3.79,4,6,4H18c2.21,0,4-2.29,4-4.5,1.19-.09,1.75-2.06,1-3,1.47-.59,1.16-2.84,0-3,0.5-.22,1-0.92,1-2.5a2.14,2.14,0,0,0-2-2H14.92a1.85,1.85,0,0,0,1-2c-0.07-.75-1-1.91-3-2h0Z" fill="#e0ad5c"/><rect x="13" y="17" width="9" height="1" transform="translate(35 35) rotate(-180)" fill="#e0ad5c"/><path d="M10,13h5a1,1,0,0,1,1,1v0a1,1,0,0,1-1,1H10a0,0,0,0,1,0,0V13A0,0,0,0,1,10,13Z" transform="translate(26 28) rotate(-180)" fill="#e0ad5c"/><rect x="13" y="20" width="9" height="1" transform="translate(35 41) rotate(-180)" fill="#e0ad5c"/><rect x="13" y="23" width="8" height="1" transform="translate(34 47) rotate(-180)" fill="#e0ad5c"/><path d="M21.5,0H5A1,1,0,0,0,4,1v9L6,9V2H21l5,5V29H4v1a1,1,0,0,0,1,1H27a1,1,0,0,0,1-1V6.5Z" fill="#9da2a5"/></svg>