<svg id="Layer_1" data-name="Layer 1" xmlns="http://www.w3.org/2000/svg" viewBox="0 0 32 32"><title>documentreviewtask_32</title><polygon points="23 29 5 29 5 2 27 2 27 24 23 29" fill="#fff"/><rect x="23" width="2" height="4" rx="1" ry="1" fill="#9da2a5"/><rect x="7" width="2" height="4" rx="1" ry="1" fill="#9da2a5"/><rect x="13" y="21" width="14" height="6" fill="#407fb9"/><polygon points="32 24 23 30 23 18 32 24" fill="#407fb9"/><path d="M5,7H27V18.67L29,20V2a1,1,0,0,0-1-1H26V3a2,2,0,0,1-4,0V1H10V3A2,2,0,0,1,6,3V1H4A1,1,0,0,0,3,2V30a1,1,0,0,0,1,1H22V29H5V7Z" fill="#9da2a5"/></svg>