<svg id="Layer_1" data-name="Layer 1" xmlns="http://www.w3.org/2000/svg" viewBox="0 0 32 32"><title>Person_large</title><path d="M11.24,17.6A44.06,44.06,0,0,1,9.81,28.78a39.23,39.23,0,0,0,12.46.16s-1.83-7.64-1.58-11.28c0.15-2.23.07-5.07-5.08-5.2C10.92,12.32,11.24,17.6,11.24,17.6Z" fill="#fff"/><path d="M15.95,14a4.32,4.32,0,0,1,3.25,1,3.32,3.32,0,0,1,.68,2.47c-0.18,2.76.72,7.39,1.29,9.92a54.71,54.71,0,0,1-5.63.3,39.7,39.7,0,0,1-4.67-.26,42.61,42.61,0,0,0,1.18-10,1.62,1.62,0,0,0,0-.17,3.15,3.15,0,0,1,.56-2.18A3.93,3.93,0,0,1,15.65,14h0.3m0-1.6H15.61c-6,.17-5.08,3.55-5.08,3.55,0.34,3.31-1,10.77-1.64,12.81a38,38,0,0,0,6.64.53,53.84,53.84,0,0,0,7.57-.53S20.89,20.89,21.45,16c0.15-2.18-.65-3.56-5.5-3.56h0Z" fill="#8d9599"/><path d="M9.59,6.5c0.13,4.33.11,8.35,2.49,11.75,4,3.33,7.22.35,7.22,0.35s3-1.33,3.09-12.13c0-2.23-1.56-6-6.71-5.87C9.71,0.77,9.59,6.5,9.59,6.5Z" fill="#fff"/><path d="M16,0a7.16,7.16,0,0,0-4.53,1.38A6.31,6.31,0,0,0,9,6.38C9,12,8.67,20,16,20c5.44-.33,6.89-2.79,7-13.59C22.91,4.73,22.79,0,16,0Zm0,18c-5.78,0-4.92-7.46-5-11.14A4.77,4.77,0,0,1,13.8,6c1.54-.08,4.78.6,7.2-0.19,0,0.21,0,.41,0,0.58C21.42,13.83,20.63,17.77,16,18Z" fill="#8d9599"/><path d="M31,32H1V26.4A2.83,2.83,0,0,1,2.58,24l7.78-3.31S12.05,26,16,26s5.53-5.2,5.53-5.2L29.42,24A3.44,3.44,0,0,1,31,26.4V32Z" fill="#d7853c"/></svg>