<svg id="Layer_1" data-name="Layer 1" xmlns="http://www.w3.org/2000/svg" viewBox="0 0 32 32"><title>large_Forward_3d1fcc96015b48f5b4d6e7428d453dd0</title><path d="M15.21,16.29A52.68,52.68,0,0,1,14.81,22L22,26l3.14,0.49s-1.64-6.88-1.42-10.15c0.13-2,.07-4.56-4.57-4.68C14.93,11.54,15.21,16.29,15.21,16.29Z" fill="#fff"/><path d="M14.28,20.22l1.6,1.24a27,27,0,0,0,.33-4.95,1.46,1.46,0,0,0,0-.15,2.9,2.9,0,0,1,.24-2.26,3.53,3.53,0,0,1,2.75-1h0.27a3.88,3.88,0,0,1,2.93.91c0.58,0.63.26,1.55,0.22,2.21a39.11,39.11,0,0,0,1.16,8.92c-0.81.09-1.72,0.18-2.85,0.24l1.74,1.35c2-.14,3.25-0.35,3.25-0.35s-2-7.12-1.49-11.53c0.13-2-.59-3.2-5-3.2H19.15c-5.37.15-4.57,3.2-4.57,3.2A26.35,26.35,0,0,1,14.28,20.22Z" fill="#8d9599"/><path d="M13.73,6.3c0.12,3.9.1,7.51,2.24,10.58,3.61,3,6.5.31,6.5,0.31S25.13,16,25.24,6.27c0-2-1.4-5.41-6-5.28A5.43,5.43,0,0,0,13.73,6.3Z" fill="#fff"/><path d="M19.5,0c-1.9,0-6,.58-6.5,5.73C13,10.8,12.9,18,19.48,18c4.74,0,6.4-2.51,6.52-12.23C26,2.12,22.93-.14,19.5,0Zm0,16C14.28,16,15,9.49,15,6.18a4.31,4.31,0,0,1,2.52-.78c1.38-.07,4.3.54,6.48-0.17,0,0.19,0,.37,0,0.52C24.38,12.45,23.66,15.79,19.48,16Z" fill="#8d9599"/><path d="M30.58,22l-6.09-2.92s-1.36,3.52-5,3.52-5.14-3.39-5.14-3.39l-2.51,1L20.5,26l-3,2H32V24.21A3.09,3.09,0,0,0,30.58,22Z" fill="#407fb9"/><polygon points="0 23 9 23 9 20 18 26 9 32 9 29 0 29 0 23" fill="#75ad15"/></svg>