<svg id="Layer_1" data-name="Layer 1" xmlns="http://www.w3.org/2000/svg" viewBox="0 0 32 32"><title>large_AddResolution_d172fd883e4f4052b23f66cdec670dd2</title><polygon points="26 24 22 29 6 29 6 2 22 2 26 6 26 24" fill="#fff"/><path d="M26,6H22V2M20,0V7a1,1,0,0,0,1,1h7Z" fill="#9da2a5"/><rect x="8" y="11" width="16" height="2" fill="#adb1b2"/><rect x="8" y="15" width="16" height="2" fill="#adb1b2"/><rect x="8" y="19" width="16" height="2" fill="#adb1b2"/><path d="M15.72,29H6V2H21l5,5V19.45l2-2.66V6.5L21.5,0H5A1,1,0,0,0,4,1V30a1,1,0,0,0,1,1H17.64Z" fill="#9da2a5"/><path d="M21.26,32a1.35,1.35,0,0,1-1-.42l-5.66-5.89a1.29,1.29,0,0,1,0-1.88,1.34,1.34,0,0,1,2,0l4.43,4.61,8.41-11.17A1.35,1.35,0,0,1,31.47,17a1.47,1.47,0,0,1,.23,2L22.34,31.45a1.36,1.36,0,0,1-1,.55H21.26Z" fill="#75ad15"/></svg>