<svg id="Layer_1" data-name="Layer 1" xmlns="http://www.w3.org/2000/svg" viewBox="0 0 16 16"><title>small_AddResolution_d172fd883e4f4052b23f66cdec670dd2</title><polygon points="13 10 9 15 3 15 3 1 11.5 1 13 2.5 13 10" fill="#fff"/><rect x="4" y="6" width="8" height="1" fill="#adb1b2"/><rect x="4" y="8" width="8" height="1" fill="#adb1b2"/><path d="M11,1l2,2H11V1M10,0V3a1,1,0,0,0,1,1h3V2.6L11.4,0H10Z" fill="#798288"/><path d="M7,15H3V1h7.94V0H3A1,1,0,0,0,2,1V15a1,1,0,0,0,1,1H7.92Z" fill="#798288"/><path d="M13.75,6.67A1.85,1.85,0,0,1,14,6.41V3H13V7.67Z" fill="#798288"/><path d="M9.65,16a0.8,0.8,0,0,1-.58-0.25L5.73,12.27a0.76,0.76,0,0,1,0-1.11,0.79,0.79,0,0,1,1.21,0l2.62,2.73,5-6.6a0.8,0.8,0,0,1,1.14-.14,0.87,0.87,0,0,1,.14,1.19l-5.54,7.35A0.8,0.8,0,0,1,9.7,16h0Z" fill="#75ad15"/></svg>