<svg id="Layer_1" data-name="Layer 1" xmlns="http://www.w3.org/2000/svg" viewBox="0 0 16 16"><title>GroupIconDocuments_small_136b5b7b053a4ca18f0579af1fc2dffb</title><polygon points="15 12 7 12 7 1 13.5 1 15 2.5 15 12" fill="#fff"/><rect x="11" y="5" width="3" height="1" fill="#adb1b2"/><rect x="11" y="7" width="3" height="1" fill="#adb1b2"/><rect x="11" y="9" width="3" height="1" fill="#adb1b2"/><path d="M13,1l2,2H13V1M12,0V3a1,1,0,0,0,1,1h3V2.6L13.4,0H12Z" fill="#798288"/><polygon points="9 15 1 15 1 4 7.5 4 9 5.5 9 15" fill="#fff"/><rect x="2" y="8" width="6" height="1" fill="#adb1b2"/><rect x="2" y="10" width="6" height="1" fill="#adb1b2"/><rect x="2" y="12" width="6" height="1" fill="#adb1b2"/><path d="M9,6v9H1V4H6.94V3H1A1,1,0,0,0,0,4V15a1,1,0,0,0,1,1H9a1,1,0,0,0,1-1V6H9Z" fill="#798288"/><path d="M7,4L9,6H7V4M6,3V6A1,1,0,0,0,7,7h3V5.6L7.4,3H6Z" fill="#798288"/><path d="M7,2V1h5.94V0H7A1,1,0,0,0,6,1V2H7Z" fill="#798288"/><path d="M15,3v9H11v1h4a1,1,0,0,0,1-1V3H15Z" fill="#798288"/></svg>