<svg id="Layer_1" data-name="Layer 1" xmlns="http://www.w3.org/2000/svg" viewBox="0 0 16 16"><title>Action_RequestReport_small_20dcc20765544429b0c939b75cc6d6bf</title><path d="M13,12.5H7.5L4.5,15V12.5H3A2.22,2.22,0,0,1,.5,10V3A2.22,2.22,0,0,1,3,.5H13A2.22,2.22,0,0,1,15.5,3v7A2.22,2.22,0,0,1,13,12.5Z" fill="#fff"/><path d="M13,1a2,2,0,0,1,2,2v7a2,2,0,0,1-2,2H8a1,1,0,0,0-.6.2L5,14V13a1,1,0,0,0-1-1H3a2,2,0,0,1-2-2V3A2,2,0,0,1,3,1H13m0-1H3A3,3,0,0,0,0,3v7a3,3,0,0,0,3,3H4v3l4-3h5a3,3,0,0,0,3-3V3a3,3,0,0,0-3-3h0Z" fill="#798288"/><path d="M7.11,8A1.69,1.69,0,0,1,7,7.69a1.88,1.88,0,0,1,0-.37,1,1,0,0,1,.13-0.52,2.14,2.14,0,0,1,.33-0.44A5.23,5.23,0,0,1,7.88,6l0.43-.37a2,2,0,0,0,.33-0.38,0.77,0.77,0,0,0,.13-0.44,0.69,0.69,0,0,0-.1-0.37,0.82,0.82,0,0,0-.27-0.27A1.34,1.34,0,0,0,8,4a2.07,2.07,0,0,0-.47-0.05A2.34,2.34,0,0,0,6,4.55V3.46A4,4,0,0,1,7.85,3a3.36,3.36,0,0,1,.83.1,2.22,2.22,0,0,1,.69.29,1.45,1.45,0,0,1,.46.48,1.32,1.32,0,0,1,.17.67,1.45,1.45,0,0,1-.14.65,2.33,2.33,0,0,1-.36.52A3.21,3.21,0,0,1,9,6.15l-0.46.37a2.16,2.16,0,0,0-.36.38,0.75,0.75,0,0,0-.14.44,1.09,1.09,0,0,0,.06.37A2.23,2.23,0,0,0,8.26,8H7.11Zm0.62,2.09A0.65,0.65,0,0,1,7.27,9.9a0.61,0.61,0,0,1-.19-0.46A0.6,0.6,0,0,1,7.27,9a0.64,0.64,0,0,1,.92,0,0.6,0.6,0,0,1,.19.46,0.61,0.61,0,0,1-.19.46A0.65,0.65,0,0,1,7.73,10.09Z" fill="#576672"/></svg>