<svg id="Layer_1" data-name="Layer 1" xmlns="http://www.w3.org/2000/svg" viewBox="0 0 16 16"><title>controloforders_small</title><rect x="1" y="2" width="14" height="11" fill="#fff"/><rect x="4" y="6" width="2" height="5" fill="#adb1b2"/><rect x="7" y="4" width="2" height="7" fill="#adb1b2"/><rect x="10" y="5" width="2" height="6" fill="#adb1b2"/><path d="M6,13H1V2H15V7h1V2a1,1,0,0,0-1-1H1A1,1,0,0,0,0,2V13a1,1,0,0,0,1,1H6Z" fill="#798288"/><path d="M15,13V7.2573A5.494,5.494,0,0,0,6.2124,13Z" fill="#fff"/><circle cx="11.5" cy="11.5" r="4" fill="#fff"/><path d="M11.5,8A3.5,3.5,0,1,1,8,11.5,3.504,3.504,0,0,1,11.5,8m0-1A4.5,4.5,0,1,0,16,11.5,4.5,4.5,0,0,0,11.5,7Z" fill="#956939"/><path d="M13,12H11.5a.5.5,0,0,1-.5-.5v-2a.5.5,0,0,1,1,0V11h1a.5.5,0,0,1,0,1Z" fill="#adb1b2"/></svg>