<svg width="16" height="16" viewBox="0 0 16 16" fill="none" xmlns="http://www.w3.org/2000/svg">
<g clip-path="url(#clip0)">
<path d="M13 4H2V15H13V4Z" fill="white"/>
<path fill-rule="evenodd" clip-rule="evenodd" d="M12 0H13C13.2652 0 13.5196 0.105357 13.7071 0.292893C13.8946 0.48043 14 0.734784 14 1V5L13 6V4H2V15H13V12L14 11V15C14 15.2652 13.8946 15.5196 13.7071 15.7071C13.5196 15.8946 13.2652 16 13 16H2C1.73478 16 1.48043 15.8946 1.29289 15.7071C1.10536 15.5196 1 15.2652 1 15V1C1 0.734784 1.10536 0.48043 1.29289 0.292893C1.48043 0.105357 1.73478 0 2 0H3V1H4V0H11V1H12V0Z" fill="#798288"/>
<path d="M14.09 6.5L14.44 6.15C14.4864 6.10313 14.5417 6.06594 14.6027 6.04055C14.6636 6.01517 14.729 6.0021 14.795 6.0021C14.861 6.0021 14.9263 6.01517 14.9873 6.04055C15.0482 6.06594 15.1035 6.10313 15.15 6.15L15.86 6.86C15.9068 6.90648 15.944 6.96178 15.9694 7.02271C15.9948 7.08364 16.0079 7.14899 16.0079 7.215C16.0079 7.281 15.9948 7.34636 15.9694 7.40729C15.944 7.46821 15.9068 7.52352 15.86 7.57L15.51 7.92L14.09 6.5Z" fill="#D7853C"/>
<path d="M15.15 8.27L10.12 13.29L8 14L8.71 11.87L13.73 6.85L15.15 8.27Z" fill="#D7853C"/>
</g>
<defs>
<clipPath id="clip0">
<rect width="16" height="16" fill="white"/>
</clipPath>
</defs>
</svg>
