<svg id="Layer_1" data-name="Layer 1" xmlns="http://www.w3.org/2000/svg" viewBox="0 0 32 32"><title>add_user_large</title><path d="M10.24,17.6A43.86,43.86,0,0,1,8.81,28.77a39.27,39.27,0,0,0,12.46.16s-1.83-7.64-1.58-11.28c.15-2.23.07-5.07-5.08-5.2C9.92,12.32,10.24,17.6,10.24,17.6Z" fill="#fff"/><path d="M15,14a4.31,4.31,0,0,1,3.25,1,3.33,3.33,0,0,1,.68,2.47c-.19,2.76.72,7.39,1.28,9.92a55.17,55.17,0,0,1-5.63.3,37.59,37.59,0,0,1-4.66-.26,43,43,0,0,0,1.18-10,1.11,1.11,0,0,0,0-.17,3.17,3.17,0,0,1,.56-2.18,3.93,3.93,0,0,1,3.06-1.11H15m0-1.6h-.34C8.65,12.61,9.53,16,9.53,16c.34,3.31-1,10.77-1.64,12.81a38.06,38.06,0,0,0,6.64.53,54.36,54.36,0,0,0,7.58-.53S19.89,20.89,20.45,16c.15-2.18-.65-3.56-5.5-3.56Z" fill="#8d9599"/><path d="M8.59,6.5c.13,4.33.1,8.35,2.48,11.75,4,3.34,7.22.35,7.22.35s3-1.33,3.09-12.13c0-2.23-1.55-6-6.71-5.87C8.71.77,8.59,6.5,8.59,6.5Z" fill="#fff"/><path d="M15,0a7.09,7.09,0,0,0-4.53,1.38C8.56,2.66,8.16,4.72,8,6.38,8,12,7.67,20,15,20c5.44-.33,6.89-2.79,7-13.59C21.91,4.73,21.79,0,15,0Zm0,18c-5.78,0-4.93-7.46-5-11.14A4.78,4.78,0,0,1,12.8,6c1.54-.08,4.78.6,7.2-.19,0,.2,0,.41,0,.58C20.42,13.83,19.63,17.77,15,18Z" fill="#8d9599"/><path d="M25,22.61,20.53,20.8S19,26,15,26s-5.64-5.31-5.64-5.31L1.58,24A2.84,2.84,0,0,0,0,26.4V32H25Z" fill="#6fa6d4"/><path d="M25,32V22.61L22,21.4V22H20.05A7.47,7.47,0,0,1,17,25.52V27a1,1,0,0,0,1,1h4v4Z" fill="#fff"/><path d="M31.5,23H27V18.5a.5.5,0,0,0-.5-.5h-3a.5.5,0,0,0-.5.5V23H18.5a.5.5,0,0,0-.5.5v3a.5.5,0,0,0,.5.5H23v4.5a.5.5,0,0,0,.5.5h3a.5.5,0,0,0,.5-.5V27h4.5a.5.5,0,0,0,.5-.5v-3A.5.5,0,0,0,31.5,23Z" fill="#6fb205"/><rect x="17" y="22" width="6" height="1" fill="#fff"/></svg>