<svg width="32" height="32" viewBox="0 0 32 32" fill="none" xmlns="http://www.w3.org/2000/svg">
<g clip-path="url(#clip0)">
<path d="M27 2H5V29H27V2Z" fill="white"/>
<path d="M25 1C25 0.447715 24.5523 0 24 0C23.4477 0 23 0.447715 23 1V3C23 3.55228 23.4477 4 24 4C24.5523 4 25 3.55228 25 3V1Z" fill="#9DA2A5"/>
<path d="M9 1C9 0.447715 8.55228 0 8 0C7.44772 0 7 0.447715 7 1V3C7 3.55228 7.44772 4 8 4C8.55228 4 9 3.55228 9 3V1Z" fill="#9DA2A5"/>
<path fill-rule="evenodd" clip-rule="evenodd" d="M30 12.36L31.67 14C31.7791 14.1085 31.8653 14.2378 31.9235 14.3803C31.9817 14.5227 32.0107 14.6754 32.0089 14.8292C32.007 14.9831 31.9743 15.135 31.9126 15.276C31.851 15.417 31.7617 15.5442 31.65 15.65L30.7695 16.5305L27.4875 13.2865L28.36 12.42C28.5789 12.202 28.8714 12.0737 29.18 12.06C29.461 12.0663 29.7305 12.1727 29.94 12.36H30ZM26.8752 13.8945L16.82 23.88L16 28L20.12 27.18L30.1546 17.1454L26.8752 13.8945Z" fill="#D7853C"/>
<path d="M26 1H28C28.2652 1 28.5196 1.10536 28.7071 1.29289C28.8946 1.48043 29 1.73478 29 2V10L27 12V7H5V29H27V22L29 20V30C29 30.2652 28.8946 30.5196 28.7071 30.7071C28.5196 30.8946 28.2652 31 28 31H4C3.73478 31 3.48043 30.8946 3.29289 30.7071C3.10536 30.5196 3 30.2652 3 30V2C3 1.73478 3.10536 1.48043 3.29289 1.29289C3.48043 1.10536 3.73478 1 4 1H6V3C6 3.53043 6.21071 4.03914 6.58579 4.41421C6.96086 4.78929 7.46957 5 8 5C8.53043 5 9.03914 4.78929 9.41421 4.41421C9.78929 4.03914 10 3.53043 10 3V1H22V3C22 3.53043 22.2107 4.03914 22.5858 4.41421C22.9609 4.78929 23.4696 5 24 5C24.5304 5 25.0391 4.78929 25.4142 4.41421C25.7893 4.03914 26 3.53043 26 3V1Z" fill="#9DA2A5"/>
</g>
<defs>
<clipPath id="clip0">
<rect width="32" height="32" fill="white"/>
</clipPath>
</defs>
</svg>
