<svg id="Layer_1" data-name="Layer 1" xmlns="http://www.w3.org/2000/svg" viewBox="0 0 32 32"><title>Action_RequestReport_large_20dcc20765544429b0c939b75cc6d6bf</title><path d="M24.44,24H13L8,29V24c-3.11,0-6.06-2.08-6.06-5.19V6.63A5.62,5.62,0,0,1,7.56,1H24.44a5.62,5.62,0,0,1,5.63,5.63V18.81C30.06,21.92,27.54,24,24.44,24Z" fill="#fff"/><path d="M25,2a4,4,0,0,1,4,4V19a4,4,0,0,1-4,4H14a2,2,0,0,0-1.41.59L9,27.17V25a2,2,0,0,0-2-2,4,4,0,0,1-4-4V6A4,4,0,0,1,7,2H25m0-2H7A6,6,0,0,0,1,6V19a6,6,0,0,0,6,6v7l7-7H25a6,6,0,0,0,6-6V6a6,6,0,0,0-6-6h0Z" fill="#9da2a5"/><path d="M14.67,15a2.85,2.85,0,0,1-.13-0.49,3.23,3.23,0,0,1-.06-0.6,1.76,1.76,0,0,1,.2-0.84,3.4,3.4,0,0,1,.5-0.7,8,8,0,0,1,.64-0.63q0.35-.3.64-0.59a3.29,3.29,0,0,0,.5-0.61,1.29,1.29,0,0,0,.2-0.7A1.17,1.17,0,0,0,17,9.24a1.27,1.27,0,0,0-.4-0.43A1.9,1.9,0,0,0,16,8.56a2.86,2.86,0,0,0-.71-0.08,3.4,3.4,0,0,0-2.32,1V7.73A5.73,5.73,0,0,1,15.78,7,4.75,4.75,0,0,1,17,7.16a3.23,3.23,0,0,1,1,.47,2.28,2.28,0,0,1,.69.77A2.22,2.22,0,0,1,19,9.48a2.44,2.44,0,0,1-.21,1,3.79,3.79,0,0,1-.53.84,4.94,4.94,0,0,1-.69.68q-0.37.3-.69,0.59a3.37,3.37,0,0,0-.53.62,1.25,1.25,0,0,0-.21.71,1.84,1.84,0,0,0,.09.59,3.63,3.63,0,0,0,.18.45H14.67Zm0.93,4a1.16,1.16,0,0,1-.78-0.29,0.9,0.9,0,0,1-.32-0.7,0.89,0.89,0,0,1,.32-0.7,1.15,1.15,0,0,1,1.55,0,0.89,0.89,0,0,1,.32.7,0.9,0.9,0,0,1-.32.7A1.15,1.15,0,0,1,15.6,19Z" fill="#576672"/></svg>