<svg width="16" height="16" viewBox="0 0 16 16" fill="none" xmlns="http://www.w3.org/2000/svg">
<path d="M3.79004 5.62558L2.79004 5.23558C2.79004 5.10558 2.79004 4.98558 2.79004 4.85558C3.08544 4.2539 3.21326 3.58374 3.16004 2.91558C3.13751 2.66626 3.02229 2.43445 2.83714 2.26596C2.65199 2.09748 2.41037 2.00456 2.16004 2.00558H2.00004C1.86936 1.99172 1.73723 2.00375 1.61121 2.04099C1.48519 2.07822 1.36774 2.13993 1.26558 2.22259C1.16342 2.30525 1.07855 2.40723 1.01583 2.5227C0.953108 2.63818 0.913761 2.76489 0.900039 2.89558V3.01558C0.856514 3.6488 0.977064 4.28255 1.25004 4.85558C1.25004 4.99558 1.25004 5.13558 1.25004 5.27558L0.250039 5.63558C0.190482 5.66637 0.139868 5.71199 0.103083 5.76804C0.0662981 5.8241 0.0445848 5.88869 0.0400391 5.95558V7.01558H4.00004V5.95558C3.99016 5.88891 3.96636 5.82507 3.93018 5.76822C3.894 5.71136 3.84625 5.66276 3.79004 5.62558Z" fill="#798288"/>
<path d="M3.79004 12.6256L2.79004 12.2356C2.79004 12.1056 2.79004 11.9856 2.79004 11.8556C3.08544 11.2539 3.21326 10.5837 3.16004 9.91558C3.13751 9.66626 3.02229 9.43445 2.83714 9.26596C2.65199 9.09748 2.41037 9.00456 2.16004 9.00558H2.00004C1.86936 8.99172 1.73723 9.00375 1.61121 9.04099C1.48519 9.07822 1.36774 9.13993 1.26558 9.22259C1.16342 9.30525 1.07855 9.40723 1.01583 9.5227C0.953108 9.63818 0.913761 9.76489 0.900039 9.89558V10.0156C0.856514 10.6488 0.977064 11.2826 1.25004 11.8556C1.25004 11.9956 1.25004 12.1356 1.25004 12.2756L0.250039 12.6356C0.190482 12.6664 0.139868 12.712 0.103083 12.768C0.0662981 12.8241 0.0445848 12.8887 0.0400391 12.9556V14.0156H4.00004V12.9556C3.99016 12.8889 3.96636 12.8251 3.93018 12.7682C3.894 12.7114 3.84625 12.6628 3.79004 12.6256Z" fill="#798288"/>
<path d="M16 4H5V6H16V4Z" fill="#ADB1B2"/>
<path d="M9 11H5V13H9V11Z" fill="#ADB1B2"/>
<path fill-rule="evenodd" clip-rule="evenodd" d="M14 10H12V12H10V14H12V16H14V14H16V12H14V10Z" fill="#4D7EB3"/>
</svg>
