<svg width="32" height="32" viewBox="0 0 32 32" fill="none" xmlns="http://www.w3.org/2000/svg">
<g clip-path="url(#clip0_18338_13785)">
<path d="M9.59 8.46594L7.34 7.56593C7.25713 7.23894 7.21349 6.90325 7.21 6.56593C7.685 5.67769 7.9259 4.68309 7.91 3.67594C7.90734 3.4282 7.85149 3.18394 7.74625 2.95965C7.64102 2.73537 7.48883 2.53631 7.3 2.37594C7.12116 2.23068 6.91435 2.12376 6.69242 2.06183C6.4705 1.9999 6.23822 1.98428 6.01 2.01594C5.62733 1.99914 5.24919 2.10418 4.93 2.31594C4.69756 2.46602 4.50451 2.66967 4.36705 2.90979C4.22959 3.14991 4.15173 3.4195 4.14 3.69594C4.0704 4.70008 4.30008 5.70231 4.8 6.57593C4.82394 6.91461 4.77973 7.25464 4.67 7.57593L2.42 8.44594C2.29975 8.50339 2.19725 8.59226 2.12332 8.70315C2.0494 8.81404 2.00679 8.94284 2 9.07593V12.0159H10V9.10594C9.98248 8.97581 9.9367 8.85109 9.86588 8.74053C9.79505 8.62997 9.70089 8.53625 9.59 8.46594V8.46594Z" fill="#798288"/>
<path d="M9.59 22.4659L7.34 21.5659C7.25713 21.2389 7.21349 20.9032 7.21 20.5659C7.685 19.6777 7.9259 18.6831 7.91 17.6759C7.90734 17.4282 7.85149 17.1839 7.74625 16.9597C7.64102 16.7354 7.48883 16.5363 7.3 16.3759C7.12116 16.2307 6.91435 16.1238 6.69242 16.0618C6.4705 15.9999 6.23822 15.9843 6.01 16.0159C5.62733 15.9991 5.24919 16.1042 4.93 16.3159C4.69756 16.466 4.50451 16.6697 4.36705 16.9098C4.22959 17.1499 4.15173 17.4195 4.14 17.6959C4.0704 18.7001 4.30008 19.7023 4.8 20.5759C4.82394 20.9146 4.77973 21.2546 4.67 21.5759L2.42 22.4459C2.29975 22.5034 2.19725 22.5923 2.12332 22.7031C2.0494 22.814 2.00679 22.9428 2 23.0759V26.0159H10V23.1059C9.98248 22.9758 9.9367 22.8511 9.86588 22.7405C9.79505 22.63 9.70089 22.5362 9.59 22.4659V22.4659Z" fill="#798288"/>
<path d="M30 7H12V9H30V7Z" fill="#ADB1B2"/>
<path d="M20 21H12V23H18L20 21Z" fill="#ADB1B2"/>
<path fill-rule="evenodd" clip-rule="evenodd" d="M30 14.3L31.67 15.94C31.7791 16.0485 31.8653 16.1778 31.9235 16.3203C31.9817 16.4627 32.0107 16.6154 32.0089 16.7692C32.007 16.9231 31.9743 17.075 31.9126 17.216C31.851 17.357 31.7617 17.4842 31.65 17.59L30.7695 18.4705L27.4875 15.2265L28.36 14.36C28.5789 14.142 28.8714 14.0137 29.18 14C29.461 14.0063 29.7305 14.1127 29.94 14.3H30ZM26.8752 15.8345L16.82 25.82L16 29.94L20.12 29.12L30.1546 19.0854L26.8752 15.8345Z" fill="#D7853C"/>
</g>
<defs>
<clipPath id="clip0_18338_13785">
<rect width="32" height="32" fill="white"/>
</clipPath>
</defs>
</svg>
