<svg id="Layer_1" data-name="Layer 1" xmlns="http://www.w3.org/2000/svg" viewBox="0 0 16 16"><title>Ribbon_ComponentResolution_small_977f7789881e4b50b1dba56b360e4f24</title><polygon points="2.5 11 1 9 4 9 2.5 11" fill="#576672"/><polyline points="12.5 11 11 9 14 9" fill="#576672"/><path d="M3,9.5V8h9V9.5h1V8a1,1,0,0,0-1-1H3A1,1,0,0,0,2,8V9.5H3Z" fill="#576672"/><rect x="7" y="5" width="1" height="3" fill="#576672"/><path d="M10,1V4H5V1h5m0-1H5A1,1,0,0,0,4,1V4A1,1,0,0,0,5,5h5a1,1,0,0,0,1-1V1a1,1,0,0,0-1-1h0Z" fill="#798288"/><path d="M14,12v3H9V12h5m0-1H9a1,1,0,0,0-1,1v3a1,1,0,0,0,1,1h5a1,1,0,0,0,1-1V12a1,1,0,0,0-1-1h0Z" fill="#798288"/><path d="M6,12v3H1V12H6m0-1H1a1,1,0,0,0-1,1v3a1,1,0,0,0,1,1H6a1,1,0,0,0,1-1V12a1,1,0,0,0-1-1H6Z" fill="#798288"/><rect x="5" y="1" width="5" height="3" fill="#fff"/><rect x="1" y="12" width="5" height="3" fill="#fff"/><rect x="9" y="12" width="5" height="3" fill="#fff"/></svg>