<svg id="Layer_1" data-name="Layer 1" xmlns="http://www.w3.org/2000/svg" viewBox="0 0 32 32"><title>Ribbon_ComponentResolution_large_977f7789881e4b50b1dba56b360e4f24</title><path d="M12,22v7H2V22H12m1-2H1a1,1,0,0,0-1,1v9a1,1,0,0,0,1,1H13a1,1,0,0,0,1-1V21a1,1,0,0,0-1-1h0Z" fill="#9da2a5"/><path d="M29,22v7H19V22H29m1-2H18a1,1,0,0,0-1,1v9a1,1,0,0,0,1,1H30a1,1,0,0,0,1-1V21a1,1,0,0,0-1-1h0Z" fill="#9da2a5"/><path d="M21,3v7H10V3H21m1-2H9A1,1,0,0,0,8,2v9a1,1,0,0,0,1,1H22a1,1,0,0,0,1-1V2a1,1,0,0,0-1-1h0Z" fill="#9da2a5"/><path d="M25,17V16a1,1,0,0,0-1-1H7a1,1,0,0,0-1,1v1H4l2.5,3L9,17H7V16H24v1H22l2.5,3L27,17H25Z" fill="#576672"/><rect x="15" y="12" width="1" height="4" fill="#576672"/><rect x="10" y="3" width="11" height="7" fill="#fff"/><rect x="2" y="22" width="10" height="7" fill="#fff"/><rect x="19" y="22" width="10" height="7" fill="#fff"/></svg>