<svg id="Layer_1" data-name="Layer 1" xmlns="http://www.w3.org/2000/svg" viewBox="0 0 32 32"><title>Action_SendToCounterparty_large_9beb6e28a3434cc5bbeee4dfa985c137</title><rect x="3" y="5" width="26" height="22" fill="#fff"/><path d="M16,8a8,8,0,1,0,8,8A8,8,0,0,0,16,8Zm0,10.83A2.83,2.83,0,1,1,18.83,16,2.83,2.83,0,0,1,16,18.83h0Z" fill="#0088cf"/><path d="M12.23,8.94a8,8,0,0,0-.89.55,6.58,6.58,0,1,1,0,13,8,8,0,0,0,.89.55c3.9,0.48,7.17-3,7.33-6.42A7.15,7.15,0,0,0,14,8.94,5.05,5.05,0,0,0,12.23,8.94Z" fill="#fff"/><path d="M29,5V27H3V5H29m1-2H2A1,1,0,0,0,1,4V28a1,1,0,0,0,1,1H30a1,1,0,0,0,1-1V4a1,1,0,0,0-1-1h0Z" fill="#9da2a5"/></svg>