<svg id="Layer_1" data-name="Layer 1" xmlns="http://www.w3.org/2000/svg" viewBox="0 0 16 16"><title>agreementlist_small</title><rect x="1" y="2" width="14" height="11" fill="#fff"/><rect x="4" y="6" width="2" height="5" fill="#adb1b2"/><rect x="7" y="4" width="2" height="7" fill="#adb1b2"/><rect x="10" y="5" width="2" height="6" fill="#adb1b2"/><path d="M6,13H1V2H15V7h1V2a1,1,0,0,0-1-1H1A1,1,0,0,0,0,2V13a1,1,0,0,0,1,1H6Z" fill="#798288"/><path d="M15,13V7.2573A5.494,5.494,0,0,0,6.2124,13Z" fill="#fff"/><path d="M8,11.55a3.4641,3.4641,0,0,1,.05-.5h-1a4.4346,4.4346,0,0,0-.05.5A4.4847,4.4847,0,0,0,11,16V15A3.4948,3.4948,0,0,1,8,11.55Z" fill="#d7853c"/><path d="M14.9609,11.2173A3.05,3.05,0,0,1,15,11.55,3.4948,3.4948,0,0,1,12,15v1a4.4847,4.4847,0,0,0,4-4.45,4.095,4.095,0,0,0-.1389-.992Z" fill="#75ad15"/><path d="M14.46,9.725l.8083-.5917a4.4639,4.4639,0,0,0-7.9929.9171H8.351A3.467,3.467,0,0,1,14.46,9.725Z" fill="#407fb9"/></svg>