<svg id="Layer_1" data-name="Layer 1" xmlns="http://www.w3.org/2000/svg" viewBox="0 0 16 16"><title>Department_small</title><path d="M11.88,7.26C11.93,6.4,9.89,3.11,8,3v7h2c1.48,0,2.51,1.77,2.51,1.77A21.92,21.92,0,0,1,11.88,7.26Z" fill="#fff"/><path d="M10,5.82a1.71,1.71,0,0,1,1.28.4,1.22,1.22,0,0,1,.1,1,17.38,17.38,0,0,0,.51,4,18.74,18.74,0,0,1-1.89.12v0.64a21.76,21.76,0,0,0,2.84-.21,17.51,17.51,0,0,1-.66-5.12c0.06-.87-0.26-1.42-2.18-1.42V5.82Z" fill="#8d9599"/><path d="M16,12H9a4.85,4.85,0,0,0,.58-2,3.61,3.61,0,0,0,2.64-1.5l3.15,1.3a1.38,1.38,0,0,1,.63,1V12Z" fill="#6fa6d4"/><path d="M9.87,0.44A2.41,2.41,0,0,0,7.43,2.8V3.05C7.42,6.13,10,7.2,10,8.13a1.63,1.63,0,0,0,1.32-.49s1.18-.53,1.24-4.85A2.37,2.37,0,0,0,9.87.44Z" fill="#fff"/><path d="M12.73,1.89A2.72,2.72,0,0,0,10,0,2.67,2.67,0,0,0,8.19.55a2.52,2.52,0,0,0-1,2c0,0.16,0,.46,0,0.62a2.48,2.48,0,0,1,.8.25c0-.15,0-0.55,0-0.68A1.91,1.91,0,0,1,9.12,2.4,10,10,0,0,0,12,2.32c0,0.08,0,.16,0,0.23,0.17,3-.15,4.55-2,4.64h0q0,0.42-.07.8H10c2.11,0,2.76-1.12,2.81-5.44C12.8,2.37,12.72,1.9,12.73,1.89Z" fill="#8d9599"/><path d="M4.1,11.24a17.62,17.62,0,0,1-.57,4.47,15.69,15.69,0,0,0,5,.06,21.92,21.92,0,0,1-.63-4.51c0.06-.89,0-2-2-2.08C4,9.13,4.1,11.24,4.1,11.24Z" fill="#fff"/><path d="M6,9.82a1.73,1.73,0,0,1,1.3.4,1.22,1.22,0,0,1,.1,1,17.38,17.38,0,0,0,.51,4,18,18,0,0,1-2.08.12,15.32,15.32,0,0,1-1.75,0,17,17,0,0,0,.47-4,0.65,0.65,0,0,0,0-.07,1.29,1.29,0,0,1,.11-1,1.57,1.57,0,0,1,1.22-.45H6m0-.64H5.84c-2.38.07-2,1.42-2,1.42a20,20,0,0,1-.65,5.12,15.19,15.19,0,0,0,2.65.21,21.54,21.54,0,0,0,3-.21,17.51,17.51,0,0,1-.66-5.12C8.24,9.73,7.92,9.18,6,9.18H6Z" fill="#8d9599"/><path d="M3.43,6.8c0.05,1.73,0,3.34,1,4.7a2.13,2.13,0,0,0,2.89.14s1.18-.53,1.24-4.85A2.37,2.37,0,0,0,5.87,4.44,2.41,2.41,0,0,0,3.43,6.8Z" fill="#fff"/><path d="M8.73,5.9A2.68,2.68,0,0,0,6,4a2.67,2.67,0,0,0-1.81.55,2.52,2.52,0,0,0-1,2C3.22,8.8,3.07,12,6,12,8.1,12,8.75,10.88,8.8,6.56,8.8,6.38,8.72,5.91,8.73,5.9ZM6,11.2c-2.31,0-2-3-2-4.45A1.91,1.91,0,0,1,5.12,6.4,10,10,0,0,0,8,6.32c0,0.08,0,.16,0,0.23C8.17,9.53,7.85,11.11,6,11.2Z" fill="#8d9599"/><path d="M12,16H0V14.76a1.13,1.13,0,0,1,.63-1l3.1-1.24A2.7,2.7,0,0,0,6,14.06a2.5,2.5,0,0,0,2.2-1.56l3.15,1.3a1.38,1.38,0,0,1,.63,1V16Z" fill="#6fa6d4"/></svg>