<svg id="Layer_1" data-name="Layer 1" xmlns="http://www.w3.org/2000/svg" viewBox="0 0 16 16"><title>list_16</title><polygon points="13 15 3 15 3 1 11.5 1 13 2.5 13 15" fill="#fff"/><path d="M11.4,0H3A1,1,0,0,0,2,1V15a1,1,0,0,0,1,1H13a1,1,0,0,0,1-1V2.6ZM13,15H3V1h7V3a1.0029,1.0029,0,0,0,1,1h2ZM11,3V1l2,2Z" fill="#798288"/><rect x="4" y="7" width="8" height="1" fill="#adb1b2"/><rect x="4" y="5" width="4" height="1" fill="#576672"/><rect x="4" y="12" width="8" height="1" fill="#adb1b2"/><rect x="4" y="10" width="4" height="1" fill="#576672"/></svg>