<svg id="Layer_1" data-name="Layer 1" xmlns="http://www.w3.org/2000/svg" viewBox="0 0 16 16"><title>company_document_small</title><polygon points="10 15 2 15 2 1 10.5 1 12 2.5 12 13 10 15" fill="#fff"/><path d="M10.4,0H2A1,1,0,0,0,1,1V15a1,1,0,0,0,1,1H6V15H2V1H9V3a1,1,0,0,0,1,1h2V5h1V2.6ZM10,3V1l2,2H10Z" fill="#798288"/><path d="M15.5,11H14V6.5A0.5,0.5,0,0,0,13.5,6h-6a0.5,0.5,0,0,0-.5.5v9a0.5,0.5,0,0,0,.5.5H10V14h1v2h4.5a0.5,0.5,0,0,0,.5-0.5v-4A0.5,0.5,0,0,0,15.5,11Z" fill="#407fb9"/><rect x="9" y="8" width="1" height="1" fill="#fff"/><rect x="11" y="8" width="1" height="1" fill="#fff"/><rect x="9" y="10" width="1" height="1" fill="#fff"/><rect x="11" y="10" width="1" height="1" fill="#fff"/><rect x="9" y="12" width="1" height="1" fill="#fff"/><rect x="11" y="12" width="1" height="1" fill="#fff"/></svg>