<svg id="Layer_1" data-name="Layer 1" xmlns="http://www.w3.org/2000/svg" viewBox="0 0 32 32"><title>company_document_large</title><polygon points="23 29 5 29 5 2 21 2 25 6 25 21 23 29" fill="#fff"/><path d="M25,6H21V2M19,0V7a1,1,0,0,0,1,1h7Z" fill="#9da2a5"/><rect x="7" y="19" width="10" height="2" fill="#adb1b2"/><rect x="7" y="23" width="10" height="2" fill="#adb1b2"/><path d="M5,2H20l5,5v8h2V6.5L20.5,0H4A1,1,0,0,0,3,1V30a1,1,0,0,0,1,1H17V29H5V2Z" fill="#9da2a5"/><rect x="7" y="15" width="10" height="2" fill="#adb1b2"/><rect x="7" y="11" width="15" height="2" fill="#adb1b2"/><path d="M31.5,24H27V16.5a0.5,0.5,0,0,0-.5-0.5h-8a0.5,0.5,0,0,0-.5.5v15a0.5,0.5,0,0,0,.5.5H21V30h1v2h9.5a0.5,0.5,0,0,0,.5-0.5v-7A0.5,0.5,0,0,0,31.5,24Z" fill="#407fb9"/><rect x="20" y="18" width="1" height="1" fill="#fff"/><rect x="22" y="18" width="1" height="1" fill="#fff"/><rect x="24" y="18" width="1" height="1" fill="#fff"/><rect x="20" y="20" width="1" height="1" fill="#fff"/><rect x="22" y="20" width="1" height="1" fill="#fff"/><rect x="24" y="20" width="1" height="1" fill="#fff"/><rect x="20" y="22" width="1" height="1" fill="#fff"/><rect x="22" y="22" width="1" height="1" fill="#fff"/><rect x="24" y="22" width="1" height="1" fill="#fff"/><rect x="20" y="24" width="1" height="1" fill="#fff"/><rect x="22" y="24" width="1" height="1" fill="#fff"/><rect x="24" y="24" width="1" height="1" fill="#fff"/><rect x="20" y="26" width="1" height="1" fill="#fff"/><rect x="22" y="26" width="1" height="1" fill="#fff"/><rect x="24" y="26" width="1" height="1" fill="#fff"/><rect x="24" y="28" width="1" height="1" fill="#fff"/><rect x="27" y="26" width="1" height="1" fill="#fff"/><rect x="29" y="26" width="1" height="1" fill="#fff"/><rect x="29" y="28" width="1" height="1" fill="#fff"/><rect x="27" y="28" width="1" height="1" fill="#fff"/></svg>