<svg id="Layer_1" data-name="Layer 1" xmlns="http://www.w3.org/2000/svg" viewBox="0 0 32 32"><title>JobTitle_large</title><path d="M1,5H31a1,1,0,0,1,1,1V21a0,0,0,0,1,0,0H0a0,0,0,0,1,0,0V6A1,1,0,0,1,1,5Z" fill="#956939"/><rect x="13" y="19" width="6" height="2" fill="#fff"/><rect y="21" width="32" height="1" fill="#fff"/><path d="M0,22H32a0,0,0,0,1,0,0v7a1,1,0,0,1-1,1H1a1,1,0,0,1-1-1V22A0,0,0,0,1,0,22Z" fill="#956939"/><path d="M21,1H11A2,2,0,0,0,9,3V7h2V3H21V7h2V3A2,2,0,0,0,21,1Z" fill="#956939"/></svg>