<svg id="Layer_1" data-name="Layer 1" xmlns="http://www.w3.org/2000/svg" viewBox="0 0 16 16"><title>Action_PrintEnvelope_small_99c46152332a4f619100d4ae14ef11bc</title><rect x="1" y="4" width="14" height="8" fill="#fff"/><path d="M15,4v8H1V4H15m0-1H1A1,1,0,0,0,0,4v8a1,1,0,0,0,1,1H15a1,1,0,0,0,1-1V4a1,1,0,0,0-1-1h0Z" fill="#798288"/><rect x="2" y="5" width="6" height="1" fill="#adb1b2"/><rect x="12" y="5" width="2" height="2" fill="#7da7b5"/><rect x="9" y="8" width="5" height="1" fill="#adb1b2"/><rect x="9" y="10" width="5" height="1" fill="#adb1b2"/><rect x="2" y="9" width="1" height="2" fill="#576672"/><rect x="4" y="9" width="1" height="2" fill="#576672"/><rect x="6" y="9" width="1" height="2" fill="#576672"/></svg>