<svg id="Layer_1" data-name="Layer 1" xmlns="http://www.w3.org/2000/svg" viewBox="0 0 16 16"><title>small_Forward_3d1fcc96015b48f5b4d6e7428d453dd0</title><path d="M7.12,8.8C7.16,9.45,7,11.16,7,11.16l5.64,3.31a27.41,27.41,0,0,1-.79-5.64c0.07-1.11,0-2.53-2.54-2.6C7,6.16,7.12,8.8,7.12,8.8Z" fill="#fff"/><path d="M10,7.05a1.75,1.75,0,0,1,1.1.47,1.66,1.66,0,0,1,.34,1.23,21.73,21.73,0,0,0,.64,5c-0.52.06-1.25,0.11-2.08,0.14v0.8a26.47,26.47,0,0,0,3.05-.26A21.89,21.89,0,0,1,12.23,8c0.07-1-.29-1.66-2.23-1.76V7.05Z" fill="#8d9599"/><path d="M6.29,3.25c0.07,2.17.05,4.17,1.24,5.88a2.67,2.67,0,0,0,3.61.17s1.48-.67,1.55-6.07A3,3,0,0,0,9.34.3,3,3,0,0,0,6.29,3.25Z" fill="#fff"/><path d="M9.5,0A3.58,3.58,0,0,0,7.23.69,3.15,3.15,0,0,0,6,3.19C6,6,5.83,10,9.49,10c2.64,0,3.44-1.4,3.51-6.8C13,2.36,12.9,0,9.5,0Zm0,9C6.6,9,7,5.27,7,3.43A2.39,2.39,0,0,1,8.4,3c0.77,0,2.39.3,3.6-.1,0,0.1,0,.21,0,0.29C12.21,6.92,11.81,8.88,9.49,9Z" fill="#8d9599"/><polygon points="5 11 0 11 0 14 5 14 5 16 9 12.5 5 9 5 11" fill="#75ad15"/><path d="M15,12l-2.74-1.6a4.08,4.08,0,0,1-1.7,2.12l0,0L6.65,16H16V13A1.81,1.81,0,0,0,15,12Z" fill="#407fb9"/></svg>