<svg id="Layer_1" data-name="Layer 1" xmlns="http://www.w3.org/2000/svg" viewBox="0 0 32 32"><title>Action_ExtendDeadline_large_75b4cc12e37b4bc38a8effde97f46ff0</title><path d="M24.1,30H6.9A0.92,0.92,0,0,1,6,29.07v-2.8c0.25-3.45,7-7.16,7-10.27,0-2.45-6.44-6.44-7-10.27V2.93A0.92,0.92,0,0,1,6.9,2H24.1a0.92,0.92,0,0,1,.9.93S24.94,5,25,5.73c-0.19,3.58-7.23,7.7-7,10.27,0.23,2.72,7,7,7,10.27v2.8A0.92,0.92,0,0,1,24.1,30Z" fill="#fff"/><path d="M24,3a15.55,15.55,0,0,1,0,2.06c0,1.92-2,3.81-3.66,5.49S16.81,14,17,16.17c0.17,2,1.72,3.5,3.36,5.13S24,24.9,24,27v2H7V27c0-1.85,1.71-3.53,3.4-5.15S14,18.35,14,16c0-1.93-1.5-3.45-3.25-5.2S7,7.06,7,5V3H24m1-2H6A1,1,0,0,0,5,2V5c0.06,5,7,8.38,7,11,0,3.33-7.06,6.06-7,11v3a1,1,0,0,0,1,1H25a1,1,0,0,0,1-1V27c0-5.06-6.75-8.08-7-11-0.25-2.75,7-6.06,7-11-0.06-.75,0-3,0-3a1,1,0,0,0-1-1h0Z" fill="#9da2a5"/><path d="M16,20V13c0.07-1.05,1.67-2.55,3-4h-7c1.39,1.4,3,2.84,2.94,4v7c0,2-4.87,4.94-5,7v1H21V27C21,25.06,16.13,21.84,16,20Z" fill="#dfaa1a"/></svg>