<svg id="Layer_1" data-name="Layer 1" xmlns="http://www.w3.org/2000/svg" viewBox="0 0 32 32"><title>Action_CreateContractStatement_large_53d9a6188ada4ecbb5414b9f7d3d7279</title><polygon points="4 7 4 26 30 26 30 11 26 7 4 7" fill="#fff"/><path d="M30,11H26V7M24,5v7a1,1,0,0,0,1,1h7Z" fill="#9da2a5"/><rect x="12" y="12" width="10" height="2" transform="translate(34 26) rotate(-180)" fill="#adb1b2"/><rect x="7" y="16" width="20" height="2" transform="translate(34 34) rotate(-180)" fill="#adb1b2"/><rect x="7" y="20" width="20" height="2" transform="translate(34 42) rotate(-180)" fill="#adb1b2"/><path d="M6,13a1.1,1.1,0,0,1-1-1V2A1.1,1.1,0,0,1,6,1,1.1,1.1,0,0,1,7,2V12A1.1,1.1,0,0,1,6,13Z" fill="#e0ad5c"/><path d="M11,8H1A1.1,1.1,0,0,1,0,7,1.1,1.1,0,0,1,1,6H11a1.1,1.1,0,0,1,1,1A1.1,1.1,0,0,1,11,8Z" fill="#e0ad5c"/><path d="M10.24,11.24a1.1,1.1,0,0,1-1.41,0L1.76,4.17a1.1,1.1,0,0,1,0-1.41,1.1,1.1,0,0,1,1.41,0l7.07,7.07A1.1,1.1,0,0,1,10.24,11.24Z" fill="#e0ad5c"/><path d="M10.24,4.17L3.17,11.24a1.1,1.1,0,0,1-1.41,0,1.1,1.1,0,0,1,0-1.41L8.83,2.76a1.1,1.1,0,0,1,1.41,0A1.1,1.1,0,0,1,10.24,4.17Z" fill="#e0ad5c"/><circle cx="6" cy="7" r="1.5" fill="#fff"/><path d="M25.5,5H13V7H25l5,5V26H4V13H2V27a1,1,0,0,0,1,1H31a1,1,0,0,0,1-1V11.5Z" fill="#9da2a5"/></svg>