<svg id="Layer_1" data-name="Layer 1" xmlns="http://www.w3.org/2000/svg" viewBox="0 0 16 16"><title>Action_CreateContractStatement_small_53d9a6188ada4ecbb5414b9f7d3d7279</title><polygon points="15 13 1 13 1 3 13.5 3 15 4.5 15 13" fill="#fff"/><path d="M13,3l2,2H13V3M12,2V5a1,1,0,0,0,1,1h3V4.6L13.4,2H12Z" fill="#798288"/><rect x="6" y="6" width="4" height="1" fill="#adb1b2"/><rect x="3" y="8" width="10" height="1" fill="#adb1b2"/><path d="M3.5,7A0.47,0.47,0,0,1,3,6.56V0.44A0.47,0.47,0,0,1,3.5,0,0.47,0.47,0,0,1,4,.44V6.56A0.47,0.47,0,0,1,3.5,7Z" fill="#d59633"/><path d="M6.56,4H0.44A0.47,0.47,0,0,1,0,3.48,0.47,0.47,0,0,1,.44,3H6.56a0.47,0.47,0,0,1,.44.5A0.47,0.47,0,0,1,6.56,4Z" fill="#d59633"/><path d="M1.5,6a0.5,0.5,0,0,1-.35-0.85l4-4a0.5,0.5,0,0,1,.71.71l-4,4A0.5,0.5,0,0,1,1.5,6Z" fill="#d59633"/><path d="M5.49,6a0.51,0.51,0,0,0,.36-0.15,0.5,0.5,0,0,0,0-.71l-4-4a0.5,0.5,0,0,0-.71.71l4,4A0.49,0.49,0,0,0,5.49,6Z" fill="#d59633"/><circle cx="3.5" cy="3.5" r="0.5" fill="#fff"/><rect x="3" y="10" width="10" height="1" fill="#adb1b2"/><rect x="8" y="2" width="4.94" height="1" fill="#798288"/><path d="M15,5v8H1V7H0v6a1,1,0,0,0,1,1H15a1,1,0,0,0,1-1V5H15Z" fill="#798288"/></svg>