<svg id="Layer_1" data-name="Layer 1" xmlns="http://www.w3.org/2000/svg" viewBox="0 0 32 32"><title>Action_CreateSupAgreement_large_f593f46981294bea826c72257ddfb257</title><polygon points="26 29 7 29 7 4 22 4 26 8 26 29" fill="#fff"/><path d="M26,8H22V4M20,2V9a1,1,0,0,0,1,1h7Z" fill="#9da2a5"/><rect x="9" y="16" width="15" height="2" fill="#adb1b2"/><rect x="9" y="12" width="15" height="2" fill="#adb1b2"/><rect x="9" y="20" width="7" height="2" fill="#adb1b2"/><rect x="9" y="24" width="7" height="2" fill="#adb1b2"/><rect x="20" y="19" width="2" height="8" fill="#444c56"/><rect x="17" y="22" width="8" height="2" fill="#444c56"/><path d="M6,12a1.1,1.1,0,0,1-1-1V1A1.1,1.1,0,0,1,6,0,1.1,1.1,0,0,1,7,1V11A1.1,1.1,0,0,1,6,12Z" fill="#e0ad5c"/><path d="M11,7H1A1.1,1.1,0,0,1,0,6,1.1,1.1,0,0,1,1,5H11a1.1,1.1,0,0,1,1,1A1.1,1.1,0,0,1,11,7Z" fill="#e0ad5c"/><path d="M10.24,10.24a1.1,1.1,0,0,1-1.41,0L1.76,3.17a1.1,1.1,0,0,1,0-1.41,1.1,1.1,0,0,1,1.41,0l7.07,7.07A1.1,1.1,0,0,1,10.24,10.24Z" fill="#e0ad5c"/><path d="M10.24,3.17L3.17,10.24a1.1,1.1,0,0,1-1.41,0,1.1,1.1,0,0,1,0-1.41L8.83,1.76a1.1,1.1,0,0,1,1.41,0A1.1,1.1,0,0,1,10.24,3.17Z" fill="#e0ad5c"/><circle cx="6" cy="6" r="1.5" fill="#fff"/><path d="M21.5,2H12V4h9l5,5V29H7V13H5V30a1,1,0,0,0,1,1H27a1,1,0,0,0,1-1V8.5Z" fill="#9da2a5"/></svg>