<svg id="Layer_1" data-name="Layer 1" xmlns="http://www.w3.org/2000/svg" viewBox="0 0 16 16"><title>contractbase</title><polygon points="13 15 3 15 3 1 11.5 1 13 2.5 13 15" fill="#fff"/><path d="M11.4,0H3A1,1,0,0,0,2,1V15a1,1,0,0,0,1,1H13a1,1,0,0,0,1-1V2.6ZM13,15H3V1h7V3a1,1,0,0,0,1,1h2V15ZM11,3V1l2,2H11Z" fill="#798288"/><rect x="4" y="6" width="8" height="1" fill="#adb1b2"/><rect x="4" y="8" width="8" height="1" fill="#adb1b2"/><rect x="4" y="10" width="3" height="1" fill="#adb1b2"/><rect x="4" y="12" width="3" height="1" fill="#adb1b2"/><circle cx="10" cy="12" r="2" fill="#a0becf"/></svg>