<svg id="Layer_1" data-name="Layer 1" xmlns="http://www.w3.org/2000/svg" viewBox="0 0 32 32"><title>region_large</title><path d="M29,3V29H3V3H29m1-2H2A1,1,0,0,0,1,2V30a1,1,0,0,0,1,1H30a1,1,0,0,0,1-1V2a1,1,0,0,0-1-1h0Z" fill="#9da2a5"/><rect x="3" y="3" width="26" height="26" fill="#fff"/><rect x="4" y="4" width="24" height="24" fill="#f0dec8"/><path d="M28,20.5s-3.3-5.77-7.7-8.8C14.83,7.94,14.5,4,14.5,4H28V20.5Z" fill="#6fa6d4"/><path d="M23.5,28H4V4h6s0,5,5.73,10.91A36.64,36.64,0,0,1,23.5,28Z" fill="#7dab3a"/><path d="M14.13,19.78L14,19.69l-0.14.12A16.84,16.84,0,0,1,10.6,21.9C8.35,23.13,5.82,24.53,4,27.53V28H4.3c1.76-3,4.3-4.44,6.55-5.66a18.24,18.24,0,0,0,3.19-2c2.62,1.54,5.68,3.81,6.71,7.69H21l0.24-.06C20.16,23.76,16.87,21.39,14.13,19.78Z" fill="#627c62" opacity="0.9"/><path d="M12.09,16.69a0.5,0.5,0,0,1-.42-0.24c-0.31-.5-0.64-1-1-1.53L9.86,13.66a0.5,0.5,0,0,1,.84-0.54l0.81,1.25c0.34,0.53.68,1,1,1.54A0.5,0.5,0,0,1,12.09,16.69ZM8.86,11.52a0.5,0.5,0,0,1-.44-0.26,31.76,31.76,0,0,1-1.49-3,0.5,0.5,0,1,1,.92-0.39A31.19,31.19,0,0,0,9.3,10.78,0.5,0.5,0,0,1,8.86,11.52Z" fill="#d65633"/><path d="M14,20.5a0.5,0.5,0,0,1-.47-0.34A12.1,12.1,0,0,0,13,18.83a0.5,0.5,0,0,1,.9-0.43,12.87,12.87,0,0,1,.58,1.44,0.5,0.5,0,0,1-.32.63Z" fill="#d65633"/><path d="M6.52,4h-1a0.48,0.48,0,0,0,0,.13q0.2,0.76.43,1.46a0.5,0.5,0,0,0,.48.35l0.15,0A0.5,0.5,0,0,0,6.9,5.29C6.76,4.87,6.64,4.44,6.52,4Z" fill="#d65633"/></svg>