<svg id="Layer_1" data-name="Layer 1" xmlns="http://www.w3.org/2000/svg" viewBox="0 0 16 16"><title>region_small</title><rect x="1" y="1" width="14" height="14" fill="#fff"/><rect x="2" y="2" width="12" height="12" fill="#f0dec8"/><path d="M14,10.25a15.52,15.52,0,0,0-3.85-4.4C7.42,4,7.25,2,7.25,2H14v8.25Z" fill="#6fa6d4"/><path d="M11.75,14H2V2H5S5,4.5,7.86,7.46A18.32,18.32,0,0,1,11.75,14Z" fill="#7dab3a"/><path d="M15,1V15H1V1H15m0-1H1A1,1,0,0,0,0,1V15a1,1,0,0,0,1,1H15a1,1,0,0,0,1-1V1a1,1,0,0,0-1-1h0Z" fill="#798288"/></svg>