<svg width="32" height="32" viewBox="0 0 32 32" fill="none" xmlns="http://www.w3.org/2000/svg">
<g clip-path="url(#clip0_19529_13832)">
<path d="M15.1412 21.4923L12.4528 26.2816C12.2378 26.6651 11.9268 26.9823 11.5523 27.2002C11.1778 27.4182 10.7534 27.529 10.3232 27.5211C9.90249 27.5231 9.48926 27.4065 9.12838 27.1839L6.62298 25.6965C6.34899 25.5364 6.10896 25.3214 5.91698 25.0642C5.72501 24.8071 5.58501 24.513 5.50523 24.1993C5.41918 23.8849 5.39618 23.5557 5.4376 23.2318C5.47901 22.908 5.58397 22.5961 5.74613 22.3153L10.5641 13.7283C10.776 13.3508 11.0808 13.0373 11.4479 12.8197C11.815 12.6021 12.2315 12.488 12.6551 12.4889C13.0746 12.4868 13.487 12.5997 13.85 12.816L16.3554 14.3034C16.9042 14.6195 17.3117 15.1432 17.4916 15.7633C17.6715 16.3834 17.6096 17.0513 17.319 17.6252L19.4003 18.8647C20.0138 17.7206 20.1636 16.3736 19.8172 15.1166C19.4707 13.8595 18.656 12.794 17.5502 12.1517L15.0449 10.6643C14.3165 10.2278 13.4884 9.9985 12.6455 10C11.7981 9.99829 10.9654 10.2265 10.2311 10.6617C9.49689 11.097 8.88716 11.7238 8.46349 12.4789L3.64549 21.0659C3.00661 22.2046 2.83346 23.5579 3.16416 24.828C3.49486 26.098 4.30233 27.1809 5.4089 27.8384L7.91423 29.3257C8.64571 29.7644 9.47661 29.9969 10.3232 30C11.1706 30.0017 12.0034 29.7734 12.7376 29.3382C13.4719 28.903 14.0816 28.2762 14.5053 27.5211L17.1937 22.7318L15.1412 21.4923Z" fill="#9DA2A5"/>
<path d="M24.074 2.66473L26.5853 4.15283C27.6946 4.81062 28.5039 5.89404 28.8354 7.16473C29.1669 8.43543 28.9934 9.78928 28.353 10.9286L23.5234 19.5198C23.2668 19.9763 22.9421 20.3858 22.563 20.7346L20.8226 18.9942C21.0661 18.7988 21.2717 18.5565 21.4273 18.2798L26.2569 9.68848C26.4192 9.40925 26.5244 9.09898 26.5659 8.77659C26.6074 8.4542 26.5844 8.1265 26.4984 7.81353C26.4201 7.49765 26.2805 7.20127 26.088 6.94215C25.8955 6.68303 25.6539 6.4665 25.3779 6.30558L22.8665 4.81749C22.5054 4.59337 22.0907 4.47657 21.6688 4.48016C21.2441 4.4793 20.8267 4.59353 20.4587 4.81125C20.0907 5.02897 19.7851 5.34249 19.5727 5.72024L16.9164 10.4425L14.8204 9.20238L17.4767 4.48016C17.9014 3.72466 18.5126 3.09757 19.2486 2.66213C19.9846 2.22669 20.8194 1.99829 21.6688 2.00001C22.5133 2.00179 23.3426 2.23101 24.074 2.66473Z" fill="#9DA2A5"/>
<path d="M18.4712 19.3573C18.355 19.3116 18.2421 19.2566 18.1335 19.1924L15.6221 17.7044C15.069 17.3727 14.666 16.8298 14.5013 16.1941C14.3366 15.5584 14.4235 14.8816 14.7431 14.3115L12.647 13.0714C12.0066 14.2107 11.8331 15.5646 12.1646 16.8353C12.4961 18.106 13.3055 19.1894 14.4147 19.8472L16.9261 21.3353C17.2955 21.5563 17.6906 21.7242 18.1002 21.836C17.653 21.0701 17.7577 20.0707 18.4142 19.4142L18.4712 19.3573Z" fill="#9DA2A5"/>
<path d="M30.0058 32.0058C29.8742 32.0066 29.7437 31.9813 29.6219 31.9316C29.5 31.8818 29.3892 31.8085 29.2958 31.7158L19.2958 21.7158C19.202 21.6229 19.1277 21.5122 19.0769 21.3904C19.0261 21.2685 19 21.1378 19 21.0058C19 20.8738 19.0261 20.7431 19.0769 20.6212C19.1277 20.4994 19.202 20.3887 19.2958 20.2958C19.3887 20.202 19.4994 20.1277 19.6212 20.0769C19.7431 20.0261 19.8738 20 20.0058 20C20.1378 20 20.2685 20.0261 20.3904 20.0769C20.5122 20.1277 20.6229 20.202 20.7158 20.2958L30.7158 30.2958C30.8095 30.3887 30.8839 30.4994 30.9347 30.6212C30.9855 30.7431 31.0116 30.8738 31.0116 31.0058C31.0116 31.1378 30.9855 31.2685 30.9347 31.3904C30.8839 31.5122 30.8095 31.6229 30.7158 31.7158C30.6224 31.8085 30.5115 31.8818 30.3897 31.9316C30.2679 31.9813 30.1374 32.0066 30.0058 32.0058Z" fill="#FF4646"/>
<path d="M20.0058 32.0058C19.8742 32.0066 19.7437 31.9813 19.6219 31.9316C19.5 31.8818 19.3892 31.8085 19.2958 31.7158C19.202 31.6229 19.1277 31.5122 19.0769 31.3904C19.0261 31.2685 19 31.1378 19 31.0058C19 30.8738 19.0261 30.7431 19.0769 30.6212C19.1277 30.4994 19.202 30.3887 19.2958 30.2958L29.2958 20.2958C29.3887 20.202 29.4994 20.1277 29.6212 20.0769C29.7431 20.0261 29.8738 20 30.0058 20C30.1378 20 30.2685 20.0261 30.3904 20.0769C30.5122 20.1277 30.6229 20.202 30.7158 20.2958C30.8095 20.3887 30.8839 20.4994 30.9347 20.6212C30.9855 20.7431 31.0116 20.8738 31.0116 21.0058C31.0116 21.1378 30.9855 21.2685 30.9347 21.3904C30.8839 21.5122 30.8095 21.6229 30.7158 21.7158L20.7158 31.7158C20.6224 31.8085 20.5115 31.8818 20.3897 31.9316C20.2679 31.9813 20.1374 32.0066 20.0058 32.0058Z" fill="#FF4646"/>
</g>
<defs>
<clipPath id="clip0_19529_13832">
<rect width="32" height="32" fill="white"/>
</clipPath>
</defs>
</svg>
