<svg width="16" height="16" viewBox="0 0 16 16" fill="none" xmlns="http://www.w3.org/2000/svg">
<g clip-path="url(#clip0_19529_13821)">
<path d="M5.50004 13.8L7.10004 11.1L8.40004 11.9L6.80004 14.6C6.20004 15.5 5.30004 16 4.30004 16C3.80004 16 3.30004 15.9 2.90004 15.6L1.40004 14.8C0.100037 14 -0.399963 12.3 0.400037 10.9L3.20004 6.00001C3.80004 5.10001 4.70004 4.60001 5.70004 4.60001C6.10004 4.60001 6.60004 4.70001 7.10004 5.00001L8.40004 5.80001C9.27151 6.23574 9.79425 7.09772 9.87177 8H8.49366C8.443 7.59728 8.20532 7.2316 7.80004 7.00001L6.40004 6.20001C6.20004 6.10001 5.90004 6.00001 5.70004 6.00001C5.20004 6.00001 4.70004 6.30001 4.30004 6.60001L1.50004 11.5C1.48983 11.5408 1.47962 11.5806 1.46962 11.6196C1.3817 11.9623 1.31025 12.2408 1.40004 12.6C1.50004 13 1.80004 13.3 2.10004 13.5L3.60004 14.3C3.80004 14.4 4.10004 14.5 4.30004 14.5C4.80004 14.5 5.20004 14.2 5.50004 13.8Z" fill="#798288"/>
<path d="M12.1 0.4L13.6 1.2C15 2 15.5 3.7 14.7 5.1L11.9364 9.93637L10.9818 8.98183L13.6 4.4C13.6102 4.35917 13.6204 4.31938 13.6304 4.28042C13.7183 3.93771 13.7898 3.65917 13.7 3.3C13.6 2.9 13.3 2.6 13 2.4L11.5 1.6C11.3 1.5 11 1.4 10.8 1.4C10.3 1.4 9.90001 1.7 9.60001 2.1L8.00001 4.8L6.70001 4.1L8.30001 1.4C8.90001 0.5 9.80001 0 10.8 0C11.2 0 11.7 0.1 12.1 0.4Z" fill="#798288"/>
<path d="M8 9.42666L7.20001 9C6.50001 8.6 6.30001 7.7 6.70001 7L5.50001 6.3C4.70001 7.7 5.20001 9.4 6.50001 10.2L8.00001 11C8.40001 11.3 8.90001 11.4 9.40001 11.4L8.29289 10.2929C8.10536 10.1054 8 9.851 8 9.58579V9.42666Z" fill="#798288"/>
<path d="M15.86 15.15L13.21 12.44L15.85 9.86002C15.9454 9.76719 16.0001 9.64024 16.002 9.50709C16.0039 9.37394 15.9528 9.2455 15.86 9.15002C15.7671 9.05454 15.6402 8.99985 15.507 8.99797C15.3739 8.9961 15.2454 9.04719 15.15 9.14002L12.5 11.73L9.84997 9.14002C9.80269 9.09406 9.74682 9.05786 9.68556 9.03348C9.62429 9.00911 9.55882 8.99705 9.49289 8.99797C9.42696 8.9989 9.36186 9.01281 9.30131 9.0389C9.24075 9.06498 9.18593 9.10274 9.13997 9.15002C9.094 9.1973 9.0578 9.25316 9.03343 9.31443C9.00906 9.37569 8.99699 9.44116 8.99792 9.50709C8.99885 9.57302 9.01275 9.63812 9.03884 9.69868C9.06493 9.75923 9.10269 9.81406 9.14996 9.86002L11.79 12.44L9.13997 15.15C9.0931 15.1965 9.0559 15.2518 9.03052 15.3127C9.00514 15.3737 8.99207 15.439 8.99207 15.505C8.99207 15.571 9.00514 15.6364 9.03052 15.6973C9.0559 15.7582 9.0931 15.8135 9.13997 15.86C9.23754 15.9512 9.36644 16.0013 9.49996 16C9.6351 15.9997 9.76458 15.9457 9.85996 15.85L12.5 13.14L15.14 15.85C15.2354 15.9457 15.3648 15.9997 15.5 16C15.63 15.9988 15.7549 15.9488 15.85 15.86C15.8975 15.8142 15.9355 15.7594 15.9617 15.6989C15.988 15.6383 16.002 15.5731 16.0029 15.5071C16.0038 15.4411 15.9917 15.3756 15.9671 15.3143C15.9426 15.253 15.9062 15.1972 15.86 15.15V15.15Z" fill="#FF4646"/>
</g>
<defs>
<clipPath id="clip0_19529_13821">
<rect width="16" height="16" fill="white"/>
</clipPath>
</defs>
</svg>
