<svg id="Layer_1" data-name="Layer 1" xmlns="http://www.w3.org/2000/svg" viewBox="0 0 16 16"><title>addendum_16</title><polygon points="13 15 3 15 3 1 11.5 1 13 2.5 13 15" fill="#fff"/><path d="M11.4,0H3A1,1,0,0,0,2,1V15a1,1,0,0,0,1,1H8V15H3V1h7V3a1,1,0,0,0,1,1h3V2.6ZM11,3V1l2,2H11Z" fill="#798288"/><path d="M14,5H13a2,2,0,0,0-2,2v4.5a1.5,1.5,0,0,0,3,0V8H13v3.5a0.5,0.5,0,0,1-1,0V7a1,1,0,0,1,1-1h1a1,1,0,0,1,1,1v6a2,2,0,0,1-2,2H12a2,2,0,0,1-2-2V7H9v6a3,3,0,0,0,3,3h1a3,3,0,0,0,3-3V7A2,2,0,0,0,14,5Z" fill="#576672"/></svg>