<svg id="Layer_1" data-name="Layer 1" xmlns="http://www.w3.org/2000/svg" viewBox="0 0 32 32"><title>addendum_32</title><polygon points="26 29 6 29 6 2 22 2 26 6 26 29" fill="#fff"/><path d="M26,6H22V2M20,0V7a1,1,0,0,0,1,1h7Z" fill="#9da2a5"/><path d="M21.5,0H5A1,1,0,0,0,4,1V30a1,1,0,0,0,1,1H19.18a5.69,5.69,0,0,1-1.73-2H6V2H21l5,5v4h2V6.5Z" fill="#9da2a5"/><path d="M26,12a4,4,0,0,0-4,4v9.35A2.6,2.6,0,0,0,24.24,28,2.5,2.5,0,0,0,27,25.5v-7a0.5,0.5,0,0,0-.5-0.5h-1a0.5,0.5,0,0,0-.5.5v7a0.5,0.5,0,0,1-1,0V16a2,2,0,0,1,4,0V26.4a3.56,3.56,0,0,1-2.76,3.53A3.51,3.51,0,0,1,21,26.5v-7a0.5,0.5,0,0,0-.5-0.5h-1a0.5,0.5,0,0,0-.5.5v6.75A5.67,5.67,0,0,0,24,32a5.51,5.51,0,0,0,6-5.47V16A4,4,0,0,0,26,12Z" fill="#576672"/></svg>