<svg id="Layer_1" data-name="Layer 1" xmlns="http://www.w3.org/2000/svg" viewBox="0 0 32 32"><title>GroupIconIntegration_large_7ec69dbae05646e18b62c3f460b22884</title><path d="M30,30H2V2H17V4.92s6-1,6,3c-0.08,4.33-6,3.36-6,3.36V18H21s-0.15,5.29,3,5.21S26.94,18,26.94,18H30V30Z" fill="#fff"/><path d="M16,2V6c2.28-.64,6-0.62,6,2,0,2-2.45,2.61-6,2v6H12.2c0-1.17.51-6-4.2-6-4.5,0-4.2,4.83-4.21,6H2V2H14m4-2H2A2,2,0,0,0,0,2V18H6s-1.37-6,2-6c3.54-.08,2,6,2,6h8V12.31c1.58,0.07,6-.1,6-4.31,0-4-3.72-4.31-6-4.31V0h0Z" fill="#407fb9"/><path d="M16,19.8c-1.16,0-6-.22-6,4.2,0,3.5,2.32,4.19,6,4.21V30H2V18H0V30a2,2,0,0,0,2,2H18V26a9.56,9.56,0,0,1-1.94.21C14.66,26.21,12,26.13,12,24s2.68-2.2,4.1-2.2A9.65,9.65,0,0,1,18,22V18H16v1.8Z" fill="#75ad15"/><path d="M26,16s1.17,6-2,6-2-6-2-6H18v2h1.8c0,1.17-.09,6,4.2,6s4.2-4.83,4.21-6H30V30H18v2H30a2,2,0,0,0,2-2V16H26Z" fill="#798288"/></svg>