<svg id="Layer_1" data-name="Layer 1" xmlns="http://www.w3.org/2000/svg" viewBox="0 0 16 16"><title>Action_FindSignatureSetting_small_fa12192b4cfa44a5b9422b3db128b82a</title><polygon points="13 9 10 14 4 14 4 1 11 1 13 3 13 9" fill="#fff"/><path d="M11,1.3L12.7,3H11V1.2M10,0V3a1,1,0,0,0,1,1h3V3L11,0H10Z" fill="#798288"/><polygon points="10 15 2 15 2 3 8 3 10 5 10 15" fill="#fff"/><path d="M8,3.3L9.7,5H8V3.2M7,2V5A1,1,0,0,0,8,6h3V5L8,2H7Z" fill="#798288"/><path d="M13,6a5,5,0,0,1,1,1V3l-0.5-.5h-1L13,3V6Z" fill="#798288"/><path d="M11,0H4A1,1,0,0,0,3,1h8l0.5,0.5v-1Z" fill="#798288"/><circle cx="10.5" cy="10.5" r="3" fill="#fff"/><path d="M15.5,16a0.5,0.5,0,0,1-.35-0.15l-2.5-2.5a0.5,0.5,0,0,1,.71-0.71l2.5,2.5A0.5,0.5,0,0,1,15.5,16Z" fill="#407fb9"/><path d="M10.5,8A2.5,2.5,0,1,1,8,10.5,2.5,2.5,0,0,1,10.5,8m0-1a3.5,3.5,0,0,0,0,7A3.54,3.54,0,0,0,14,10.5,3.5,3.5,0,0,0,10.5,7h0Z" fill="#407fb9"/><polygon points="4 12 2.5 11 1 12 1 8.25 4 8.25 4 12" fill="#407fb9"/><circle cx="2.5" cy="7.5" r="2.5" fill="#d65633"/><path d="M2,4c0-.62,0-1,0-1H8L8.5,3.5v-1L8,2H2A0.93,0.93,0,0,0,1,3V4H2Z" fill="#798288"/><path d="M10,15H2s0-.81,0-2H1v2a0.93,0.93,0,0,0,1,1h8a1,1,0,0,0,1-1H10Z" fill="#798288"/></svg>