<svg id="Layer_1" data-name="Layer 1" xmlns="http://www.w3.org/2000/svg" viewBox="0 0 32 32"><title>Action_FindSignatureSetting_large_fa12192b4cfa44a5b9422b3db128b82a</title><polygon points="28 26 10 26 10 2 24 2 28 6 28 26" fill="#fff"/><polygon points="23 30 5 30 5 6 19 6 23 10 23 30" fill="#fff"/><path d="M28,6H24V2M22,0V7a1,1,0,0,0,1,1h7Z" fill="#9da2a5"/><path d="M23,10H19V6M17,4v7a1,1,0,0,0,1,1h7Z" fill="#9da2a5"/><rect x="8" y="19" width="11" height="2" fill="#adb1b2"/><rect x="10" y="15" width="11" height="2" fill="#adb1b2"/><rect x="8" y="23" width="11" height="2" fill="#adb1b2"/><path d="M23.5,0H9A1,1,0,0,0,8,1V3h2V2H23l1,1h0.19V3.19L28,7V17l2,2V6.5Z" fill="#9da2a5"/><polygon points="7 23 4.5 20.5 2 23 2 15 7 15 7 23" fill="#407fb9"/><circle cx="4.5" cy="14.5" r="4.5" fill="#d65633"/><path d="M5,22L3,24v7a1,1,0,0,0,1,1H24a1,1,0,0,0,1-1V30H5V22Z" fill="#9da2a5"/><path d="M18.5,4H4A1,1,0,0,0,3,5V9H5V6H18l5,5v5h2V10.5Z" fill="#9da2a5"/><path d="M25,16.29a7,7,0,1,0,0,13.41V16.29Z" fill="#fff"/><path d="M31.15,32a0.85,0.85,0,0,1-.6-0.25l-8.12-8.12a0.85,0.85,0,0,1,1.2-1.2l8.12,8.12A0.85,0.85,0,0,1,31.15,32Z" fill="#407fb9"/><circle cx="23" cy="23" r="5.5" fill="#fff"/><path d="M23,18.5A4.5,4.5,0,1,1,18.5,23,4.51,4.51,0,0,1,23,18.5M23,17a6,6,0,1,0,6,6,6,6,0,0,0-6-6h0Z" fill="#407fb9"/></svg>