<svg id="Layer_1" data-name="Layer 1" xmlns="http://www.w3.org/2000/svg" viewBox="0 0 16 16"><title>checkreturntask_16</title><rect x="2" y="4" width="11" height="11" fill="#fff"/><polygon points="7.5 15.5 0.5 15.5 0.5 5.5 5.75 5.5 7.5 7.32 7.5 15.5" fill="#fff"/><path d="M13,15.5H7A1.52,1.52,0,0,1,5.49,14h0a1.68,1.68,0,0,1-1-2.5A1.76,1.76,0,0,1,4,10,1.08,1.08,0,0,1,5,9H8.55a1.31,1.31,0,0,1,.72-1.5c2.19-.5,6.39,2,6.39,2L15.52,14A2.35,2.35,0,0,1,13,15.5Z" fill="#fff"/><path d="M10,8c1.5,0,3.66,1,5,1.63V14a2.69,2.69,0,0,1-2,1H7a1,1,0,0,1-1-1V13.26L5.29,13c-0.49-.25-0.16-1.23.4-1.5-0.56-.12-1.06-1.33-0.2-1.5H9S8.68,8.08,10,8M9.65,7A1.84,1.84,0,0,0,8,9H5a1.14,1.14,0,0,0-1,1.31,1.25,1.25,0,0,0,.5,1.2c-0.3.08-1.13,2,.5,2.5a2,2,0,0,0,2,2h6c1.11,0,3-.89,3-2V9S12,7,9.65,7h0Z" fill="#dfaa1a"/><path d="M8.49,12H5a0.5,0.5,0,0,1-.5-0.5h0A0.5,0.5,0,0,1,5,11h3.5A0.5,0.5,0,1,1,8.49,12Z" fill="#dfaa1a"/><rect x="8" y="9" width="3.01" height="1" rx="0.44" ry="0.44" fill="#dfaa1a"/><path d="M5.44,13H8.56a0.44,0.44,0,0,1,.44.44v0.11a0.45,0.45,0,0,1-.45.45H5.44A0.44,0.44,0,0,1,5,13.56V13.44A0.44,0.44,0,0,1,5.44,13Z" fill="#dfaa1a"/><path d="M13,6h1V1a1,1,0,0,0-1-1H12V1H11V0H4V1H3V0H2A1,1,0,0,0,1,1V4H13V6Z" fill="#798288"/><polygon points="4 15 1 15 1 6 5.59 6 7 7.41 7 8.01 8 7 6 5 0 5 0 16 4 16 4 15" fill="#798288"/></svg>