<svg id="Layer_1" data-name="Layer 1" xmlns="http://www.w3.org/2000/svg" viewBox="0 0 32 32"><title>checkreturntask_32</title><rect x="5" y="3" width="22" height="26" fill="#fff"/><rect x="23" width="2" height="4" rx="1" ry="1" fill="#798288"/><rect x="7" width="2" height="4" rx="1" ry="1" fill="#798288"/><path d="M5,8V7H27v9l2,1V2a1,1,0,0,0-1-1H26V2.88A2.09,2.09,0,0,1,24.34,5,2,2,0,0,1,22,3V1H10V2.88A2.09,2.09,0,0,1,8.34,5,2,2,0,0,1,6,3V1H4A1,1,0,0,0,3,2V8H5Z" fill="#798288"/><polygon points="13 26 1 26 1 10 11.5 10 13 11.5 13 26" fill="#fff"/><polygon points="16 30 2 30 2 11 14 11 16 13 16 30" fill="#fff"/><polygon points="13 10 13 10 17 14 13 10" fill="#9da2a5"/><path d="M18,15l-1-1H13V10L12,9H11v6a1,1,0,0,0,1,1h6V15Z" fill="#9da2a5"/><path d="M10.16,30H2V11H13l3,3v2a15.72,15.72,0,0,1,2,.26V13.5L13.5,9H1a1,1,0,0,0-1,1V31a1,1,0,0,0,1,1H12.3A4.88,4.88,0,0,1,10.16,30Z" fill="#9da2a5"/><path d="M18,15h4a0,0,0,0,1,0,0v4a0,0,0,0,1,0,0H15a0,0,0,0,1,0,0V18A3,3,0,0,1,18,15Z" fill="#fff"/><path d="M28,32H18c-2.21,0-6.5-.83-6-4.5-1.47-.59-1.16-2.84,0-3-0.5-.22-1-0.56-1-2.5a2.14,2.14,0,0,1,2-2h5c-2,0-3.21-3.37,0-4,6,0.17,14,5,14,5v7A4,4,0,0,1,28,32Z" fill="#fff"/><path d="M19,18c4.19,0.22,8.82,3,11,4.17V28a2,2,0,0,1-2,2H18c-1.38,0-4.09,0-4-2-0.43-.39,0-0.9-0.3-1a1.19,1.19,0,0,1-.7-1,1.13,1.13,0,0,1,.7-1c0.08-.38.65-0.58,0-1a1.3,1.3,0,0,1-.7-1,1,1,0,0,1,.5-1H18c1.1,0,0-2,0-2V19a1.06,1.06,0,0,1,1-1m-5.9,4h0M18,16a2,2,0,0,0-2,2v2H13a2.14,2.14,0,0,0-2,2c0,1.94.5,2.28,1,2.5-1.16.16-1.47,2.41,0,3-0.5,3.67,3.79,4.5,6,4.5H28a4,4,0,0,0,4-4V21s-8-4.83-14-5h0Z" fill="#cc9823"/><rect x="12" y="24" width="8" height="1" fill="#cc9823"/><path d="M16,20h5a1,1,0,0,1,1,1v0a1,1,0,0,1-1,1H16a0,0,0,0,1,0,0V20A0,0,0,0,1,16,20Z" fill="#cc9823"/><rect x="12" y="27" width="8" height="1" fill="#cc9823"/></svg>