<svg id="Layer_1" data-name="Layer 1" xmlns="http://www.w3.org/2000/svg" viewBox="0 0 32 32"><title>Action_AddAssignment_large_ed0be2bed92a4ef68c797d0af586742b</title><polygon points="27 23 21 29 5 29 5 2 27 2 27 23" fill="#fff"/><rect x="23" width="2" height="4" rx="1" ry="1" fill="#9da2a5"/><rect x="7" width="2" height="4" rx="1" ry="1" fill="#9da2a5"/><path d="M21.26,32a1.35,1.35,0,0,1-1-.42l-5.66-5.89a1.29,1.29,0,0,1,0-1.88,1.34,1.34,0,0,1,2,0l4.43,4.61,8.41-11.17A1.35,1.35,0,0,1,31.47,17a1.47,1.47,0,0,1,.23,2L22.34,31.45a1.36,1.36,0,0,1-1,.55H21.26Z" fill="#75ad15"/><path d="M5,29V7H27V17.66L29,15V2a1,1,0,0,0-1-1H26V3a2,2,0,0,1-4,0V1H10V3A2,2,0,0,1,6,3V1H4A1,1,0,0,0,3,2V30a1,1,0,0,0,1,1H17l-2-2H5Z" fill="#9da2a5"/></svg>