<svg id="Layer_1" data-name="Layer 1" xmlns="http://www.w3.org/2000/svg" viewBox="0 0 16 16"><title>approvalrulebase</title><path d="M3,0H13.5a0.5,0.5,0,0,1,.5.5v13a0.5,0.5,0,0,1-.5.5H3a0,0,0,0,1,0,0V0A0,0,0,0,1,3,0Z" fill="#6fa6d4"/><rect x="3" width="1" height="15" fill="#fff"/><path d="M2,1.5v0M3,0H2.5A1.5,1.5,0,0,0,1,1.5V15a1,1,0,0,0,1,1H13.75A0.25,0.25,0,0,0,14,15.75v-0.5A0.25,0.25,0,0,0,13.75,15H3V0H3Z" fill="#6fa6d4"/><rect x="6" y="3" width="6" height="2" fill="#fff"/><path d="M2.25,15H13.5V14H2.25a0.25,0.25,0,0,0-.25.25v0.5A0.25,0.25,0,0,0,2.25,15Z" fill="#fff"/></svg>