<svg id="Layer_1" data-name="Layer 1" xmlns="http://www.w3.org/2000/svg" viewBox="0 0 32 32"><title>GroupIconDocuments_large_136b5b7b053a4ca18f0579af1fc2dffb</title><polygon points="30 26 12 26 12 2 26 2 30 6 30 26" fill="#fff"/><path d="M30,6H26V2M24,0V7a1,1,0,0,0,1,1h7Z" fill="#9da2a5"/><rect x="23" y="12" width="5" height="2" fill="#adb1b2"/><rect x="23" y="16" width="5" height="2" fill="#adb1b2"/><rect x="23" y="20" width="5" height="2" fill="#adb1b2"/><polygon points="20 30 2 30 2 6 16 6 20 10 20 30" fill="#fff"/><path d="M20,11V30H2V6H15l5,5M15.5,4H1A1,1,0,0,0,0,5V31a1,1,0,0,0,1,1H21a1,1,0,0,0,1-1V10.5Z" fill="#9da2a5"/><path d="M20,10H16V6M14,4v7a1,1,0,0,0,1,1h7Z" fill="#9da2a5"/><rect x="4" y="16" width="14" height="2" fill="#adb1b2"/><rect x="4" y="20" width="14" height="2" fill="#adb1b2"/><rect x="4" y="24" width="14" height="2" fill="#adb1b2"/><path d="M25.5,0H11a1,1,0,0,0-1,1V3h2V2H25l5,5V26H24v2h7c0.55,0,1,.55,1,0V6.5Z" fill="#9da2a5"/></svg>