<svg id="Layer_1" data-name="Layer 1" xmlns="http://www.w3.org/2000/svg" viewBox="0 0 32 32"><title>groupiconpersonalsettings_large_1bdc2e3b98f04f6abf417d08ea333cb1</title><path d="M30,13H26.95c-0.16-.45-1.11-2.16-1.32-2.58L27.3,8.75c0.76-.76,1-1.37.19-2.13L24.75,3.88c-0.76-.76-1.11-0.14-1.87.61L21.12,6.25c-0.31-.14-1.8-1.08-2.12-1.2V2c0-.5,0-1-1.06-1H14.06A0.88,0.88,0,0,0,13,2V5.05c-0.39.14-1.93,1.07-2.29,1.24l-2.21-2C7.75,3.57,8,3.37,6.83,3.92L4.09,6.66a1.39,1.39,0,0,0,.22,2.16l1.85,1.85C6,11,5.19,12.61,5.05,13H2a0.84,0.84,0,0,0-1,1v4c0,0.9,1.26,1,1,1H5c0.11,0.32.94,1.69,1.08,2l-2,2c-0.76.76-1.05,1.56-.3,2.32L6.5,28.08c0.76,0.76,1.18.48,1.94-.27l1.93-1.93c0.42,0.21,2.14,1,2.58,1.21L13,30c0.13,0.25-.07,1,1,1h4a1,1,0,0,0,1-1V27c0.39-.14,1.71-1.08,2.08-1.25l1.85,1.85a1.49,1.49,0,0,0,2.34.14L26,25a1.17,1.17,0,0,0,0-2l-0.37-1.54c0.17-.37,1.19-2.07,1.32-2.46H30a0.92,0.92,0,0,0,1-1.06V14.06A0.92,0.92,0,0,0,30,13ZM16,20.88A4.59,4.59,0,0,1,11.13,16,4.82,4.82,0,0,1,16,11.13,5,5,0,0,1,20.88,16,4.78,4.78,0,0,1,16,20.88Z" fill="#fff"/><path d="M20.48,24a28.09,28.09,0,0,1-.92,7.1,22.43,22.43,0,0,0,7.75,0A36.93,36.93,0,0,1,26.42,24c0.09-1.39.09-3.23-3.17-3.24C20.31,20.78,20.48,24,20.48,24Z" fill="#fff"/><path d="M23.47,21.78a2.76,2.76,0,0,1,2.06.63A2.06,2.06,0,0,1,26,24a26.82,26.82,0,0,0,.81,6.2,35.11,35.11,0,0,1-3.57.19,25.47,25.47,0,0,1-3-.16A26.3,26.3,0,0,0,21,23.95a1,1,0,0,0,0-.11,2,2,0,0,1,.35-1.36,2.51,2.51,0,0,1,1.94-.7h0.19m0-1H23.25C19.48,20.88,20,23,20,23a30.94,30.94,0,0,1-1,8,24.36,24.36,0,0,0,4.2.33A34.55,34.55,0,0,0,28,31s-1.4-4.95-1-8c0.09-1.36-.41-2.22-3.49-2.22h0Z" fill="#8d9599"/><path d="M19.44,17.06c0.08,2.71.07,5.22,1.57,7.35a3.41,3.41,0,0,0,4.57.22s1.88-.83,2-7.58c0-1.39-1-3.76-4.25-3.67A3.79,3.79,0,0,0,19.44,17.06Z" fill="#fff"/><path d="M23.66,14.1a3.31,3.31,0,0,1,2.45.94A3,3,0,0,1,27,17c-0.07,5.5-1.39,7-1.57,7.19a0.32,0.32,0,0,0-.07.06,3.36,3.36,0,0,1-1.93.69,2.74,2.74,0,0,1-1.74-.65c-1.49-1.7-1.62-5-1.69-7.18a3.79,3.79,0,0,1,3.52-3h0.14m0-1H23.5c-3.78.1-4.38,2.39-4.43,3.88-0.09,2.7.18,6.1,1.93,8a3.76,3.76,0,0,0,2.43.93A4.37,4.37,0,0,0,26,25s1.92-1.25,2-8a4.12,4.12,0,0,0-4.34-3.9h0Z" fill="#8d9599"/><path d="M19.07,17a13.81,13.81,0,0,0,.12,3.08c0.58-1.94,1.45-3,2.92-3,1.25-.07,4.2.61,5.71-1.06a4.23,4.23,0,0,0-4.32-3A4.29,4.29,0,0,0,19.07,17Z" fill="#8d9599"/><path d="M32,32H15V29c0-.55.33-0.62,1-1l3.93-2.07S21,29,23.5,29,27,26,27,26l4,2c0.54,0.42,1,.45,1,1v3Z" fill="#407fb9"/><path d="M18,19.45A4,4,0,0,1,16,20a4,4,0,1,1,2.71-6.92,3.53,3.53,0,0,1,1.42-1.29l0.09,0A6,6,0,1,0,16,22a5.92,5.92,0,0,0,2-.35v-2.2Z" fill="#6fa6d4"/><path d="M30,12H27.3a11.92,11.92,0,0,0-.57-1.35l1.72-1.72a2,2,0,0,0,0-2.83L25.63,3.27a2,2,0,0,0-2.83,0L21,5.09c-0.32-.15-0.65-0.28-1-0.39V2a2,2,0,0,0-2-2H14a2,2,0,0,0-2,2V4.7a11.91,11.91,0,0,0-1.16.48L8.93,3.27a2,2,0,0,0-2.83,0L3.27,6.1a2,2,0,0,0,0,2.83l1.91,1.91A11.9,11.9,0,0,0,4.7,12H2a2,2,0,0,0-2,2v4a2,2,0,0,0,2,2H4.7c0.12,0.33.25,0.66,0.39,1L3,23.07A2,2,0,0,0,3,25.9l2.83,2.83a2,2,0,0,0,2.83,0l2-2A11.92,11.92,0,0,0,12,27.3V30a2,2,0,0,0,2,2V27.3a2,2,0,0,0-1.33-1.89,10,10,0,0,1-1.12-.48,2,2,0,0,0-2.31.38l-2,2L4.41,24.49l2.09-2.09a2,2,0,0,0,.4-2.25c-0.12-.25-0.23-0.53-0.33-0.82A2,2,0,0,0,4.7,18H2V14H4.7a2,2,0,0,0,1.89-1.33,10,10,0,0,1,.4-1,2,2,0,0,0-.39-2.28L4.69,7.51,7.51,4.69,9.42,6.59A2,2,0,0,0,11.7,7a10,10,0,0,1,1-.4A2,2,0,0,0,14,4.7V2h4V4.7a2,2,0,0,0,1.33,1.89c0.29,0.1.56,0.21,0.82,0.33a2,2,0,0,0,2.25-.4l1.82-1.82L27,7.51,25.32,9.24a2,2,0,0,0-.42,2.18A4.52,4.52,0,0,1,27,13.26q0.1,0.16.19,0.32l0.05,0.1c0.05,0.1.09,0.21,0.13,0.31H30v4H29v2h1a2,2,0,0,0,2-2V14A2,2,0,0,0,30,12Z" fill="#6fa6d4"/></svg>