<svg id="Layer_1" data-name="Layer 1" xmlns="http://www.w3.org/2000/svg" viewBox="0 0 32 32"><title>Action_SendInvitation_large_7b714d1507ef4393953db815a2dab7b6</title><rect x="2" y="5" width="26" height="20" fill="#fff"/><path d="M15.5,17c-2.08,0-3-.48-5.11-1.62C7.08,13.56.51,7.32,0.21,7a0.8,0.8,0,0,1,0-1.13A1.81,1.81,0,0,1,2,5.91c0.07,0.08,6.23,5.78,9.2,7.67,3.2,2,5.45,1.93,8.39,0S27.93,6.16,28,6.08a1.58,1.58,0,0,1,1.65.08,0.8,0.8,0,0,1,0,1.13c-0.3.32-6.07,6.14-9.33,8C18.39,16.47,17.5,17,15.5,17Z" fill="#dfab26"/><path d="M11.08,14.67a0.87,0.87,0,0,1-.07-0.1L2.29,23.29a1,1,0,1,0,1.41,1.41l9-9A5.15,5.15,0,0,1,11.08,14.67Z" fill="#dfab26"/><path d="M2,5H28V20.61l2,1.44V4a1,1,0,0,0-1-1H1A1,1,0,0,0,0,4V26a1,1,0,0,0,1,1H12V25H2V5Z" fill="#dfab26"/><path d="M22,17.59L19.39,15a5,5,0,0,1-1.79,1l4.4,4.4V17.59Z" fill="#dfab26"/><rect x="13" y="23" width="14" height="6" fill="#407fb9"/><polygon points="32 26 23 32 23 20 32 26" fill="#407fb9"/></svg>