<svg id="Layer_1" data-name="Layer 1" xmlns="http://www.w3.org/2000/svg" viewBox="0 0 32 32"><title>OnDocumentProcessing_large_1ead1abe1b7e48339e01ee7f8404537a</title><polygon points="29 22 23 22 23 26 17 26 17 30 2 30 2 10 8 10 8 6 14 6 14 2 25 2 29 6 29 22" fill="#fff"/><path d="M17,15V30H2V10H12l5,5M12.5,8H1A1,1,0,0,0,0,9V31a1,1,0,0,0,1,1H18a1,1,0,0,0,1-1V14.5Z" fill="#9da2a5"/><path d="M17,14H13V10M11,8v7a1,1,0,0,0,1,1h7Z" fill="#9da2a5"/><path d="M24.5,0H13a1,1,0,0,0-1,1V3h2V2h9V7a1,1,0,0,0,1,1h5V22H26v2h4a1,1,0,0,0,1-1V6.5ZM25,6V3l3,3H25Z" fill="#9da2a5"/><path d="M18.5,4H7A1,1,0,0,0,6,5V7H8V6h9v5a1,1,0,0,0,1,1h5V26H20v2h4a1,1,0,0,0,1-1V10.5ZM19,10V7l3,3H19Z" fill="#9da2a5"/><rect x="4" y="18" width="11" height="2" fill="#adb1b2"/><rect x="4" y="22" width="11" height="2" fill="#adb1b2"/><rect x="4" y="26" width="11" height="2" fill="#adb1b2"/></svg>