<svg id="Layer_1" data-name="Layer 1" xmlns="http://www.w3.org/2000/svg" viewBox="0 0 16 16"><title>Action_WriteLetter_small_59f0a447fd0d4647b0f476a35d2a5b0f</title><rect x="1" y="3" width="14" height="10" fill="#fff"/><path d="M15,2H1A1,1,0,0,0,0,3V13a1,1,0,0,0,1,1H15a1,1,0,0,0,1-1V3A1,1,0,0,0,15,2Zm0,1V3.36C13.57,4.7,11,8,8,8H8C5,8,2.43,4.62,1,3.28V3H15ZM1,13V4.82a14.67,14.67,0,0,0,4.06,3.4L1.18,12.1a0.5,0.5,0,1,0,.71.71L6.06,8.65A5.88,5.88,0,0,0,8,9H8a5.81,5.81,0,0,0,1.91-.35l4.17,4.15a0.5,0.5,0,0,0,.71-0.71L10.92,8.22A15.2,15.2,0,0,0,15,4.87V13H1Z" fill="#798288"/></svg>