<svg id="Layer_1" data-name="Layer 1" xmlns="http://www.w3.org/2000/svg" viewBox="0 0 32 32"><title>Action_CanExchange_large_2359c2f77624411a8cfbbca8b06917f3</title><path d="M29,3V29H3V3H29m1-2H2A1,1,0,0,0,1,2V30a1,1,0,0,0,1,1H30a1,1,0,0,0,1-1V2a1,1,0,0,0-1-1h0Z" fill="#9da2a5"/><rect x="3" y="3" width="26" height="26" fill="#fff"/><polygon points="20 11.5 13 7 13 9 6 9 6 14 13 14 13 16 20 11.5" fill="#407fb9"/><polygon points="26 18 19 18 19 16 12 20.5 19 25 19 23 26 23 26 18" fill="#53b7b1"/></svg>