<svg id="Layer_1" data-name="Layer 1" xmlns="http://www.w3.org/2000/svg" viewBox="0 0 16 16"><title>Action_SendInvitation_small_7b714d1507ef4393953db815a2dab7b6-01</title><rect x="0.99" y="3" width="14" height="10" fill="#fff"/><polygon points="16 12.5 11 9 11 11 6 11 6 14 11 14 11 16 16 12.5" fill="#407fb9"/><path d="M15,2H1A1,1,0,0,0,0,3V13a1,1,0,0,0,1,1H5V13H1V4.83A14.64,14.64,0,0,0,5,8.22L1.17,12.1a0.5,0.5,0,1,0,.71.71L6,8.65A5.88,5.88,0,0,0,8,9H8c3,0,5.68-2.67,7-4.15V9.39l1,0.7V3A1,1,0,0,0,15,2ZM8,8H8C5,8,2.43,4.64,1,3.3V3H15V3.34C13.57,4.68,11,8,8,8Z" fill="#cc9823"/></svg>