<svg id="Layer_1" data-name="Layer 1" xmlns="http://www.w3.org/2000/svg" viewBox="0 0 16 16"><title>Outbox_small</title><polygon points="15 11 12 11 12 13 1 13 1 3 15 3 15 11" fill="#fff"/><path d="M1,13V4.82a14.67,14.67,0,0,0,4.06,3.4L1.18,12.1a0.5,0.5,0,1,0,.71.71L6.06,8.65A5.88,5.88,0,0,0,8,9H8a5.28,5.28,0,0,0,1.14-.14l1.44-1.65A5.42,5.42,0,0,1,8,8H8C5,8,2.43,4.62,1,3.28V3H15V3.36c-0.55.52-1.27,1.32-2.12,2.11l0.6,0.68L13.6,6.28c0.55-.5,1-1,1.4-1.41v3L16,9V3a1,1,0,0,0-1-1H1A1,1,0,0,0,0,3V13a1,1,0,0,0,1,1h9V13H1Z" fill="#cc9823"/><polygon points="11 11 11 16 14 16 14 11 16 11 12.5 7 9 11 11 11" fill="#407fb9"/></svg>