<svg id="Layer_1" data-name="Layer 1" xmlns="http://www.w3.org/2000/svg" viewBox="0 0 32 32"><title>Action_ExportFinancialDocument_large_cf63dc4e66844c9cbdb455757fe67380</title><rect x="2" y="7" width="24" height="22" fill="#fff"/><rect x="1" y="13" width="19" height="2" fill="#9da2a5"/><rect x="1" y="21" width="26" height="2" fill="#9da2a5"/><rect x="11" y="16" width="6" height="2" rx="1" ry="1" fill="#576672"/><rect x="11" y="24" width="6" height="2" rx="1" ry="1" fill="#576672"/><polygon points="28 10 28 20 21 20 21 10 17 10 24.5 2 32 10 28 10" fill="#407fb9"/><path d="M16.6,8.22A1,1,0,0,0,16,8H12a1,1,0,0,0,0,2h2.94Z" fill="#576672"/><path d="M26,21v8H2V7H17.81l1.88-2H1A1,1,0,0,0,0,6V30a1,1,0,0,0,1,1H27a1,1,0,0,0,1-1V21H26Z" fill="#9da2a5"/></svg>