<svg id="Layer_1" data-name="Layer 1" xmlns="http://www.w3.org/2000/svg" viewBox="0 0 16 16"><title>Action_ExportFinancialDocument_small_cf63dc4e66844c9cbdb455757fe67380</title><rect x="1" y="3" width="11" height="11" fill="#fff"/><polygon points="14 4 14 9 10 9 10 4 8 4 12 0 16 4 14 4" fill="#407fb9"/><rect x="4" y="10" width="5" height="1" fill="#576672"/><rect x="4" y="4" width="3" height="1" fill="#576672"/><rect y="8.06" width="9" height="0.94" fill="#798288"/><path d="M12,10v4H1V3H7L8,2H1A1,1,0,0,0,0,3V14a1,1,0,0,0,1,1H12a1,1,0,0,0,1-1V10H12Z" fill="#798288"/></svg>