<svg id="Layer_1" data-name="Layer 1" xmlns="http://www.w3.org/2000/svg" viewBox="0 0 32 32"><title>Action_ShowDuplicates_large_f8f2e6a489cf4d74ad1b01b1cf712e47</title><polygon points="26 26 8 26 8 2 22 2 26 6 26 26" fill="#fff"/><polygon points="20 30 2 30 2 6 16 6 20 10 20 30" fill="#fff"/><path d="M26,6H22V2M20,0V7a1,1,0,0,0,1,1h7Z" fill="#9da2a5"/><path d="M20,10H16V6M14,4v7a1,1,0,0,0,1,1h7Z" fill="#9da2a5"/><rect x="4" y="19" width="12" height="2" fill="#adb1b2"/><rect x="4" y="15" width="14" height="2" fill="#adb1b2"/><rect x="4" y="23" width="12" height="2" fill="#adb1b2"/><path d="M31.15,32a0.85,0.85,0,0,1-.6-0.25l-8.12-8.12a0.85,0.85,0,0,1,1.2-1.2l8.12,8.12A0.85,0.85,0,0,1,31.15,32Z" fill="#407fb9"/><circle cx="23" cy="23" r="5.5" fill="#fff"/><path d="M2,30V6H15l5,5v4.58a7.94,7.94,0,0,1,2-.52V10.5L15.5,4H1A1,1,0,0,0,0,5V31a1,1,0,0,0,1,1H21a1,1,0,0,0,1-1V30H2Z" fill="#9da2a5"/><path d="M21.5,0H7A1,1,0,0,0,6,1V3H8V2H21l1,1h0.19V3.19L26,7v8.8a8,8,0,0,1,2,1.33V6.5Z" fill="#9da2a5"/><path d="M23,18.5A4.5,4.5,0,1,1,18.5,23,4.51,4.51,0,0,1,23,18.5M23,17a6,6,0,1,0,6,6,6,6,0,0,0-6-6h0Z" fill="#407fb9"/></svg>