<svg id="Layer_1" data-name="Layer 1" xmlns="http://www.w3.org/2000/svg" viewBox="0 0 32 32"><title>Country_large</title><circle cx="16" cy="16" r="15.58" fill="#fff"/><path d="M30.43,11.8a2.36,2.36,0,0,1-1-.09,0.26,0.26,0,0,1-.23-0.22A0.12,0.12,0,0,0,29,11.4a0.55,0.55,0,0,1-.62-0.08l0,0a0.65,0.65,0,0,1-.5-0.45,0.22,0.22,0,0,0-.29-0.08c-0.08,0-.1.06-0.06,0.14s0.22,0.29.31,0.44a0.27,0.27,0,0,0,.23.17,0.19,0.19,0,0,1,.14.2,0.25,0.25,0,0,0,.09.25,0.53,0.53,0,0,0,.42,0A1.29,1.29,0,0,0,29,11.68a0.6,0.6,0,0,0,.59.42,0.78,0.78,0,0,1,.26.23s0,0.13-.05.19a2.86,2.86,0,0,1-.48.75,1.4,1.4,0,0,1-.63.34,0.17,0.17,0,0,0-.14.11,0.2,0.2,0,0,1-.14.14L27,14.29a0.12,0.12,0,0,1-.18-0.08c-0.16-.39-0.34-0.76-0.53-1.14a0.35,0.35,0,0,0-.15-0.16,0.47,0.47,0,0,1-.27-0.4c0-.06,0-0.12,0-0.17a0.2,0.2,0,0,0-.2-0.21c-0.06,0-.11,0-0.08-0.11a0.43,0.43,0,0,0-.07-0.33,1.52,1.52,0,0,0-.17-0.26,1.89,1.89,0,0,1-.4-1s0-.08,0-0.09A0.35,0.35,0,0,0,25.1,10a2.89,2.89,0,0,0,0-.7c0-.08,0-0.12-0.12-0.1a1.08,1.08,0,0,1-.74-0.06,0.19,0.19,0,0,0-.19.06c-0.06,0-.1.06-0.15,0s-0.11,0-.17,0-0.09.12-.16,0.07a0.39,0.39,0,0,1-.21-0.22A0.11,0.11,0,0,0,23.33,9a0.37,0.37,0,0,1,0-.62,0.42,0.42,0,0,1,.25,0,0.42,0.42,0,0,0,.41-0.21A0.1,0.1,0,0,1,24,8.06,2.27,2.27,0,0,0,24.44,8a1.15,1.15,0,0,1,.81.07,0.68,0.68,0,0,0,.62,0c0.07,0,.08-0.07,0-0.14a1.59,1.59,0,0,0-.72-0.61c-0.11-.05-0.09-0.08,0-0.15a0.4,0.4,0,0,1,.11-0.1s0.05,0,0-.05,0-.15.06-0.23A3.23,3.23,0,0,0,24.6,7a2.2,2.2,0,0,0,.31.19l-0.38.21a0.05,0.05,0,0,1-.07,0A0.35,0.35,0,0,1,24.38,7a0.56,0.56,0,0,0-.77.4,0.47,0.47,0,0,1-.09.25,0.19,0.19,0,0,0,.05.25c0.08,0.11.08,0.16-.06,0.21s-0.18.1-.25,0a0.06,0.06,0,0,0-.06,0,1.52,1.52,0,0,0-.64.29c-0.07.06,0,.2,0.1,0.28a0.49,0.49,0,0,1,.21.19,0.47,0.47,0,0,1-.14.25c0,0.17-.17.08-0.27,0.09S22.35,9.1,22.34,9a0.66,0.66,0,0,0-.24-0.43,0.55,0.55,0,0,1-.23-0.56,0.13,0.13,0,0,0-.08-0.16c-0.24-.1-0.46-0.24-0.7-0.37a1.1,1.1,0,0,0,0,.33,0.12,0.12,0,0,0,.08.1,1.71,1.71,0,0,1,.52.4s0.08,0.05,0,.11-0.07,0-.12,0-0.14-.08-0.14.09a0.36,0.36,0,0,1-.09.28c-0.06.05-.11,0.08-0.15,0s-0.11-.25-0.14-0.38a0.42,0.42,0,0,0-.26-0.29,1.54,1.54,0,0,1-.6-0.45,0.7,0.7,0,0,0-.14-0.13,0.23,0.23,0,0,0-.37,0,0.46,0.46,0,0,1-.39.14l-0.22,0a0.43,0.43,0,0,0-.25,0,0.23,0.23,0,0,0-.05.22,0.18,0.18,0,0,1-.21.17,0.17,0.17,0,0,0-.13,0,1,1,0,0,0-.37.55,0.7,0.7,0,0,1-.59.51l-0.18,0a0.59,0.59,0,0,1-.55-0.1,0.44,0.44,0,0,0-.31,0c-0.11,0-.16,0-0.14-0.15s0.09-.22-0.05-0.3a0.1,0.1,0,0,1,0-.12,0.61,0.61,0,0,0,.08-0.69,0.15,0.15,0,0,1,.11-0.23,1.55,1.55,0,0,1,.74,0,2.12,2.12,0,0,0,.48,0,0.12,0.12,0,0,0,.13-0.11,0.31,0.31,0,0,1,0-.1,0.52,0.52,0,0,0-.13-0.6,0.28,0.28,0,0,0-.25-0.1,0.14,0.14,0,0,1-.15-0.17c0-.1.09-0.08,0.15-0.09h0.13c0.12,0,.26.07,0.23-0.16s0.07-.09.14,0a0.3,0.3,0,0,0,.47-0.08,1.52,1.52,0,0,1,.28-0.24A0.5,0.5,0,0,0,19,5.6c0-.12.12-0.09,0.2,0a0.37,0.37,0,0,1,.44-0.24h0.12c0.07,0,.11,0,0.07-0.11a1.35,1.35,0,0,1-.07-0.44,0.09,0.09,0,0,1,.09-0.11l0.16,0a0.08,0.08,0,0,1,.11,0,0.1,0.1,0,0,1,0,.13,0.37,0.37,0,0,0-.08.2,0.11,0.11,0,0,0,.08.15,0.4,0.4,0,0,0,.43,0c0.08-.06.14,0,0.2,0.09a0.14,0.14,0,0,0,.22,0A1.39,1.39,0,0,1,21.46,5a0.17,0.17,0,0,1,.2.08c0.09,0.11.18,0.09,0.24,0a0.08,0.08,0,0,1,0,0c0.19,0,.12-0.14.12-0.24a0.5,0.5,0,0,1,0-.22,0.15,0.15,0,0,1,.25-0.09s0.1,0.11.14,0.06a0.2,0.2,0,0,0,.05-0.23,0.22,0.22,0,0,1,0-.36,0.57,0.57,0,0,0-.26,0A2.63,2.63,0,0,1,22,4a0.57,0.57,0,0,0-.46.16,0.53,0.53,0,0,0-.23.43,0.32,0.32,0,0,1-.31.31,1.81,1.81,0,0,0-.33.1,0.23,0.23,0,0,1-.13,0A0.13,0.13,0,0,1,20.4,4.9a0.11,0.11,0,0,1,.08-0.13c0.12,0,.1-0.1,0-0.18s-0.17-.27-0.25-0.41-0.07-.07-0.13,0a1.33,1.33,0,0,1-.32.21,0.34,0.34,0,0,1-.5-0.32c0-.14,0-0.29,0-0.43a0.19,0.19,0,0,1,.12-0.24,0.88,0.88,0,0,0,.17-0.12,0.14,0.14,0,0,1,.15,0,0.29,0.29,0,0,0,.27,0c0.05,0,.09,0,0.07-0.1A0.06,0.06,0,0,1,20.11,3a0.53,0.53,0,0,0,.35-0.3,1.07,1.07,0,0,1,.39-0.32A1.71,1.71,0,0,0,21.4,2a0.23,0.23,0,0,1,.18-0.08,4.29,4.29,0,0,0,.52-0.14h0a15.44,15.44,0,0,0-6-1.25,0.14,0.14,0,0,0,0,.09,0.09,0.09,0,0,1,0,.08,2.31,2.31,0,0,1-.37.37,0.11,0.11,0,0,1-.17,0A0.77,0.77,0,0,0,15.27.9,0.05,0.05,0,0,0,15.2,1c0,0.08-.1.17,0,0.24a1.78,1.78,0,0,1,.19.21,0.17,0.17,0,0,1,0,.24,0.21,0.21,0,0,1-.25,0l-0.26-.2a0.15,0.15,0,0,0-.16,0,0.1,0.1,0,0,1,.06.11,0.13,0.13,0,0,1-.11.07H14.63c-0.08,0-.08,0-0.08.09s0.06,0.06.09,0.06l0.39,0h0.13a0.08,0.08,0,0,1,.08.07,0.07,0.07,0,0,1-.06.08L14.78,2a3.61,3.61,0,0,1-.76.23,0.3,0.3,0,0,1-.13,0,0.35,0.35,0,0,0-.43.21,0.25,0.25,0,0,1-.14.1,2.28,2.28,0,0,1-.75.13,0.32,0.32,0,0,0-.3.19,1.17,1.17,0,0,1-.37.44,0.69,0.69,0,0,0-.18.2,1.42,1.42,0,0,1-.15.2c-0.18.19-.22,0.19-0.38,0a0.14,0.14,0,0,0-.19,0,0.15,0.15,0,0,1-.2-0.06,0.52,0.52,0,0,1-.12-0.42,0.65,0.65,0,0,0,0-.44,0.31,0.31,0,0,1,.11-0.39A0.8,0.8,0,0,1,11.16,2c0.11,0,.12-0.18,0-0.26a0.21,0.21,0,0,1-.09-0.15,0.63,0.63,0,0,1,.24,0c0.06,0,.1,0,0.1-0.09s0-.1-0.1-0.09l-0.2,0a0.73,0.73,0,0,1,.09-0.24,15.4,15.4,0,0,0-2.17.89L9.11,2.23a0.86,0.86,0,0,0,.39.26,0.55,0.55,0,0,1-.35.25C9.05,2.75,9,2.65,9,2.6a0.34,0.34,0,0,0,.16-0.07,0.48,0.48,0,0,0-.52.15c-0.06.09-.06,0.16,0,0.2S8.77,3,8.75,3.08a0.2,0.2,0,0,1-.3.1h0c-0.06,0-.12-0.09-0.17,0s0,0.11.06,0.16l0,0.09a0.48,0.48,0,0,1-.4-0.17,1.59,1.59,0,0,0-.29-0.3L7,3.35a0.63,0.63,0,0,0,.31,0s0.1,0,.11,0a0.4,0.4,0,0,0,.35.35,0.49,0.49,0,0,0-.24.4,0.19,0.19,0,0,0,.09.17,0.13,0.13,0,0,0,.16,0A0.79,0.79,0,0,0,8.2,4a0.29,0.29,0,0,1,.13-0.13,2.24,2.24,0,0,1,.23.69,0.14,0.14,0,0,1,0,.11,0.18,0.18,0,0,0,.05.29L8.8,5.1l-0.25.16a0.16,0.16,0,0,0,.15,0,0.12,0.12,0,0,1,.18.06,0.16,0.16,0,0,1,0,.27c-0.15.12-.28,0.25-0.43,0.37a0.88,0.88,0,0,1-.63.16c-0.1,0-.21,0-0.31,0a0.91,0.91,0,0,0-.78.31,2.64,2.64,0,0,0-.37.39c0.12-.07.25-0.13,0.37-0.21a1.52,1.52,0,0,1,.46-0.16,0.14,0.14,0,0,1,.17.11c0,0.07,0,.08-0.07.11a0.48,0.48,0,0,0-.13.32C7.09,7,7.15,7,7.19,7a1.58,1.58,0,0,1,.3.16s0.07,0.08,0,.11a1.56,1.56,0,0,0-.5.3,0.24,0.24,0,0,1-.25,0l0.36-.33a0.36,0.36,0,0,0-.43.12,0.16,0.16,0,0,1-.2.06A0.35,0.35,0,0,0,6,7.73a0.69,0.69,0,0,1-.63.47,0.29,0.29,0,0,0-.26.21,2.28,2.28,0,0,1-.22.39c-0.08.11-.14,0.2-0.26,0l0,0a0.49,0.49,0,0,1-.14.59,2.4,2.4,0,0,1-.79.65,0.31,0.31,0,0,0-.16.19,1.25,1.25,0,0,0,0,.76,2.17,2.17,0,0,1,0,.58,0.06,0.06,0,0,1-.07.07,0.13,0.13,0,0,1-.14-0.07A1,1,0,0,1,3.12,11,0.13,0.13,0,0,0,3,10.88a0.73,0.73,0,0,1-.33-0.19,0.6,0.6,0,0,0-.41-0.06l-0.15,0C2,10.66,2,10.7,2,10.81s0,0.13-.11.12a0.41,0.41,0,0,1-.14,0,0.5,0.5,0,0,0-.37,0,15.39,15.39,0,0,0-.61,2.3H1.2a0.13,0.13,0,0,0,.14-0.1c0-.08.07-0.17,0.11-0.25a0.37,0.37,0,0,1,.42-0.24l0.28,0a2.49,2.49,0,0,1-.29.54,1.54,1.54,0,0,0-.12.56c0,0.06,0,.05.08,0.05H2.17a0.6,0.6,0,0,1,.32.12c0.05,0,0,.07,0,0.1a2.45,2.45,0,0,1-.07.64,1.08,1.08,0,0,0,.11.62,0.15,0.15,0,0,0,.18.07,0.91,0.91,0,0,0,.4-0.14,0.17,0.17,0,0,1-.06.22,0.16,0.16,0,0,0-.09.21,2.2,2.2,0,0,0-.57-0.24,0.16,0.16,0,0,1-.08-0.1,0.26,0.26,0,0,0-.19-0.17A0.16,0.16,0,0,1,2,14.93a0.9,0.9,0,0,0-.66-0.65,1,1,0,0,1-.41-0.4,0.45,0.45,0,0,0-.28-0.2A15.62,15.62,0,0,0,.5,16,15.46,15.46,0,0,0,5.67,27.55a0.08,0.08,0,0,1,0,0s0.05,0,0-.06a0.48,0.48,0,0,0-.26-0.25c-0.08,0-.07-0.07-0.1-0.11l0,0c0.23,0,.26,0,0.19-0.25a4.42,4.42,0,0,1-.17-0.69,0.08,0.08,0,0,0-.09-0.08,0.18,0.18,0,0,1-.17-0.25,0.53,0.53,0,0,0-.09-0.46A0.62,0.62,0,0,1,5,24.86c0-.25.07-0.5,0.11-0.75a0.41,0.41,0,0,0,0-.26A1,1,0,0,1,5,23.37c0-.4,0-0.81,0-1.21,0-.15-0.1-0.28-0.11-0.43a4.72,4.72,0,0,1,0-.64,0.26,0.26,0,0,0-.17-0.3c-0.18-.08-0.34-0.19-0.5-0.29A1,1,0,0,1,3.72,20a11.24,11.24,0,0,0-.45-1,0.78,0.78,0,0,0-.33-0.39,0.16,0.16,0,0,1-.07-0.09,1.05,1.05,0,0,1,0-.44,0.06,0.06,0,0,1,0-.07,0.37,0.37,0,0,0,.21-0.23,0.23,0.23,0,0,1-.24-0.32,0.58,0.58,0,0,1,.11-0.18,6.34,6.34,0,0,0,.44-0.71,1.45,1.45,0,0,0,.16-0.68,0.29,0.29,0,0,0-.09-0.23,0.4,0.4,0,0,1-.11-0.19,0.11,0.11,0,0,0-.11-0.1c-0.06,0-.05,0-0.05-0.08s0,0,.08,0a0.15,0.15,0,0,1,.18.1,1,1,0,0,0,.08.13A0.53,0.53,0,0,0,3.81,15a0.43,0.43,0,0,1,.24-0.23l0.47-.23c0,0.14-.05.27-0.09,0.4s0,0.18.11,0.2a0.22,0.22,0,0,0,0-.16,0.54,0.54,0,0,1,.19-0.35s0,0,.07,0a0.9,0.9,0,0,1,.11.1,0.49,0.49,0,0,0,.53.17,2.05,2.05,0,0,1,.57,0A0.14,0.14,0,0,1,6.2,15c0,0.05,0,.1.06,0.15a0.33,0.33,0,0,0,.24.27,0.29,0.29,0,0,1,.18.2,0.41,0.41,0,0,0,.45.29,0.9,0.9,0,0,1,.74.35,0.66,0.66,0,0,1,.11.29,0.42,0.42,0,0,0,.07.18c0.15,0.11.07,0.22,0,.33l-0.18.33a0.29,0.29,0,0,0,.18-0.13,0.46,0.46,0,0,1,.39-0.14c0.06,0,.08,0,0.05.08a0.46,0.46,0,0,1-.37.34,0.23,0.23,0,0,0,.36-0.1,0.12,0.12,0,0,1,.17-0.07,2.52,2.52,0,0,0,.35.07,0.27,0.27,0,0,1,.29.26c0,0.07,0,.07.1,0.05a1.39,1.39,0,0,1,.79.08,0.36,0.36,0,0,1,.17.11,0.64,0.64,0,0,0,.47.25,0.3,0.3,0,0,1,.25.19,0.66,0.66,0,0,1-.13.88,1,1,0,0,0-.36.53,0.1,0.1,0,0,1-.06.08c-0.17,0-.14.16-0.12,0.28a1.34,1.34,0,0,1-.09.54c-0.1.37-.24,0.73-0.36,1.09a0.16,0.16,0,0,1-.14.13l-0.2,0a1.08,1.08,0,0,0-.74.52,0.52,0.52,0,0,0-.09.26,3.16,3.16,0,0,1-.24.78,0.06,0.06,0,0,1,0,0c-0.28,0-.22.29-0.24,0.45a0.58,0.58,0,0,1-.63.51l-0.33,0a0.23,0.23,0,0,0,.13.12A0.68,0.68,0,0,1,7.7,25a0.4,0.4,0,0,1-.38.53H7c-0.07,0-.12,0-0.08.1a1.3,1.3,0,0,1,.05.2c0,0.06.06,0.12,0,.18a0.23,0.23,0,0,1-.22,0,0.22,0.22,0,0,0-.15,0c0,0.12,0,.27.19,0.25s0.11,0.08.11,0.15-0.06.08-.12,0.05-0.05,0-.05,0a0.94,0.94,0,0,0,0,.16,0.25,0.25,0,0,1-.11.27c-0.16.12-.16,0.2,0,0.34a0.74,0.74,0,0,0,.18.11c0.12,0.05.1,0.13,0,.2a0.28,0.28,0,0,0-.11.25,0.1,0.1,0,0,1,0,.1,0.23,0.23,0,0,0,0,.34,0.21,0.21,0,0,1,.06.23A15.51,15.51,0,0,0,30.94,11.87,1.12,1.12,0,0,0,30.43,11.8ZM21.56,4.4c0.06,0,.08,0,0.08.08a0.13,0.13,0,0,1-.09.15c-0.08,0,0-.07-0.06-0.11S21.48,4.41,21.56,4.4ZM17.63,5.82H17.54s-0.08,0-.09,0a0.12,0.12,0,0,1,0-.07,0.16,0.16,0,0,0,.07-0.13c0-.08,0-0.1.1-0.11a0.14,0.14,0,0,0,.07-0.25,0.27,0.27,0,0,1,0-.18L17.48,5c0-.09.07-0.17-0.06-0.21a0.26,0.26,0,0,1,0-.27,2.72,2.72,0,0,0,.21-0.29c0-.07.12,0,0.2,0a1.72,1.72,0,0,0-.21.29,1,1,0,0,1,.26,0s0.07,0,.09,0a0.1,0.1,0,0,1,0,.09,0.83,0.83,0,0,1-.24.2l0.08,0a0.61,0.61,0,0,1,.52.49,1.68,1.68,0,0,0,.18.37c0.05,0.07.05,0.14-.06,0.17l-1.05.25a0.35,0.35,0,0,1,.29-0.18s0.1,0,.1-0.07S17.67,5.83,17.63,5.82Zm-1.1-.16a0.21,0.21,0,0,0,.06-0.34,0.61,0.61,0,0,1,0-.09,1,1,0,0,1,.52,0,0.12,0.12,0,0,1,.09.11,0.3,0.3,0,0,1-.24.37,0.89,0.89,0,0,1-.32.07,0.09,0.09,0,0,1-.09-0.06A0.07,0.07,0,0,1,16.53,5.66ZM4.11,12.9C3.82,13,3.81,13,3.65,12.72a0.31,0.31,0,0,0-.11-0.11l-0.05,0a0.66,0.66,0,0,0-.94-0.1,0.46,0.46,0,0,1,.55-0.32,0.69,0.69,0,0,1,.47.19,1.49,1.49,0,0,0,.37.25,0.46,0.46,0,0,1,.27.29ZM9,6.83s0,0-.07,0a0.18,0.18,0,0,0-.23,0s-0.09.05-.12,0a0.19,0.19,0,0,0-.24-0.09,0.36,0.36,0,0,1-.12,0c-0.13,0-.14-0.07-0.07-0.18a5.84,5.84,0,0,0,.5-0.65c0-.08.12,0,0.19,0a0.63,0.63,0,0,0-.11.27,0.54,0.54,0,0,0,.2.16A0.32,0.32,0,0,1,9,6.83Zm5.93-4.1s0.1-.09.15,0,0.07,0.1.13,0a0.25,0.25,0,0,1,.2-0.08,1,1,0,0,0,.52-0.07,0.1,0.1,0,0,1,.13,0l0.06,0.07c0.05,0,.16.07,0.14,0.15A0.25,0.25,0,0,1,16,3a3.47,3.47,0,0,0-.67.24l-0.07,0a2.08,2.08,0,0,0-.41-0.14,0.13,0.13,0,0,1,0-.06A0.42,0.42,0,0,1,14.9,2.74Zm3.38,23.12H17.74v0h0.54a0.47,0.47,0,0,1,.27,0H18.28Zm4.13,0h-0.9a0.58,0.58,0,0,1,.3,0h0.6A0.1,0.1,0,0,0,22.41,25.86Zm5.51-5.52a0.17,0.17,0,0,0,0,.12,5.05,5.05,0,0,1-.5,1.76,0.71,0.71,0,0,1-.51.25,0.57,0.57,0,0,1-.23-0.33q0-.13,0-0.25a0.3,0.3,0,0,1,.13-0.34,0.29,0.29,0,0,0,.11-0.27c0-.16,0-0.32,0-0.48a0.31,0.31,0,0,1,.38-0.31,0.28,0.28,0,0,0,.27-0.21,3.53,3.53,0,0,0,.32-0.59c0.05,0.12.08,0.21,0.12,0.28A0.29,0.29,0,0,1,27.92,20.34Zm0.23-5.07c-0.13.28-.33,0.51-0.48,0.77a2.94,2.94,0,0,1-.57.66A6.78,6.78,0,0,0,26,18c-0.09.14-.09,0.3-0.17,0.43s0,0.09.06,0.12a0.22,0.22,0,0,1,.08.21,0.65,0.65,0,0,0,.12.47,0.48,0.48,0,0,1,.1.36c0,0.19,0,.38,0,0.57a0.63,0.63,0,0,1-.39.6,2.64,2.64,0,0,0-.6.39,0.13,0.13,0,0,0,0,.15,2.8,2.8,0,0,1,0,.82,0.17,0.17,0,0,1-.12.15l-0.25.13a0.34,0.34,0,0,0-.2.35,0.32,0.32,0,0,1,0,.2l-0.11.2a1.82,1.82,0,0,1-1.35,1.2,3.75,3.75,0,0,1-.73.13l-0.25,0a0.4,0.4,0,0,1-.43-0.34,0.07,0.07,0,0,1,0,0c0.15-.16,0-0.3,0-0.44a1,1,0,0,0-.29-0.38,0.77,0.77,0,0,1-.26-0.47A3.24,3.24,0,0,1,21,22,0.39,0.39,0,0,0,21,21.72l-0.27-.41a1.08,1.08,0,0,1-.17-0.85,1.92,1.92,0,0,1,.24-0.78,0.37,0.37,0,0,0,0-.4A0.36,0.36,0,0,1,20.7,19a0.12,0.12,0,0,0,0-.11,1.08,1.08,0,0,1-.2-0.59A0.27,0.27,0,0,0,20.29,18,0.48,0.48,0,0,1,20,17.73a0.67,0.67,0,0,0-.24-0.35c-0.07,0,0-.09,0-0.12s0.08,0,0-.09-0.06,0-.09,0a0.59,0.59,0,0,0-.26.32,0.2,0.2,0,0,1-.25.15,1,1,0,0,0-.28,0c-0.12,0-.13-0.05-0.12-0.14A1.39,1.39,0,0,1,19,17c0.07-.12.14-0.24,0.21-0.36a0.11,0.11,0,0,1,.09-0.08c0.26,0,.11-0.2.14-0.3s-0.08-.12-0.15-0.12A0.21,0.21,0,0,1,19.1,16a0.35,0.35,0,0,0-.39-0.25,1.62,1.62,0,0,0-.33,0,0.34,0.34,0,0,0-.34.39s0,0.12-.05.11,0-.07,0-0.11,0-.17-0.12-0.14a2.53,2.53,0,0,1-.63,0,2.38,2.38,0,0,0-.76.12,0.16,0.16,0,0,1-.15,0c-0.29-.18-0.57-0.37-0.84-0.57a0.32,0.32,0,0,1-.12-0.17,1.24,1.24,0,0,0-.41-0.54l-0.18-.16a0.47,0.47,0,0,1-.16-0.46,4.86,4.86,0,0,1,.17-0.79,1.2,1.2,0,0,0,0-.4,1.46,1.46,0,0,1,.17-0.91,1.4,1.4,0,0,0,.19-0.5,0.11,0.11,0,0,1,.07-0.09,0.3,0.3,0,0,0,.21-0.28,0.19,0.19,0,0,1,.1-0.14l0.48-.3a0.28,0.28,0,0,0,.15-0.28,0.72,0.72,0,0,1,.43-0.69,0.77,0.77,0,0,0,.35-0.29,0.24,0.24,0,0,1,.27-0.11,2.46,2.46,0,0,0,1.38-.25,1,1,0,0,1,.57-0.08,0.44,0.44,0,0,0,.22,0,0.6,0.6,0,0,1,.41,0,0.19,0.19,0,0,0,.14,0c0.11,0,.22-0.1.32,0a0.24,0.24,0,0,0,.16,0,0.85,0.85,0,0,1-.08.56,0.13,0.13,0,0,0,0,.2,1.28,1.28,0,0,0,.6.2,0.57,0.57,0,0,1,.32.14,2.53,2.53,0,0,0,.58.34c0.17,0.08.24,0,.26-0.15A0.35,0.35,0,0,1,22.47,10a0.22,0.22,0,0,1,.13,0,2.16,2.16,0,0,0,.89.31,1.35,1.35,0,0,0,.77,0,0.76,0.76,0,0,1,.39.07,0.08,0.08,0,0,1,0,.11,1.24,1.24,0,0,0,.22.8,2.62,2.62,0,0,1,.31.71,0.47,0.47,0,0,0,.16.27,0.47,0.47,0,0,1,.14.4,0.67,0.67,0,0,0,.26.56,0.32,0.32,0,0,1,.16.34,0.29,0.29,0,0,0,.12.23l0.23,0.21a0.65,0.65,0,0,1,.32.5,0.34,0.34,0,0,0,.47.27,8.65,8.65,0,0,1,1-.23c0.08,0,.1,0,0.12.09A0.89,0.89,0,0,1,28.15,15.28Z" fill="#6fa6d4"/><path d="M16,1.68A14.32,14.32,0,1,1,1.68,16,14.33,14.33,0,0,1,16,1.68M16,0A16,16,0,1,0,32,16,16,16,0,0,0,16,0h0Z" fill="#6fa6d4"/></svg>