<svg id="Layer_1" data-name="Layer 1" xmlns="http://www.w3.org/2000/svg" viewBox="0 0 16 16"><title>Country_small</title><circle cx="7.86" cy="8" r="7.79" fill="#fff"/><path d="M15.31,5.83a1.22,1.22,0,0,1-.52,0,0.13,0.13,0,0,1-.12-0.11,0.06,0.06,0,0,0-.1,0,0.28,0.28,0,0,1-.32,0h0A0.34,0.34,0,0,1,14,5.34a0.12,0.12,0,0,0-.15,0s-0.05,0,0,.07S13.91,5.52,14,5.6a0.14,0.14,0,0,0,.12.09,0.1,0.1,0,0,1,.07.1,0.13,0.13,0,0,0,0,.13,0.27,0.27,0,0,0,.22,0,0.67,0.67,0,0,0,.14-0.14,0.31,0.31,0,0,0,.3.22,0.4,0.4,0,0,1,.13.12s0,0.07,0,.1a1.48,1.48,0,0,1-.25.39,0.72,0.72,0,0,1-.32.17,0.09,0.09,0,0,0-.07.06,0.1,0.1,0,0,1-.07.07l-0.71.22a0.06,0.06,0,0,1-.09,0c-0.08-.2-0.18-0.39-0.27-0.59a0.18,0.18,0,0,0-.08-0.08A0.24,0.24,0,0,1,13,6.2s0-.06,0-0.09A0.1,0.1,0,0,0,12.83,6s-0.06,0,0-.06a0.22,0.22,0,0,0,0-.17,0.79,0.79,0,0,0-.09-0.13,1,1,0,0,1-.2-0.5s0,0,0,0a0.18,0.18,0,0,0,.09-0.17,1.49,1.49,0,0,0,0-.36s0-.06-0.06-0.05a0.56,0.56,0,0,1-.38,0,0.1,0.1,0,0,0-.1,0s-0.05,0-.08,0-0.06,0-.09,0,0,0.06-.08,0a0.2,0.2,0,0,1-.11-0.11,0.06,0.06,0,0,0,0-.05,0.19,0.19,0,0,1,0-.32,0.22,0.22,0,0,1,.13,0A0.22,0.22,0,0,0,12,3.93a0.05,0.05,0,0,1,.05,0,1.17,1.17,0,0,0,.21,0,0.59,0.59,0,0,1,.42,0,0.35,0.35,0,0,0,.32,0s0,0,0-.07a0.82,0.82,0,0,0-.37-0.31c-0.06,0,0,0,0-.08l0.06-.05s0,0,0,0,0-.08,0-0.12a1.67,1.67,0,0,0-.38.12,1.14,1.14,0,0,0,.16.1l-0.2.11a0,0,0,0,1,0,0,0.18,0.18,0,0,1,0-.19,0.29,0.29,0,0,0-.4.21,0.24,0.24,0,0,1,0,.13,0.1,0.1,0,0,0,0,.13c0,0.06,0,.08,0,0.11s-0.09,0-.13,0h0a0.78,0.78,0,0,0-.33.15s0,0.1.05,0.14a0.25,0.25,0,0,1,.11.1,0.24,0.24,0,0,1-.07.13c0,0.09-.09,0-0.14,0s-0.05,0-.06-0.07A0.34,0.34,0,0,0,11,4.19a0.29,0.29,0,0,1-.12-0.29,0.07,0.07,0,0,0,0-.08c-0.12-.05-0.24-0.12-0.36-0.19a0.57,0.57,0,0,0,0,.17,0.06,0.06,0,0,0,0,.05A0.88,0.88,0,0,1,10.8,4s0,0,0,.06,0,0-.06,0-0.07,0-.07,0a0.18,0.18,0,0,1,0,.14s-0.06,0-.08,0-0.05-.13-0.07-0.19a0.22,0.22,0,0,0-.14-0.15A0.8,0.8,0,0,1,10,3.7L10,3.63a0.12,0.12,0,0,0-.19,0,0.24,0.24,0,0,1-.2.07H9.46a0.22,0.22,0,0,0-.13,0,0.12,0.12,0,0,0,0,.11,0.09,0.09,0,0,1-.11.09,0.09,0.09,0,0,0-.07,0,0.49,0.49,0,0,0-.19.28,0.36,0.36,0,0,1-.3.27H8.54a0.3,0.3,0,0,1-.28-0.05,0.23,0.23,0,0,0-.16,0C8,4.44,8,4.43,8,4.36s0-.11,0-0.16a0.05,0.05,0,0,1,0-.06,0.31,0.31,0,0,0,0-.35,0.08,0.08,0,0,1,.06-0.12,0.8,0.8,0,0,1,.38,0,1.09,1.09,0,0,0,.25,0A0.06,0.06,0,0,0,8.8,3.62a0.16,0.16,0,0,1,0-.05,0.27,0.27,0,0,0-.07-0.31A0.15,0.15,0,0,0,8.62,3.2a0.07,0.07,0,0,1-.08-0.09c0-.05,0,0,0.08,0H8.69c0.06,0,.13,0,0.12-0.08s0,0,.07,0a0.16,0.16,0,0,0,.24,0,0.78,0.78,0,0,1,.15-0.13,0.26,0.26,0,0,0,.14-0.16c0-.06.06,0,0.1,0a0.19,0.19,0,0,1,.23-0.12H9.8s0.06,0,0-.06a0.7,0.7,0,0,1,0-.23,0,0,0,0,1,0-.06l0.08,0a0,0,0,0,1,.06,0,0,0,0,0,1,0,.06,0.19,0.19,0,0,0,0,.11,0.06,0.06,0,0,0,0,.08,0.21,0.21,0,0,0,.22,0s0.07,0,.1,0a0.07,0.07,0,0,0,.11,0,0.72,0.72,0,0,1,.24-0.13,0.09,0.09,0,0,1,.1,0c0,0.06.09,0,.12,0l0,0c0.1,0,.06-0.07.06-0.12a0.26,0.26,0,0,1,0-.11,0.08,0.08,0,0,1,.13,0s0.05,0.06.07,0a0.1,0.1,0,0,0,0-.12,0.11,0.11,0,0,1,0-.19,0.3,0.3,0,0,0-.13,0H10.94a0.3,0.3,0,0,0-.24.08,0.28,0.28,0,0,0-.12.22,0.16,0.16,0,0,1-.16.16l-0.17.05H10.19a0.06,0.06,0,0,1-.07,0,0.06,0.06,0,0,1,0-.07c0.06,0,.05-0.05,0-0.1L10.06,1.9s0,0-.07,0A0.69,0.69,0,0,1,9.83,2a0.18,0.18,0,0,1-.26-0.16c0-.07,0-0.15,0-0.22a0.1,0.1,0,0,1,.06-0.12A0.45,0.45,0,0,0,9.7,1.43a0.07,0.07,0,0,1,.08,0,0.15,0.15,0,0,0,.14,0s0,0,0-.05a0,0,0,0,1,0,0,0.27,0.27,0,0,0,.18-0.15A0.55,0.55,0,0,1,10.36,1,0.88,0.88,0,0,0,10.64.77a0.12,0.12,0,0,1,.1,0A2.21,2.21,0,0,0,11,.65h0A8,8,0,0,0,7.94,0a0.07,0.07,0,0,0,0,0,0,0,0,0,1,0,0,1.19,1.19,0,0,1-.19.19,0.06,0.06,0,0,1-.09,0A0.4,0.4,0,0,0,7.48.21a0,0,0,0,0,0,0s-0.05.09,0,.13a0.92,0.92,0,0,1,.1.11,0.09,0.09,0,0,1,0,.12,0.11,0.11,0,0,1-.13,0L7.3,0.49a0.08,0.08,0,0,0-.08,0,0.05,0.05,0,0,1,0,.06,0.07,0.07,0,0,1-.06,0h0s0,0,0,0,0,0,0,0H7.43a0,0,0,0,1,0,0,0,0,0,0,1,0,0l-0.21.08a1.86,1.86,0,0,1-.39.12H6.77A0.18,0.18,0,0,0,6.54,1a0.13,0.13,0,0,1-.07.05,1.18,1.18,0,0,1-.38.07,0.17,0.17,0,0,0-.16.1,0.6,0.6,0,0,1-.19.23,0.36,0.36,0,0,0-.09.1l-0.08.1c-0.09.1-.11,0.1-0.19,0a0.07,0.07,0,0,0-.1,0,0.08,0.08,0,0,1-.1,0,0.27,0.27,0,0,1-.06-0.22,0.34,0.34,0,0,0,0-.23A0.16,0.16,0,0,1,5.15,1,0.42,0.42,0,0,1,5.36.78c0.06,0,.06-0.09,0-0.14a0.11,0.11,0,0,1,0-.08,0.32,0.32,0,0,1,.12,0s0.05,0,.05,0,0-.05-0.05,0l-0.1,0a0.37,0.37,0,0,1,0-.12A8,8,0,0,0,4.27.85l0,0A0.45,0.45,0,0,0,4.5,1a0.29,0.29,0,0,1-.18.13c-0.05,0-.05,0-0.08-0.07a0.18,0.18,0,0,0,.08,0,0.25,0.25,0,0,0-.27.08s0,0.08,0,.1,0,0.07,0,.11A0.11,0.11,0,0,1,4,1.38h0s-0.06,0-.09,0,0,0.06,0,.09l0,0A0.25,0.25,0,0,1,3.7,1.41a0.82,0.82,0,0,0-.15-0.15l-0.32.22a0.32,0.32,0,0,0,.16,0s0.05,0,.05,0a0.21,0.21,0,0,0,.18.18,0.25,0.25,0,0,0-.12.21,0.1,0.1,0,0,0,0,.09,0.07,0.07,0,0,0,.08,0,0.41,0.41,0,0,0,.2-0.16A0.15,0.15,0,0,1,3.9,1.73,1.16,1.16,0,0,1,4,2.09a0.07,0.07,0,0,1,0,.06,0.09,0.09,0,0,0,0,.15L4.14,2.38,4,2.46a0.08,0.08,0,0,0,.08,0,0.06,0.06,0,0,1,.09,0,0.08,0.08,0,0,1,0,.14l-0.22.19a0.45,0.45,0,0,1-.33.08H3.45A0.47,0.47,0,0,0,3,3a1.36,1.36,0,0,0-.19.2L3,3.14a0.78,0.78,0,0,1,.24-0.08,0.07,0.07,0,0,1,.09.06s0,0,0,.05a0.25,0.25,0,0,0-.07.17s0,0,0,0a0.81,0.81,0,0,1,.15.09s0,0,0,.06a0.8,0.8,0,0,0-.26.15,0.12,0.12,0,0,1-.13,0l0.18-.17A0.19,0.19,0,0,0,3,3.58a0.08,0.08,0,0,1-.1,0,0.18,0.18,0,0,0-.24.13A0.36,0.36,0,0,1,2.37,4a0.15,0.15,0,0,0-.13.11,1.18,1.18,0,0,1-.11.2c0,0.06-.07.1-0.14,0v0a0.25,0.25,0,0,1-.07.3A1.24,1.24,0,0,1,1.49,5a0.16,0.16,0,0,0-.08.1,0.64,0.64,0,0,0,0,.39,1.12,1.12,0,0,1,0,.3,0,0,0,0,1,0,0,0.07,0.07,0,0,1-.07,0,0.51,0.51,0,0,1-.06-0.31,0.07,0.07,0,0,0-.06-0.09A0.38,0.38,0,0,1,1,5.26a0.31,0.31,0,0,0-.21,0H0.69c-0.05,0-.08,0-0.06.08s0,0.07-.06.06H0.5a0.26,0.26,0,0,0-.19,0A7.94,7.94,0,0,0,0,6.53H0.22A0.07,0.07,0,0,0,.29,6.48l0.05-.13A0.19,0.19,0,0,1,.57,6.23H0.71a1.28,1.28,0,0,1-.15.28,0.8,0.8,0,0,0-.06.29s0,0,0,0H0.72a0.31,0.31,0,0,1,.16.06s0,0,0,.05a1.27,1.27,0,0,1,0,.33,0.56,0.56,0,0,0,.06.32,0.08,0.08,0,0,0,.09,0,0.47,0.47,0,0,0,.21-0.07,0.09,0.09,0,0,1,0,.11,0.08,0.08,0,0,0,0,.11,1.13,1.13,0,0,0-.3-0.13,0.08,0.08,0,0,1,0-.05,0.14,0.14,0,0,0-.1-0.09A0.08,0.08,0,0,1,.64,7.45,0.47,0.47,0,0,0,.3,7.11,0.49,0.49,0,0,1,.09,6.91,0.23,0.23,0,0,0-.05,6.8,8.06,8.06,0,0,0-.14,8a8,8,0,0,0,2.67,6l0,0s0,0,0,0a0.25,0.25,0,0,0-.14-0.13s0,0-.05-0.05h0c0.12,0,.13,0,0.1-0.13a2.28,2.28,0,0,1-.09-0.36,0,0,0,0,0,0,0,0.09,0.09,0,0,1-.09-0.13,0.27,0.27,0,0,0,0-.24,0.32,0.32,0,0,1,0-.25c0-.13,0-0.26.06-0.39a0.21,0.21,0,0,0,0-.13,0.5,0.5,0,0,1,0-.25c0-.21,0-0.42,0-0.63S2.11,11,2.11,11a2.43,2.43,0,0,1,0-.33A0.14,0.14,0,0,0,2,10.47c-0.09,0-.17-0.1-0.26-0.15A0.54,0.54,0,0,1,1.52,10a5.8,5.8,0,0,0-.23-0.54,0.4,0.4,0,0,0-.17-0.2,0.08,0.08,0,0,1,0,0,0.54,0.54,0,0,1,0-.23,0,0,0,0,1,0,0,0.19,0.19,0,0,0,.11-0.12,0.12,0.12,0,0,1-.12-0.16,0.3,0.3,0,0,1,.05-0.09,3.27,3.27,0,0,0,.22-0.37A0.75,0.75,0,0,0,1.42,7.9a0.15,0.15,0,0,0,0-.12,0.2,0.2,0,0,1-.06-0.1,0.05,0.05,0,0,0-.05-0.05s0,0,0,0,0,0,0,0a0.08,0.08,0,0,1,.09.05l0,0.07A0.27,0.27,0,0,0,1.57,7.5a0.22,0.22,0,0,1,.12-0.12l0.24-.12c0,0.07,0,.14,0,0.21s0,0.1.06,0.11A0.11,0.11,0,0,0,2,7.5a0.28,0.28,0,0,1,.1-0.18s0,0,0,0L2.16,7.37a0.25,0.25,0,0,0,.27.09,1.06,1.06,0,0,1,.29,0,0.07,0.07,0,0,1,.08.06s0,0.05,0,.08A0.17,0.17,0,0,0,3,7.72a0.15,0.15,0,0,1,.09.1A0.21,0.21,0,0,0,3.28,8a0.46,0.46,0,0,1,.38.18,0.34,0.34,0,0,1,.05.15,0.21,0.21,0,0,0,0,.09c0.08,0.06,0,.11,0,0.17l-0.09.17a0.15,0.15,0,0,0,.1-0.06A0.24,0.24,0,0,1,4,8.59s0,0,0,0a0.24,0.24,0,0,1-.19.18A0.12,0.12,0,0,0,4,8.75a0.06,0.06,0,0,1,.09,0l0.18,0a0.14,0.14,0,0,1,.15.13s0,0,.05,0a0.72,0.72,0,0,1,.41,0A0.19,0.19,0,0,1,4.95,9a0.33,0.33,0,0,0,.24.13,0.16,0.16,0,0,1,.13.1,0.34,0.34,0,0,1-.07.45,0.52,0.52,0,0,0-.19.28,0.05,0.05,0,0,1,0,0C5,10,5,10.1,5,10.16a0.69,0.69,0,0,1,0,.28c-0.05.19-.12,0.38-0.19,0.56a0.08,0.08,0,0,1-.07.06l-0.1,0a0.56,0.56,0,0,0-.38.27,0.27,0.27,0,0,0,0,.14,1.63,1.63,0,0,1-.12.4v0c-0.14,0-.11.15-0.12,0.23a0.3,0.3,0,0,1-.33.27l-0.17,0a0.12,0.12,0,0,0,.07.06,0.35,0.35,0,0,1,.13.17,0.21,0.21,0,0,1-.2.27H3.23s-0.06,0,0,0a0.67,0.67,0,0,1,0,.1s0,0.06,0,.09a0.12,0.12,0,0,1-.12,0,0.11,0.11,0,0,0-.08,0c0,0.06,0,.14.1,0.13s0.06,0,.06.08,0,0-.06,0,0,0,0,0a0.49,0.49,0,0,0,0,.08,0.13,0.13,0,0,1-.06.14C3,13.68,3,13.72,3,13.79l0.09,0.06c0.06,0,.05.07,0,0.1a0.15,0.15,0,0,0-.06.13,0.05,0.05,0,0,1,0,.05,0.12,0.12,0,0,0,0,.18,0.11,0.11,0,0,1,0,.12A8,8,0,0,0,15.57,5.87,0.58,0.58,0,0,0,15.31,5.83ZM10.73,2s0,0,0,0a0.07,0.07,0,0,1,0,.08s0,0,0-.05S10.69,2,10.73,2Zm-2,.73h0s0,0,0,0a0.06,0.06,0,0,1,0,0,0.08,0.08,0,0,0,0-.07s0-.05.05-0.06a0.07,0.07,0,0,0,0-.13,0.14,0.14,0,0,1,0-.09H8.62s0-.09,0-0.11a0.14,0.14,0,0,1,0-.14,1.4,1.4,0,0,0,.11-0.15s0.06,0,.1,0a0.89,0.89,0,0,0-.11.15,0.51,0.51,0,0,1,.13,0s0,0,0,0a0.05,0.05,0,0,1,0,0,0.43,0.43,0,0,1-.12.1l0,0A0.32,0.32,0,0,1,9,2.49a0.87,0.87,0,0,0,.09.19s0,0.07,0,.09L8.55,2.9A0.18,0.18,0,0,1,8.7,2.81s0.05,0,.05,0S8.72,2.75,8.7,2.75ZM8.13,2.66a0.11,0.11,0,0,0,0-.18l0,0a0.53,0.53,0,0,1,.27,0,0.06,0.06,0,0,1,0,.06,0.16,0.16,0,0,1-.12.19,0.46,0.46,0,0,1-.16,0,0,0,0,0,1,0,0A0,0,0,0,1,8.13,2.66ZM1.72,6.4c-0.15,0-.16,0-0.24-0.09a0.16,0.16,0,0,0-.06-0.06l0,0A0.34,0.34,0,0,0,.91,6.18,0.24,0.24,0,0,1,1.19,6a0.36,0.36,0,0,1,.24.1,0.77,0.77,0,0,0,.19.13,0.24,0.24,0,0,1,.14.15h0ZM4.23,3.27s0,0,0,0a0.09,0.09,0,0,0-.12,0s0,0-.06,0a0.1,0.1,0,0,0-.12,0H3.83c-0.07,0-.07,0,0-0.09a3,3,0,0,0,.26-0.33s0.06,0,.1,0a0.33,0.33,0,0,0-.06.14A0.28,0.28,0,0,0,4.2,3,0.16,0.16,0,0,1,4.23,3.27ZM7.29,1.15s0.05,0,.07,0,0,0,.07,0a0.13,0.13,0,0,1,.1,0,0.51,0.51,0,0,0,.27,0,0.05,0.05,0,0,1,.07,0l0,0S8,1.19,8,1.23a0.13,0.13,0,0,1-.09,0,1.79,1.79,0,0,0-.35.12h0a1.07,1.07,0,0,0-.21-0.07,0.06,0.06,0,0,1,0,0A0.22,0.22,0,0,1,7.29,1.15ZM9,13.09H9a0.24,0.24,0,0,1,.14,0H9Zm2.13,0H10.7a0.3,0.3,0,0,1,.16,0h0.31A0.05,0.05,0,0,0,11.17,13.09ZM14,10.24a0.09,0.09,0,0,0,0,.06,2.61,2.61,0,0,1-.26.91,0.37,0.37,0,0,1-.26.13,0.3,0.3,0,0,1-.12-0.17s0-.09,0-0.13a0.16,0.16,0,0,1,.07-0.18,0.15,0.15,0,0,0,.05-0.14c0-.08,0-0.16,0-0.25a0.16,0.16,0,0,1,.2-0.16,0.14,0.14,0,0,0,.14-0.11A1.82,1.82,0,0,0,14,9.9L14,10A0.15,0.15,0,0,1,14,10.24Zm0.12-2.61C14.06,7.77,14,7.89,13.88,8a1.52,1.52,0,0,1-.29.34A3.5,3.5,0,0,0,13,9c0,0.07,0,.15-0.09.22s0,0,0,.06a0.11,0.11,0,0,1,0,.11,0.34,0.34,0,0,0,.06.24,0.25,0.25,0,0,1,0,.19c0,0.1,0,.2,0,0.29a0.32,0.32,0,0,1-.2.31,1.36,1.36,0,0,0-.31.2,0.07,0.07,0,0,0,0,.08,1.45,1.45,0,0,1,0,.42,0.09,0.09,0,0,1-.06.08l-0.13.07a0.17,0.17,0,0,0-.11.18,0.17,0.17,0,0,1,0,.1l-0.05.1a0.94,0.94,0,0,1-.7.62,1.94,1.94,0,0,1-.38.07l-0.13,0a0.2,0.2,0,0,1-.22-0.18h0c0.08-.08,0-0.15,0-0.23a0.5,0.5,0,0,0-.15-0.19,0.4,0.4,0,0,1-.14-0.25,1.67,1.67,0,0,1,0-.41,0.2,0.2,0,0,0,0-.14l-0.14-.21a0.56,0.56,0,0,1-.09-0.44,1,1,0,0,1,.12-0.4,0.19,0.19,0,0,0,0-.21,0.19,0.19,0,0,1,0-.17,0.06,0.06,0,0,0,0-.06,0.56,0.56,0,0,1-.1-0.3A0.14,0.14,0,0,0,10.07,9a0.25,0.25,0,0,1-.13-0.14,0.35,0.35,0,0,0-.13-0.18s0,0,0-.06,0,0,0,0,0,0,0,0a0.3,0.3,0,0,0-.13.16,0.11,0.11,0,0,1-.13.08H9.39c-0.06,0-.07,0-0.06-0.07a0.72,0.72,0,0,1,.09-0.25l0.11-.19a0.06,0.06,0,0,1,0,0c0.14,0,.06-0.1.07-0.16s0-.06-0.08-0.06A0.11,0.11,0,0,1,9.46,8a0.18,0.18,0,0,0-.2-0.13l-0.17,0a0.17,0.17,0,0,0-.17.2s0,0.06,0,.06,0,0,0-.05S8.85,8,8.8,8a1.3,1.3,0,0,1-.33,0,1.23,1.23,0,0,0-.39.06,0.08,0.08,0,0,1-.08,0L7.56,7.77A0.16,0.16,0,0,1,7.5,7.68,0.64,0.64,0,0,0,7.29,7.4L7.2,7.32a0.24,0.24,0,0,1-.08-0.24,2.51,2.51,0,0,1,.09-0.41,0.62,0.62,0,0,0,0-.21A0.75,0.75,0,0,1,7.28,6a0.72,0.72,0,0,0,.1-0.26,0.06,0.06,0,0,1,0,0,0.16,0.16,0,0,0,.11-0.14,0.1,0.1,0,0,1,.05-0.07l0.25-.15A0.14,0.14,0,0,0,7.9,5.18a0.37,0.37,0,0,1,.22-0.36A0.4,0.4,0,0,0,8.3,4.67a0.12,0.12,0,0,1,.14-0.06,1.27,1.27,0,0,0,.71-0.13,0.51,0.51,0,0,1,.29,0,0.23,0.23,0,0,0,.11,0,0.31,0.31,0,0,1,.21,0,0.1,0.1,0,0,0,.07,0c0.06,0,.11-0.05.16,0a0.13,0.13,0,0,0,.08,0,0.44,0.44,0,0,1,0,.29,0.07,0.07,0,0,0,0,.1,0.66,0.66,0,0,0,.31.11,0.29,0.29,0,0,1,.17.07,1.31,1.31,0,0,0,.3.18c0.09,0,.12,0,0.13-0.08a0.18,0.18,0,0,1,.23-0.2,0.12,0.12,0,0,1,.07,0,1.12,1.12,0,0,0,.46.16,0.7,0.7,0,0,0,.4,0,0.39,0.39,0,0,1,.2,0,0,0,0,0,1,0,.06,0.64,0.64,0,0,0,.12.41,1.35,1.35,0,0,1,.16.37,0.24,0.24,0,0,0,.08.14,0.24,0.24,0,0,1,.07.2,0.35,0.35,0,0,0,.13.29,0.17,0.17,0,0,1,.08.17,0.15,0.15,0,0,0,.06.12L13.17,7a0.34,0.34,0,0,1,.16.26,0.17,0.17,0,0,0,.24.14,4.46,4.46,0,0,1,.54-0.12s0.05,0,.06,0A0.46,0.46,0,0,1,14.13,7.63Z" fill="#6fa6d4"/><path d="M7.86,0.84A7.16,7.16,0,1,1,.7,8,7.17,7.17,0,0,1,7.86.84m0-.84a8,8,0,1,0,8,8,8,8,0,0,0-8-8h0Z" fill="#6fa6d4"/></svg>