<svg id="Layer_1" data-name="Layer 1" xmlns="http://www.w3.org/2000/svg" viewBox="0 0 32 32"><title>Action_ChartAddControlReturnStage_large_299939b46e4e4e1098a8333fc471bee8</title><polygon points="25 29 5 29 5 2 21 2 25 6 25 29" fill="#fff"/><path d="M25,6H21V2M19,0V7a1,1,0,0,0,1,1h7Z" fill="#9da2a5"/><path d="M24.49,27.19h-11c-2,0-3.66-2.1-3.66-4.12h0c-1.09-.09-1.6-1.89-0.92-2.75-1.34-.54-1.06-2.6,0-2.75C8.47,17.38,8,17.06,8,15.29a2,2,0,0,1,1.83-1.83h7.33c-1-.79-1.54-3.25,0-3.66,4-.92,12.82,4.58,12.82,4.58v9.16C30,25.55,26.52,27.19,24.49,27.19Z" fill="#fff"/><rect x="9" y="17" width="9" height="1" fill="#e0ad5c"/><path d="M15,13h5a1,1,0,0,1,1,1v0a1,1,0,0,1-1,1H15a0,0,0,0,1,0,0V13a0,0,0,0,1,0,0Z" fill="#e0ad5c"/><rect x="9" y="20" width="9" height="1" fill="#e0ad5c"/><rect x="10" y="23" width="8" height="1" fill="#e0ad5c"/><rect x="23" y="16" width="5" height="1" rx="0.5" ry="0.5" fill="#6fa6d4"/><rect x="24" y="16.95" width="3" height="2.5" fill="#6fa6d4"/><circle cx="25.5" cy="25.5" r="6" fill="#fff"/><path d="M25.5,20A5.5,5.5,0,1,1,20,25.5,5.51,5.51,0,0,1,25.5,20m0-1A6.5,6.5,0,1,0,32,25.5,6.5,6.5,0,0,0,25.5,19h0Z" fill="#6fa6d4"/><rect x="25" y="21" width="1" height="5" rx="0.5" ry="0.5" fill="#798288"/><path d="M17.53,26H13c-1,0-2-1.79-2-3-1.4,0-1.27-1.71-1-2a1.43,1.43,0,0,0,0-1,1,1,0,1,1,0-2,8.72,8.72,0,0,0,0-1,0.89,0.89,0,0,1-1-1,1,1,0,0,1,1-1h7.05a2,2,0,0,0,2-2c-1.62,0-1.82-.61-1.77-1.24A0.94,0.94,0,0,1,18.1,11c3,0,8.22,2.58,10.9,4.13v3.18a8,8,0,0,1,2,1.39V14S22.8,9,18.1,9c-2,.09-2.91,1.25-3,2a1.85,1.85,0,0,0,1,2H9a2.14,2.14,0,0,0-2,2c0,1.58.5,2.28,1,2.5-1.16.16-1.47,2.41,0,3-0.75.94-.19,2.91,1,3,0,2.21,1.79,4.5,4,4.5h4.9A8,8,0,0,1,17.53,26Z" fill="#e0ad5c"/><path d="M18.31,29H5V2H20l5,5V9l2,1V6.5L20.5,0H4A1,1,0,0,0,3,1V30a1,1,0,0,0,1,1H19.7A8,8,0,0,1,18.31,29Z" fill="#9da2a5"/></svg>