<svg id="Layer_1" data-name="Layer 1" xmlns="http://www.w3.org/2000/svg" viewBox="0 0 32 32"><title>Action_ShowAllVersions_large_dce5758d7a3c414d8815ea5e76c95fd7</title><path d="M23,16a7,7,0,0,1,3.59,1H28V3a1,1,0,0,0-1-1H8V17H19.41A7,7,0,0,1,23,16Z" fill="#6fa6d4"/><rect x="7" y="2" width="1" height="15" fill="#fff"/><rect x="13" y="7" width="11" height="4" fill="#fff"/><path d="M7,17V2H6A2,2,0,0,0,4,4V17H7Z" fill="#6fa6d4"/><path d="M17.26,19H3v2H16.29A7,7,0,0,1,17.26,19Z" fill="#9da2a5"/><path d="M16,23H3v2H16.29A7,7,0,0,1,16,23Z" fill="#9da2a5"/><path d="M26.25,29.2a7,7,0,0,1-9-2.2H1a1,1,0,0,0-1,1v2a1,1,0,0,0,1,1H28.05Z" fill="#956939"/><path d="M31.15,32a0.85,0.85,0,0,1-.6-0.25l-8.12-8.12a0.85,0.85,0,0,1,1.2-1.2l8.12,8.12A0.85,0.85,0,0,1,31.15,32Z" fill="#407fb9"/><circle cx="23" cy="23" r="5.5" fill="#fff"/><path d="M23,18.5A4.5,4.5,0,1,1,18.5,23,4.51,4.51,0,0,1,23,18.5M23,17a6,6,0,1,0,6,6,6,6,0,0,0-6-6h0Z" fill="#407fb9"/></svg>