<svg id="Layer_1" data-name="Layer 1" xmlns="http://www.w3.org/2000/svg" viewBox="0 0 16 16"><title>Action_ChartAddAdditionallyAppStage_small_daee6ba629ee4d26a9b2d9a521df094c</title><rect x="2" y="4" width="11" height="11" fill="#fff"/><path d="M13,0H12V1H11V0H4V1H3V0H2A1,1,0,0,0,1,1V15a1,1,0,0,0,1,1H13a1,1,0,0,0,1-1V1A1,1,0,0,0,13,0Zm0,15H2V4H13V15Z" fill="#798288"/><polygon points="11 14 10 13 9 14 9 10 11 10 11 14" fill="#407fb9"/><circle cx="10" cy="10" r="2" fill="#d65633"/><path d="M4,9.5A3.46,3.46,0,0,1,4.05,9h-1A4.43,4.43,0,0,0,3,9.5,4.5,4.5,0,0,0,7.5,14,4.43,4.43,0,0,0,8,13.95v-1a3.46,3.46,0,0,1-.5.05A3.5,3.5,0,0,1,4,9.5Z" fill="#d7853c"/><path d="M7.5,5A4.49,4.49,0,0,0,3.28,8H4.35A3.48,3.48,0,0,1,9.94,7h1.3A4.49,4.49,0,0,0,7.5,5Z" fill="#75ad15"/></svg>