<svg id="Layer_1" data-name="Layer 1" xmlns="http://www.w3.org/2000/svg" viewBox="0 0 16 16"><title>Action_CreateVersion_small_c2f699e1cecf458bbfe00b2efea4b94c</title><path d="M14,8V1.5A0.5,0.5,0,0,0,13.5,1H5V8h9Z" fill="#6fa6d4"/><rect x="4" y="1" width="1" height="7" fill="#fff"/><rect x="7" y="4" width="5" height="2" fill="#fff"/><path d="M4,8V1H3.5A1.5,1.5,0,0,0,2,2.5V8H4Z" fill="#6fa6d4"/><rect x="1" y="11" width="14" height="1" fill="#798288"/><rect x="1" y="9" width="14" height="1" fill="#798288"/><rect y="13" width="16" height="3" rx="0.5" ry="0.5" fill="#956939"/><path d="M8,3.48A1.49,1.49,0,0,0,6.91,2a1.5,1.5,0,0,0,0-1H2V6.91H2A1.49,1.49,0,0,0,3.5,8,1.49,1.49,0,0,0,5,6.9a1.48,1.48,0,0,0,.54.1,1.5,1.5,0,0,0,1.4-2.06A1.49,1.49,0,0,0,8,3.48Z" fill="#fff"/><path d="M3.5,7A0.47,0.47,0,0,1,3,6.56V0.44A0.47,0.47,0,0,1,3.5,0,0.47,0.47,0,0,1,4,.44V6.56A0.47,0.47,0,0,1,3.5,7Z" fill="#d59633"/><path d="M6.56,4H0.44A0.47,0.47,0,0,1,0,3.48,0.47,0.47,0,0,1,.44,3H6.56a0.47,0.47,0,0,1,.44.5A0.47,0.47,0,0,1,6.56,4Z" fill="#d59633"/><path d="M1.5,6a0.5,0.5,0,0,1-.35-0.85l4-4a0.5,0.5,0,0,1,.71.71l-4,4A0.5,0.5,0,0,1,1.5,6Z" fill="#d59633"/><path d="M5.49,6a0.51,0.51,0,0,0,.36-0.15,0.5,0.5,0,0,0,0-.71l-4-4a0.5,0.5,0,0,0-.71.71l4,4A0.49,0.49,0,0,0,5.49,6Z" fill="#d59633"/><circle cx="3.5" cy="3.5" r="0.5" fill="#fff"/></svg>