<svg id="Layer_1" data-name="Layer 1" xmlns="http://www.w3.org/2000/svg" viewBox="0 0 32 32"><title>OpenRecord_32</title><rect x="2" y="5" width="28" height="21" fill="#fff"/><path d="M30,5V26H2V5H30m1-2H1A1,1,0,0,0,0,4V27a1,1,0,0,0,1,1H31a1,1,0,0,0,1-1V4a1,1,0,0,0-1-1h0Z" fill="#9da2a5"/><rect x="4" y="8" width="24" height="4" fill="#7da7b5"/><rect x="4" y="14" width="7" height="2" fill="#667f94"/><rect x="12" y="14" width="16" height="2" fill="#667f94"/><rect x="4" y="17" width="7" height="2" fill="#667f94"/><rect x="12" y="17" width="16" height="2" fill="#667f94"/></svg>