<svg id="Layer_1" data-name="Layer 1" xmlns="http://www.w3.org/2000/svg" viewBox="0 0 16 16"><title>Action_ShowActiveTasks_small_d0788b6bb3354f3790c0bf6c8c54bf72</title><circle cx="10.5" cy="7.5" r="3" fill="#fff"/><path d="M15.5,13a0.5,0.5,0,0,1-.35-0.15l-2.5-2.5a0.5,0.5,0,0,1,.71-0.71l2.5,2.5A0.5,0.5,0,0,1,15.5,13Z" fill="#407fb9"/><path d="M10.5,5A2.5,2.5,0,1,1,8,7.5,2.5,2.5,0,0,1,10.5,5m0-1A3.5,3.5,0,1,0,14,7.5,3.5,3.5,0,0,0,10.5,4h0Z" fill="#407fb9"/><circle cx="7.5" cy="13.5" r="1.5" fill="#798288"/><circle cx="1.5" cy="4.5" r="1.5" fill="#798288"/><polygon points="10 3 13 3 13 0 10 3" fill="#75ad15"/><polygon points="4 9 2 7 0 9 4 9" fill="#d7853c"/><path d="M5,11.95A5.82,5.82,0,0,1,2.56,9H1.29A7,7,0,0,0,5,13.31V11.95Z" fill="#d7853c"/><path d="M8,0A7,7,0,0,0,3.05,2.05L3.91,2.91a5.76,5.76,0,0,1,7-.91h2A7,7,0,0,0,8,0Z" fill="#75ad15"/></svg>