<svg id="Layer_1" data-name="Layer 1" xmlns="http://www.w3.org/2000/svg" viewBox="0 0 16 16"><title>action_showduplicateworkitems_small_89ea0288a607473f9f7ea76e9e98f837</title><rect x="4" y="1" width="11" height="8" fill="#fff"/><rect x="1" y="6" width="11" height="8" fill="#fff"/><path d="M12,6v8H1V6H12m0-1H1A1,1,0,0,0,0,6v8a1,1,0,0,0,1,1H12a1,1,0,0,0,1-1V6a1,1,0,0,0-1-1h0Z" fill="#798288"/><rect x="2" y="7" width="9" height="2" fill="#7da7b5"/><rect x="2" y="10" width="9" height="1" fill="#667f94"/><rect x="5" y="2" width="9" height="2" fill="#7da7b5"/><path d="M15,0H4A1,1,0,0,0,3,1V4H4V1H15V9H14v1h1a1,1,0,0,0,1-1V1A1,1,0,0,0,15,0Z" fill="#798288"/></svg>