<svg id="Layer_1" data-name="Layer 1" xmlns="http://www.w3.org/2000/svg" viewBox="0 0 32 32"><title>Action_ChartAddPrintStage_large_37e82f6f57dc41a7a9bec38a4cf61243</title><rect x="2" y="9" width="28" height="11" fill="#fff"/><path d="M8,6V4H24V6h2V3a1,1,0,0,0-1-1H7A1,1,0,0,0,6,3V6H8Z" fill="#9da2a5"/><path d="M24,18V28H8V18H6V29a1,1,0,0,0,1,1H25a1,1,0,0,0,1-1V18H24Z" fill="#9da2a5"/><rect x="8" y="4" width="16" height="24" fill="#fff"/><rect x="4" y="16" width="24" height="2" fill="#6fa6d4"/><rect x="10" y="20" width="12" height="2" fill="#adb1b2"/><rect x="10" y="24" width="12" height="2" fill="#adb1b2"/><circle cx="5.5" cy="12.5" r="1.5" fill="#75ad15"/><path d="M31,7H1A1,1,0,0,0,0,8V21a1,1,0,0,0,1,1H5V20H2V9H30V20H27v2h4a1,1,0,0,0,1-1V8A1,1,0,0,0,31,7Z" fill="#576672"/></svg>