<svg id="Layer_1" data-name="Layer 1" xmlns="http://www.w3.org/2000/svg" viewBox="0 0 32 32"><title>Action_ShowActiveTasks_large_d0788b6bb3354f3790c0bf6c8c54bf72</title><circle cx="29.5" cy="9.5" r="2.5" fill="#9da2a5"/><circle cx="18.5" cy="29.5" r="2.5" fill="#9da2a5"/><circle cx="4.5" cy="11.5" r="2.5" fill="#9da2a5"/><path d="M26,0a1,1,0,0,0-1,1V3.1A14.32,14.32,0,0,0,17.5,1a14.48,14.48,0,0,0-12,6.32l1.75,1A12.44,12.44,0,0,1,24.25,5H21a1,1,0,0,0,0,2h5a1,1,0,0,0,1-1V1A1,1,0,0,0,26,0Z" fill="#75ad15"/><path d="M5.31,18.19l2.06,2.06a1,1,0,1,0,1.41-1.41L5.24,15.3a1,1,0,0,0-1.41,0L0.29,18.83a1,1,0,1,0,1.41,1.41L3.35,18.6A14.5,14.5,0,0,0,15,29.77v-2A12.53,12.53,0,0,1,5.31,18.19Z" fill="#d7853c"/><path d="M31.15,28a0.85,0.85,0,0,1-.6-0.25l-8.12-8.12a0.85,0.85,0,0,1,1.2-1.2l8.12,8.12A0.85,0.85,0,0,1,31.15,28Z" fill="#407fb9"/><circle cx="23" cy="19" r="5.5" fill="#fff"/><path d="M23,14.5A4.5,4.5,0,1,1,18.5,19,4.51,4.51,0,0,1,23,14.5M23,13a6,6,0,1,0,6,6,6,6,0,0,0-6-6h0Z" fill="#407fb9"/></svg>