<svg id="Layer_1" data-name="Layer 1" xmlns="http://www.w3.org/2000/svg" viewBox="0 0 32 32"><title>Action_ChartAddSendingStage_large_e14cf597fe45456a974568470047df4a</title><path d="M27,16H18V1a1,1,0,0,0-1-1H3A1,1,0,0,0,2,1V31a1,1,0,0,0,1,1H8V28h2v4H23l5-6V17A1,1,0,0,0,27,16Z" fill="#9da2a5"/><rect x="5" y="4" width="2" height="2" fill="#fff"/><rect x="9" y="4" width="2" height="2" fill="#fff"/><rect x="13" y="4" width="2" height="2" fill="#fff"/><rect x="5" y="8" width="2" height="2" fill="#fff"/><rect x="9" y="8" width="2" height="2" fill="#fff"/><rect x="13" y="8" width="2" height="2" fill="#fff"/><rect x="5" y="12" width="2" height="2" fill="#fff"/><rect x="9" y="12" width="2" height="2" fill="#fff"/><rect x="13" y="12" width="2" height="2" fill="#fff"/><rect x="5" y="16" width="2" height="2" fill="#fff"/><rect x="9" y="16" width="2" height="2" fill="#fff"/><rect x="13" y="16" width="2" height="2" fill="#fff"/><rect x="5" y="20" width="2" height="2" fill="#fff"/><rect x="9" y="20" width="2" height="2" fill="#fff"/><polygon points="32 26 23 20 23 23 14 23 14 29 23 29 23 32 32 26" fill="#407fb9"/><polygon points="22 30 22 32 23 32 23 29 14 29 14 23 23 23 23 20 28 23.33 28 22.13 23.55 19.17 22 18.13 22 20 22 22 14 22 13 22 13 23 13 29 13 30 14 30 22 30" fill="#fff"/></svg>