<svg id="Layer_1" data-name="Layer 1" xmlns="http://www.w3.org/2000/svg" viewBox="0 0 16 16"><title>Action_ShowDuplicate_small_adc5439c218945a7a8206a1d25011804</title><path d="M6,0h7.5a0.5,0.5,0,0,1,.5.5v10a0.5,0.5,0,0,1-.5.5H6a0,0,0,0,1,0,0V0A0,0,0,0,1,6,0Z" fill="#6fa6d4"/><rect x="5" width="1" height="12" fill="#fff"/><path d="M5,3V0A1,1,0,0,0,4,1V3H5Z" fill="#6fa6d4"/><path d="M4,2h7a1,1,0,0,1,1,1V13a0,0,0,0,1,0,0H4a0,0,0,0,1,0,0V2A0,0,0,0,1,4,2Z" fill="#fff"/><path d="M3,3h7.5a0.5,0.5,0,0,1,.5.5v10a0.5,0.5,0,0,1-.5.5H3a0,0,0,0,1,0,0V3A0,0,0,0,1,3,3Z" fill="#6fa6d4"/><path d="M2,3H2A1,1,0,0,0,1,4V15a1,1,0,0,0,1,1h8.75A0.25,0.25,0,0,0,11,15.75v-0.5A0.25,0.25,0,0,0,10.75,15H2V3H2Z" fill="#6fa6d4"/><rect x="5" y="5" width="4" height="2" fill="#fff"/><polygon points="3 14 3 3 2 3 2 15 10 15 10 14 3 14" fill="#fff"/><path d="M7.7,14h5.6a4.65,4.65,0,0,0,.7-0.7V7.7A4.48,4.48,0,1,0,7.7,14Z" fill="#fff"/><circle cx="10.5" cy="10.5" r="3" fill="#fff"/><path d="M15.5,16a0.5,0.5,0,0,1-.35-0.15l-2.5-2.5a0.5,0.5,0,0,1,.71-0.71l2.5,2.5A0.5,0.5,0,0,1,15.5,16Z" fill="#407fb9"/><path d="M10.5,8A2.5,2.5,0,1,1,8,10.5,2.5,2.5,0,0,1,10.5,8m0-1a3.5,3.5,0,0,0,0,7A3.54,3.54,0,0,0,14,10.5,3.5,3.5,0,0,0,10.5,7h0Z" fill="#407fb9"/></svg>