<svg id="Layer_1" data-name="Layer 1" xmlns="http://www.w3.org/2000/svg" viewBox="0 0 16 16"><title>Action_ShowAllVersions_small_dce5758d7a3c414d8815ea5e76c95fd7</title><path d="M10.5,6a4.48,4.48,0,0,1,2.5.76V1.5A0.5,0.5,0,0,0,12.5,1H4V8H6.76A4.49,4.49,0,0,1,10.5,6Z" fill="#6fa6d4"/><rect x="3" y="1" width="1" height="7" fill="#fff"/><rect x="6" y="4" width="5" height="2" fill="#fff"/><path d="M3,8V1H2.5A1.5,1.5,0,0,0,1,2.5V8H3Z" fill="#6fa6d4"/><rect x="1" y="11" width="5" height="1" fill="#798288"/><rect x="1" y="9" width="5" height="1" fill="#798288"/><path d="M12,15H10.5a4.49,4.49,0,0,1-3.74-2H0.5a0.5,0.5,0,0,0-.5.5v2a0.5,0.5,0,0,0,.5.5H13Z" fill="#956939"/><path d="M15.5,16a0.5,0.5,0,0,1-.35-0.15l-2.5-2.5a0.5,0.5,0,0,1,.71-0.71l2.5,2.5A0.5,0.5,0,0,1,15.5,16Z" fill="#407fb9"/><path d="M10.5,8A2.5,2.5,0,1,1,8,10.5,2.5,2.5,0,0,1,10.5,8m0-1a3.5,3.5,0,0,0,0,7A3.54,3.54,0,0,0,14,10.5,3.5,3.5,0,0,0,10.5,7h0Z" fill="#407fb9"/></svg>