<svg id="Layer_1" data-name="Layer 1" xmlns="http://www.w3.org/2000/svg" viewBox="0 0 32 32"><title>action_showduplicateworkitems_large_89ea0288a607473f9f7ea76e9e98f837</title><rect x="2" y="9" width="24" height="19" fill="#fff"/><rect x="6" y="4" width="24" height="19" fill="#fff"/><path d="M26,9V28H2V9H26m1-2H1A1,1,0,0,0,0,8V29a1,1,0,0,0,1,1H27a1,1,0,0,0,1-1V8a1,1,0,0,0-1-1h0Z" fill="#9da2a5"/><rect x="4" y="13" width="20" height="3" fill="#7da7b5"/><rect x="4" y="17" width="6" height="2" fill="#667f94"/><rect x="11" y="17" width="13" height="2" fill="#667f94"/><rect x="4" y="20" width="6" height="2" fill="#667f94"/><rect x="11" y="20" width="13" height="2" fill="#667f94"/><path d="M31,2H5A1,1,0,0,0,4,3V6H6V4H30V23H29v2h2a1,1,0,0,0,1-1V3A1,1,0,0,0,31,2Z" fill="#9da2a5"/></svg>