<svg id="Layer_1" data-name="Layer 1" xmlns="http://www.w3.org/2000/svg" viewBox="0 0 16 16"><title>Action_ChartAddPrintStage_small_37e82f6f57dc41a7a9bec38a4cf61243</title><rect x="4" y="2" width="8" height="12" fill="#fff"/><rect x="1" y="5" width="14" height="5" fill="#fff"/><path d="M15,4H1A1,1,0,0,0,0,5v5a1,1,0,0,0,1,1H2V10H1V5H15v5H14v1h1a1,1,0,0,0,1-1V5A1,1,0,0,0,15,4Z" fill="#576672"/><path d="M12,9v5H4V9H3v5a1,1,0,0,0,1,1h8a1,1,0,0,0,1-1V9H12Z" fill="#798288"/><path d="M4,3V2h8V3h1V2a1,1,0,0,0-1-1H4A1,1,0,0,0,3,2V3H4Z" fill="#798288"/><rect x="2" y="8" width="12" height="1" fill="#6fa6d4"/><rect x="5" y="10" width="6" height="1" fill="#adb1b2"/><rect x="5" y="12" width="6" height="1" fill="#adb1b2"/><rect x="2" y="6" width="1" height="1" fill="#75ad15"/></svg>