<svg id="Layer_1" data-name="Layer 1" xmlns="http://www.w3.org/2000/svg" viewBox="0 0 32 32"><title>Action_ChartAddAdditionallyAppStage_large_daee6ba629ee4d26a9b2d9a521df094c</title><rect x="5" y="2" width="22" height="27" fill="#fff"/><path d="M28,1H26V3a2,2,0,0,1-4,0V1H10V3A2,2,0,0,1,6,3V1H4A1,1,0,0,0,3,2V30a1,1,0,0,0,1,1H28a1,1,0,0,0,1-1V2A1,1,0,0,0,28,1ZM27,29H5V7H27V29Z" fill="#9da2a5"/><rect x="23" width="2" height="4" rx="1" ry="1" fill="#9da2a5"/><rect x="7" width="2" height="4" rx="1" ry="1" fill="#9da2a5"/><circle cx="15.5" cy="24.5" r="1.5" fill="#798288"/><circle cx="9.5" cy="15.5" r="1.5" fill="#798288"/><polygon points="18 14 21 14 21 11 18 14" fill="#75ad15"/><polygon points="12 20 10 18 8 20 12 20" fill="#d7853c"/><path d="M13,22.95A5.82,5.82,0,0,1,10.56,20H9.29A7,7,0,0,0,13,24.31V22.95Z" fill="#d7853c"/><path d="M16,11a7,7,0,0,0-4.95,2.05l0.85,0.85a5.76,5.76,0,0,1,7-.91h2A7,7,0,0,0,16,11Z" fill="#75ad15"/><polygon points="23 25 21 23 19 25 19 20 23 20 23 25" fill="#407fb9"/><circle cx="21" cy="19" r="3" fill="#d65633"/></svg>