<svg id="Layer_1" data-name="Layer 1" xmlns="http://www.w3.org/2000/svg" viewBox="0 0 16 16"><title>Action_ChartAddControlReturnStage_small_299939b46e4e4e1098a8333fc471bee8</title><polygon points="13 15 3 15 3 1 11.5 1 13 2.5 13 15" fill="#fff"/><path d="M11.4,0H3A1,1,0,0,0,2,1V15a1,1,0,0,0,1,1H9V15H3V1h7V3a1,1,0,0,0,1,1h3V2.6ZM11,3V1l2,2H11Z" fill="#798288"/><path d="M13,13.5H7A1.52,1.52,0,0,1,5.49,12h0a1.68,1.68,0,0,1-1-2.5A1.76,1.76,0,0,1,4,8,1.08,1.08,0,0,1,5,7H8.55a1.31,1.31,0,0,1,.72-1.5c2.19-.5,6.39,2,6.39,2L15.52,12A2.35,2.35,0,0,1,13,13.5Z" fill="#fff"/><path d="M8.49,10H5a0.5,0.5,0,0,1-.5-0.5h0A0.5,0.5,0,0,1,5,9h3.5A0.5,0.5,0,1,1,8.49,10Z" fill="#dfaa1a"/><path d="M10.56,8H8.44A0.44,0.44,0,0,1,8,7.56V7.45A0.45,0.45,0,0,1,8.44,7h2.12a0.45,0.45,0,0,1,.44.45V7.56A0.44,0.44,0,0,1,10.56,8Z" fill="#dfaa1a"/><path d="M9.65,5A1.84,1.84,0,0,0,8,7H5A1.14,1.14,0,0,0,4,8.31a1.25,1.25,0,0,0,.5,1.2c-0.3.08-1.13,2,.5,2.5a2,2,0,0,0,2,2H8V13H7a1,1,0,0,1-1-1V11.26L5.29,11c-0.49-.25-0.16-1.23.4-1.5C5.13,9.38,4.63,8.17,5.49,8H9S8.68,6.08,10,6c1.5,0,3.66,1,5,1.63V9h1V7S12,5,9.65,5Z" fill="#dfaa1a"/><path d="M8,11H5.44a0.45,0.45,0,0,0-.44.45v0.11a0.44,0.44,0,0,0,.44.44H8V11Z" fill="#dfaa1a"/><circle cx="12.5" cy="12.5" r="3" fill="#fff"/><path d="M12.5,10A2.5,2.5,0,1,1,10,12.5,2.5,2.5,0,0,1,12.5,10m0-1A3.5,3.5,0,1,0,16,12.5,3.5,3.5,0,0,0,12.5,9h0Z" fill="#6fa6d4"/><rect x="12" y="11" width="1" height="2" fill="#798288"/><rect x="11" y="8" width="3" height="1" fill="#6fa6d4"/></svg>