<svg id="Layer_1" data-name="Layer 1" xmlns="http://www.w3.org/2000/svg" viewBox="0 0 32 32"><title>Action_TakeScreenshot_large_cddbfefbf51e41ccaa1f751491307c9d</title><polygon points="26 29 6 29 6 2 22 2 26 6 26 29" fill="#fff"/><path d="M26,6H22V2M20,0V7a1,1,0,0,0,1,1h7Z" fill="#9da2a5"/><rect y="10" width="18" height="13" fill="#2a9190"/><path d="M4.5,15a0.5,0.5,0,0,1,.5.5v2a0.5,0.5,0,0,1-.5.5H3V15H4.5m0-1H2v5H4.5A1.5,1.5,0,0,0,6,17.5v-2A1.5,1.5,0,0,0,4.5,14h0Z" fill="#fff"/><rect x="2" y="14" width="1" height="7" transform="translate(5 35) rotate(-180)" fill="#fff"/><path d="M13.5,14A1.5,1.5,0,0,0,12,15.5v2A1.5,1.5,0,0,0,13.5,19H15v1H13v1h2a1,1,0,0,0,1-1V14H13.5ZM15,18H13.5a0.5,0.5,0,0,1-.5-0.5v-2a0.5,0.5,0,0,1,.5-0.5H15v3Z" fill="#fff"/><polygon points="29 24 29 32 23 32 23 24 20 24 26 18 32 24 29 24" fill="#407fb9"/><path d="M6,2H21l5,5v9l2,2V6.5L21.5,0H5A1,1,0,0,0,4,1V9H6V2Z" fill="#9da2a5"/><path d="M22,29H6V24H4v6a1,1,0,0,0,1,1H22V29Z" fill="#9da2a5"/><path d="M10,14H7v5H8V15h2v4h1V15A1,1,0,0,0,10,14Z" fill="#fff"/></svg>