<svg id="Layer_1" data-name="Layer 1" xmlns="http://www.w3.org/2000/svg" viewBox="0 0 16 16"><title>Action_TakeScreenshot_small_cddbfefbf51e41ccaa1f751491307c9d</title><polygon points="14 15 4 15 4 1 12.5 1 14 2.5 14 15" fill="#fff"/><polygon points="10 13 0 13 0 5 13 5 13 8 10 11 10 13" fill="#2a9190"/><path d="M3,7H1v5H2V11H3a1,1,0,0,0,1-1V8A1,1,0,0,0,3,7Zm0,3H2V8H3v2Z" fill="#fff"/><path d="M7,7H5v4H6V8H7v3H8V8A1,1,0,0,0,7,7Z" fill="#fff"/><path d="M10,7A1,1,0,0,0,9,8v2a1,1,0,0,0,1,1h1v1H9v1h2a1,1,0,0,0,1-1V7H10Zm1,3H10V8h1v2Z" fill="#fff"/><polygon points="12 12 12 16 15 16 15 12 16 12 13.5 9 11 12 12 12" fill="#407fb9"/><path d="M11,15H4V14H3v1a1,1,0,0,0,1,1h7V15Z" fill="#798288"/><path d="M4,1h7V3a1,1,0,0,0,1,1h2V8l1,1V2.6L12.4,0H4A1,1,0,0,0,3,1V4H4V1Zm8,0,2,2H12V1Z" fill="#798288"/></svg>