<svg id="Layer_1" data-name="Layer 1" xmlns="http://www.w3.org/2000/svg" viewBox="0 0 32 32"><title>Action_CreateVersion_large_c2f699e1cecf458bbfe00b2efea4b94c</title><path d="M28,17V3a1,1,0,0,0-1-1H8V17H28Z" fill="#6fa6d4"/><rect x="7" y="2" width="1" height="15" fill="#fff"/><rect x="13" y="7" width="11" height="4" fill="#fff"/><path d="M7,17V2H6A2,2,0,0,0,4,4V17H7Z" fill="#6fa6d4"/><rect x="3" y="23" width="26" height="2" fill="#9da2a5"/><rect x="3" y="19" width="26" height="2" fill="#9da2a5"/><rect y="27" width="32" height="4" rx="1" ry="1" fill="#956939"/><path d="M13,6a2.08,2.08,0,0,0-2-2H10.83l0.12-.12A2.1,2.1,0,0,0,11.45,2H4v9a2.08,2.08,0,0,0,2,2,2.08,2.08,0,0,0,2-2V10.83l0.12,0.12a2.06,2.06,0,0,0,1.43.55,2,2,0,0,0,1.39-.55,2.08,2.08,0,0,0,0-2.83L10.83,8H11A2.08,2.08,0,0,0,13,6Z" fill="#fff"/><path d="M6,12a1.1,1.1,0,0,1-1-1V1A1.1,1.1,0,0,1,6,0,1.1,1.1,0,0,1,7,1V11A1.1,1.1,0,0,1,6,12Z" fill="#e0ad5c"/><path d="M11,7H1A1.1,1.1,0,0,1,0,6,1.1,1.1,0,0,1,1,5H11a1.1,1.1,0,0,1,1,1A1.1,1.1,0,0,1,11,7Z" fill="#e0ad5c"/><path d="M10.24,10.24a1.1,1.1,0,0,1-1.41,0L1.76,3.17a1.1,1.1,0,0,1,0-1.41,1.1,1.1,0,0,1,1.41,0l7.07,7.07A1.1,1.1,0,0,1,10.24,10.24Z" fill="#e0ad5c"/><path d="M10.24,3.17L3.17,10.24a1.1,1.1,0,0,1-1.41,0,1.1,1.1,0,0,1,0-1.41L8.83,1.76a1.1,1.1,0,0,1,1.41,0A1.1,1.1,0,0,1,10.24,3.17Z" fill="#e0ad5c"/><circle cx="6" cy="6" r="1.5" fill="#fff"/></svg>