<svg id="Layer_1" data-name="Layer 1" xmlns="http://www.w3.org/2000/svg" viewBox="0 0 16 16"><title>Action_ChartAddSendingStage_small_e14cf597fe45456a974568470047df4a</title><path d="M11,16V8H9V0.5A0.5,0.5,0,0,0,8.5,0h-8A0.5,0.5,0,0,0,0,.5v15a0.5,0.5,0,0,0,.5.5H3V14H4v2h7Z" fill="#9da2a5"/><rect x="2" y="2" width="1" height="1" fill="#fff"/><rect x="4" y="2" width="1" height="1" fill="#fff"/><rect x="6" y="2" width="1" height="1" fill="#fff"/><rect x="2" y="4" width="1" height="1" fill="#fff"/><rect x="4" y="4" width="1" height="1" fill="#fff"/><rect x="6" y="4" width="1" height="1" fill="#fff"/><rect x="2" y="6" width="1" height="1" fill="#fff"/><rect x="4" y="6" width="1" height="1" fill="#fff"/><rect x="6" y="6" width="1" height="1" fill="#fff"/><rect x="2" y="8" width="1" height="1" fill="#fff"/><rect x="4" y="8" width="1" height="1" fill="#fff"/><rect x="6" y="8" width="1" height="1" fill="#fff"/><rect x="2" y="10" width="1" height="1" fill="#fff"/><polygon points="12 11 6 11 6 14 12 14 12 16 16 12.5 12 9 12 11" fill="#407fb9"/><polygon points="11 14 6 14 6 11 11 11 11 10 5 10 5 15 11 15 11 14" fill="#fff"/></svg>