<svg width="32" height="32" viewBox="0 0 32 32" fill="none" xmlns="http://www.w3.org/2000/svg">
<path d="M26.9498 13H29.9998C30.1399 12.986 30.2813 13.0044 30.4132 13.0536C30.5451 13.1029 30.6639 13.1817 30.7605 13.2841C30.8571 13.3865 30.9289 13.5097 30.9704 13.6442C31.0119 13.7787 31.022 13.921 30.9998 14.06V17.94C31.022 18.079 31.0119 18.2213 30.9704 18.3558C30.9289 18.4903 30.8571 18.6135 30.7605 18.7159C30.6639 18.8183 30.5451 18.8971 30.4132 18.9464C30.2813 18.9957 30.1399 19.014 29.9998 19H26.9398C26.8098 19.39 25.7898 21.09 25.6198 21.46L27.4698 23.31C28.2298 24.06 28.7598 24.24 27.9998 25L25.2698 27.74C25.1201 27.909 24.9339 28.0417 24.7253 28.1282C24.5167 28.2146 24.2912 28.2525 24.0658 28.239C23.8404 28.2256 23.621 28.161 23.4242 28.0503C23.2275 27.9396 23.0584 27.7856 22.9298 27.6L21.0798 25.75C20.7098 25.92 19.3898 26.86 18.9998 27V30C18.9998 30.2652 18.8945 30.5196 18.707 30.7071C18.5194 30.8946 18.2651 31 17.9998 31H13.9998C12.9298 31 13.1298 30.25 12.9998 30L12.9498 27.09C12.5098 26.88 10.7898 26.09 10.3698 25.88L8.43984 27.81C7.67984 28.56 7.25984 28.84 6.49984 28.08L3.77984 25.32C3.02984 24.56 3.31984 23.76 4.07984 23L6.07984 21C5.93984 20.69 5.10984 19.32 4.99984 19H1.99984C2.25984 19 0.999844 18.9 0.999844 18V14C0.969774 13.8624 0.974771 13.7195 1.01438 13.5844C1.05398 13.4492 1.12693 13.3262 1.2265 13.2267C1.32607 13.1271 1.44908 13.0541 1.58422 13.0145C1.71935 12.9749 1.86227 12.9699 1.99984 13H5.04984C5.18984 12.61 5.99984 11 6.15984 10.67L4.30984 8.82C4.13464 8.70696 3.98712 8.55594 3.8782 8.37814C3.76928 8.20035 3.70176 8.00032 3.68063 7.79289C3.6595 7.58545 3.68531 7.37592 3.75615 7.17982C3.82699 6.98371 3.94103 6.80606 4.08984 6.66001L6.82984 3.92001C7.99984 3.37001 7.74984 3.57001 8.49984 4.29001L10.7098 6.29001C11.0698 6.12001 12.6098 5.19001 12.9998 5.05001V2.00001C12.9768 1.85808 12.9889 1.71266 13.035 1.57648C13.0812 1.4403 13.16 1.31751 13.2646 1.21884C13.3692 1.12017 13.4964 1.04863 13.635 1.01048C13.7736 0.972331 13.9195 0.968735 14.0598 1.00001H17.9398C18.9998 1.00001 18.9998 1.50001 18.9998 2.00001V5.05001C19.3198 5.17001 20.8098 6.11001 21.1198 6.25001L22.8798 4.49001C23.6398 3.74001 23.9898 3.12001 24.7498 3.88001L27.4898 6.62001C28.2998 7.38 28.0598 7.99001 27.2998 8.75001L25.6298 10.42C25.8398 10.84 26.7898 12.55 26.9498 13Z" fill="white"/>
<path d="M18 2V4.7C17.9988 5.11393 18.1262 5.51803 18.3644 5.85655C18.6026 6.19507 18.94 6.45133 19.33 6.59C19.62 6.69 19.89 6.8 20.15 6.92C20.521 7.09112 20.9355 7.14452 21.3378 7.07301C21.74 7.0015 22.1107 6.80851 22.4 6.52L24.22 4.7L27 7.51L25.32 9.24C25.022 9.5363 24.8249 9.91894 24.7567 10.3336C24.6885 10.7482 24.7526 11.1739 24.94 11.55C25.1226 11.9132 25.2829 12.2873 25.42 12.67C25.5581 13.0584 25.8128 13.3947 26.1494 13.6327C26.4859 13.8708 26.8878 13.9991 27.3 14H30V18H27.3C26.8861 17.9988 26.482 18.1262 26.1435 18.3644C25.8049 18.6026 25.5487 18.94 25.41 19.33C25.2947 19.6703 25.1612 20.0041 25.01 20.33C24.8308 20.7036 24.7721 21.1237 24.842 21.5321C24.9118 21.9405 25.1068 22.3172 25.4 22.61L27.31 24.52L24.48 27.35L22.57 25.44C22.2838 25.1406 21.9116 24.9375 21.505 24.8587C21.0984 24.7799 20.6774 24.8293 20.3 25C19.9741 25.1513 19.6403 25.2848 19.3 25.4C18.914 25.5442 18.5819 25.8041 18.3492 26.1442C18.1165 26.4843 17.9946 26.888 18 27.3V30H14V27.3C14.0012 26.8861 13.8738 26.482 13.6356 26.1435C13.3974 25.8049 13.06 25.5487 12.67 25.41C12.2873 25.2729 11.9132 25.1126 11.55 24.93C11.1739 24.7426 10.7482 24.6785 10.3336 24.7467C9.91894 24.8149 9.5363 25.012 9.24 25.31L7.24 27.31L4.41 24.49L6.5 22.4C6.78851 22.1107 6.9815 21.74 7.05301 21.3378C7.12452 20.9355 7.07112 20.521 6.9 20.15C6.78 19.9 6.67 19.62 6.57 19.33C6.43248 18.9432 6.17926 18.6081 5.84472 18.3701C5.51018 18.1322 5.11052 18.003 4.7 18H2V14H4.7C5.11393 14.0012 5.51803 13.8738 5.85655 13.6356C6.19507 13.3974 6.45133 13.06 6.59 12.67C6.70527 12.3297 6.8388 11.9959 6.99 11.67C7.16919 11.2964 7.22791 10.8763 7.15805 10.4679C7.08818 10.0595 6.89319 9.68282 6.6 9.39L4.69 7.51L7.51 4.69L9.42 6.59C9.7105 6.88649 10.0861 7.08525 10.4946 7.15871C10.9031 7.23218 11.3244 7.17671 11.7 7C12.0259 6.8488 12.3597 6.71527 12.7 6.6C13.086 6.45581 13.4181 6.1959 13.6508 5.8558C13.8835 5.51571 14.0054 5.11204 14 4.7V2H18ZM18 0H14C13.4696 0 12.9609 0.210714 12.5858 0.585786C12.2107 0.960859 12 1.46957 12 2V4.7C11.6052 4.8395 11.218 4.99972 10.84 5.18L8.93 3.27C8.74425 3.08405 8.52368 2.93653 8.28088 2.83588C8.03808 2.73523 7.77783 2.68343 7.515 2.68343C7.25217 2.68343 6.99192 2.73523 6.74912 2.83588C6.50632 2.93653 6.28575 3.08405 6.1 3.27L3.27 6.1C3.08405 6.28575 2.93653 6.50632 2.83588 6.74912C2.73523 6.99192 2.68343 7.25217 2.68343 7.515C2.68343 7.77783 2.73523 8.03808 2.83588 8.28088C2.93653 8.52368 3.08405 8.74425 3.27 8.93L5.18 10.84C4.9997 11.218 4.83948 11.6052 4.7 12H2C1.46957 12 0.960859 12.2107 0.585786 12.5858C0.210714 12.9609 0 13.4696 0 14L0 18C0 18.5304 0.210714 19.0391 0.585786 19.4142C0.960859 19.7893 1.46957 20 2 20H4.7C4.82 20.33 4.95 20.66 5.09 21L3 23.07C2.81405 23.2557 2.66653 23.4763 2.56588 23.7191C2.46523 23.9619 2.41343 24.2222 2.41343 24.485C2.41343 24.7478 2.46523 25.0081 2.56588 25.2509C2.66653 25.4937 2.81405 25.7143 3 25.9L5.83 28.73C6.01575 28.916 6.23632 29.0635 6.47912 29.1641C6.72192 29.2648 6.98217 29.3166 7.245 29.3166C7.50783 29.3166 7.76808 29.2648 8.01088 29.1641C8.25368 29.0635 8.47425 28.916 8.66 28.73L10.66 26.73C11.0946 26.9471 11.5421 27.1375 12 27.3V30C12 30.5304 12.2107 31.0391 12.5858 31.4142C12.9609 31.7893 13.4696 32 14 32H18C18.5304 32 19.0391 31.7893 19.4142 31.4142C19.7893 31.0391 20 30.5304 20 30V27.3C20.3948 27.1605 20.7821 27.0003 21.16 26.82L23.07 28.73C23.2557 28.916 23.4763 29.0635 23.7191 29.1641C23.9619 29.2648 24.2222 29.3166 24.485 29.3166C24.7478 29.3166 25.0081 29.2648 25.2509 29.1641C25.4937 29.0635 25.7143 28.916 25.9 28.73L28.73 25.9C28.916 25.7143 29.0635 25.4937 29.1641 25.2509C29.2648 25.0081 29.3166 24.7478 29.3166 24.485C29.3166 24.2222 29.2648 23.9619 29.1641 23.7191C29.0635 23.4763 28.916 23.2557 28.73 23.07L26.82 21.16C27.0003 20.782 27.1605 20.3948 27.3 20H30C30.5304 20 31.0391 19.7893 31.4142 19.4142C31.7893 19.0391 32 18.5304 32 18V14C32 13.4696 31.7893 12.9609 31.4142 12.5858C31.0391 12.2107 30.5304 12 30 12H27.3C27.1379 11.5387 26.9475 11.0879 26.73 10.65L28.45 8.93C28.636 8.74425 28.7835 8.52368 28.8841 8.28088C28.9848 8.03808 29.0366 7.77783 29.0366 7.515C29.0366 7.25217 28.9848 6.99192 28.8841 6.74912C28.7835 6.50632 28.636 6.28575 28.45 6.1L25.63 3.27C25.4443 3.08405 25.2237 2.93653 24.9809 2.83588C24.7381 2.73523 24.4778 2.68343 24.215 2.68343C23.9522 2.68343 23.6919 2.73523 23.4491 2.83588C23.2063 2.93653 22.9857 3.08405 22.8 3.27L21 5.09C20.68 4.94 20.35 4.81 20 4.7V2C20 1.46957 19.7893 0.960859 19.4142 0.585786C19.0391 0.210714 18.5304 0 18 0Z" fill="#6FA6D4"/>
<path fill-rule="evenodd" clip-rule="evenodd" d="M18.2745 9.03389C18.8055 9.16665 19.113 9.65093 18.9613 10.1156L14.9616 22.3652C14.8099 22.8298 14.2565 23.0989 13.7255 22.9661C13.1945 22.8334 12.887 22.3491 13.0387 21.8844L17.0384 9.63482C17.1901 9.17018 17.7435 8.90114 18.2745 9.03389Z" fill="#407FB9"/>
<path fill-rule="evenodd" clip-rule="evenodd" d="M12.8 12.4C13.1314 12.8418 13.0418 13.4686 12.6 13.8L9.66667 16L12.6 18.2C13.0418 18.5314 13.1314 19.1582 12.8 19.6C12.4686 20.0418 11.8418 20.1314 11.4 19.8L7.4 16.8C7.14819 16.6111 7 16.3148 7 16C7 15.6852 7.14819 15.3889 7.4 15.2L11.4 12.2C11.8418 11.8686 12.4686 11.9582 12.8 12.4Z" fill="#407FB9"/>
<path fill-rule="evenodd" clip-rule="evenodd" d="M19.2 12.4C18.8686 12.8418 18.9582 13.4686 19.4 13.8L22.3333 16L19.4 18.2C18.9582 18.5314 18.8686 19.1582 19.2 19.6C19.5314 20.0418 20.1582 20.1314 20.6 19.8L24.6 16.8C24.8518 16.6111 25 16.3148 25 16C25 15.6852 24.8518 15.3889 24.6 15.2L20.6 12.2C20.1582 11.8686 19.5314 11.9582 19.2 12.4Z" fill="#407FB9"/>
</svg>
