<svg id="Layer_1" data-name="Layer 1" xmlns="http://www.w3.org/2000/svg" viewBox="0 0 32 32"><title>Action_ShowDuplicate_large_adc5439c218945a7a8206a1d25011804</title><rect x="7" y="3" width="17" height="13" fill="#fff"/><path d="M27,0H10V3H20a2,2,0,0,1,2,2V24h5a1,1,0,0,0,1-1V1A1,1,0,0,0,27,0Z" fill="#6fa6d4"/><rect x="9" width="1" height="3" fill="#fff"/><rect x="14" y="5" width="10" height="4" fill="#fff"/><path d="M20,28H3V4H20a1,1,0,0,1,1,1V27A1,1,0,0,1,20,28Z" fill="#6fa6d4"/><rect x="2" y="4" width="1" height="26" fill="#fff"/><path d="M0,30,2,4H2A2,2,0,0,0,0,6V30a2,2,0,0,0,2,2H20a0.94,0.94,0,0,0,1-1,0.91,0.91,0,0,0-1-1H2V4H2Z" fill="#6fa6d4"/><rect x="7" y="9" width="10" height="4" fill="#fff"/><path d="M2,28H20a0,0,0,0,1,0,0v2a0,0,0,0,1,0,0H2a1,1,0,0,1-1-1v0a1,1,0,0,1,1-1Z" fill="#fff"/><path d="M9,3V0A2,2,0,0,0,7,2V3H9Z" fill="#6fa6d4"/><path d="M18.11,28h9.78L28,27.89V18.11A7,7,0,1,0,18.11,28Z" fill="#fff"/><path d="M31.15,32a0.85,0.85,0,0,1-.6-0.25l-8.12-8.12a0.85,0.85,0,0,1,1.2-1.2l8.12,8.12A0.85,0.85,0,0,1,31.15,32Z" fill="#407fb9"/><circle cx="23" cy="23" r="5.5" fill="#fff"/><path d="M23,18.5A4.5,4.5,0,1,1,18.5,23,4.51,4.51,0,0,1,23,18.5M23,17a6,6,0,1,0,6,6,6,6,0,0,0-6-6h0Z" fill="#407fb9"/></svg>