<svg id="Layer_1" data-name="Layer 1" xmlns="http://www.w3.org/2000/svg" viewBox="0 0 32 32"><title>approvalrulebase_32</title><path d="M7,0H27a1,1,0,0,1,1,1V27a1,1,0,0,1-1,1H7a0,0,0,0,1,0,0V0A0,0,0,0,1,7,0Z" fill="#6fa6d4"/><rect x="6" width="1" height="30" fill="#fff"/><path d="M4,30,6,0H5A2,2,0,0,0,3,2V30a2,2,0,0,0,2,2H27a0.94,0.94,0,0,0,1-1,0.91,0.91,0,0,0-1-1H6V0H6Z" fill="#6fa6d4"/><rect x="12" y="6" width="12" height="4" fill="#fff"/><path d="M6,28H27a0,0,0,0,1,0,0v2a0,0,0,0,1,0,0H6a1,1,0,0,1-1-1v0a1,1,0,0,1,1-1Z" fill="#fff"/></svg>