<svg id="Layer_1" data-name="Layer 1" xmlns="http://www.w3.org/2000/svg" viewBox="0 0 16 16"><title>memo_16</title><polygon points="13 15 3 15 3 1 11.5 1 13 2.5 13 15" fill="#fff"/><path d="M11.4,0H3A1,1,0,0,0,2,1V15a1,1,0,0,0,1,1H5V15H3V1h7V3a1,1,0,0,0,1,1h2V6h1V2.6ZM11,3V1l2,2H11Z" fill="#798288"/><rect x="6" y="13" width="10" height="1" fill="#fff"/><path d="M6,14H16a0,0,0,0,1,0,0v1.5a0.5,0.5,0,0,1-.5.5h-9A0.5,0.5,0,0,1,6,15.5V14A0,0,0,0,1,6,14Z" fill="#956939"/><path d="M10,9V8h2V9h1V8a1,1,0,0,0-1-1H10A1,1,0,0,0,9,8V9h1Z" fill="#956939"/><path d="M6.5,9h9a0.5,0.5,0,0,1,.5.5V13a0,0,0,0,1,0,0H6a0,0,0,0,1,0,0V9.5A0.5,0.5,0,0,1,6.5,9Z" fill="#956939"/><rect x="10" y="12" width="2" height="1" fill="#fff"/></svg>