<svg id="Layer_1" data-name="Layer 1" xmlns="http://www.w3.org/2000/svg" viewBox="0 0 32 32"><title>memo_32</title><polygon points="26 29 6 29 6 2 22 2 26 6 26 29" fill="#fff"/><path d="M26,6H22V2M20,0V7a1,1,0,0,0,1,1h7Z" fill="#9da2a5"/><path d="M21.5,0H5A1,1,0,0,0,4,1V30a1,1,0,0,0,1,1h8V29H6V2H21l5,5v8h2V6.5Z" fill="#9da2a5"/><path d="M30.5,32h-16a0.5,0.5,0,0,1-.5-0.5V27H31v4.5A0.5,0.5,0,0,1,30.5,32Z" fill="#956939"/><path d="M20,19V17h5v2h1V17a1,1,0,0,0-1-1H20a1,1,0,0,0-1,1v2h1Z" fill="#956939"/><path d="M31,26H14V18.5a0.5,0.5,0,0,1,.5-0.5h16a0.5,0.5,0,0,1,.5.5V26Z" fill="#956939"/><rect x="21" y="25" width="3" height="1" fill="#fff"/><rect x="14" y="26" width="17" height="1" fill="#fff"/></svg>