<svg id="Layer_1" data-name="Layer 1" xmlns="http://www.w3.org/2000/svg" viewBox="0 0 32 32"><title>GroupIconDocuments_large_494e3180b02a422bbe85018c24d6cea7</title><rect x="13" y="17" width="18" height="14" fill="#fff"/><polygon points="26 29 6 29 6 2 22 2 26 6 26 29" fill="#fff"/><path d="M26,6H22V2M20,0V7a1,1,0,0,0,1,1h7Z" fill="#9da2a5"/><path d="M11,29H6V2H21l5,5v8h2V6.5L21.5,0H5A1,1,0,0,0,4,1V30a1,1,0,0,0,1,1h6V29Z" fill="#9da2a5"/><rect x="15" y="20" width="8" height="2" fill="#407fb9"/><rect x="18" y="23" width="8" height="2" fill="#d65633"/><rect x="21" y="26" width="8" height="2" fill="#75ad15"/><path d="M31,17V31H13V17H31m0-1H13a1,1,0,0,0-1,1V31a1,1,0,0,0,1,1H31a1,1,0,0,0,1-1V17a1,1,0,0,0-1-1h0Z" fill="#798288"/></svg>