<svg id="Layer_1" data-name="Layer 1" xmlns="http://www.w3.org/2000/svg" viewBox="0 0 16 16"><title>Document</title><polygon points="13 15 3 15 3 1 11.5 1 13 2.5 13 15" fill="#fff"/><rect x="4" y="6" width="8" height="1" fill="#adb1b2"/><rect x="4" y="8" width="8" height="1" fill="#adb1b2"/><rect x="4" y="10" width="8" height="1" fill="#adb1b2"/><rect x="4" y="12" width="8" height="1" fill="#adb1b2"/><path d="M11,1l2,2H11V1M10,0V3a1,1,0,0,0,1,1h3V2.6L11.4,0H10Z" fill="#798288"/><path d="M13,3V15H3V1h7.94V0H3A1,1,0,0,0,2,1V15a1,1,0,0,0,1,1H13a1,1,0,0,0,1-1V3H13Z" fill="#798288"/></svg>