<svg id="Layer_1" data-name="Layer 1" xmlns="http://www.w3.org/2000/svg" viewBox="0 0 16 16"><title>Action_Explored_small_4ce7178655eb4140b0b5ec5e075f2da9</title><path d="M13,6S9.53,1.56,7,1.5,1,6,1,6v9H13V6Z" fill="#fff"/><path d="M1.5,15a0.5,0.5,0,0,1-.35-0.85l3-3a0.5,0.5,0,0,1,.71.71l-3,3A0.5,0.5,0,0,1,1.5,15Z" fill="#798288"/><path d="M10,8a0.71,0.71,0,0,1-.51-0.22l-3-3.08a0.68,0.68,0,0,1,0-1,0.7,0.7,0,0,1,1.07,0L10,6.12l4.4-5.84a0.7,0.7,0,0,1,1-.13,0.77,0.77,0,0,1,.12,1.05l-4.9,6.5a0.71,0.71,0,0,1-.52.29h0Z" fill="#75ad15"/><path d="M12.5,15a0.5,0.5,0,0,1-.35-0.15l-3-3a0.5,0.5,0,0,1,.71-0.71l3,3A0.5,0.5,0,0,1,12.5,15Z" fill="#798288"/><path d="M13.75,6l-0.62.66h0C12,7.87,8.76,11,7,11H7C5.3,11,2.21,8.09,1,6.8V6.2C2.21,4.91,5.3,2,7,2H7c0.91,0,2.23.84,3.44,1.82L11,3C9.74,2,8.21,1,7,1H7C4.48,1,.56,5.17.13,5.66A0.69,0.69,0,0,0,0,6v9a1,1,0,0,0,1,1H13a1,1,0,0,0,1-1V6.64A1,1,0,0,0,13.75,6ZM1,15V8.23C2.39,9.6,5.09,12,7,12H7c1.9,0,4.6-2.4,6-3.77V15H1Z" fill="#798288"/></svg>