<svg id="Layer_1" data-name="Layer 1" xmlns="http://www.w3.org/2000/svg" viewBox="0 0 16 16"><title>Action_AddAssignment_small_ed0be2bed92a4ef68c797d0af586742b</title><polygon points="13 10 9.5 15 2 15 2 4 13 4 13 10" fill="#fff"/><path d="M9.65,16a0.8,0.8,0,0,1-.58-0.25L5.73,12.27a0.76,0.76,0,0,1,0-1.11,0.79,0.79,0,0,1,1.21,0l2.62,2.73,5-6.6a0.8,0.8,0,0,1,1.14-.14,0.87,0.87,0,0,1,.14,1.19l-5.54,7.35A0.8,0.8,0,0,1,9.7,16h0Z" fill="#75ad15"/><path d="M2,4H13V7l1-1.33V1a1,1,0,0,0-1-1H12V1H11V0H4V1H3V0H2A1,1,0,0,0,1,1V15a1,1,0,0,0,1,1H7L6,15H2V4Z" fill="#798288"/></svg>