<svg id="Layer_1" data-name="Layer 1" xmlns="http://www.w3.org/2000/svg" viewBox="0 0 32 32"><title>resolution_print_large</title><polygon points="26 24 22 29 6 29 6 2 22 2 26 6 26 24" fill="#fff"/><path d="M26,6H22V2M20,0V7a1,1,0,0,0,1,1h7Z" fill="#9da2a5"/><rect x="8" y="11" width="16" height="2" fill="#adb1b2"/><rect x="8" y="15" width="9" height="2" fill="#adb1b2"/><rect x="8" y="19" width="6" height="2" fill="#adb1b2"/><path d="M17,29H6V2H21l5,5v8h2V6.5L21.5,0H5A1,1,0,0,0,4,1V30a1,1,0,0,0,1,1H17Z" fill="#9da2a5"/><rect x="19" y="17" width="9" height="7" fill="#fff"/><rect x="15" y="21" width="17" height="6" fill="#fff"/><rect x="17" y="22" width="1" height="1" fill="#75ad15"/><path d="M28.5,16h-10a.5.5,0,0,0-.5.5V19h1V17h9v2h1V16.5A.5.5,0,0,0,28.5,16Z" fill="#798288"/><rect x="19" y="24" width="9" height="7" fill="#fff"/><rect x="20" y="27" width="7" height="1" fill="#798288"/><rect x="20" y="29" width="7" height="1" fill="#798288"/><rect x="17" y="24" width="13" height="1" fill="#6fa6d4"/><path d="M28,31H19V25H18v6.5a.5.5,0,0,0,.5.5h10a.5.5,0,0,0,.5-.5V25H28Z" fill="#798288"/><path d="M31,20H16a1,1,0,0,0-1,1v6a1,1,0,0,0,1,1h1V27H16V21H31v6H30v1h1a1,1,0,0,0,1-1V21A1,1,0,0,0,31,20Z" fill="#576672"/></svg>