<svg id="Layer_1" data-name="Layer 1" xmlns="http://www.w3.org/2000/svg" viewBox="0 0 32 32"><title>Contact_large</title><rect x="2" y="6" width="28" height="21" fill="#fff"/><rect x="14" y="17" width="13" height="2" fill="#adb1b2"/><rect x="14" y="21" width="13" height="2" fill="#adb1b2"/><rect x="14" y="13" width="13" height="2" fill="#adb1b2"/><path d="M11.58,19.45l-2.25-.9a4.25,4.25,0,0,1-.13-1,5.93,5.93,0,0,0,.7-2.89,1.73,1.73,0,0,0-.61-1.3A1.68,1.68,0,0,0,8,13a1.81,1.81,0,0,0-1.08.3,1.73,1.73,0,0,0-.79,1.38,5.09,5.09,0,0,0,.66,2.88,2.54,2.54,0,0,1-.13,1l-2.25.87a0.74,0.74,0,0,0-.42.63V23h8V20.09A0.9,0.9,0,0,0,11.58,19.45Z" fill="#adb1b2"/><path d="M30,9V27H2V9H0V28a1,1,0,0,0,1,1H31a1,1,0,0,0,1-1V9H30Z" fill="#9da2a5"/><rect x="15" width="2" height="5" rx="1" ry="1" fill="#ce846c"/><path d="M31,2H18V4a2,2,0,0,1-4,0V2H1A1,1,0,0,0,0,3V9H32V3A1,1,0,0,0,31,2Z" fill="#ce846c"/></svg>