<svg id="Layer_1" data-name="Layer 1" xmlns="http://www.w3.org/2000/svg" viewBox="0 0 16 16"><title>Action_ShowDuplicates_small_4a3b1c9775044552800493c3ffe5b6eb</title><path d="M13,8.85V3L11,1H4V3H2V15h8V14l0.31-.52,0.19,0A3,3,0,0,0,13,8.85Z" fill="#fff"/><path d="M8,6h3V5L8.5,2.5,8,2H2A0.93,0.93,0,0,0,1,3V15a0.93,0.93,0,0,0,1,1h8a1,1,0,0,0,1-1H2S2,3,2,3H7V5A1,1,0,0,0,8,6ZM9.7,5H8V3.3Z" fill="#798288"/><path d="M13.5,2.5l-2-2L11,0H4A1,1,0,0,0,3,1h7V3a1,1,0,0,0,1,1h2V6a5,5,0,0,1,1,1V3ZM11,3V1.3L12.7,3H11Z" fill="#798288"/><path d="M15.5,16a0.5,0.5,0,0,1-.35-0.15l-2.5-2.5a0.5,0.5,0,0,1,.71-0.71l2.5,2.5A0.5,0.5,0,0,1,15.5,16Z" fill="#407fb9"/><path d="M10.5,8A2.5,2.5,0,1,1,8,10.5,2.5,2.5,0,0,1,10.5,8m0-1a3.5,3.5,0,0,0,0,7A3.54,3.54,0,0,0,14,10.5,3.5,3.5,0,0,0,10.5,7h0Z" fill="#407fb9"/></svg>