<svg id="Layer_1" data-name="Layer 1" xmlns="http://www.w3.org/2000/svg" viewBox="0 0 32 32"><title>controloforders_large</title><rect x="2" y="5" width="28" height="21" fill="#fff"/><rect x="6" y="14" width="4" height="10" fill="#c1c5c6"/><rect x="11" y="8" width="4" height="16" fill="#c1c5c6"/><rect x="16" y="10" width="4" height="14" fill="#c1c5c6"/><rect x="21" y="12" width="4" height="9" fill="#c1c5c6"/><path d="M14.3436,26H2V5H30V16.5848a9.5127,9.5127,0,0,1,2,2.6913V4a1.0029,1.0029,0,0,0-1-1H1A1.0029,1.0029,0,0,0,0,4V27a1.0029,1.0029,0,0,0,1,1H15.133A9.4414,9.4414,0,0,1,14.3436,26Z" fill="#9da2a5"/><path d="M30,16.5848A9.4817,9.4817,0,0,0,14.3436,26H30Z" fill="#fff"/><circle cx="23.5" cy="23.5" r="8" fill="#fff"/><path d="M23.5,16.2a7.3,7.3,0,1,1-7.3,7.3,7.3083,7.3083,0,0,1,7.3-7.3m0-1.2A8.5,8.5,0,1,0,32,23.5,8.5,8.5,0,0,0,23.5,15Z" fill="#956939"/><path d="M27.5,23H24V18.5a.5.5,0,0,0-1,0V24h4.5a.5.5,0,0,0,0-1Z" fill="#9da2a5"/></svg>