<svg id="Layer_1" data-name="Layer 1" xmlns="http://www.w3.org/2000/svg" viewBox="0 0 16 16"><title>outgoingtaxinvoice</title><polygon points="12 13 1 13 1 3 13.5 3 15 4.5 15 11 12 11 12 13" fill="#fff"/><rect x="3" y="5" width="4" height="1" fill="#7da7b5"/><polygon points="10 8 4 8 4 7 11 7 10 8" fill="#adb1b2"/><polygon points="8 10 4 10 4 9 9 9 8 10" fill="#adb1b2"/><rect x="4" y="11" width="4" height="1" fill="#adb1b2"/><rect x="1" y="9" width="5" height="1" transform="translate(-6 13) rotate(-90)" fill="#adb1b2"/><rect x="5" y="9" width="5" height="1" transform="translate(-2 17) rotate(-90)" fill="#adb1b2"/><polygon points="11 11 11 16 14 16 14 11 16 11 12.5 7 9 11 11 11" fill="#407fb9"/><path d="M13.4,2H1A1,1,0,0,0,0,3V13a1,1,0,0,0,1,1h9V13H1V3H12V5a1,1,0,0,0,1,1h2V8l1,1V4.6ZM13,5V3l2,2H13Z" fill="#798288"/></svg>