<svg id="Layer_1" data-name="Layer 1" xmlns="http://www.w3.org/2000/svg" viewBox="0 0 32 32"><title>outgoingtaxinvoice_32</title><polygon points="2 6 2 26 28 26 28 23 29 23 29 10 25 6 2 6" fill="#fff"/><path d="M29,10H25V6M23,4v7a1,1,0,0,0,1,1h7Z" fill="#9da2a5"/><rect x="5" y="10" width="9" height="2" transform="translate(19 22) rotate(-180)" fill="#7da7b5"/><rect x="5" y="14" width="21" height="2" transform="translate(31 30) rotate(-180)" fill="#adb1b2"/><rect x="5" y="18" width="21" height="2" transform="translate(31 38) rotate(-180)" fill="#adb1b2"/><rect x="5" y="22" width="13" height="2" transform="translate(23 46) rotate(-180)" fill="#adb1b2"/><rect x="5" y="14" width="2" height="10" fill="#adb1b2"/><rect x="10" y="14" width="2" height="10" fill="#adb1b2"/><rect x="24" y="14" width="2" height="10" fill="#adb1b2"/><rect x="15" y="14" width="2" height="10" fill="#adb1b2"/><rect x="20" y="14" width="2" height="10" fill="#adb1b2"/><path d="M2,26V6H24l5,5v8l2,2V10.5L24.5,4H1A1,1,0,0,0,0,5V27a1,1,0,0,0,1,1H21V26H2Z" fill="#9da2a5"/><polygon points="29 21 29 16.27 26.4 13.67 16.07 24 26 24 29 21" fill="#fff"/><polygon points="28 23 28 31 22 31 22 23 19 23 25 17 31 23 28 23" fill="#407fb9"/></svg>