<svg id="Layer_1" data-name="Layer 1" xmlns="http://www.w3.org/2000/svg" viewBox="0 0 32 32"><title>GroupIconLinks_large_4587e4ba98c4428eabee37d8eab138cd</title><path d="M8,0H28a1,1,0,0,1,1,1V27a1,1,0,0,1-1,1H8a0,0,0,0,1,0,0V0A0,0,0,0,1,8,0Z" fill="#6fa6d4"/><rect x="7" width="1" height="30" fill="#fff"/><path d="M5,30,7,0H6A2,2,0,0,0,4,2V30a2,2,0,0,0,2,2H28a0.94,0.94,0,0,0,1-1,0.91,0.91,0,0,0-1-1H7V0H7Z" fill="#6fa6d4"/><rect x="13" y="6" width="12" height="4" fill="#fff"/><path d="M7,28H28a0,0,0,0,1,0,0v2a0,0,0,0,1,0,0H7a1,1,0,0,1-1-1v0a1,1,0,0,1,1-1Z" fill="#fff"/></svg>