<svg id="Layer_1" data-name="Layer 1" xmlns="http://www.w3.org/2000/svg" viewBox="0 0 32 32"><title>Action_CloseProject_large_7fef1558986444a3ab98c387d75b7346</title><rect x="2" y="5" width="26" height="20" fill="#fff"/><rect x="4" y="8" width="13" height="4" fill="#407fb9" opacity="0.5"/><polygon points="17 15 17 17 9 17 9 13 23 13 23 15 17 15" fill="#d65633" opacity="0.5"/><rect x="13" y="18" width="4" height="4" fill="#75ad15" opacity="0.5"/><rect x="19" y="17" width="12" height="9" fill="#fff"/><rect x="28" y="20" width="3" height="3" fill="#576672"/><rect x="25" y="23" width="3" height="3" fill="#576672"/><rect x="25" y="17" width="3" height="3" fill="#576672"/><rect x="22" y="20" width="3" height="3" fill="#576672"/><rect x="19" y="23" width="3" height="3" fill="#576672"/><rect x="19" y="17" width="3" height="3" fill="#576672"/><rect x="18" y="16" width="1" height="16" fill="#956939"/><rect x="17" y="31" width="3" height="1" rx="0.5" ry="0.5" fill="#956939"/><path d="M31,16H19v1H31v9H19v1H31a1,1,0,0,0,1-1V17A1,1,0,0,0,31,16Z" fill="#798288"/><path d="M2,5H28V15h2V4a1,1,0,0,0-1-1H1A1,1,0,0,0,0,4V26a1,1,0,0,0,1,1H17V25H2V5Z" fill="#9da2a5"/></svg>