<svg id="Layer_1" data-name="Layer 1" xmlns="http://www.w3.org/2000/svg" viewBox="0 0 16 16"><title>Action_ReopenProject_small_f6c3a2fd1c754fab85362b91de4e5ddf</title><rect x="1" y="2" width="14" height="11" fill="#fff"/><path d="M12.09,8.5l0.35-.35a0.5,0.5,0,0,1,.71,0l0.71,0.71a0.5,0.5,0,0,1,0,.71l-0.35.35Z" fill="#d7853c"/><polygon points="13.15 10.27 8.12 15.29 6 16 6.71 13.87 11.73 8.85 13.15 10.27" fill="#d7853c"/><path d="M15,1H1A1,1,0,0,0,0,2V13a1,1,0,0,0,1,1H5l1-1H1V2H15V13H13l-1,1h3a1,1,0,0,0,1-1V2A1,1,0,0,0,15,1Z" fill="#798288"/><rect x="2" y="3" width="7" height="2" fill="#407fb9" opacity="0.5"/><rect x="4" y="6" width="7" height="2" fill="#d65633" opacity="0.5"/><polygon points="8 11 7 11 7 9 10 9 8 11" fill="#75ad15" opacity="0.5"/></svg>