<svg id="Layer_1" data-name="Layer 1" xmlns="http://www.w3.org/2000/svg" viewBox="0 0 16 16"><title>Action_CloseProject_small_7fef1558986444a3ab98c387d75b7346</title><rect x="1" y="2" width="14" height="11" fill="#fff"/><rect x="2" y="3" width="7" height="2" fill="#407fb9" opacity="0.5"/><polygon points="11 7 7 7 7 8 4 8 4 6 11 6 11 7" fill="#d65633" opacity="0.5"/><rect x="6" y="9" width="1" height="2" fill="#75ad15" opacity="0.5"/><rect x="9" y="9" width="6" height="4" fill="#fff"/><rect x="13" y="9" width="2" height="2" fill="#576672"/><rect x="11" y="11" width="2" height="2" fill="#576672"/><rect x="9" y="9" width="2" height="2" fill="#576672"/><rect x="8" y="8" width="1" height="8" fill="#956939"/><path d="M15,8H9V9h6v4H9v1h6a1,1,0,0,0,1-1V9A1,1,0,0,0,15,8Z" fill="#798288"/><path d="M1,2H15V7h1V2a1,1,0,0,0-1-1H1A1,1,0,0,0,0,2V13a1,1,0,0,0,1,1H7V13H1V2Z" fill="#798288"/></svg>