<svg id="Layer_1" data-name="Layer 1" xmlns="http://www.w3.org/2000/svg" viewBox="0 0 32 32"><title>Action_CreateProjectDocument_large_69d1ae54fb4a45da9dc65ce0f33b350a</title><polygon points="26 29 7 29 7 4 22 4 26 8 26 29" fill="#fff"/><path d="M26,8H22V4M20,2V9a1,1,0,0,0,1,1h7Z" fill="#9da2a5"/><path d="M6,12a1.1,1.1,0,0,1-1-1V1A1.1,1.1,0,0,1,6,0,1.1,1.1,0,0,1,7,1V11A1.1,1.1,0,0,1,6,12Z" fill="#e0ad5c"/><path d="M11,7H1A1.1,1.1,0,0,1,0,6,1.1,1.1,0,0,1,1,5H11a1.1,1.1,0,0,1,1,1A1.1,1.1,0,0,1,11,7Z" fill="#e0ad5c"/><path d="M10.24,10.24a1.1,1.1,0,0,1-1.41,0L1.76,3.17a1.1,1.1,0,0,1,0-1.41,1.1,1.1,0,0,1,1.41,0l7.07,7.07A1.1,1.1,0,0,1,10.24,10.24Z" fill="#e0ad5c"/><path d="M10.24,3.17L3.17,10.24a1.1,1.1,0,0,1-1.41,0,1.1,1.1,0,0,1,0-1.41L8.83,1.76a1.1,1.1,0,0,1,1.41,0A1.1,1.1,0,0,1,10.24,3.17Z" fill="#e0ad5c"/><circle cx="6" cy="6" r="1.5" fill="#fff"/><rect x="13" y="17" width="18" height="14" fill="#fff"/><rect x="15" y="20" width="8" height="2" fill="#407fb9"/><rect x="18" y="23" width="8" height="2" fill="#d65633"/><rect x="21" y="26" width="8" height="2" fill="#75ad15"/><path d="M31,17V31H13V17H31m0-1H13a1,1,0,0,0-1,1V31a1,1,0,0,0,1,1H31a1,1,0,0,0,1-1V17a1,1,0,0,0-1-1h0Z" fill="#798288"/><polygon points="26 9 26 15 28 15 28 8.5 21.5 2 12 2 12 4 21 4 26 9" fill="#9da2a5"/><path d="M11,29H7V13H5V30a1,1,0,0,0,1,1h5V29Z" fill="#9da2a5"/></svg>