<svg id="Layer_1" data-name="Layer 1" xmlns="http://www.w3.org/2000/svg" viewBox="0 0 32 32"><title>Action_ReopenProject_large_f6c3a2fd1c754fab85362b91de4e5ddf</title><rect x="2" y="5" width="28" height="21" fill="#fff"/><rect x="4" y="8" width="13" height="4" fill="#407fb9" opacity="0.5"/><polygon points="20 17 9 17 9 13 23 13 23 14 20 17" fill="#d65633" opacity="0.5"/><polygon points="15 22 13 22 13 18 19 18 15 22" fill="#75ad15" opacity="0.5"/><path d="M27.67,17l0,0L26,15.36l-0.06,0h0a1.18,1.18,0,0,0-.76-0.3,1.24,1.24,0,0,0-.82.36L12.82,26.88,12,31l4.12-.82L27.65,18.65A1.15,1.15,0,0,0,27.67,17Z" fill="#d7853c"/><line x1="26.49" y1="19.94" x2="23.53" y2="17" fill="none"/><path d="M26.54,20.36a0.43,0.43,0,0,1-.3-0.13l-3.45-3.42a0.43,0.43,0,1,1,.61-0.61l3.45,3.41A0.43,0.43,0,0,1,26.54,20.36Z" fill="#fff"/><path d="M31,3H1A1,1,0,0,0,0,4V27a1,1,0,0,0,1,1H9l2-2H2V5H30V26H23l-2,2H31a1,1,0,0,0,1-1V4A1,1,0,0,0,31,3Z" fill="#9da2a5"/></svg>