<svg id="Layer_1" data-name="Layer 1" xmlns="http://www.w3.org/2000/svg" viewBox="0 0 32 32"><title>Action_ShowFolder_large_12e86bdca66d4255937a2a315d1ba6a3</title><polygon points="30 27 2 27 2 3 14 3 19 7 30 7 30 27" fill="#fff"/><rect x="1" y="9" width="30" height="2" fill="#9da2a5"/><rect x="9" y="17" width="18" height="14" fill="#fff"/><rect x="11" y="20" width="8" height="2" fill="#407fb9"/><rect x="14" y="23" width="8" height="2" fill="#d65633"/><rect x="17" y="26" width="8" height="2" fill="#75ad15"/><path d="M27,17V31H9V17H27m0-1H9a1,1,0,0,0-1,1V31a1,1,0,0,0,1,1H27a1,1,0,0,0,1-1V17a1,1,0,0,0-1-1h0Z" fill="#798288"/><path d="M30,5H18L14,1H2A2,2,0,0,0,0,3V27a2,2,0,0,0,2,2H7V27H2V3H13.17l3.41,3.41A2,2,0,0,0,18,7H30V27H29v2h1a2,2,0,0,0,2-2V7A2,2,0,0,0,30,5Z" fill="#9da2a5"/></svg>