<svg id="Layer_1" data-name="Layer 1" xmlns="http://www.w3.org/2000/svg" viewBox="0 0 16 16"><title>Showfolder</title><polygon points="15 13 1 13 1 1 7 1 9 3 15 3 15 13" fill="#fff"/><rect x="1" y="4" width="15" height="1" fill="#798288"/><path d="M15,2H9L7,0H1A1,1,0,0,0,0,1V13a1,1,0,0,0,1,1H4V13H1V1H6.59L8.29,2.71A1,1,0,0,0,9,3h6V6h1V3A1,1,0,0,0,15,2Z" fill="#798288"/><path d="M15,8v7H6V8h9m0-1H6A1,1,0,0,0,5,8v7a1,1,0,0,0,1,1h9a1,1,0,0,0,1-1V8a1,1,0,0,0-1-1h0Z" fill="#798288"/><rect x="6" y="8" width="9" height="7" fill="#fff"/><rect x="7" y="9" width="5" height="1" fill="#407fb9"/><rect x="8" y="11" width="5" height="1" fill="#d65633"/><rect x="9" y="13" width="5" height="1" fill="#75ad15"/></svg>