<svg id="Layer_1" data-name="Layer 1" xmlns="http://www.w3.org/2000/svg" viewBox="0 0 32 32"><title>accountingdocumentbase_32</title><polygon points="8 4 8 21 30 21 30 8 26 4 8 4" fill="#fff"/><path d="M30,8H26V4M24,2V9a1,1,0,0,0,1,1h7Z" fill="#9da2a5"/><polygon points="2 9 2 26 24 26 24 13 20 9 2 9" fill="#fff"/><path d="M19,9l5,5V26H2V9H19m0.5-2H1A1,1,0,0,0,0,8V27a1,1,0,0,0,1,1H25a1,1,0,0,0,1-1V13.5Z" fill="#9da2a5"/><path d="M24,13H20V9M18,7v7a1,1,0,0,0,1,1h7Z" fill="#9da2a5"/><rect x="4" y="12" width="9" height="2" transform="translate(17 26) rotate(-180)" fill="#adb1b2"/><rect x="5" y="17" width="17" height="2" transform="translate(27 36) rotate(-180)" fill="#adb1b2"/><rect x="5" y="21" width="17" height="2" transform="translate(27 44) rotate(-180)" fill="#adb1b2"/><rect x="4" y="17" width="2" height="6" fill="#adb1b2"/><rect x="9" y="17" width="2" height="6" fill="#adb1b2"/><rect x="20" y="17" width="2" height="6" fill="#adb1b2"/><rect x="15" y="17" width="2" height="6" fill="#adb1b2"/><path d="M25.5,2H7A1,1,0,0,0,6,3V6H8V4H25l5,5V21H27v2h4a1,1,0,0,0,1-1V8.5Z" fill="#9da2a5"/></svg>