<svg id="Layer_1" data-name="Layer 1" xmlns="http://www.w3.org/2000/svg" viewBox="0 0 16 16"><title>accountingdocumentbase</title><polygon points="15 10 4 10 4 2 13.5 2 15 3.5 15 10" fill="#fff"/><polygon points="12 13 1 13 1 5 10.5 5 12 6.5 12 13" fill="#fff"/><path d="M10.4,4H1A1,1,0,0,0,0,5v8a1,1,0,0,0,1,1H12a1,1,0,0,0,1-1V6.6ZM12,13H1V5H9V7a1,1,0,0,0,1,1h2v5ZM10,7V5l2,2H10Z" fill="#798288"/><rect x="3" y="7" width="5" height="1" fill="#adb1b2"/><path d="M3,9v3h7V9H3Zm1,2V10H6v1H4Zm5,0H7V10H9v1Z" fill="#adb1b2"/><path d="M13.4,1H4A1,1,0,0,0,3,2V3H4V2h8V4a1,1,0,0,0,1,1h2v5H14v1h1a1,1,0,0,0,1-1V3.6ZM13,4V2l2,2H13Z" fill="#798288"/></svg>