<svg id="Layer_1" data-name="Layer 1" xmlns="http://www.w3.org/2000/svg" viewBox="0 0 32 32"><title>Action_FillBuyerInfo_large_ebccdc8b85d949d28731edbbd5d28869</title><polygon points="2 6 2 26 29 26 29 10 25 6 2 6" fill="#fff"/><path d="M29,10H25V6M23,4v7a1,1,0,0,0,1,1h7Z" fill="#9da2a5"/><rect x="5" y="11" width="10" height="2" transform="translate(20 24) rotate(-180)" fill="#adb1b2"/><polygon points="5 17 22 17 24 15 5 15 5 17" fill="#adb1b2"/><polygon points="5 21 18 21 20 19 5 19 5 21" fill="#adb1b2"/><path d="M14.8,26.53L14,30l3.31-1L27.8,18.52a0.91,0.91,0,0,0,0-1.29c-1.91-1.91-1.12-1-1.22-1.15a0.89,0.89,0,0,0-1.29,0Z" fill="#576672"/><path d="M23.88,23.5a0.5,0.5,0,0,1-.35-0.15l-3-3a0.5,0.5,0,0,1,.71-0.71l3,3A0.5,0.5,0,0,1,23.88,23.5Z" fill="#fff"/><path d="M23.49,26a0.35,0.35,0,0,1-.25-0.6l3.95-3.95c0.05-.06.35-0.48-0.26-1.12a7.56,7.56,0,0,1-.72-0.69,0.35,0.35,0,0,1,.51-0.48,7.64,7.64,0,0,0,.66.64,1.5,1.5,0,0,1,.31,2.13l-4,4A0.35,0.35,0,0,1,23.49,26Z" fill="#576672"/><path d="M24.5,4H1A1,1,0,0,0,0,5V27a1,1,0,0,0,1,1H13V26H2V6H24l5,5V26H25l-2,2h7a1,1,0,0,0,1-1V10.5Z" fill="#9da2a5"/></svg>