<svg id="Layer_1" data-name="Layer 1" xmlns="http://www.w3.org/2000/svg" viewBox="0 0 16 16"><title>Action_FillBuyerInfo_small_ebccdc8b85d949d28731edbbd5d28869</title><polygon points="15 13 1 13 1 3 13.5 3 15 4.5 15 13" fill="#fff"/><path d="M13,3l2,2H13V3M12,2V5a1,1,0,0,0,1,1h3V4.6L13.4,2H12Z" fill="#798288"/><rect x="3" y="5" width="4" height="1" fill="#adb1b2"/><polygon points="9 8 3 8 3 7 10 7 9 8" fill="#adb1b2"/><polygon points="7 10 3 10 3 9 8 9 7 10" fill="#adb1b2"/><path d="M5.39,13.1L4.94,15l1.88-.52,6-5.94a0.51,0.51,0,0,0,0-.73c-1.08-1.08-.64-0.59-0.69-0.65a0.51,0.51,0,0,0-.73,0Z" fill="#576672"/><path d="M11.06,10.36L9.69,9c-0.13-.13-0.3-0.26-0.17-0.39s0.22-.07.36,0.07L11.25,10l0,0Z" fill="#fff"/><path d="M10.29,13a0.35,0.35,0,0,1-.25-0.6l2.15-2.15a0.45,0.45,0,0,0,0-.61,3.93,3.93,0,0,1-.41-0.39,0.35,0.35,0,0,1,.51-0.48,4.26,4.26,0,0,0,.35.34,1.16,1.16,0,0,1,.07,1.61l-2.17,2.17A0.35,0.35,0,0,1,10.29,13Z" fill="#576672"/><path d="M4,13H1V3H12.94V2H1A1,1,0,0,0,0,3V13a1,1,0,0,0,1,1H4V13Z" fill="#798288"/><path d="M15,5v8H12l-1,1h4a1,1,0,0,0,1-1V5H15Z" fill="#798288"/></svg>