<svg id="Layer_1" data-name="Layer 1" xmlns="http://www.w3.org/2000/svg" viewBox="0 0 32 32"><title>Action_WriteLetter_large_59f0a447fd0d4647b0f476a35d2a5b0f</title><rect x="2" y="5" width="28" height="21" fill="#fff"/><path d="M30,5V26H2V5H30m1-2H1A1,1,0,0,0,0,4V27a1,1,0,0,0,1,1H31a1,1,0,0,0,1-1V4a1,1,0,0,0-1-1h0Z" fill="#9da2a5"/><path d="M16,18c-1.94,0-3.21-.57-5.27-1.7C7.41,14.48.51,7.41,0.21,7.09A0.8,0.8,0,0,1,.26,6,1.81,1.81,0,0,1,2,6c0.07,0.08,6.57,6.61,9.54,8.5,3.2,2,5.88,2,8.83,0S29.93,6.11,30,6a1.58,1.58,0,0,1,1.65.08,0.8,0.8,0,0,1,0,1.13c-0.3.32-7.3,7.15-10.56,9C19.16,17.43,18,18,16,18Z" fill="#9da2a5"/><path d="M2,27a1,1,0,0,1-.71-1.71l10-10a1,1,0,0,1,1.41,1.41l-10,10A1,1,0,0,1,2,27Z" fill="#9da2a5"/><path d="M30,27a1,1,0,0,1-.71-0.29l-10-10a1,1,0,0,1,1.41-1.41l10,10A1,1,0,0,1,30,27Z" fill="#9da2a5"/></svg>