<svg id="Layer_1" data-name="Layer 1" xmlns="http://www.w3.org/2000/svg" viewBox="0 0 16 16"><title>Request_a_report_16</title><rect x="2" y="4" width="11" height="11" fill="#fff"/><path d="M4,15H2V4H13V6h1V1a1,1,0,0,0-1-1H12V1H11V0H4V1H3V0H2A1,1,0,0,0,1,1V15a1,1,0,0,0,1,1H4V15Z" fill="#798288"/><path d="M15,8v7H6V8h9m0-1H6A1,1,0,0,0,5,8v7a1,1,0,0,0,1,1h9a1,1,0,0,0,1-1V8a1,1,0,0,0-1-1h0Z" fill="#798288"/><rect x="6" y="8" width="9" height="7" fill="#fff"/><rect x="8" y="11" width="1" height="3" fill="#6fa6d4"/><rect x="10" y="9" width="1" height="5" fill="#d7853c"/><rect x="12" y="11" width="1" height="3" fill="#75ad15"/></svg>