<svg id="Layer_1" data-name="Layer 1" xmlns="http://www.w3.org/2000/svg" viewBox="0 0 32 32"><title>statusreportrequesttask_32</title><rect x="5" y="2" width="22" height="27" fill="#fff"/><rect x="23" width="2" height="4" rx="1" ry="1" fill="#9da2a5"/><rect x="7" width="2" height="4" rx="1" ry="1" fill="#9da2a5"/><path d="M12,29H5V7H27v8h2V2a1,1,0,0,0-1-1H26V3a2,2,0,0,1-4,0V1H10V3A2,2,0,0,1,6,3V1H4A1,1,0,0,0,3,2V30a1,1,0,0,0,1,1h8V29Z" fill="#9da2a5"/><rect x="14" y="17" width="17" height="14" fill="#fff"/><path d="M31,17V31H14V17H31m0-1H14a1,1,0,0,0-1,1V31a1,1,0,0,0,1,1H31a1,1,0,0,0,1-1V17a1,1,0,0,0-1-1h0Z" fill="#798288"/><rect x="17" y="22" width="3" height="7" fill="#6fa6d4"/><rect x="21" y="19" width="3" height="10" fill="#f39500"/><rect x="25" y="21" width="3" height="8" fill="#75ad15"/></svg>