<svg id="Layer_1" data-name="Layer 1" xmlns="http://www.w3.org/2000/svg" viewBox="0 0 32 32"><title>Action_CreateCoverLetter_large_fbd8dcdc155f4509b0d00623119ff53e</title><rect x="4" y="6" width="26" height="21" fill="#fff"/><path d="M13.1,15.67a0.87,0.87,0,0,1-.07-0.1L4.31,24.29a1,1,0,1,0,1.41,1.41l9-9A5.15,5.15,0,0,1,13.1,15.67Z" fill="#dfab26"/><path d="M20.92,15.67a0.87,0.87,0,0,0,.07-0.1l8.72,8.72a1,1,0,1,1-1.41,1.41l-9-9A5.15,5.15,0,0,0,20.92,15.67Z" fill="#dfab26"/><path d="M6,12a1.1,1.1,0,0,1-1-1V1A1.1,1.1,0,0,1,6,0,1.1,1.1,0,0,1,7,1V11A1.1,1.1,0,0,1,6,12Z" fill="#e0ad5c"/><path d="M11,7H1A1.1,1.1,0,0,1,0,6,1.1,1.1,0,0,1,1,5H11a1.1,1.1,0,0,1,1,1A1.1,1.1,0,0,1,11,7Z" fill="#e0ad5c"/><path d="M10.24,10.24a1.1,1.1,0,0,1-1.41,0L1.76,3.17a1.1,1.1,0,0,1,0-1.41,1.1,1.1,0,0,1,1.41,0l7.07,7.07A1.1,1.1,0,0,1,10.24,10.24Z" fill="#e0ad5c"/><path d="M10.24,3.17L3.17,10.24a1.1,1.1,0,0,1-1.41,0,1.1,1.1,0,0,1,0-1.41L8.83,1.76a1.1,1.1,0,0,1,1.41,0A1.1,1.1,0,0,1,10.24,3.17Z" fill="#e0ad5c"/><circle cx="6" cy="6" r="1.5" fill="#fff"/><path d="M31,4H12.92A7,7,0,0,1,13,5a7,7,0,0,1-.08,1H30V26H4V12a7,7,0,0,1-2-1V27a1,1,0,0,0,1,1H31a1,1,0,0,0,1-1V5A1,1,0,0,0,31,4Z" fill="#dfab26"/><path d="M31.75,7.17a1.58,1.58,0,0,0-1.65-.08c-0.07.08-5.41,5.51-8.36,7.47s-5.2,2.06-8.39,0A37.44,37.44,0,0,1,10,12.09a6.48,6.48,0,0,1-2,1.07,32.58,32.58,0,0,0,4.42,3.22c2.07,1.13,3,1.62,5.11,1.62s2.89-.53,4.86-1.67c3.26-1.89,9-7.72,9.33-8A0.8,0.8,0,0,0,31.75,7.17Z" fill="#dfab26"/></svg>