<svg id="Layer_1" data-name="Layer 1" xmlns="http://www.w3.org/2000/svg" viewBox="0 0 32 32"><title>department_32</title><path d="M23.75,14.52c0.12-1.73-4-8.3-7.75-8.52V20h4c3,0,5,3.54,5,3.54S23.55,17.43,23.75,14.52Z" fill="#fff"/><path d="M20,11.64a3.42,3.42,0,0,1,2.56.81c0.52,0.56.23,1.38,0.19,2a34.77,34.77,0,0,0,1,7.93,37.49,37.49,0,0,1-3.78.24v1.28a43.52,43.52,0,0,0,5.68-.42s-1.77-6.33-1.32-10.25c0.12-1.73-.52-2.84-4.36-2.84v1.28Z" fill="#8d9599"/><path d="M32,24H18a9.69,9.69,0,0,0,1.16-4c3.2,0,5.27-3,5.27-3l6.3,2.6A2.75,2.75,0,0,1,32,21.52V24Z" fill="#6fa6d4"/><path d="M19.74,0.88A4.82,4.82,0,0,0,14.87,5.6V6.1c0,6.15,5.1,8.29,5.12,10.15a3.25,3.25,0,0,0,2.63-1S25,14.21,25.11,5.57C25.13,3.79,23.86.76,19.74,0.88Z" fill="#fff"/><path d="M25.45,3.79A5.43,5.43,0,0,0,20,0a5.33,5.33,0,0,0-3.63,1.1,5,5,0,0,0-2,4c0,0.31,0,.91,0,1.24a5,5,0,0,1,1.6.51c0-.31,0-1.09,0-1.36a3.82,3.82,0,0,1,2.24-.69c1.23-.07,3.82.48,5.76-0.16,0,0.17,0,.33,0,0.47,0.33,6-.3,9.1-4,9.29H19.93q-0.05.84-.13,1.59H20c4.22,0,5.51-2.23,5.62-10.87C25.6,4.75,25.43,3.81,25.45,3.79Z" fill="#8d9599"/><path d="M8.19,22.48A35.25,35.25,0,0,1,7,31.42a31.38,31.38,0,0,0,10,.13s-1.46-6.11-1.27-9c0.12-1.78.06-4.05-4.06-4.16C7.94,18.26,8.19,22.48,8.19,22.48Z" fill="#fff"/><path d="M12,19.63a3.45,3.45,0,0,1,2.6.81c0.52,0.56.23,1.38,0.19,2a34.77,34.77,0,0,0,1,7.93,36.1,36.1,0,0,1-4.16.25,30.65,30.65,0,0,1-3.5.06,34.09,34.09,0,0,0,.95-8,1.3,1.3,0,0,0,0-.14,2.58,2.58,0,0,1,.22-2,3.14,3.14,0,0,1,2.45-.89H12m0-1.28H11.69c-4.77.13-4.06,2.84-4.06,2.84,0.27,2.65-.81,8.62-1.31,10.25a30.38,30.38,0,0,0,5.31.43,43.08,43.08,0,0,0,6.06-.43s-1.77-6.33-1.32-10.25c0.12-1.74-.52-2.85-4.4-2.85h0Z" fill="#8d9599"/><path d="M6.87,13.6C7,17.07,7,20.28,8.86,23c3.21,2.67,5.77.28,5.77,0.28s2.37-1.07,2.47-9.71c0-1.78-1.24-4.81-5.37-4.69A4.82,4.82,0,0,0,6.87,13.6Z" fill="#fff"/><path d="M17.45,11.79A5.35,5.35,0,0,0,12,8,5.33,5.33,0,0,0,8.37,9.1a5,5,0,0,0-2,4C6.43,17.6,6.13,24,12,24c4.22,0,5.51-2.23,5.62-10.87C17.6,12.75,17.43,11.81,17.45,11.79ZM12,22.4c-4.62,0-3.94-6-4-8.91a3.82,3.82,0,0,1,2.24-.69c1.23-.07,3.82.48,5.76-0.16,0,0.17,0,.33,0,0.47C16.33,19.07,15.7,22.22,12,22.4Z" fill="#8d9599"/><path d="M24,32H0V29.52A2.27,2.27,0,0,1,1.26,27.6l6.2-2.49a5.41,5.41,0,0,0,4.57,3A5,5,0,0,0,16.44,25l6.3,2.6A2.75,2.75,0,0,1,24,29.52V32Z" fill="#6fa6d4"/></svg>