<svg id="Layer_1" data-name="Layer 1" xmlns="http://www.w3.org/2000/svg" viewBox="0 0 16 16"><title>documentregister_16</title><rect x="3" width="1" height="15" fill="#fff"/><path d="M14.5,0H2.5A0.5,0.5,0,0,0,2,.5v15a0.5,0.5,0,0,0,.5.5h12a0.5,0.5,0,0,0,.5-0.5V0.5A0.5,0.5,0,0,0,14.5,0h0Z" fill="#d4a354"/><rect x="6" y="3" width="7" height="3" fill="#fff"/><rect x="3" y="1" width="1" height="14" rx="0.5" ry="0.5" fill="#fff"/><rect x="2" y="10" width="1" height="3" rx="0.5" ry="0.5" transform="translate(-9 14) rotate(-90)" fill="#576672"/><rect x="2" y="8" width="1" height="3" rx="0.5" ry="0.5" transform="translate(-7 12) rotate(-90)" fill="#576672"/><rect x="2" y="6" width="1" height="3" rx="0.5" ry="0.5" transform="translate(-5 10) rotate(-90)" fill="#576672"/><rect x="2" y="4" width="1" height="3" rx="0.5" ry="0.5" transform="translate(-3 8) rotate(-90)" fill="#576672"/><rect x="2" y="2" width="1" height="3" rx="0.5" ry="0.5" transform="translate(-1 6) rotate(-90)" fill="#576672"/><rect x="2" width="1" height="3" rx="0.5" ry="0.5" transform="translate(1 4) rotate(-90)" fill="#576672"/><rect x="2" y="12" width="1" height="3" rx="0.5" ry="0.5" transform="translate(-11 16) rotate(-90)" fill="#576672"/></svg>