<svg id="Layer_1" data-name="Layer 1" xmlns="http://www.w3.org/2000/svg" viewBox="0 0 32 32"><title>documentregister_32</title><rect x="6" width="2" height="30" fill="#fff"/><path d="M29,0H6A1,1,0,0,0,5,1V30a1,1,0,0,0,1,1H29a1,1,0,0,0,1-1V1a1,1,0,0,0-1-1h0Z" fill="#e0ad5c"/><rect x="12" y="6" width="14" height="7" fill="#fff"/><rect x="6" y="2" width="2" height="26" rx="0.5" ry="0.5" fill="#fff"/><rect x="5" y="16" width="2" height="4" rx="0.5" ry="0.5" transform="translate(-12 24) rotate(-90)" fill="#6a737a"/><rect x="5" y="13" width="2" height="4" rx="0.5" ry="0.5" transform="translate(-9 21) rotate(-90)" fill="#6a737a"/><rect x="5" y="10" width="2" height="4" rx="0.5" ry="0.5" transform="translate(-6 18) rotate(-90)" fill="#6a737a"/><rect x="5" y="7" width="2" height="4" rx="0.5" ry="0.5" transform="translate(-3 15) rotate(-90)" fill="#6a737a"/><rect x="5" y="4" width="2" height="4" rx="0.5" ry="0.5" transform="translate(0 12) rotate(-90)" fill="#6a737a"/><rect x="5" y="1" width="2" height="4" rx="0.5" ry="0.5" transform="translate(3 9) rotate(-90)" fill="#6a737a"/><rect x="5" y="19" width="2" height="4" rx="0.5" ry="0.5" transform="translate(-15 27) rotate(-90)" fill="#6a737a"/><rect x="5" y="25" width="2" height="4" rx="0.5" ry="0.5" transform="translate(-21 33) rotate(-90)" fill="#6a737a"/><rect x="5" y="22" width="2" height="4" rx="0.5" ry="0.5" transform="translate(-18 30) rotate(-90)" fill="#6a737a"/></svg>