<svg id="Layer_1" data-name="Layer 1" xmlns="http://www.w3.org/2000/svg" viewBox="0 0 32 32"><title>Approvaltask_32</title><rect x="5" y="2" width="22" height="27" fill="#fff"/><rect x="23" width="2" height="4" rx="1" ry="1" fill="#9da2a5"/><rect x="7" width="2" height="4" rx="1" ry="1" fill="#9da2a5"/><polygon points="29 32 26.5 29.5 24 32 24 25 29 25 29 32" fill="#407fb9"/><circle cx="26.5" cy="21.5" r="5.5" fill="#d65633"/><path d="M23,29H5V7H27v7.53A7,7,0,0,1,29,15V2a1,1,0,0,0-1-1H26V3a2,2,0,0,1-4,0V1H10V3A2,2,0,0,1,6,3V1H4A1,1,0,0,0,3,2V30a1,1,0,0,0,1,1H23V29Z" fill="#9da2a5"/></svg>