<svg id="Layer_1" data-name="Layer 1" xmlns="http://www.w3.org/2000/svg" viewBox="0 0 32 32"><title>Action_CreateChildActionItem_large_331ce81d0e6d465e9228bab46e3bbbbe</title><rect x="5" y="2" width="22" height="27" fill="#fff"/><rect x="23" width="2" height="4" rx="1" ry="1" fill="#9da2a5"/><rect x="7" width="2" height="4" rx="1" ry="1" fill="#9da2a5"/><path d="M5,29V7H27V24l2,1V2a1,1,0,0,0-1-1H26V3a2,2,0,0,1-4,0V1H10V3A2,2,0,0,1,6,3V1H4A1,1,0,0,0,3,2V30a1,1,0,0,0,1,1h6V29H5Z" fill="#9da2a5"/><path d="M17.48,23a28.09,28.09,0,0,1-.92,7.1,22.43,22.43,0,0,0,7.75,0A36.93,36.93,0,0,1,23.42,23c0.09-1.39.09-3.23-3.17-3.24C17.31,19.78,17.48,23,17.48,23Z" fill="#fff"/><path d="M20.47,20.78a2.76,2.76,0,0,1,2.06.63A2.06,2.06,0,0,1,23,23a26.82,26.82,0,0,0,.81,6.2,35.11,35.11,0,0,1-3.57.19,25.47,25.47,0,0,1-3-.16A26.3,26.3,0,0,0,18,22.95a1,1,0,0,0,0-.11,2,2,0,0,1,.35-1.36,2.51,2.51,0,0,1,1.94-.7h0.19m0-1H20.25C16.48,19.88,17,22,17,22a30.94,30.94,0,0,1-1,8,24.36,24.36,0,0,0,4.2.33A34.55,34.55,0,0,0,25,30s-1.4-4.95-1-8c0.09-1.36-.41-2.22-3.49-2.22h0Z" fill="#8d9599"/><path d="M16.44,16.06c0.08,2.71.07,5.22,1.57,7.35a3.41,3.41,0,0,0,4.57.22s1.88-.83,2-7.58c0-1.39-1-3.76-4.25-3.67A3.79,3.79,0,0,0,16.44,16.06Z" fill="#fff"/><path d="M20.66,13.1a3.31,3.31,0,0,1,2.45.94A3,3,0,0,1,24,16c-0.07,5.5-1.39,7-1.57,7.19a0.32,0.32,0,0,0-.07.06,3.36,3.36,0,0,1-1.93.69,2.74,2.74,0,0,1-1.74-.65c-1.49-1.7-1.62-5-1.69-7.18a3.79,3.79,0,0,1,3.52-3h0.14m0-1H20.5c-3.78.1-4.38,2.39-4.43,3.88-0.09,2.7.18,6.1,1.93,8a3.76,3.76,0,0,0,2.43.93A4.37,4.37,0,0,0,23,24s1.92-1.25,2-8a4.12,4.12,0,0,0-4.34-3.9h0Z" fill="#8d9599"/><path d="M16.07,16a13.81,13.81,0,0,0,.12,3.08c0.58-1.94,1.45-3,2.92-3,1.25-.07,4.2.61,5.71-1.06a4.23,4.23,0,0,0-4.32-3A4.29,4.29,0,0,0,16.07,16Z" fill="#8d9599"/><path d="M30,32H11V28.5A1.77,1.77,0,0,1,12,27l4.93-2.07S18,28,20.5,28,24,25,24,25l5,2a2.15,2.15,0,0,1,1,1.5V32Z" fill="#6fa6d4"/></svg>