<svg id="Layer_1" data-name="Layer 1" xmlns="http://www.w3.org/2000/svg" viewBox="0 0 16 16"><title>Action_CreateChildActionItem_small_331ce81d0e6d465e9228bab46e3bbbbe</title><polygon points="13 10 9.5 15 2 15 2 4 13 4 13 10" fill="#fff"/><path d="M2,4H13V5h1V1a1,1,0,0,0-1-1H12V1H11V0H4V1H3V0H2A1,1,0,0,0,1,1V15a1,1,0,0,0,1,1H6V15H2V4Z" fill="#798288"/><path d="M9.84,11.74a12.8,12.8,0,0,1-.47,3.32,15,15,0,0,0,4.26,0,15.22,15.22,0,0,1-.5-3.31c0-.66-0.21-1.58-1.75-1.53A1.34,1.34,0,0,0,9.84,11.74Z" fill="#fff"/><path d="M11.48,10.68c0.46,0,.61.87,0.6,1.09a16.07,16.07,0,0,0,.42,2.93c-0.4,0-.33.79-1,0.79-0.5,0-.66-0.79-1.09-0.84a12.7,12.7,0,0,0,.39-3c0.2,0,.16-1,0.6-1h0.09m0-.47h-0.1c-1.79,0-1.44.6-1.44,0.6a14.65,14.65,0,0,1-.49,3.79,13,13,0,0,0,1.91.61,15.17,15.17,0,0,0,2.21-.16,12.8,12.8,0,0,1-.5-3.79c0-.64-0.14-1.06-1.59-1.06h0Z" fill="#8d9599"/><path d="M9.58,8.45a5.15,5.15,0,0,0,.73,3.31,1.61,1.61,0,0,0,2.14.13s0.83-.5,1-3.45a1.76,1.76,0,0,0-2-1.74A1.79,1.79,0,0,0,9.58,8.45Z" fill="#fff"/><path d="M11.59,6H11.5C9.66,6.11,9.06,7.19,9,7.93,9,8,9,8.06,9,8.12,9,10.45,9.41,13,11.5,13S14,10.6,14,7.94C14,7.13,13.34,6,11.59,6Zm0,6c-0.34,0-1.65.12-1.58-3.4A1.2,1.2,0,0,1,11,8a7.34,7.34,0,0,0,2,0C13.08,9.34,13.12,12.14,11.57,12Z" fill="#8d9599"/><path d="M16,16H7V14.5a0.84,0.84,0,0,1,.47-0.71L9.8,13s0.51,2,1.7,2,1.62-2.09,1.62-2.09l2.41,0.88a1,1,0,0,1,.47.71V16Z" fill="#6fa6d4"/></svg>