<svg id="Layer_1" data-name="Layer 1" xmlns="http://www.w3.org/2000/svg" viewBox="0 0 16 16"><title>instruction_print_small</title><rect x="2" y="4" width="11" height="11" fill="#fff"/><rect x="8" y="7" width="6" height="5" fill="#fff"/><path d="M13,8v3H9V8h4m1-1H8v5h6V7Z" fill="#798288"/><path d="M6.5,9h9a.5.5,0,0,1,.5.5V14a0,0,0,0,1,0,0H6a0,0,0,0,1,0,0V9.5A.5.5,0,0,1,6.5,9Z" fill="#fff"/><path d="M15,10v3H7V10h8m.5-1h-9a.5.5,0,0,0-.5.5V14H16V9.5a.5.5,0,0,0-.5-.5Z" fill="#576672"/><rect x="8" y="11" width="6" height="5" fill="#fff"/><path d="M13,12v3H9V12h4m1-1H8v5h6V11Z" fill="#798288"/><rect x="10" y="13" width="2" height="1" fill="#adb1b2"/><polygon points="14 10 8 10 7 10 7 11 7 13 8 13 8 12 14 12 14 13 15 13 15 11 15 10 14 10" fill="#fff"/><rect x="8" y="11" width="6" height="1" fill="#6fa6d4"/><path d="M13,0H12V1H11V0H4V1H3V0H2A1,1,0,0,0,1,1V15a1,1,0,0,0,1,1H7V15H2V4H13V6h1V1A1,1,0,0,0,13,0Z" fill="#798288"/></svg>