<svg id="Layer_1" data-name="Layer 1" xmlns="http://www.w3.org/2000/svg" viewBox="0 0 32 32"><title>instruction_print_large</title><rect x="5" y="2" width="22" height="27" fill="#fff"/><rect x="23" width="2" height="4" rx="1" ry="1" fill="#9da2a5"/><rect x="7" width="2" height="4" rx="1" ry="1" fill="#9da2a5"/><path d="M17,29H5V7H27v8h2V2a1,1,0,0,0-1-1H26V3a2,2,0,0,1-4,0V1H10V3A2,2,0,0,1,6,3V1H4A1,1,0,0,0,3,2V30a1,1,0,0,0,1,1H17Z" fill="#9da2a5"/><rect x="19" y="17" width="9" height="7" fill="#fff"/><rect x="15" y="21" width="17" height="6" fill="#fff"/><rect x="17" y="22" width="1" height="1" fill="#75ad15"/><path d="M28.5,16h-10a.5.5,0,0,0-.5.5V19h1V17h9v2h1V16.5A.5.5,0,0,0,28.5,16Z" fill="#798288"/><rect x="19" y="24" width="9" height="7" fill="#fff"/><rect x="20" y="27" width="7" height="1" fill="#798288"/><rect x="20" y="29" width="7" height="1" fill="#798288"/><rect x="17" y="24" width="13" height="1" fill="#6fa6d4"/><path d="M28,31H19V25H18v6.5a.5.5,0,0,0,.5.5h10a.5.5,0,0,0,.5-.5V25H28Z" fill="#798288"/><path d="M31,20H16a1,1,0,0,0-1,1v6a1,1,0,0,0,1,1h1V27H16V21H31v6H30v1h1a1,1,0,0,0,1-1V21A1,1,0,0,0,31,20Z" fill="#576672"/></svg>