<svg id="Layer_1" data-name="Layer 1" xmlns="http://www.w3.org/2000/svg" viewBox="0 0 32 32"><title>Outbox_large</title><polygon points="26 22 26 26 2 26 2 5 30 5 30 22 26 22" fill="#fff"/><path d="M16,18c-1.94,0-3.21-.57-5.27-1.7C7.41,14.48.51,7.41,0.21,7.09A0.8,0.8,0,0,1,.26,6,1.81,1.81,0,0,1,2,6c0.07,0.08,6.57,6.61,9.54,8.5,3.2,2,5.88,2,8.83,0S29.93,6.11,30,6a1.58,1.58,0,0,1,1.65.08,0.8,0.8,0,0,1,0,1.13c-0.3.32-7.3,7.15-10.56,9C19.16,17.43,18,18,16,18Z" fill="#dfab26"/><path d="M2,27a1,1,0,0,1-.71-1.71l10-10a1,1,0,0,1,1.41,1.41l-10,10A1,1,0,0,1,2,27Z" fill="#dfab26"/><polygon points="29 23 29 31 23 31 23 23 20 23 26 17 32 23 29 23" fill="#407fb9"/><path d="M31,3H1A1,1,0,0,0,0,4V27a1,1,0,0,0,1,1H22V26H2V5H30V18l2,2V4A1,1,0,0,0,31,3Z" fill="#dfab26"/><path d="M21.79,19.21l1.41-1.41-2.5-2.5a1,1,0,0,0-1.41,1.41Z" fill="#dfab26"/></svg>