<svg id="Layer_1" data-name="Layer 1" xmlns="http://www.w3.org/2000/svg" viewBox="0 0 16 16"><title>Company_d534e107a54d48ec85ffbc44d731a82f</title><path d="M14.5,8H10V0.5A0.5,0.5,0,0,0,9.5,0h-8A0.5,0.5,0,0,0,1,.5v15a0.5,0.5,0,0,0,.5.5H4V14H5v2h9.5a0.5,0.5,0,0,0,.5-0.5v-7A0.5,0.5,0,0,0,14.5,8Z" fill="#9da2a5"/><rect x="3" y="2" width="1" height="1" fill="#fff"/><rect x="5" y="2" width="1" height="1" fill="#fff"/><rect x="7" y="2" width="1" height="1" fill="#fff"/><rect x="3" y="4" width="1" height="1" fill="#fff"/><rect x="5" y="4" width="1" height="1" fill="#fff"/><rect x="7" y="4" width="1" height="1" fill="#fff"/><rect x="3" y="6" width="1" height="1" fill="#fff"/><rect x="5" y="6" width="1" height="1" fill="#fff"/><rect x="7" y="6" width="1" height="1" fill="#fff"/><rect x="3" y="8" width="1" height="1" fill="#fff"/><rect x="5" y="8" width="1" height="1" fill="#fff"/><rect x="7" y="8" width="1" height="1" fill="#fff"/><rect x="3" y="10" width="1" height="1" fill="#fff"/><rect x="5" y="10" width="1" height="1" fill="#fff"/><rect x="7" y="10" width="1" height="1" fill="#fff"/><rect x="7" y="12" width="1" height="1" fill="#fff"/><rect x="10" y="10" width="1" height="1" fill="#fff"/><rect x="12" y="10" width="1" height="1" fill="#fff"/><rect x="12" y="12" width="1" height="1" fill="#fff"/><rect x="10" y="12" width="1" height="1" fill="#fff"/></svg>