<svg id="Layer_1" data-name="Layer 1" xmlns="http://www.w3.org/2000/svg" viewBox="0 0 16 16"><title>incominginvoice</title><polygon points="13 15 3 15 3 1 11.5 1 13 2.5 13 15" fill="#fff"/><path d="M11.4,0H3A1,1,0,0,0,2,1V15a1,1,0,0,0,1,1h7L9,15H3V1h7V3a1,1,0,0,0,1,1h2V6h1V2.6ZM11,3V1l2,2H11Z" fill="#798288"/><rect x="4" y="4" width="4" height="1" fill="#667f94"/><rect x="4" y="2" width="4" height="1" fill="#7da7b5"/><rect x="4" y="6" width="6" height="1" fill="#adb1b2"/><rect x="4" y="8" width="6" height="1" fill="#adb1b2"/><rect x="4" y="10" width="6" height="1" fill="#adb1b2"/><rect x="1" y="9" width="7" height="1" transform="translate(-5 14) rotate(-90)" fill="#adb1b2"/><rect x="4.5" y="8.5" width="6" height="1" transform="translate(-1.5 16.5) rotate(-90)" fill="#adb1b2"/><rect x="4" y="12" width="4" height="1" fill="#adb1b2"/><polygon points="11 12 11 7 14 7 14 12 16 12 12.5 16 9 12 11 12" fill="#75ad15"/></svg>