<svg id="Layer_1" data-name="Layer 1" xmlns="http://www.w3.org/2000/svg" viewBox="0 0 32 32"><title>Fair_large2</title><path d="M7,0H27a1,1,0,0,1,1,1V27a1,1,0,0,1-1,1H7a0,0,0,0,1,0,0V0A0,0,0,0,1,7,0Z" fill="#6fa6d4"/><rect x="6" width="1" height="30" fill="#fff"/><path d="M4,30,6,0H5A2,2,0,0,0,3,2V30a2,2,0,0,0,2,2H27a0.94,0.94,0,0,0,1-1,0.91,0.91,0,0,0-1-1H6V0H6Z" fill="#6fa6d4"/><rect x="12" y="6" width="12" height="4" fill="#fff"/><path d="M6,28H27a0,0,0,0,1,0,0v2a0,0,0,0,1,0,0H6a1,1,0,0,1-1-1v0a1,1,0,0,1,1-1Z" fill="#fff"/><path d="M28,9.93l-7,9.25-3.62-3.77a2.28,2.28,0,0,0-1.7-.78,2.88,2.88,0,0,0-1.79.79,2.12,2.12,0,0,0,0,3.26l5.66,5.89a2.37,2.37,0,0,0,1.7.73h0.18a2.34,2.34,0,0,0,1.71-.94L28,17.9v-8Z" fill="#fff"/><path d="M21.26,24.3a1.35,1.35,0,0,1-1-.42L14.62,18a1.29,1.29,0,0,1,0-1.88,1.34,1.34,0,0,1,2,0l4.43,4.61L29.54,9.55a1.35,1.35,0,0,1,1.93-.24,1.47,1.47,0,0,1,.23,2L22.34,23.75a1.36,1.36,0,0,1-1,.55H21.26Z" fill="#d65633"/></svg>