<svg id="Layer_1" data-name="Layer 1" xmlns="http://www.w3.org/2000/svg" viewBox="0 0 32 32"><title>Fair_large</title><path d="M23,28H7V0H27a1,1,0,0,1,1,1V22Z" fill="#6fa6d4"/><rect x="6" width="1" height="30" fill="#fff"/><rect x="12" y="6" width="12" height="4" fill="#fff"/><path d="M21,30H6V0H5A2,2,0,0,0,3,2V30a2,2,0,0,0,2,2H21V30Z" fill="#6fa6d4"/><path d="M6,28H21a0,0,0,0,1,0,0v2a0,0,0,0,1,0,0H6a1,1,0,0,1-1-1v0A1,1,0,0,1,6,28Z" fill="#fff"/><path d="M28,16.46l-7,9.33-3-3.15a3,3,0,0,0-2.22-1,3.22,3.22,0,0,0-2.29,1,3,3,0,0,0,0,4.23L18.33,32H21l7-10V16.46Z" fill="#fff"/><path d="M21.26,32a1.35,1.35,0,0,1-1-.42l-5.66-5.89a1.29,1.29,0,0,1,0-1.88,1.34,1.34,0,0,1,2,0l4.43,4.61,8.41-11.17A1.35,1.35,0,0,1,31.47,17a1.47,1.47,0,0,1,.23,2L22.34,31.45a1.36,1.36,0,0,1-1,.55H21.26Z" fill="#d65633"/></svg>