<svg id="Layer_1" data-name="Layer 1" xmlns="http://www.w3.org/2000/svg" viewBox="0 0 32 32"><title>Bank_large</title><polygon points="0 10 16 0 32 10 0 10" fill="#9da2a5" fill-rule="evenodd"/><rect x="2" y="30" width="28" height="2" fill="#9da2a5"/><rect x="24" y="12" width="4" height="16" fill="#9da2a5"/><rect x="14" y="12" width="4" height="16" fill="#9da2a5"/><rect x="12" y="12" width="8" height="2" rx="1" ry="1" fill="#9da2a5"/><rect x="4" y="12" width="4" height="16" fill="#9da2a5"/><rect x="22" y="12" width="8" height="2" rx="1" ry="1" fill="#9da2a5"/><rect x="2" y="12" width="8" height="2" rx="1" ry="1" fill="#9da2a5"/><rect x="12" y="26" width="8" height="2" rx="1" ry="1" fill="#9da2a5"/><rect x="22" y="26" width="8" height="2" rx="1" ry="1" fill="#9da2a5"/><rect x="2" y="26" width="8" height="2" rx="1" ry="1" fill="#9da2a5"/><path d="M16,3l8,5H8l8-5m0-1.18L4.5,9h23L16,1.81h0Z" fill="#fff"/></svg>