<svg id="Layer_1" data-name="Layer 1" xmlns="http://www.w3.org/2000/svg" viewBox="0 0 16 16"><title>Bank_small</title><polygon points="0 5 8 0 16 5 0 5" fill="#9da2a5" fill-rule="evenodd"/><rect x="1" y="15" width="14" height="1" fill="#9da2a5"/><rect x="12" y="6" width="2" height="8" fill="#9da2a5"/><rect x="7" y="6" width="2" height="8" fill="#9da2a5"/><rect x="6" y="6" width="4" height="1" rx="0.5" ry="0.5" fill="#9da2a5"/><rect x="2" y="6" width="2" height="8" fill="#9da2a5"/><rect x="11" y="6" width="4" height="1" rx="0.5" ry="0.5" fill="#9da2a5"/><rect x="1" y="6" width="4" height="1" rx="0.5" ry="0.5" fill="#9da2a5"/><rect x="6" y="13" width="4" height="1" rx="0.5" ry="0.5" fill="#9da2a5"/><rect x="11" y="13" width="4" height="1" rx="0.5" ry="0.5" fill="#9da2a5"/><rect x="1" y="13" width="4" height="1" rx="0.5" ry="0.5" fill="#9da2a5"/></svg>