<svg id="Layer_1" data-name="Layer 1" xmlns="http://www.w3.org/2000/svg" viewBox="0 0 16 16"><title>universaltransferdocument</title><polygon points="15 13 1 13 1 3 13.5 3 15 4.5 15 13" fill="#fff"/><path d="M13,3l2,2H13V3M12,2V5a1,1,0,0,0,1,1h3V4.6L13.4,2H12Z" fill="#798288"/><path d="M15,5v8H1V3H12.94V2H1A1,1,0,0,0,0,3V13a1,1,0,0,0,1,1H15a1,1,0,0,0,1-1V5H15Z" fill="#798288"/><rect x="3" y="5" width="5" height="1" fill="#7da7b5"/><rect x="3" y="7" width="10" height="1" fill="#7da7b5"/><path d="M12,9H3v3H13V9H12ZM4,11V10H6v1H4Zm3,0V10H9v1H7Zm5,0H10V10h2v1Z" fill="#7da7b5"/></svg>