<svg id="Layer_1" data-name="Layer 1" xmlns="http://www.w3.org/2000/svg" viewBox="0 0 32 32"><title>freeapprovaltask_32</title><rect x="5" y="2" width="22" height="27" fill="#fff"/><rect x="23" width="2" height="4" rx="1" ry="1" fill="#9da2a5"/><rect x="7" width="2" height="4" rx="1" ry="1" fill="#9da2a5"/><path d="M14.57,29H5V7H27v6.61a10.44,10.44,0,0,1,2,1V2a1,1,0,0,0-1-1H26V3a2,2,0,0,1-4,0V1H10V3A2,2,0,0,1,6,3V1H4A1,1,0,0,0,3,2V30a1,1,0,0,0,1,1H16.16A10.53,10.53,0,0,1,14.57,29Z" fill="#9da2a5"/><path d="M17.23,20.4a7,7,0,0,1,12.42-.23l1.3-.75a8.49,8.49,0,0,0-15,.23Z" fill="#407fb9"/><path d="M23,30.47a7,7,0,0,1-6.29-8.64l-1.35-.78A8.49,8.49,0,0,0,23,32v-1.5Z" fill="#d7853c"/><path d="M31.56,20.8l-1.33.77A7,7,0,0,1,24,30.47V32A8.48,8.48,0,0,0,31.56,20.8Z" fill="#75ad15"/></svg>