<svg id="Layer_1" data-name="Layer 1" xmlns="http://www.w3.org/2000/svg" viewBox="0 0 16 16"><title>freeapprovaltask</title><polygon points="13 15 2 15 2 4 13 4 13 8 13 15" fill="#fff"/><path d="M6,15H2V4H13V5.5L14,6V1a1,1,0,0,0-1-1H12V1H11V0H4V1H3V0H2A1,1,0,0,0,1,1V15a1,1,0,0,0,1,1H7Z" fill="#798288"/><path d="M8,11.5A3.46,3.46,0,0,1,8.05,11h-1a4.43,4.43,0,0,0-.05.5,4.48,4.48,0,0,0,4,4.45v-1A3.49,3.49,0,0,1,8,11.5Z" fill="#d7853c"/><path d="M15,11.17a3.06,3.06,0,0,1,0,.33,3.49,3.49,0,0,1-3,3.45v1a4.48,4.48,0,0,0,4-4.45,4.1,4.1,0,0,0-.14-1Z" fill="#75ad15"/><path d="M14.46,9.67l0.81-.59a4.46,4.46,0,0,0-8,.92H8.35A3.47,3.47,0,0,1,14.46,9.67Z" fill="#407fb9"/></svg>