<svg id="Layer_1" data-name="Layer 1" xmlns="http://www.w3.org/2000/svg" viewBox="0 0 16 16"><title>projectdocument</title><polygon points="13 15 3 15 3 1 11.5 1 13 2.5 13 15" fill="#fff"/><path d="M11.4,0H3A1,1,0,0,0,2,1V15a1,1,0,0,0,1,1H4V15H3V1h7V3a1,1,0,0,0,1,1h2V6h1V2.6ZM11,3V1l2,2H11Z" fill="#798288"/><path d="M15,8v7H6V8h9m0-1H6A1,1,0,0,0,5,8v7a1,1,0,0,0,1,1h9a1,1,0,0,0,1-1V8a1,1,0,0,0-1-1h0Z" fill="#798288"/><rect x="6" y="8" width="9" height="7" fill="#fff"/><rect x="7" y="9" width="5" height="1" fill="#407fb9"/><rect x="8" y="11" width="5" height="1" fill="#d65633"/><rect x="9" y="13" width="5" height="1" fill="#75ad15"/></svg>