<svg id="Layer_1" data-name="Layer 1" xmlns="http://www.w3.org/2000/svg" viewBox="0 0 32 32"><title>Mailingliste_large2</title><rect x="5" y="2" width="22" height="27" fill="#fff"/><path d="M27,2V29H5V2H27m1-2H4A1,1,0,0,0,3,1V30a1,1,0,0,0,1,1H28a1,1,0,0,0,1-1V1a1,1,0,0,0-1-1Z" fill="#9da2a5"/><rect x="7" y="12" width="16" height="2" fill="#bfc2c4"/><rect x="7" y="16" width="17" height="2" fill="#bfc2c4"/><rect x="7" y="20" width="17" height="2" fill="#bfc2c4"/><rect x="7" y="12" width="2" height="14" fill="#bfc2c4"/><rect x="13" y="12" width="2" height="14" fill="#bfc2c4"/><rect x="23" y="12" width="2" height="13" fill="#bfc2c4"/><rect x="7" y="24" width="18" height="2" fill="#bfc2c4"/><rect x="11" y="7" width="10" height="2" fill="#bfc2c4"/></svg>