<svg id="Layer_1" data-name="Layer 1" xmlns="http://www.w3.org/2000/svg" viewBox="0 0 16 16"><title>Mailingliste_small2</title><rect x="2" y="1" width="11" height="14" fill="#fff"/><path d="M13,1V15H2V1H13m0-1H2A1,1,0,0,0,1,1V15a1,1,0,0,0,1,1H13a1,1,0,0,0,1-1V1a1,1,0,0,0-1-1Z" fill="#798288"/><rect x="3" y="10" width="9" height="1" fill="#adb1b2"/><rect y="9" width="7" height="1" transform="translate(-6 13) rotate(-90)" fill="#adb1b2"/><rect x="3.5" y="8.5" width="6" height="1" transform="translate(-2.5 15.5) rotate(-90)" fill="#adb1b2"/><rect x="8.5" y="8.5" width="6" height="1" transform="translate(2.5 20.5) rotate(-90)" fill="#adb1b2"/><rect x="3" y="12" width="9" height="1" fill="#adb1b2"/><rect x="3" y="8" width="9" height="1" fill="#adb1b2"/><rect x="3" y="6" width="9" height="1" fill="#adb1b2"/><rect x="5" y="3" width="5" height="1" fill="#adb1b2"/></svg>