<svg id="Layer_1" data-name="Layer 1" xmlns="http://www.w3.org/2000/svg" viewBox="0 0 16 16"><title>Action_MailRegister_small_0eeabb6310ce45debe1dc71ae75fa157</title><rect x="2" y="1" width="11" height="14" fill="#fff"/><rect x="5" y="6" width="7" height="1" fill="#adb1b2"/><rect x="3" y="6" width="1" height="1" fill="#adb1b2"/><rect x="3" y="8" width="1" height="1" fill="#adb1b2"/><rect x="3" y="10" width="1" height="1" fill="#adb1b2"/><path d="M15,9v6H7V9h8m0-1H7A1,1,0,0,0,6,9v6a1,1,0,0,0,1,1h8a1,1,0,0,0,1-1V9a1,1,0,0,0-1-1h0Z" fill="#cc9823"/><rect x="7" y="9" width="8" height="6" fill="#fff"/><path d="M11,13C8.21,13,6.17,9.9,6.08,9.77a0.5,0.5,0,0,1,.84-0.55S8.76,12,11,12s4.06-2.74,4.08-2.77a0.5,0.5,0,1,1,.84.54C15.84,9.9,13.84,13,11,13Z" fill="#cc9823"/><path d="M14.5,15a0.5,0.5,0,0,1-.35-0.15l-2-2a0.5,0.5,0,0,1,.71-0.71l2,2A0.5,0.5,0,0,1,14.5,15Z" fill="#cc9823"/><path d="M7.5,15a0.5,0.5,0,0,0,.35-0.15l2-2a0.5,0.5,0,0,0-.71-0.71l-2,2A0.5,0.5,0,0,0,7.5,15Z" fill="#cc9823"/><rect x="5" y="4" width="7" height="1" fill="#adb1b2"/><rect x="3" y="4" width="1" height="1" fill="#adb1b2"/><path d="M2,15V1H13V7h1V1a1,1,0,0,0-1-1H2A1,1,0,0,0,1,1V15a1,1,0,0,0,1,1H5V15H2Z" fill="#798288"/></svg>