<svg id="Layer_1" data-name="Layer 1" xmlns="http://www.w3.org/2000/svg" viewBox="0 0 32 32"><title>Action_PrintEnvelope_large_99c46152332a4f619100d4ae14ef11bc</title><path d="M30,8V24H2V8H30m1-2H1A1,1,0,0,0,0,7V25a1,1,0,0,0,1,1H31a1,1,0,0,0,1-1V7a1,1,0,0,0-1-1h0Z" fill="#9da2a5"/><rect x="2" y="8" width="28" height="16" fill="#fff"/><rect x="24" y="10" width="4" height="4" fill="#7da7b5"/><rect x="4" y="10" width="11" height="2" fill="#adb1b2"/><rect x="18" y="16" width="10" height="2" fill="#adb1b2"/><rect x="18" y="20" width="10" height="2" fill="#adb1b2"/><rect x="4" y="18" width="1" height="4" fill="#576672"/><rect x="6" y="18" width="1" height="4" fill="#576672"/><rect x="8" y="18" width="1" height="4" fill="#576672"/><rect x="10" y="18" width="1" height="4" fill="#576672"/><rect x="12" y="18" width="1" height="4" fill="#576672"/><rect x="14" y="18" width="1" height="4" fill="#576672"/></svg>