<svg id="Layer_1" data-name="Layer 1" xmlns="http://www.w3.org/2000/svg" viewBox="0 0 32 32"><title>tothelist_large</title><rect x="3" y="21" width="14" height="2" fill="#9da2a5"/><rect x="3" y="13" width="26" height="2" fill="#9da2a5"/><rect x="3" y="9" width="26" height="2" fill="#9da2a5"/><rect x="3" y="5" width="26" height="2" fill="#9da2a5"/><rect x="3" y="17" width="19" height="2" fill="#9da2a5"/><rect x="3" y="25" width="14" height="2" fill="#9da2a5"/><path d="M31.5,22H27V17.5a.5.5,0,0,0-.5-.5h-3a.5.5,0,0,0-.5.5V22H18.5a.5.5,0,0,0-.5.5v3a.5.5,0,0,0,.5.5H23v4.5a.5.5,0,0,0,.5.5h3a.5.5,0,0,0,.5-.5V26h4.5a.5.5,0,0,0,.5-.5v-3A.5.5,0,0,0,31.5,22Z" fill="#6fb205"/></svg>