<svg id="Layer_1" data-name="Layer 1" xmlns="http://www.w3.org/2000/svg" viewBox="0 0 32 32"><title>multipleRecipients_32</title><rect x="10" y="2" width="20" height="14" fill="#fff"/><path d="M20.08,11.07H20c-2.53,0-6.42-1.48-10.64-8.21l0-.06a1,1,0,0,1-.26-.38A1.09,1.09,0,0,1,9.54,1.1c.82-.4,1.3.37,1.51.7,3.73,6,6.93,7.25,9,7.27h.07c5.27,0,9-7.37,9-7.44a1,1,0,0,1,1.8.89C30.72,2.87,26.58,11.07,20.08,11.07Z" fill="#dfab26"/><path d="M29,16a1,1,0,0,1-.71-.29l-5-5a1,1,0,0,1,1.42-1.42l5,5a1,1,0,0,1,0,1.42A1,1,0,0,1,29,16Z" fill="#dfab26"/><rect x="2" y="15" width="20" height="14" fill="#fff"/><path d="M22,15V29H2V15H22m1-2H1a1,1,0,0,0-1,1V30a1,1,0,0,0,1,1H23a1,1,0,0,0,1-1V14a1,1,0,0,0-1-1Z" fill="#dfab26"/><path d="M11.93,24.07c-2.55,0-6.43-1.44-10.6-8.23l0-.05a1,1,0,0,1-.25-.37,1.09,1.09,0,0,1,.48-1.32c.83-.4,1.3.37,1.5.69,3.72,6.07,6.88,7.29,9,7.28,5.31-.06,9.08-7.37,9.12-7.45a1,1,0,1,1,1.78.9c-.17.35-4.35,8.47-10.88,8.55Z" fill="#dfab26"/><path d="M21,29a1,1,0,0,1-.78-.37l-4-5a1,1,0,0,1,.16-1.41,1,1,0,0,1,1.4.16l4,5a1,1,0,0,1-.16,1.4A1,1,0,0,1,21,29Z" fill="#dfab26"/><path d="M3,29a1,1,0,0,1-.71-.29,1,1,0,0,1,0-1.42l5-5a1,1,0,0,1,1.42,1.42l-5,5A1,1,0,0,1,3,29Z" fill="#dfab26"/><path d="M31,0H9A1,1,0,0,0,8,1V12h2V2H30V16H25v2h6a1,1,0,0,0,1-1V1A1,1,0,0,0,31,0Z" fill="#dfab26"/><path d="M15.41,12l1.3-1.29a1,1,0,0,0-1.42-1.42L12.59,12Z" fill="#dfab26"/></svg>