<svg id="Слой_1" data-name="Слой 1" xmlns="http://www.w3.org/2000/svg" viewBox="0 0 32 32"><title>Полномочия и зоны ответственности сотрудника - 32</title><rect x="2" y="5" width="28" height="21" fill="#fff"/><path d="M12,26H2V5H30V26h2V4a1,1,0,0,0-1-1H1A1,1,0,0,0,0,4V27a1,1,0,0,0,1,1H12Z" fill="#9da2a5"/><rect x="6" y="14" width="4" height="10" fill="#6fa6d4"/><rect x="11" y="8" width="4" height="16" fill="#f39500"/><path d="M17,24H16V11h4v1a3.34,3.34,0,0,0-3,3Z" fill="#6fb205"/><path d="M19.48,24a28.22,28.22,0,0,1-.92,7.1,22.46,22.46,0,0,0,7.75,0A37.22,37.22,0,0,1,25.42,24c.1-1.39.1-3.24-3.17-3.24C19.31,20.78,19.48,24,19.48,24Z" fill="#fff"/><path d="M22.47,21.78a2.76,2.76,0,0,1,2.06.63A2.06,2.06,0,0,1,25,24a26.4,26.4,0,0,0,.81,6.2,34.64,34.64,0,0,1-3.57.19,27.07,27.07,0,0,1-2.95-.16A26.59,26.59,0,0,0,20,24s0-.08,0-.11a1.92,1.92,0,0,1,.35-1.37,2.51,2.51,0,0,1,1.94-.69h.19m0-1h-.22C18.48,20.88,19,23,19,23a31.07,31.07,0,0,1-1,8,24.34,24.34,0,0,0,4.2.34A33.91,33.91,0,0,0,27,31S25.6,26.06,26,23c.1-1.36-.41-2.22-3.48-2.22Z" fill="#8d9599"/><path d="M18.44,17.06c.08,2.71.06,5.22,1.57,7.35a3.41,3.41,0,0,0,4.57.21s1.88-.83,2-7.58c0-1.39-1-3.75-4.25-3.67A3.79,3.79,0,0,0,18.44,17.06Z" fill="#fff"/><path d="M22.66,14.1a3.33,3.33,0,0,1,2.46.94A3,3,0,0,1,26,17c-.07,5.5-1.39,7-1.57,7.19,0,0,0,0-.08.06a3.28,3.28,0,0,1-1.92.69,2.73,2.73,0,0,1-1.74-.65c-1.49-1.7-1.62-5-1.69-7.18a3.81,3.81,0,0,1,3.53-3h.13m0-1H22.5c-3.78.11-4.38,2.4-4.43,3.89-.09,2.7.18,6.1,1.93,8a3.75,3.75,0,0,0,2.43.93A4.35,4.35,0,0,0,25,25s1.92-1.25,2-8a4.12,4.12,0,0,0-4.34-3.9Z" fill="#8d9599"/><path d="M18.07,17a14.32,14.32,0,0,0,.12,3.08c.58-1.94,1.45-3,2.92-3.05,1.25-.07,4.2.61,5.71-1.06a4.25,4.25,0,0,0-4.32-3A4.3,4.3,0,0,0,18.07,17Z" fill="#8d9599"/><path d="M32,32H13V29.5A1.76,1.76,0,0,1,14,28l4.93-2.07S20,29,22.5,29,26,26,26,26l5,2a2.16,2.16,0,0,1,1,1.5Z" fill="#407fb9"/></svg>