<svg id="Layer_1" data-name="Layer 1" xmlns="http://www.w3.org/2000/svg" viewBox="0 0 32 32"><title>Action_ShowEmployeeCertificates_large_7113d42b83344d28b29de48b39d62d05</title><rect x="2" y="5" width="28" height="21" fill="#fff"/><path d="M28.15,32a0.85,0.85,0,0,1-.6-0.25l-8.12-8.12a0.85,0.85,0,0,1,1.2-1.2l8.12,8.12A0.85,0.85,0,0,1,28.15,32Z" fill="#407fb9"/><circle cx="20" cy="23" r="5.5" fill="#fff"/><path d="M20,18.5A4.5,4.5,0,1,1,15.5,23,4.51,4.51,0,0,1,20,18.5M20,17a6,6,0,1,0,6,6,6,6,0,0,0-6-6h0Z" fill="#407fb9"/><polygon points="11 20 8.5 17.5 6 20 6 12 11 12 11 20" fill="#407fb9"/><circle cx="8.5" cy="11.5" r="4.5" fill="#dfaa1a"/><rect x="15" y="9" width="13" height="2" fill="#adb1b2"/><rect x="15" y="13" width="13" height="2" fill="#adb1b2"/><path d="M31,3H1A1,1,0,0,0,0,4V27a1,1,0,0,0,1,1H14.08A7.49,7.49,0,0,1,13,26H2V5H30V26H27l2,2h2a1,1,0,0,0,1-1V4A1,1,0,0,0,31,3Z" fill="#956939"/></svg>