<svg id="Слой_1" data-name="Слой 1" xmlns="http://www.w3.org/2000/svg" viewBox="0 0 32 32"><title>Полномочия и зоны ответственности сотрудника - 32</title><polygon points="26 26 8 26 8 2 22 2 26 6 26 26" fill="#fff"/><polygon points="20 30 2 30 2 6 16 6 20 10 20 30" fill="#fff"/><path d="M26,6H22V2M20,0V7a1,1,0,0,0,1,1h7Z" fill="#9da2a5"/><rect x="4" y="19" width="13" height="2" fill="#adb1b2"/><rect x="4" y="15" width="13" height="2" fill="#adb1b2"/><rect x="4" y="23" width="13" height="2" fill="#adb1b2"/><path d="M21.5,0H7A1,1,0,0,0,6,1V3H8V2H21l1,1h.19v.19L26,7v5.67A7.92,7.92,0,0,1,28,14V6.5Z" fill="#9da2a5"/><path d="M19.48,24a28.22,28.22,0,0,1-.92,7.1,22.46,22.46,0,0,0,7.75,0A37.22,37.22,0,0,1,25.42,24c.1-1.39.1-3.24-3.17-3.24C19.31,20.78,19.48,24,19.48,24Z" fill="#fff"/><path d="M22.47,21.78a2.76,2.76,0,0,1,2.06.63A2.06,2.06,0,0,1,25,24a26.4,26.4,0,0,0,.81,6.2,34.64,34.64,0,0,1-3.57.19,27.07,27.07,0,0,1-2.95-.16A26.59,26.59,0,0,0,20,24s0-.08,0-.11a1.92,1.92,0,0,1,.35-1.37,2.51,2.51,0,0,1,1.94-.69h.19m0-1h-.22C18.48,20.88,19,23,19,23a31.07,31.07,0,0,1-1,8,24.34,24.34,0,0,0,4.2.34A33.91,33.91,0,0,0,27,31S25.6,26.06,26,23c.1-1.36-.41-2.22-3.48-2.22Z" fill="#8d9599"/><path d="M18.44,17.06c.08,2.71.06,5.22,1.57,7.35a3.41,3.41,0,0,0,4.57.22s1.88-.84,2-7.59c0-1.39-1-3.75-4.25-3.66A3.78,3.78,0,0,0,18.44,17.06Z" fill="#fff"/><path d="M22.66,14.1a3.33,3.33,0,0,1,2.46.94A3,3,0,0,1,26,17c-.07,5.5-1.39,7-1.57,7.19,0,0,0,0-.08.06a3.28,3.28,0,0,1-1.92.69,2.73,2.73,0,0,1-1.74-.65c-1.49-1.7-1.62-5-1.69-7.18a3.81,3.81,0,0,1,3.53-3h.13m0-1H22.5c-3.78.11-4.38,2.4-4.43,3.89-.09,2.7.18,6.1,1.93,8a3.75,3.75,0,0,0,2.43.93A4.35,4.35,0,0,0,25,25s1.92-1.25,2-8a4.12,4.12,0,0,0-4.34-3.9Z" fill="#8d9599"/><path d="M18.07,17a14.32,14.32,0,0,0,.12,3.08c.58-1.94,1.45-3,2.92-3.05,1.25-.07,4.2.61,5.71-1.06a4.25,4.25,0,0,0-4.32-3A4.3,4.3,0,0,0,18.07,17Z" fill="#8d9599"/><path d="M32,32H13V29.5A1.77,1.77,0,0,1,14,28l4.93-2.07S20,29,22.5,29,26,26,26,26l5,2a2.16,2.16,0,0,1,1,1.5Z" fill="#407fb9"/><path d="M15.5,4H1A1,1,0,0,0,0,5V31a1,1,0,0,0,1,1H12V30H2V6H14v5a1,1,0,0,0,1,1h7V10.5ZM16,7l3,3H16Z" fill="#9da2a5"/></svg>