<svg id="Layer_1" data-name="Layer 1" xmlns="http://www.w3.org/2000/svg" viewBox="0 0 16 16"><title>Action_ShowEmployeeCertificates_small_7113d42b83344d28b29de48b39d62d05-01</title><rect x="1" y="2" width="14" height="11" fill="#fff"/><rect x="8" y="5" width="5" height="1" fill="#adb1b2"/><polygon points="6 10 4.5 9 3 10 3 6.25 6 6.25 6 10" fill="#407fb9"/><circle cx="4.5" cy="5.5" r="2.5" fill="#dfaa1a"/><path d="M15.5,16a0.5,0.5,0,0,1-.35-0.15l-2.5-2.5a0.5,0.5,0,0,1,.71-0.71l2.5,2.5A0.5,0.5,0,0,1,15.5,16Z" fill="#407fb9"/><path d="M10.5,8A2.5,2.5,0,1,1,8,10.5,2.5,2.5,0,0,1,10.5,8m0-1A3.5,3.5,0,1,0,14,10.5,3.5,3.5,0,0,0,10.5,7h0Z" fill="#407fb9"/><path d="M15,1H1A1,1,0,0,0,0,2V13a1,1,0,0,0,1,1H7a5.48,5.48,0,0,1-.66-1H1V2H15v9l1,1V2A1,1,0,0,0,15,1Z" fill="#956939"/></svg>