<svg id="Layer_1" data-name="Layer 1" xmlns="http://www.w3.org/2000/svg" viewBox="0 0 16 16"><title>Employee</title><path d="M5.12,8.8a22,22,0,0,1-.72,5.59,19.61,19.61,0,0,0,6.23.08,27.41,27.41,0,0,1-.79-5.64c0.07-1.11,0-2.53-2.54-2.6C5,6.16,5.12,8.8,5.12,8.8Z" fill="#fff"/><path d="M7.47,7a2.16,2.16,0,0,1,1.63.51,1.66,1.66,0,0,1,.34,1.23,21.73,21.73,0,0,0,.64,5,27.36,27.36,0,0,1-2.81.15,19.85,19.85,0,0,1-2.33-.13,21.31,21.31,0,0,0,.59-5,0.81,0.81,0,0,0,0-.09,1.58,1.58,0,0,1,.28-1.09A2,2,0,0,1,7.33,7H7.47m0-.8H7.3C4.32,6.31,4.77,8,4.77,8a25.06,25.06,0,0,1-.82,6.4,19,19,0,0,0,3.32.27,26.92,26.92,0,0,0,3.79-.27A21.89,21.89,0,0,1,10.23,8C10.3,6.91,9.9,6.22,7.47,6.22h0Z" fill="#8d9599"/><path d="M4.29,3.25c0.07,2.17.05,4.17,1.24,5.88a2.67,2.67,0,0,0,3.61.17s1.48-.67,1.55-6.07A3,3,0,0,0,7.34.3,3,3,0,0,0,4.29,3.25Z" fill="#fff"/><path d="M10.87,2.4l0,0A3.34,3.34,0,0,0,7.5,0,3.33,3.33,0,0,0,5.23.69,3.15,3.15,0,0,0,4,3.19C4,6,3.83,10,7.49,10c2.64,0,3.44-1.4,3.51-6.8A2.78,2.78,0,0,0,10.87,2.4ZM7.49,9C4.6,9,5,5.27,5,3.43A2.39,2.39,0,0,1,6.4,3c0.77,0,2.39.3,3.6-.1,0,0.1,0,.21,0,0.29C10.21,6.92,9.81,8.88,7.49,9Z" fill="#8d9599"/><path d="M15,16H0V13.2A1.42,1.42,0,0,1,.79,12l3.89-1.66S5.53,12.8,7.5,12.8s2.76-2.4,2.76-2.4L14.21,12A1.72,1.72,0,0,1,15,13.2V16Z" fill="#6fa6d4"/></svg>