<svg id="Слой_1" data-name="Слой 1" xmlns="http://www.w3.org/2000/svg" viewBox="0 0 16 16"><title>Полномочия и зоны ответственности сотрудника</title><polygon points="12 9 9 14 3 14 3 1 10 1 12 3 12 9" fill="#fff"/><polygon points="9 15 1 15 1 3 7 3 9 5 9 15" fill="#fff"/><path d="M12,5h1V3l-.5-.5h-1L12,3Z" fill="#798288"/><path d="M10,0H3A1,1,0,0,0,2,1H9V3a1,1,0,0,0,1,1h3V3Zm0,3V1.3L11.7,3Z" fill="#798288"/><path d="M9.84,11.74a12.85,12.85,0,0,1-.47,3.31,14.83,14.83,0,0,0,4.26,0,14.88,14.88,0,0,1-.49-3.3c0-.66-.21-1.58-1.76-1.54C9.59,10.26,9.84,11.74,9.84,11.74Z" fill="#fff"/><path d="M11.48,10.68c.47,0,.62.88.6,1.1a15.86,15.86,0,0,0,.43,2.93c-.41,0-.33.79-1,.79-.5,0-.66-.79-1.09-.84a12.7,12.7,0,0,0,.39-3c.2,0,.16-1,.6-1h.08m0-.47h-.1c-1.79,0-1.44.61-1.44.61a14.53,14.53,0,0,1-.49,3.79c.67.12,1.28.6,1.91.6a15.72,15.72,0,0,0,2.21-.15,12.81,12.81,0,0,1-.49-3.79c0-.65-.14-1.06-1.6-1.06Z" fill="#8d9599"/><path d="M9.58,8.45a5.14,5.14,0,0,0,.73,3.31,1.6,1.6,0,0,0,2.13.13s.83-.5,1-3.45a1.75,1.75,0,0,0-2-1.74A1.79,1.79,0,0,0,9.58,8.45Z" fill="#fff"/><path d="M11.59,6H11.5C9.66,6.11,9.06,7.19,9,7.93v.19C9,10.45,9.41,13,11.5,13S14,10.6,14,7.94C14,7.13,13.34,6,11.59,6Zm0,6c-.34,0-1.65.13-1.58-3.4A1.2,1.2,0,0,1,11,8a7.36,7.36,0,0,0,2,0C13.08,9.34,13.12,12.14,11.57,12Z" fill="#8d9599"/><path d="M16,16H7V14.5a.85.85,0,0,1,.47-.71L9.8,13s.52,2,1.7,2,1.62-2.09,1.62-2.09l2.41.88a1,1,0,0,1,.47.71Z" fill="#407fb9"/><path d="M7,2H1A1.06,1.06,0,0,0,0,3V15a1.06,1.06,0,0,0,1,1H6V15H1V3H6V5A1,1,0,0,0,7,6h3V5ZM7,5V3.3L8.7,5Z" fill="#798288"/></svg>