<svg width="16" height="16" viewBox="0 0 16 16" fill="none" xmlns="http://www.w3.org/2000/svg"><title>CreateMeeting_16</title><path d="M14 3H1V14H14V3Z" fill="white"/><path d="M14 0H12V1H11V0H4V1H3V0H1C0.734784 0 0.48043 0.105357 0.292893 0.292893C0.105357 0.48043 0 0.734784 0 1V14C0 14.2652 0.105357 14.5196 0.292893 14.7071C0.48043 14.8946 0.734784 15 1 15H14C14.2652 15 14.5196 14.8946 14.7071 14.7071C14.8946 14.5196 15 14.2652 15 14V1C15 0.734784 14.8946 0.48043 14.7071 0.292893C14.5196 0.105357 14.2652 0 14 0ZM14 14H1V3H14V14Z" fill="#407FB9"/><path fill-rule="evenodd" clip-rule="evenodd" d="M5 5H2V8H5V5ZM9 5H6V8H9V5ZM10 5H13V8H10V5ZM5 9H2V12H5V9ZM6 9H9V12H6V9Z" fill="#C4C4C4"/><path fill-rule="evenodd" clip-rule="evenodd" d="M12 10H10V12H12V10ZM13 9V13H9V9H13Z" fill="#D65633"/></svg>