<svg id="Layer_1" data-name="Layer 1" xmlns="http://www.w3.org/2000/svg" viewBox="0 0 16 16"><title>meeting4_16</title><path d="M14,0H1A1,1,0,0,0,0,1V14a1,1,0,0,0,1,1H5V14H1V3H14v9h1V1A1,1,0,0,0,14,0Z" fill="#798288"/><rect x="1" y="3" width="13" height="11" fill="#fff"/><circle cx="3.5" cy="1.5" r="0.5" fill="#fff"/><circle cx="11.5" cy="1.5" r="0.5" fill="#fff"/><rect x="2" y="5" width="3" height="3" rx="0.5" ry="0.5" fill="#d9dcdd"/><rect x="2" y="9" width="3" height="3" rx="0.5" ry="0.5" fill="#d9dcdd"/><rect x="6" y="5" width="3" height="3" rx="0.5" ry="0.5" fill="#d9dcdd"/><rect x="6" y="9" width="3" height="3" rx="0.5" ry="0.5" fill="#d9dcdd"/><path d="M12.92,14V6h0c-.0094-.01.0095.01,0,0a3.0491,3.0491,0,0,0-2.41-1h-.0375c-.0368,0-.0738.0007-.1112.0029C8.0773,5.1329,7.0021,6.5468,6.95,7.89l-.0033.1372-.0012.0669a9.231,9.231,0,0,0,.7436,4.2l-1.6166.5482a1.0012,1.0012,0,0,0-.1692.0755A1.9014,1.9014,0,0,0,5,14ZM10.4721,6H10.51c-.03,0-.0607-.0006-.0916.0012C10.4362,6,10.4542,6,10.4721,6Z" fill="#fff"/><path d="M8.8421,11.7392a12.8013,12.8013,0,0,1-.4737,3.3158,15.0436,15.0436,0,0,0,4.2632,0,15.2166,15.2166,0,0,1-.4959-3.3089c.0447-.6588-.2071-1.5774-1.7537-1.5348C8.5935,10.2605,8.8421,11.7392,8.8421,11.7392Z" fill="#fff"/><path d="M10.4843,10.6835c.462,0,.6129.8743.5981,1.093a16.0633,16.0633,0,0,0,.4245,2.9288c-.4026.0419-.3266.7947-1.0069.7947-.5007,0-.6578-.7922-1.088-.8428A12.7049,12.7049,0,0,0,9.8,11.6824c.2,0,.1559-.9855.595-.9976.03-.0008.06-.0013.0893-.0013m0-.4736c-.0335,0-.0674,0-.1023.0014-1.7885.0492-1.438.6042-1.438.6042a14.6525,14.6525,0,0,1-.4906,3.7918c.6645.1184,1.2747.6056,1.9062.6056a15.1644,15.1644,0,0,0,2.212-.1555,12.8026,12.8026,0,0,1-.4959-3.7918c.0437-.6439-.1362-1.0557-1.5914-1.0557Z" fill="#8d9599"/><path d="M8.5757,8.4507a5.15,5.15,0,0,0,.7331,3.3111,1.6084,1.6084,0,0,0,2.1358.1262s.8289-.4968.97-3.4472a1.758,1.758,0,0,0-2.0132-1.7369A1.793,1.793,0,0,0,8.5757,8.4507Z" fill="#fff"/><path d="M10.59,6c-.03,0-.0606-.0006-.0915.0012-1.84.1047-2.44,1.189-2.4693,1.9281-.0025.0642-.0023.1278-.0041.1918.0062,2.332.3867,4.9142,2.4734,4.8789,2.2189-.0375,2.4856-2.4,2.5015-5.0617C13.0072,7.125,12.3428,6,10.59,6Zm-.0216,6.0046c-.3408,0-1.6508.1248-1.5753-3.4046A1.202,1.202,0,0,1,10,8a7.3445,7.3445,0,0,0,2,0C12.0824,9.3412,12.1176,12.1412,10.5684,12.0046Z" fill="#8d9599"/><path d="M15,16H6V14.5a.8379.8379,0,0,1,.4737-.71L8.8014,13s.5144,2,1.6986,2c1.1991,0,1.6173-2.0927,1.6173-2.0927l2.409.8822A1.0168,1.0168,0,0,1,15,14.5Z" fill="#407fb9"/></svg>