<svg id="Layer_1" data-name="Layer 1" xmlns="http://www.w3.org/2000/svg" viewBox="0 0 32 32"><title>meeting4_32</title><rect x="3" y="2" width="27" height="26" fill="#fff"/><rect x="23" width="2" height="4" rx="1" ry="1" fill="#9da2a5"/><rect x="8" width="2" height="4" rx="1" ry="1" fill="#9da2a5"/><rect x="5" y="9" width="5" height="5" rx="0.5" ry="0.5" fill="#d9dcdd"/><rect x="11" y="9" width="5" height="5" rx="0.5" ry="0.5" fill="#d9dcdd"/><rect x="17" y="9" width="5" height="5" rx="0.5" ry="0.5" fill="#d9dcdd"/><rect x="23" y="9" width="5" height="5" rx="0.5" ry="0.5" fill="#d9dcdd"/><rect x="5" y="15" width="5" height="5" rx="0.5" ry="0.5" fill="#d9dcdd"/><rect x="11" y="15" width="5" height="5" rx="0.5" ry="0.5" fill="#d9dcdd"/><rect x="23" y="15" width="5" height="5" rx="0.5" ry="0.5" fill="#d9dcdd"/><rect x="5" y="21" width="5" height="5" rx="0.5" ry="0.5" fill="#d9dcdd"/><rect x="11" y="21" width="5" height="5" rx="0.5" ry="0.5" fill="#d9dcdd"/><rect x="23" y="21" width="5" height="5" rx="0.5" ry="0.5" fill="#d9dcdd"/><path d="M31,1H26V3a2,2,0,0,1-4,0V1H11V3A2,2,0,0,1,7,3V1H2A1.0029,1.0029,0,0,0,1,2V29a1.0029,1.0029,0,0,0,1,1H8V28H3V7H30V28H29v2h2a1.0029,1.0029,0,0,0,1-1V2A1.0029,1.0029,0,0,0,31,1Z" fill="#9da2a5"/><path d="M28.4037,28a4.43,4.43,0,0,0-.794-.7927,1.0026,1.0026,0,0,0-.2383-.1358l-4.4185-1.7674A14.0871,14.0871,0,0,1,22.9,23.8949,18.8989,18.8989,0,0,0,24,17.0173a4.5973,4.5973,0,0,0-.498-2.0235c-.0123-.0257-.03-.0592-.0482-.0926-.0794-.1516-.1509-.2755-.2288-.3988A5.1614,5.1614,0,0,0,18.725,12c-.08,0-.1605.0016-.2423.0048l-.0772-.0006a5.3468,5.3468,0,0,0-2.9309.7986,4.5232,4.5232,0,0,0-2.4,4.11,15.3451,15.3451,0,0,0,.0744,2.9566,12.4926,12.4926,0,0,0,.9177,3.9028c0,.416-.0263.9072-.0775,1.4673L9.6127,27.0781a.99.99,0,0,0-.103.05A3.1248,3.1248,0,0,0,8.5311,28ZM18.4055,13.0042c.0312,0,.0628,0,.0945.0007Q18.614,13,18.725,13c.0862,0,.1647.0121.2482.0165-.1551-.008-.3087-.0187-.4732-.0116-.1714-.0026-.3246.0137-.4828.0249C18.1461,13.0206,18.2679,13.0042,18.4055,13.0042Z" fill="#fff"/><path d="M15.4792,24a28.0937,28.0937,0,0,1-.9185,7.0969,22.4287,22.4287,0,0,0,7.7464-.0006,36.9285,36.9285,0,0,1-.8824-7.0788c.0944-1.3907.0924-3.2348-3.1737-3.2381C15.3125,20.7764,15.4792,24,15.4792,24Z" fill="#fff"/><path d="M18.4669,21.7764a2.7568,2.7568,0,0,1,2.0606.6323,2.0578,2.0578,0,0,1,.4279,1.5432,26.8272,26.8272,0,0,0,.8139,6.1977,35.0986,35.0986,0,0,1-3.5656.1887,25.4822,25.4822,0,0,1-2.955-.16,26.2984,26.2984,0,0,0,.75-6.2312,1.0168,1.0168,0,0,0-.0121-.1074A1.9482,1.9482,0,0,1,16.34,22.475a2.5046,2.5046,0,0,1,1.9381-.696c.0642-.0018.1267-.0026.1885-.0026m0-1c-.0708,0-.1424.001-.216.003C14.4752,20.8833,15.0357,23,15.0357,23A30.9328,30.9328,0,0,1,14,31.0049a24.3592,24.3592,0,0,0,4.2037.3334A34.539,34.539,0,0,0,23,31.0049S21.6,26.0573,21.9529,23c.0923-1.3594-.4139-2.2236-3.486-2.2236Z" fill="#8d9599"/><path d="M14.4375,17.0625c.0833,2.7083.0674,5.2183,1.5749,7.3457a3.4092,3.4092,0,0,0,4.5709.2168s1.875-.8333,1.9584-7.5833c.0172-1.3939-.9851-3.7566-4.25-3.6667A3.7852,3.7852,0,0,0,14.4375,17.0625Z" fill="#fff"/><path d="M18.6642,14.1027a3.3076,3.3076,0,0,1,2.4533.9364A3.0115,3.0115,0,0,1,22,16.9926c-.0679,5.5007-1.3889,7.006-1.5717,7.1877-.0382.02-.0236.0182-.0749.0618a3.36,3.36,0,0,1-1.9276.6888,2.7368,2.7368,0,0,1-1.7353-.6537c-1.4908-1.698-1.6183-4.9533-1.6871-7.1756a3.7878,3.7878,0,0,1,3.5239-2.997l.1368-.0019m0-1c-.0543,0-.1088.0007-.1642.0022-3.7757.104-4.3753,2.3941-4.4271,3.8819-.0942,2.7009.1771,6.1015,1.9271,8.0181a3.76,3.76,0,0,0,2.4259.926A4.3726,4.3726,0,0,0,21,25.0049s1.9167-1.25,2-8a4.121,4.121,0,0,0-4.3358-3.9022Z" fill="#8d9599"/><path d="M14.0729,16.9868a13.8066,13.8066,0,0,0,.1169,3.0809c.5782-1.9375,1.4508-2.969,2.92-3.0471,1.2482-.0664,4.2031.6093,5.709-1.0594A4.2315,4.2315,0,0,0,18.5,13.0049,4.2921,4.2921,0,0,0,14.0729,16.9868Z" fill="#8d9599"/><path d="M28,32H9V29.5A1.769,1.769,0,0,1,10,28l4.9251-2.0691S16,29,18.5,29c2.5314,0,3.5-3,3.5-3l5,2a2.147,2.147,0,0,1,1,1.5Z" fill="#407fb9"/></svg>