<svg id="Layer_1" data-name="Layer 1" xmlns="http://www.w3.org/2000/svg" viewBox="0 0 32 32"><title>meetingdocument_32</title><polygon points="26 29 6 29 6 2 22 2 26 6 26 29" fill="#fff"/><path d="M26,6H22V2M20,0V7a1.0029,1.0029,0,0,0,1,1h7Z" fill="#9da2a5"/><path d="M15,29H6V2H21l5,5v9h2V6.5L21.5,0H5A1.0029,1.0029,0,0,0,4,1V30a1.0029,1.0029,0,0,0,1,1H15Z" fill="#9da2a5"/><rect x="17" y="20" width="13" height="11" fill="#fff"/><path d="M30,18V31H17V18H30m0-1H17a1,1,0,0,0-1,1V31a1,1,0,0,0,1,1H30a1,1,0,0,0,1-1V18a1,1,0,0,0-1-1Z" fill="#798288"/><rect x="17" y="18" width="13" height="2" fill="#798288"/><circle cx="19.5" cy="18.5" r="0.5" fill="#fff"/><circle cx="27.5" cy="18.5" r="0.5" fill="#fff"/><rect x="18" y="22" width="3" height="3" rx="0.5" ry="0.5" fill="#e0ad5c"/><rect x="26" y="22" width="3" height="3" rx="0.5" ry="0.5" fill="#e0ad5c"/><rect x="18" y="26" width="3" height="3" rx="0.5" ry="0.5" fill="#d65633"/><rect x="22" y="22" width="3" height="3" rx="0.5" ry="0.5" fill="#e0ad5c"/><rect x="26" y="26" width="3" height="3" rx="0.5" ry="0.5" fill="#adb1b2"/><rect x="22" y="26" width="3" height="3" rx="0.5" ry="0.5" fill="#e0ad5c"/><rect x="8" y="23" width="7" height="2" fill="#adb1b2"/><rect x="8" y="19" width="7" height="2" fill="#adb1b2"/><rect x="8" y="15" width="7" height="2" fill="#adb1b2"/><rect x="8" y="11" width="15" height="2" fill="#adb1b2"/></svg>