<svg id="Layer_1" data-name="Layer 1" xmlns="http://www.w3.org/2000/svg" viewBox="0 0 16 16"><title>meetingdocument_16</title><polygon points="13 15 3 15 3 1 11.5 1 13 2.5 13 15" fill="#fff"/><rect x="8" y="7" width="7" height="6" fill="#fff"/><path d="M15,6v.5a.5.5,0,0,1-1,0V6H9v.5a.5.5,0,0,1-1,0V6H7.5a.5022.5022,0,0,0-.5.5C7.0235,6.2883,7,8,7,8h9V6.5s-.0392-.4961-.5-.5C15.3882,6.0039,15,6,15,6Z" fill="#798288"/><path d="M11.4,0H3A1,1,0,0,0,2,1V15a1,1,0,0,0,1,1H13a.9794.9794,0,0,0,1-1H3V1h7V3a1.0029,1.0029,0,0,0,1,1h2V5h1V2.6ZM11,3V1l2,2Z" fill="#798288"/><path d="M15,8v5H8V8H7v5.5a.5.5,0,0,0,.5.5h8a.5.5,0,0,0,.5-.5V8Z" fill="#798288"/><rect x="9" y="9" width="1" height="1" fill="#e0ad5c"/><rect x="11" y="9" width="1" height="1" fill="#e0ad5c"/><rect x="13" y="9" width="1" height="1" fill="#e0ad5c"/><rect x="9" y="11" width="1" height="1" fill="#d65633"/><rect x="11" y="11" width="1" height="1" fill="#e0ad5c"/><rect x="13" y="11" width="1" height="1" fill="#e0ad5c"/></svg>