<svg id="Layer_1" data-name="Layer 1" xmlns="http://www.w3.org/2000/svg" viewBox="0 0 16 16"><title>ActionItems_large_b85ffba96c17491988944f625be25812</title><rect x="4" y="2" width="9" height="10" fill="#fff"/><rect x="1" y="5" width="9" height="10" fill="#fff"/><path d="M7,15H1V5h9V6h1V4a1,1,0,0,0-1-1H9V4H8V3H3V4H2V3H1A1,1,0,0,0,0,4V15a1,1,0,0,0,1,1H8Z" fill="#798288"/><circle cx="11.5" cy="11.5" r="4" fill="#fff"/><path d="M11.5,8A3.5,3.5,0,1,1,8,11.5,3.5,3.5,0,0,1,11.5,8m0-1A4.5,4.5,0,1,0,16,11.5,4.5,4.5,0,0,0,11.5,7h0Z" fill="#956939"/><path d="M13,0H12V1H11V0H6V1H5V0H4A1,1,0,0,0,3,1V2H13V6h1V1A1,1,0,0,0,13,0Z" fill="#798288"/><path d="M13,12H11.5a0.5,0.5,0,0,1-.5-0.5v-2a0.5,0.5,0,0,1,1,0V11h1A0.5,0.5,0,0,1,13,12Z" fill="#adb1b2"/></svg>