<svg id="Layer_1" data-name="Layer 1" xmlns="http://www.w3.org/2000/svg" viewBox="0 0 16 16"><title>action_sendactualizationtask_small_7e7e72437b224a22baaee66f0b489e53</title><circle cx="14.5" cy="4.5" r="1.5" fill="#798288"/><circle cx="7.5" cy="13.5" r="1.5" fill="#798288"/><circle cx="1.5" cy="4.5" r="1.5" fill="#798288"/><polygon points="10 3 13 3 13 0 10 3" fill="#407fb9"/><polygon points="13 14 10 14 10 11 13 14" fill="#75ad15"/><polygon points="4 9 2 7 0 9 4 9" fill="#d7853c"/><path d="M13.8,7A5.8,5.8,0,0,1,11,12v1.36A7,7,0,0,0,15,7H13.8Z" fill="#75ad15"/><path d="M5,11.95A5.82,5.82,0,0,1,2.56,9H1.29A7,7,0,0,0,5,13.31V11.95Z" fill="#d7853c"/><path d="M8,0A7,7,0,0,0,3.05,2.05L3.91,2.91a5.76,5.76,0,0,1,7-.91h2A7,7,0,0,0,8,0Z" fill="#407fb9"/></svg>