<svg id="Layer_1" data-name="Layer 1" xmlns="http://www.w3.org/2000/svg" viewBox="0 0 32 32"><title>reviewassignment_32</title><circle cx="16" cy="16" r="14" fill="#fff"/><path d="M16,31A15,15,0,1,1,31,16,15,15,0,0,1,16,31ZM16,3A13,13,0,1,0,29,16,13,13,0,0,0,16,3Z" fill="#798288"/><path d="M14.26,24.3a1.35,1.35,0,0,1-1-.42L7.62,18a1.29,1.29,0,0,1,0-1.88,1.34,1.34,0,0,1,2,0l4.43,4.61L22.54,9.55a1.35,1.35,0,0,1,1.93-.24,1.47,1.47,0,0,1,.23,2L15.34,23.75a1.36,1.36,0,0,1-1,.55H14.26Z" fill="#75ad15"/></svg>