<svg id="Layer_1" data-name="Layer 1" xmlns="http://www.w3.org/2000/svg" viewBox="0 0 32 32"><title>OnReview_large_0d61168d1ae54570a42ebdd5f3b07b02</title><polygon points="26 29 6 29 6 2 22 2 26 6 26 29" fill="#fff"/><path d="M26,6H22V2M20,0V7a1,1,0,0,0,1,1h7Z" fill="#9da2a5"/><polygon points="23 17 8 17 8 15 24 15 24 16 23 17" fill="#adb1b2"/><rect x="8" y="11" width="16" height="2" fill="#adb1b2"/><polygon points="19 21 8 21 8 19 21 19 19 21" fill="#adb1b2"/><rect x="8" y="23" width="9" height="2" fill="#adb1b2"/><path d="M18.68,23.48L17.88,27l3.31-1,10.5-10.45a0.91,0.91,0,0,0,0-1.29c-1.91-1.91-1.12-1-1.22-1.15a0.89,0.89,0,0,0-1.29,0Z" fill="#407fb9"/><path d="M27.88,20.45a0.5,0.5,0,0,1-.35-0.15l-3-3a0.5,0.5,0,0,1,.71-0.71l3,3A0.5,0.5,0,0,1,27.88,20.45Z" fill="#fff"/><path d="M27.49,22.92a0.35,0.35,0,0,1-.25-0.6l3.95-3.95c0.05-.06.35-0.48-0.26-1.12a7.56,7.56,0,0,1-.72-0.69,0.35,0.35,0,0,1,.51-0.48,7.64,7.64,0,0,0,.66.64,1.5,1.5,0,0,1,.31,2.13l-4,4A0.35,0.35,0,0,1,27.49,22.92Z" fill="#407fb9"/><path d="M26,26v3H6V2H21l5,5v7l2-2V6.5L21.5,0H5A1,1,0,0,0,4,1V30a1,1,0,0,0,1,1H27a1,1,0,0,0,1-1V24Z" fill="#9da2a5"/></svg>