<svg id="Layer_1" data-name="Layer 1" xmlns="http://www.w3.org/2000/svg" viewBox="0 0 16 16"><title>OnReview_small_0d61168d1ae54570a42ebdd5f3b07b02-01</title><polygon points="13 15 3 15 3 1 11.5 1 13 2.5 13 15" fill="#fff"/><polygon points="10 7 4 7 4 6 11 6 10 7" fill="#adb1b2"/><polygon points="8 9 4 9 4 8 9 8 8 9" fill="#adb1b2"/><polygon points="6 11 4 11 4 10 7 10 6 11" fill="#adb1b2"/><path d="M11,1l2,2H11V1M10,0V3a1,1,0,0,0,1,1h3V2.6L11.4,0H10Z" fill="#798288"/><path d="M7.45,12.1L7,14l1.88-.52,6-5.94a0.51,0.51,0,0,0,0-.73c-1.08-1.08-.64-0.59-0.69-0.65a0.51,0.51,0,0,0-.73,0Z" fill="#407fb9"/><path d="M13.12,9.36L11.75,8c-0.13-.13-0.3-0.26-0.17-0.39s0.22-.07.36,0.07L13.31,9l0,0Z" fill="#fff"/><path d="M12.35,12a0.35,0.35,0,0,1-.25-0.6l2.15-2.15a0.45,0.45,0,0,0,0-.61,3.93,3.93,0,0,1-.41-0.39,0.35,0.35,0,0,1,.51-0.48,4.26,4.26,0,0,0,.35.34,1.16,1.16,0,0,1,.07,1.61L12.6,11.91A0.35,0.35,0,0,1,12.35,12Z" fill="#407fb9"/><path d="M13,14v1H3V1h7.94V0H3A1,1,0,0,0,2,1V15a1,1,0,0,0,1,1H13a1,1,0,0,0,1-1V13Z" fill="#798288"/><rect x="13" y="3" width="1" height="2" fill="#798288"/></svg>