<svg id="Layer_1" data-name="Layer 1" xmlns="http://www.w3.org/2000/svg" viewBox="0 0 32 32"><title>large</title><rect x="5" y="2" width="22" height="27" fill="#fff"/><rect x="23" width="2" height="4" rx="1" ry="1" fill="#9da2a5"/><rect x="7" width="2" height="4" rx="1" ry="1" fill="#9da2a5"/><path d="M17,29H5V7H27v6h2V2a1,1,0,0,0-1-1H26V3a2,2,0,0,1-4,0V1H10V3A2,2,0,0,1,6,3V1H4A1,1,0,0,0,3,2V30a1,1,0,0,0,1,1H17Z" fill="#9da2a5"/><polygon points="31 31 19 31 19 15 28 15 31 18 31 31" fill="#fff"/><path d="M28,15.41,30.59,18H28V15.41M27,14v4a1,1,0,0,0,1,1h4V18l-4-4Z" fill="#798288"/><path d="M30.5,18.5l.5.5V31H19V15h8l.5.5v-1L27,14H19a1,1,0,0,0-1,1V31a1,1,0,0,0,1,1H31a1,1,0,0,0,1-1V19l-.5-.5Z" fill="#798288"/><rect x="20" y="24" width="10" height="1" fill="#adb1b2"/><rect x="26" y="21" width="4" height="1" fill="#adb1b2"/><rect x="20" y="26" width="10" height="3" fill="#b8efc0"/><rect x="20" y="27" width="10" height="1" fill="#1d9c5c"/><rect x="20" y="20" width="6" height="3" fill="#fcde81"/><rect x="20" y="21" width="6" height="1" fill="#dfaa1a"/></svg>