<svg id="Layer_1" data-name="Layer 1" xmlns="http://www.w3.org/2000/svg" viewBox="0 0 16 16"><title>list_small</title><path d="M4.1192,8.8a22.0314,22.0314,0,0,1-.7154,5.5875,19.6142,19.6142,0,0,0,6.2315.0784A27.4028,27.4028,0,0,1,8.8438,8.825c.0745-1.1126.0373-2.5341-2.54-2.6015C3.9605,6.1622,4.1192,8.8,4.1192,8.8Z" fill="#fff"/><path d="M8,13.8106c-.5175.0342-1.1023.06-1.7339.06a19.85,19.85,0,0,1-2.3329-.1284A21.308,21.308,0,0,0,4.525,8.7573a.8285.8285,0,0,0-.01-.086,1.5757,1.5757,0,0,1,.28-1.0913,1.9635,1.9635,0,0,1,1.53-.5568c.0506-.0014.1-.0021.1488-.0021A2.2937,2.2937,0,0,1,8,7.4467V6.3653a6.6759,6.6759,0,0,0-1.5261-.1442c-.0559,0-.1124.0008-.1705.0024C3.3226,6.3066,3.7651,8,3.7651,8a25.062,25.062,0,0,1-.8177,6.4039,18.9827,18.9827,0,0,0,3.3187.2667c.63,0,1.2134-.0251,1.7339-.0585Z" fill="#8d9599"/><path d="M3.2928,3.25c.0658,2.1667.0531,4.1746,1.2433,5.8766A2.6659,2.6659,0,0,0,8.1447,9.3s1.48-.6667,1.5461-6.0667A2.9685,2.9685,0,0,0,6.3355.3,3.0141,3.0141,0,0,0,3.2928,3.25Z" fill="#fff"/><path d="M15.5625,8.5a5.8412,5.8412,0,0,0-3.0731.9543A5.79,5.79,0,0,0,9.4375,8.5v6.125a6.247,6.247,0,0,1,2.734.745.5072.5072,0,0,0,.6782,0,6.1878,6.1878,0,0,1,2.7128-.745Z" fill="#fff"/><path d="M15,9.1156v4.9816a7.6668,7.6668,0,0,0-2.4879.8238A7.6966,7.6966,0,0,0,10,14.0956V9.1186a4.7484,4.7484,0,0,1,1.89.7737,1,1,0,0,0,1.1954,0A4.7626,4.7626,0,0,1,15,9.1156M16,8a6.6755,6.6755,0,0,0-3.5121,1.0906A6.6167,6.6167,0,0,0,9,8v7a7.1387,7.1387,0,0,1,3.1246.8515A.6462.6462,0,0,0,12.5092,16a.67.67,0,0,0,.39-.1485A7.07,7.07,0,0,1,16,15V8Z" fill="#576672"/><polygon points="13 9.521 12 9.521 12 15 13 15 13 9.521 13 9.521" fill="#576672"/><path d="M8,8.4574A2.4327,2.4327,0,0,1,6.4893,9c-2.89,0-2.462-3.73-2.4875-5.5679A2.3863,2.3863,0,0,1,5.4022,3c.7675-.0414,2.3894.3,3.6-.097.0006.1043-.0012.2058-.0022.2911A13.2224,13.2224,0,0,1,8.8133,7h.9036A23.3535,23.3535,0,0,0,10,3.204C9.9568,2.3647,9.8958.0208,6.5,0A3.5789,3.5789,0,0,0,4.2335.69,3.1529,3.1529,0,0,0,3,3.19C3.0209,6,2.8334,10.0013,6.4893,10A3.9833,3.9833,0,0,0,8,9.7523Z" fill="#8d9599"/><path d="M8,12.2438A2.3471,2.3471,0,0,1,6.5,12.8c-1.9737,0-2.8223-2.4553-2.8223-2.4553L.789,11.8A1.7233,1.7233,0,0,0,0,13.2V16H8Z" fill="#407fb9"/></svg>