<svg id="Layer_1" data-name="Layer 1" xmlns="http://www.w3.org/2000/svg" viewBox="0 0 32 32"><title>list_large</title><path d="M17,20.4784a21.9629,21.9629,0,0,1-.2812-4.1434c.134-2.0027.0671-4.5614-4.5727-4.6827C7.9289,11.542,8.2147,16.29,8.2147,16.29a52.7039,52.7039,0,0,1-.41,5.71L15,26l2,.3109Z" fill="#fff"/><path d="M31.0743,16.5126A12.3591,12.3591,0,0,0,25,18.5285a12.3591,12.3591,0,0,0-6.0743-2.0159.4675.4675,0,0,0-.4976.4686v12.21a.4413.4413,0,0,0,.427.4423,13.8507,13.8507,0,0,1,5.2061,1.4987c.9351.5072.9425.5035,1.8776,0a13.8507,13.8507,0,0,1,5.2061-1.4987.4413.4413,0,0,0,.427-.4423v-12.21A.4675.4675,0,0,0,31.0743,16.5126Z" fill="#fff"/><path d="M30,18.2364v9.9444a16.0514,16.0514,0,0,0-4.948,1.6545L25,29.8634l-.0421-.0228A16.0876,16.0876,0,0,0,20,28.1809V18.2365a9.8827,9.8827,0,0,1,3.828,1.5554L25,20.64l1.172-.8476A9.8852,9.8852,0,0,1,30,18.2364m1.5052-2.2136-.0352.0012A13.1653,13.1653,0,0,0,25,18.1713a13.1656,13.1656,0,0,0-6.47-2.1473l-.0352-.0012a.4984.4984,0,0,0-.4948.5V29.5289A.47.47,0,0,0,18.4548,30,14.7519,14.7519,0,0,1,24,31.5964,2.3593,2.3593,0,0,0,24.9986,32,2.3834,2.3834,0,0,0,26,31.5964,14.7519,14.7519,0,0,1,31.5452,30,.47.47,0,0,0,32,29.5289V16.5232a.4984.4984,0,0,0-.4948-.5Z" fill="#576672"/><polygon points="26 19 24 19 24 30 26 30 26 19 26 19" fill="#576672"/><path d="M17,12.9159c-.585-.8039-1.887-1.268-4.5471-1.268-.1006,0-.2023.0015-.3068.0044-5.3655.15-4.569,3.1977-4.569,3.1977a26.3491,26.3491,0,0,1-.2978,5.3672l1.5961,1.2414a26.9532,26.9532,0,0,0,.33-4.9462,1.4874,1.4874,0,0,0-.0172-.1547,2.9012,2.9012,0,0,1,.2422-2.2638,3.5344,3.5344,0,0,1,2.7542-1.0022c.0912-.0025.18-.0037.2678-.0037a3.8847,3.8847,0,0,1,2.9283.9105c.5832.6325.2605,1.5487.216,2.2134a39.1187,39.1187,0,0,0,1.1567,8.9248c-.8093.0853-1.7219.1812-2.8464.2357l1.7373,1.3512c.4986-.0362.9528-.0765,1.3552-.1165Z" fill="#8d9599"/><path d="M17,20.2059a5.6706,5.6706,0,0,1-4.5372,2.4347c-3.5973,0-4.9525-3.5157-4.9525-3.5157L1.4211,22.05A3.0948,3.0948,0,0,0,0,24.21V28H17Z" fill="#407fb9"/><path d="M6.727,6.3c.1184,3.9.0957,7.5143,2.238,10.5778,3.6119,3,6.4955.3122,6.4955.3122s2.6645-1.2,2.7829-10.92c.0245-2.0072-1.4-5.4094-6.0395-5.28A5.4254,5.4254,0,0,0,6.727,6.3Z" fill="#fff"/><path d="M12.5.0071C10.5954-.0228,6.5.5833,6,5.741,6.0376,10.8,5.9,18.0023,12.4807,18,17.225,18,18.8816,15.4871,19,5.7671,19,2.125,15.9265-.1439,12.5.0071ZM12.4807,16C7.2785,16,8.0458,9.4859,8,6.1777A4.3048,4.3048,0,0,1,10.5239,5.4c1.3815-.0745,4.2971.5392,6.4761-.1746.0011.1877.0019.37,0,.5239C17.3751,12.45,16.6625,15.7923,12.4807,16Z" fill="#8d9599"/></svg>