<svg id="Layer_1" data-name="Layer 1" xmlns="http://www.w3.org/2000/svg" viewBox="0 0 16 16"><title>Action_ChangeDocumentType_small_d8e9e6e070b245aa8f6e98649a13c87a</title><rect x="9.5" y="9.5" width="6" height="6" rx="0.5" ry="0.5" fill="#fff"/><path d="M15,10v5H10V10h5m0.5-1h-6a0.5,0.5,0,0,0-.5.5v6a0.5,0.5,0,0,0,.5.5h6a0.5,0.5,0,0,0,.5-0.5v-6A0.5,0.5,0,0,0,15.5,9h0Z" fill="#798288"/><path d="M7.09,7.5H0.91A0.42,0.42,0,0,1,.5,7.07L3.79,0.67a0.21,0.21,0,0,1,.41,0L7.5,7.07A0.42,0.42,0,0,1,7.09,7.5Z" fill="#fff"/><path d="M4,1.92L6.61,7H1.39L4,1.92M4,0a0.34,0.34,0,0,0-.24.19L0,7.51A0.48,0.48,0,0,0,.47,8H7.53A0.48,0.48,0,0,0,8,7.51L4.24,0.19A0.3,0.3,0,0,0,4,0H4Z" fill="#798288"/><path d="M12,3H10V5h2V8h2V5A2,2,0,0,0,12,3Z" fill="#75ad15"/><polygon points="11 6 8 4 11 2 11 6" fill="#75ad15"/><path d="M4,14H6V12H4V9H2v3A2,2,0,0,0,4,14Z" fill="#407fb9"/><polygon points="5 11 8 13 5 15 5 11" fill="#407fb9"/></svg>