<svg width="32" height="32" viewBox="0 0 32 32" fill="none" xmlns="http://www.w3.org/2000/svg">
<path d="M26 29H6V2H22L26 6V29Z" fill="white"/>
<path d="M26 6H22V2L26 6ZM20 0V7C20 7.26522 20.1054 7.51957 20.2929 7.70711C20.4804 7.89464 20.7348 8 21 8H28L20 0Z" fill="#9DA2A5"/>
<path d="M24 13H8V15H24V13Z" fill="#BFC2C4"/>
<path d="M16 5H8V7H16V5Z" fill="#7DA7B5"/>
<path d="M24 17H8V19H22L24 17Z" fill="#BFC2C4"/>
<path d="M19 21H8V23H19V21Z" fill="#BFC2C4"/>
<path d="M29 23V31H23V23H20L26 17L32 23H29Z" fill="#407FB9"/>
<path d="M16 9H8V11H16V9Z" fill="#667F94"/>
<path d="M10 13H8V27H10V13Z" fill="#BFC2C4"/>
<path d="M14 13H12V27H14V13Z" fill="#BFC2C4"/>
<path d="M20 21L19 22V24H20V25H18V24V13H20V21Z" fill="#BFC2C4"/>
<path d="M24 13H22V17H24V13Z" fill="#BFC2C4"/>
<path d="M22 25H8V27H22V25Z" fill="#BFC2C4"/>
<path d="M22 29H6V2H21L26 7V15L28 17V6.5L21.5 0H5C4.73478 0 4.48043 0.105357 4.29289 0.292893C4.10536 0.48043 4 0.734784 4 1V30C4 30.2652 4.10536 30.5196 4.29289 30.7071C4.48043 30.8946 4.73478 31 5 31H22V29Z" fill="#9DA2A5"/>
</svg>
