<svg id="Layer_1" data-name="Layer 1" xmlns="http://www.w3.org/2000/svg" viewBox="0 0 16 16"><title>small2</title><rect x="2" y="4" width="11" height="11" fill="#fff"/><polygon points="15 15 8 15 8 6 13.5 6 15 7.5 15 15" fill="#fff"/><rect x="9" y="8" width="2" height="3" fill="#f4cd7d"/><rect x="9" y="12" width="5" height="2" fill="#9cdba4"/><path d="M15,8v7H8V6h4.94V5H8A1,1,0,0,0,7,6v9a1,1,0,0,0,1,1h7a1,1,0,0,0,1-1V8Z" fill="#798288"/><path d="M13,6l2,2H13V6M12,5V8a1,1,0,0,0,1,1h3V7.6L13.4,5Z" fill="#798288"/><path d="M6,15H2V4H14V1a1,1,0,0,0-1-1H12V1H11V0H4V1H3V0H2A1,1,0,0,0,1,1V15a1,1,0,0,0,1,1H6Z" fill="#798288"/><rect x="10" y="10" width="4" height="1" fill="#f4cd7d"/></svg>