<svg id="Layer_1" data-name="Layer 1" xmlns="http://www.w3.org/2000/svg" viewBox="0 0 32 32"><title>GroupIconExchange_large_accdd7aaea5249c3b63467738e98d1a9</title><rect x="5" y="2" width="22" height="27" fill="#fff"/><path d="M28,1H26V3a2,2,0,0,1-4,0V1H10V3A2,2,0,0,1,6,3V1H4A1,1,0,0,0,3,2V30a1,1,0,0,0,1,1H28a1,1,0,0,0,1-1V2A1,1,0,0,0,28,1ZM27,29H5V7H27V29Z" fill="#9da2a5"/><rect x="23" width="2" height="4" rx="1" ry="1" fill="#9da2a5"/><rect x="7" width="2" height="4" rx="1" ry="1" fill="#9da2a5"/><polygon points="25 20 19 20 19 18 14 22 19 26 19 24 25 24 25 20" fill="#53b7b1"/><polygon points="18 14 13 10 13 12 7 12 7 16 13 16 13 18 18 14" fill="#407fb9"/></svg>