<svg id="Layer_1" data-name="Layer 1" xmlns="http://www.w3.org/2000/svg" viewBox="0 0 16 16"><title>add_user_small</title><path d="M5.12,8.8a22.21,22.21,0,0,1-.72,5.59,19.69,19.69,0,0,0,6.24.08,27.38,27.38,0,0,1-.8-5.65c.08-1.11,0-2.53-2.54-2.6C5,6.16,5.12,8.8,5.12,8.8Z" fill="#fff"/><path d="M7.47,7a2.15,2.15,0,0,1,1.63.51,1.69,1.69,0,0,1,.34,1.23,21.88,21.88,0,0,0,.64,5,27.56,27.56,0,0,1-2.81.15,19,19,0,0,1-2.34-.13,20.72,20.72,0,0,0,.59-5V8.67a1.53,1.53,0,0,1,.27-1.09A2,2,0,0,1,7.33,7h.14m0-.8H7.3C4.32,6.31,4.77,8,4.77,8A25.27,25.27,0,0,1,4,14.4a18.89,18.89,0,0,0,3.32.27,26.54,26.54,0,0,0,3.78-.27A21.86,21.86,0,0,1,10.23,8c.07-1.09-.33-1.78-2.76-1.78Z" fill="#8d9599"/><path d="M4.29,3.25c.07,2.17.06,4.17,1.25,5.88a2.66,2.66,0,0,0,3.6.17s1.48-.67,1.55-6.07A3,3,0,0,0,7.34.3,3,3,0,0,0,4.29,3.25Z" fill="#fff"/><path d="M7.5,0A3.6,3.6,0,0,0,5.23.69,3.15,3.15,0,0,0,4,3.19C4,6,3.83,10,7.49,10c2.64,0,3.44-1.4,3.51-6.8C11,2.36,10.9,0,7.5,0Zm0,9C4.6,9,5,5.27,5,3.43A2.38,2.38,0,0,1,6.4,3c.77,0,2.39.3,3.6-.1v.29C10.21,6.92,9.81,8.88,7.49,9Z" fill="#8d9599"/><path d="M12,11.1l-1.74-.7S9.5,12.8,7.5,12.8s-2.82-2.46-2.82-2.46L.79,12A1.41,1.41,0,0,0,0,13.2V16H12Z" fill="#6fa6d4"/><rect x="9" y="6" width="2" height="10" fill="#fff"/><rect x="6" y="9" width="6" height="5" fill="#fff"/><polygon points="16 10 13 10 13 7 10 7 10 10 7 10 7 13 10 13 10 16 13 16 13 13 16 13 16 10" fill="#75ad15"/></svg>